<?xml version="1.0" encoding="UTF-8"?> <svg xmlns="http://www.w3.org/2000/svg" id="Artwork" viewBox="0 0 157 100"><defs><style>.cls-1{fill:#d89d29;}.cls-2{fill:#010101;}.cls-3{fill:#fff;}.cls-4{fill:#fec465;}.cls-5{fill:#ffe5b8;}.cls-6{fill:#ffe3b7;}.cls-7{fill:#231f20;}</style></defs><title>CCFAustraliaLogo</title><path class="cls-1" d="M36.11,90.43h2.6l3.77,9.3H39.6l-.66-1.9H35.76l-.68,1.9H32.34Zm1.26,2.83c-.18.59-.36,1.13-.58,1.73l-.32.89h1.79L38,95c-.22-.63-.39-1.15-.57-1.73Z"></path><path class="cls-1" d="M52.87,95.33a5,5,0,0,1-.78,3.07,4.32,4.32,0,0,1-3.52,1.47A4.27,4.27,0,0,1,45,98.36a5.12,5.12,0,0,1-.74-3v-4.9h2.65v4.74A3,3,0,0,0,47.27,97a1.59,1.59,0,0,0,1.35.61A1.56,1.56,0,0,0,49.89,97a3,3,0,0,0,.44-1.87V90.43h2.54Z"></path><path class="cls-1" d="M55.52,96.73a7.19,7.19,0,0,0,3.11,1c.53,0,.92-.2.92-.67,0-.67-.75-.67-1.93-1.08-1.41-.49-2.39-1.18-2.39-2.68,0-1.81,1.4-3,3.48-3a7.45,7.45,0,0,1,3,.68v2.44a7,7,0,0,0-3-.92c-.49,0-.82.15-.82.56,0,.61.72.61,1.85,1,1.45.51,2.46,1.23,2.46,2.8,0,1.87-1.47,3-3.63,3a7.69,7.69,0,0,1-3.08-.66Z"></path><path class="cls-1" d="M66.85,92.67h-3V90.43h8.56v2.24h-3v7.06H66.85Z"></path><path class="cls-1" d="M74.54,90.43h3.25a5.86,5.86,0,0,1,2.61.47,2.52,2.52,0,0,1,1.5,2.42,2.56,2.56,0,0,1-1.71,2.51l2.47,3.9h-3L77.6,96.2h-.41v3.53H74.54Zm3.3,4a2,2,0,0,0,1-.19.77.77,0,0,0,.37-.73.8.8,0,0,0-.45-.78,2.7,2.7,0,0,0-1.13-.15h-.48v1.85Z"></path><path class="cls-1" d="M87.94,90.43h2.61l3.76,9.3H91.43l-.65-1.9H87.59l-.68,1.9H84.18Zm1.26,2.83c-.18.59-.36,1.13-.58,1.73l-.32.89h1.8L89.79,95c-.22-.63-.39-1.15-.57-1.73Z"></path><path class="cls-1" d="M96.35,90.43H99V97.5h3.88v2.23H96.35Z"></path><path class="cls-1" d="M105.08,90.43h2.64v9.3h-2.64Z"></path><path class="cls-1" d="M113.53,90.43h2.6l3.77,9.3H117l-.66-1.9h-3.18l-.68,1.9h-2.74Zm1.25,2.83c-.18.59-.36,1.13-.57,1.73l-.32.89h1.79l-.31-.89c-.21-.63-.38-1.15-.56-1.73Z"></path><g id="Full_Color" data-name="Full Color"><g id="Conservation_Fund" data-name="Conservation Fund"><path class="cls-2" d="M4.81,76.12a5.33,5.33,0,0,1,2.6.65V78.1a4.48,4.48,0,0,0-2.61-.86,3.64,3.64,0,1,0,.1,7.27,4.15,4.15,0,0,0,2.65-.93v1.34a5.23,5.23,0,0,1-2.72.72,4.76,4.76,0,1,1,0-9.52Z"></path><path class="cls-2" d="M14.2,76.12a4.76,4.76,0,1,1-4.69,4.76A4.64,4.64,0,0,1,14.2,76.12Zm0,8.39a3.64,3.64,0,1,0-3.48-3.63A3.48,3.48,0,0,0,14.2,84.51Z"></path><path class="cls-2" d="M21.21,85.5V76.26h1.14l3.87,5.13c.54.7,1.07,1.43,1.59,2.15h0c0-.8,0-1.73,0-2.63V76.26H29V85.5H27.84L24,80.37c-.53-.7-1.07-1.43-1.59-2.16l0,0c0,.8,0,1.73,0,2.62V85.5Z"></path><path class="cls-2" d="M31.75,83.58a4.76,4.76,0,0,0,2.79,1c1.1,0,1.88-.5,1.88-1.51,0-1.18-1.09-1.39-2.3-1.73s-2.57-.91-2.57-2.59,1.19-2.58,3-2.58a5.22,5.22,0,0,1,2.65.69v1.28a4.89,4.89,0,0,0-2.68-.86c-1,0-1.76.45-1.76,1.39,0,1.15,1.08,1.34,2.2,1.66,1.34.38,2.66.92,2.66,2.68s-1.23,2.68-3.08,2.68a5.72,5.72,0,0,1-2.78-.73Z"></path><path class="cls-2" d="M40.24,76.26h5.34v1.1H41.46v2.8h3.61v1.06H41.46V84.4h4.23v1.1H40.24Z"></path><path class="cls-2" d="M48.42,76.26h2.5a5.22,5.22,0,0,1,2.58.46,2.37,2.37,0,0,1,1.28,2.16A2.44,2.44,0,0,1,53.59,81a2.89,2.89,0,0,1-1.06.39l3,4.07H54l-2.82-4H49.63v4H48.42Zm2.78,4.29A2.94,2.94,0,0,0,53,80.13,1.37,1.37,0,0,0,53.56,79a1.42,1.42,0,0,0-.75-1.32,4.2,4.2,0,0,0-2-.3h-1.2v3.19Z"></path><path class="cls-2" d="M56.46,76.26h1.3l2,5.18c.3.8.6,1.59.9,2.45h0c.3-.84.61-1.66.93-2.49l2-5.14H64.8L61.26,85.5H60Z"></path><path class="cls-2" d="M68.49,76.26h1.16l3.82,9.24h-1.3l-1-2.58H67l-1,2.58H64.69Zm-1.09,5.6h3.31L70,80c-.29-.74-.6-1.53-.88-2.29h0c-.28.76-.58,1.54-.9,2.33Z"></path><path class="cls-2" d="M76.66,77.36h-3.1v-1.1H81v1.1h-3.1V85.5H76.66Z"></path><path class="cls-2" d="M83.28,76.26h1.21V85.5H83.28Z"></path><path class="cls-2" d="M91.75,76.12a4.76,4.76,0,1,1-4.69,4.76A4.65,4.65,0,0,1,91.75,76.12Zm0,8.39a3.64,3.64,0,1,0-3.48-3.63A3.49,3.49,0,0,0,91.75,84.51Z"></path><path class="cls-2" d="M98.94,85.5V76.26h1.15L104,81.39c.54.7,1.07,1.43,1.6,2.15h0c0-.8,0-1.73,0-2.63V76.26h1.17V85.5h-1.15l-3.86-5.13c-.54-.7-1.08-1.43-1.6-2.16l0,0c0,.8,0,1.73,0,2.62V85.5Z"></path><path class="cls-2" d="M115.25,76.26h5.46v1.1h-4.25v3h3.74V81.4h-3.74v4.1h-1.21Z"></path><path class="cls-2" d="M123.18,81.15V76.26h1.22V81a5.21,5.21,0,0,0,.35,2.38,2.29,2.29,0,0,0,2.2,1.11,2.24,2.24,0,0,0,2.17-1.11,5.08,5.08,0,0,0,.34-2.33V76.26h1.17V81A5.67,5.67,0,0,1,130,84.2a3.59,3.59,0,0,1-3.12,1.44,3.53,3.53,0,0,1-3.1-1.44A5.56,5.56,0,0,1,123.18,81.15Z"></path><path class="cls-2" d="M133.54,85.5V76.26h1.15l3.87,5.13c.53.7,1.07,1.43,1.59,2.15h0c0-.8,0-1.73,0-2.63V76.26h1.18V85.5h-1.15l-3.87-5.13c-.53-.7-1.07-1.43-1.59-2.16l0,0c0,.8,0,1.73,0,2.62V85.5Z"></path><path class="cls-2" d="M144.34,76.26h2.54a6.21,6.21,0,0,1,3.26.75,4.37,4.37,0,0,1,2.07,3.83,4.44,4.44,0,0,1-1.84,3.72,6.35,6.35,0,0,1-3.8.94h-2.23Zm2.42,8.14a5,5,0,0,0,2.75-.61,3.56,3.56,0,0,0,0-5.79,4.89,4.89,0,0,0-2.78-.64h-1.19v7Z"></path></g><g id="Cheetah"><path class="cls-1" d="M0,42.52Q0,34.83,2.66,31.7t9-3.12q6.3,0,9,3.12t2.65,10.82v3H13.88V40.38a6.51,6.51,0,0,0-.49-3.21,2,2,0,0,0-1.78-.68,2.14,2.14,0,0,0-1.79.62,5.73,5.73,0,0,0-.48,3V59.72a5.7,5.7,0,0,0,.5,3,2.09,2.09,0,0,0,1.77.64,2.05,2.05,0,0,0,1.79-.68,6.86,6.86,0,0,0,.48-3.27V52.23h9.34v5.05q0,7.69-2.65,10.82t-9,3.12q-6.3,0-8.95-3.12T0,57.28Z"></path><path class="cls-1" d="M25.24,28.55H33.8V36a6.27,6.27,0,0,1,2.25-1.47,8.06,8.06,0,0,1,2.88-.49c2.69,0,4.6.81,5.75,2.42S46.4,41,46.4,45.07V70.68H37.77V44.33a7,7,0,0,0-.42-3.13,1.7,1.7,0,0,0-1.55-.64,1.65,1.65,0,0,0-1.52.65,7.08,7.08,0,0,0-.42,3.12V70.68H25.24Z"></path><path class="cls-1" d="M69.74,54H57v6.87A6.82,6.82,0,0,0,57.41,64a1.92,1.92,0,0,0,1.64.62,1.88,1.88,0,0,0,1.63-.65,6.48,6.48,0,0,0,.46-3.12V56h8.6v3.6c0,4.32-.81,7.33-2.43,9.05s-4.37,2.57-8.26,2.57-6.63-.86-8.25-2.57-2.43-4.73-2.43-9.05V45.55q0-6.42,2.45-9t8.23-2.6c3.89,0,6.63.86,8.26,2.59s2.43,4.73,2.43,9ZM57,44.57v2.76h4.17V44.57a7.42,7.42,0,0,0-.44-3.34,2.35,2.35,0,0,0-3.29,0A7.57,7.57,0,0,0,57,44.57Z"></path><path class="cls-1" d="M93.15,54H80.38v6.87A6.63,6.63,0,0,0,80.83,64a1.9,1.9,0,0,0,1.64.62,1.88,1.88,0,0,0,1.63-.65,6.61,6.61,0,0,0,.46-3.12V56h8.59v3.6c0,4.32-.81,7.33-2.43,9.05s-4.37,2.57-8.25,2.57-6.63-.86-8.25-2.57-2.43-4.73-2.43-9.05V45.55q0-6.42,2.44-9t8.24-2.6q5.82,0,8.25,2.59t2.43,9ZM80.38,44.57v2.76h4.18V44.57a7.37,7.37,0,0,0-.45-3.34,2.34,2.34,0,0,0-3.28,0A7.37,7.37,0,0,0,80.38,44.57Z"></path><path class="cls-1" d="M94.07,34.47h2.14V30.22l8.6-1.67v5.92H107v6.65h-2.15v20.8c0,1,.14,1.64.43,1.88a2.78,2.78,0,0,0,1.72.37v6.24a9.33,9.33,0,0,1-2.15.7,14.3,14.3,0,0,1-2.45.25q-3.47,0-4.8-1.5t-1.35-6.49V41.12H94.07Z"></path><path class="cls-1" d="M108.72,45.37V43c0-3.07.82-5.34,2.46-6.83s4.15-2.23,7.51-2.23q5.4,0,7.86,2.47C128.2,38,129,40.69,129,44.33V70.68h-8.18v-2a7.49,7.49,0,0,1-2.48,1.92,7.19,7.19,0,0,1-3,.63,6.77,6.77,0,0,1-5.42-2.19,9.41,9.41,0,0,1-1.89-6.3V57.43A9.68,9.68,0,0,1,110,50.94q2-2.28,10.43-5.81V43.91A5.64,5.64,0,0,0,120,41.2a1.67,1.67,0,0,0-1.52-.64,1.72,1.72,0,0,0-1.54.64,5.61,5.61,0,0,0-.43,2.71v1.46Zm11.67,6.33a8.79,8.79,0,0,0-3,2.63,8.23,8.23,0,0,0-.9,4.38v2.11A7,7,0,0,0,116.9,64a1.7,1.7,0,0,0,1.55.64A1.67,1.67,0,0,0,120,64a7,7,0,0,0,.42-3.13Z"></path><path class="cls-1" d="M131.1,28.55h8.57V36a6.19,6.19,0,0,1,2.25-1.47,8.06,8.06,0,0,1,2.88-.49c2.69,0,4.6.81,5.75,2.42s1.71,4.48,1.71,8.6V70.68h-8.62V44.33a7,7,0,0,0-.42-3.13,1.71,1.71,0,0,0-1.55-.64,1.64,1.64,0,0,0-1.52.65,7.08,7.08,0,0,0-.42,3.12V70.68H131.1Z"></path></g><g id="Cheetah-2" data-name="Cheetah"><g id="Fill"><path id="Tail_White" data-name="Tail White" class="cls-3" d="M39.36,13.73c-2.51,1-8,2.45-12.77,4.5a1.56,1.56,0,0,1,.71,1,1.59,1.59,0,0,0,1.81,1.33C31,20,39.44,17.44,39.68,16.65A6.59,6.59,0,0,0,39.36,13.73Z"></path><g id="Body"><path class="cls-4" d="M156.65,29.57a3.71,3.71,0,0,0-2.22-1.26c-1.39-.17-1.87.4-3.49,0-1.08-.27-4.73-.3-7.9-1.8,2.68.19,3-.09,4.89.4,1.94-.63,3.78.31,4.65-.38,1.41-1.1,1.37-1.58.33-2.17a16,16,0,0,0-2.3-1.17c-1.82-.61-3.36,0-6.53-.7a35.91,35.91,0,0,0-8-.87c-1.34-.28-4.86-1.46-6.94-1.15a5.26,5.26,0,0,0-.08-2.65,7.37,7.37,0,0,0,1.14-4.47C130,12,132,11.92,132.53,11.94c.29,1.3,3.59,1.64,6.38,2.34,2,.71,3.7,1.07,4.23-.26,0,0,1.8,0,2.54-2.5.28-1-1.3-2.15-1.52-3-.39-1.45.07-2.75-.35-3.4-1.07-1.65-2.42-1.91-5.47-3.22A24,24,0,0,0,130.1.29a41.54,41.54,0,0,0-8.54.25c-1,.09-2.86.15-6.06.48-5,.51-6.28,3.88-9.24,5.17C102.94,7.65,102,7.7,96.1,7.55s-8.63.77-12.67-.24A48.34,48.34,0,0,0,78.7,6c-3.29-.41-5.13-1.46-7.7-2.46a16.6,16.6,0,0,0-6.75-1.45c-7.74,0-9.08,4.68-24.72,11.55-.6.26-1.86,1.06-1.05,1.5.25.14-1,1.48.29,1.78a39.35,39.35,0,0,0-9.5,3.42c-2.47.38-2.1,1.12-1.8,1.59.8,1.32,3,1.55,5.44,1.16,1.33-.21,2.78-.74,4.05-1.06,2.62-.66,4.18-.66,4.24,0-4,1.49-5.62,3.14-10.65,4.46-1.4.37-1.21,1.74-1.7,2.31-1.64,1.93-2.93,4.11-1.4,4.29,1,.12,1-1,5.46-2.94a76.51,76.51,0,0,1,7.29-2.38c7-2.21,17.73-.55,22.07-1.07s5.56-5.28,15.18-6.62c20.48,6,41.33,3.71,41.33,3.71s-.47,2.31.8,2.8,3.75-.21,3.75-.21a1.55,1.55,0,0,0,.9,1.37c.73.27,3.14.07,4.13.43,5.17,1.87,9.66.59,14.28,1.91,1.76.5,3,2.36,5.36.72C151.93,33.69,158.06,31.07,156.65,29.57ZM58.8,10.33a17.88,17.88,0,0,0-1.88,5.79,15.72,15.72,0,0,1-4.32,1.36,16.51,16.51,0,0,1-4.93-.41c0-1.07-.23-1.3-.23-1.3A35.08,35.08,0,0,0,57.84,10C58.17,9.75,58.9,10.15,58.8,10.33Z"></path></g><path id="Belly" class="cls-5" d="M118.38,16.42c-.81-.79-2.7.34-3.22,2.34-.7-.45-1.64.19-1.73,1.15a3.26,3.26,0,0,1-1.66-.76s-.79,2.2-2.42,2.2a1.4,1.4,0,0,0-1.94-.53c-.36.31-1,.86-1.57.27a5.65,5.65,0,0,1-4.93,1.54c-.53.41-1.76.46-3.93-.13a1.18,1.18,0,0,0-1.59.73c-.27-.58-2.76-.88-5.88-2.45a1.64,1.64,0,0,0-1.92.33,17.86,17.86,0,0,0-10-1.13c-.17,0-.21.5.42.5,1.73,0,2.35,1,3.47.59.58.88,4.42.46,5.25,2.06,1.15-.55,3.06,1.9,4.45,1.93a11.54,11.54,0,0,1,4.44.84,7.84,7.84,0,0,0,5.82.13c2,1,4.72-1.33,6.59,0a25.56,25.56,0,0,0,4.35-1.15c1-.2,3.28.13,4.21-.7.33.48,1.12.25,1.35-.26,0,0,.7.37.84-.26C119.39,21,119.15,19.39,118.38,16.42Z"></path><path id="Chin" class="cls-6" d="M143.12,14c-.35,1-1.45,1.37-5,.09-2.76-.48-5.23-.95-5.62-2.17-.52-1.62,2.08-4.48,3.33-2.63.67.92,2.49,0,2.49,1.8C140.87,10.77,143.12,14,143.12,14Z"></path><path id="Ear" class="cls-6" d="M135.65,2.5c.11.33-.41.86-.76.77.26,1.05-.27,1.73-.77,1.79-1,.14-2.67-1.73-2.26-3.19C132.26.61,135.15,1,135.65,2.5Z"></path></g><g id="Spots_and_strokes" data-name="Spots and strokes"><g id="Spots"><path class="cls-2" d="M35.58,24.6a37.13,37.13,0,0,1-5.13,1.77c-.25.07-.22.35.11.27a27,27,0,0,0,5-1.76C35.85,24.74,35.75,24.52,35.58,24.6Z"></path><path class="cls-2" d="M40.77,14c.27,0,.44-.24.3-.3s.27-1-.5-.6C40.05,13.35,40.2,13.94,40.77,14Z"></path><path class="cls-2" d="M37.32,16.85a1.2,1.2,0,0,0-.7-1.31c0-.51-.42-1.19-.78-.65s-.65,1.06-.11,1.64c-.37.32-.52,1.22,0,1.26A1.51,1.51,0,0,0,37.32,16.85Z"></path><path class="cls-2" d="M43.34,12.86a.45.45,0,0,0,.5-.48c0-.53-.18-.65-.43-.63s-.89.43-.86.56A1.46,1.46,0,0,0,43.34,12.86Z"></path><path class="cls-2" d="M44.62,12.45a1,1,0,0,0,0,1.07c.58.55-.15,1,.58,1.22.19,0,.63.07.92-.61a1,1,0,0,0-.26-1.33c0-.43-.51-.73-.72-.79C44.63,11.88,44.28,12.23,44.62,12.45Z"></path><path class="cls-2" d="M45.68,10.94c-.4.49.13.75.4.94.59.42,1.24-.41.71-.69.34-.21.17-.58-.14-.81.19-.11,0-.29-.15-.21a5.92,5.92,0,0,0-1,.58C45.44,10.83,45.5,11,45.68,10.94Z"></path><path class="cls-2" d="M48.21,11.14c-.09.24-.17.87,0,1.06s.57.07.81-.08c1.13.19,1-1.63.53-1.67.05-.43-.61-.49-.88-.42-.51.13-.45.52-.69.93C47.86,11.14,48,11.27,48.21,11.14Z"></path><path class="cls-2" d="M56,9.39c-.12-.38-.77-.4-1.11-.34s-.56.64-.08.82c-.16.59.68,1.49,1.14,1,.11-.13.19-.78.05-.9C56.34,10,56.42,9.42,56,9.39Z"></path><path class="cls-2" d="M57.68,9a.33.33,0,0,0,.47,0c.1-.17.06-.91-.21-.83S57.61,8.91,57.68,9Z"></path><path class="cls-2" d="M49.89,9.14c-.29.91.75.87,1.15.48s.63-1.27-.53-1.38a1.26,1.26,0,0,0-.92.32C49.46,8.68,49.32,9.14,49.89,9.14Z"></path><path class="cls-2" d="M51.89,9.62a.63.63,0,0,0,.87.58c.07.43,1.25-.09.79-.51,0-.22-.13-.41-.44-.42.38-.35.23-.71-.07-.74a1.46,1.46,0,0,0-1.37.87C51.61,9.53,51.8,9.69,51.89,9.62Z"></path><path class="cls-2" d="M53.56,7.21A.43.43,0,0,0,53.24,7c.17-.47-.6-.53-.8,0-.12.33,0,.92.17,1C53,8.21,53.86,7.75,53.56,7.21Z"></path><path class="cls-2" d="M58.55,6.22c-.13.16-.22.66.1.65-.37.55.54.78.87.44a.52.52,0,0,0-.36-.91C59.14,5.93,58.74,6,58.55,6.22Z"></path><path class="cls-2" d="M47.18,13.75l.14,0a1.63,1.63,0,0,0-.25.63.62.62,0,0,0,1,.44c-.48.44.33.82.88.38.38-.3.21-1.05-.64-1a.36.36,0,0,0-.36-.56c.15-.28-.23-.63-.87-.17C46.89,13.56,47,13.79,47.18,13.75Z"></path><path class="cls-2" d="M54.52,5.9c-.4.71-.1,1,.31,1.13-.61.93,1.19,1.54,1.72.68.42-.68-.12-1-.67-1.17,0-.42-.3-.81-.8-.66.16-.31-.08-.54-.55-.36C54.36,5.59,54.25,5.93,54.52,5.9Z"></path><path class="cls-2" d="M57.32,6.45c.4,0,1.13-.46.53-.78.18-.14.1-.55-.48-.64.26-.2.16-.54-.39-.54-.17,0-.26.17-.14.24l.08,0a.62.62,0,0,0-.2.84C56.37,6,56.57,6.44,57.32,6.45Z"></path><path class="cls-2" d="M58.07,4.18a.37.37,0,0,0,.34.56.39.39,0,0,0,.41.24c.21-.05.25-.36.24-.74,0-.53-.32-1.11-.77-.91C57.64,3.61,57.83,4.13,58.07,4.18Z"></path><path class="cls-2" d="M60.29,4.34c-.18.55.24.91.74.56s.74-1.26,0-1.44c.32-.32.07-1-.59-.69a.26.26,0,0,0-.06.3C59.81,3.43,59.89,4.29,60.29,4.34Z"></path><path class="cls-2" d="M62.26,2.88c.54.33,1.36-.12.71-.62-.46-.34-1-.09-1,.64C61.94,3.08,62.26,3,62.26,2.88Z"></path><path class="cls-2" d="M62.77,3.7c-.15.4.69.49,1,.36a.39.39,0,0,0,.08-.56C63.62,3.31,62.91,3.33,62.77,3.7Z"></path><path class="cls-2" d="M62.94,5.37c.25-.17-.2-.73-.58-.73-.23,0-.29.86-.16,1S62.82,5.46,62.94,5.37Z"></path><path class="cls-2" d="M64.66,4a.58.58,0,0,0,.64-.22c.11-.12.24-.6-.09-.75a.55.55,0,0,0,.36-1,1.47,1.47,0,0,0-1-.05c-.22.07-.38.36,0,.46a.24.24,0,0,0,.05.45C64.16,3.18,64.43,3.92,64.66,4Z"></path><path class="cls-2" d="M67.12,4.23a.67.67,0,0,0,.31-.59c.72-.09,1.58-.82.88-1.15s-.89.06-.83.64c-.2-.23-.7-.24-.6.11C65.43,3.55,66.42,4.55,67.12,4.23Z"></path><path class="cls-2" d="M69,4.53c.45.16,1-.12.81-.43.19,0,.19-.26,0-.33a.86.86,0,0,0-.91,0A.42.42,0,0,0,69,4.53Z"></path><path class="cls-2" d="M71.51,5.07c.56.55,1.14,0,1-.23a.58.58,0,0,0-.65-.22c-.22-.21-.57,0-.78.23S71.28,5.15,71.51,5.07Z"></path><path class="cls-2" d="M67.59,5c.06.33.71.14.83-.06s-.12-.34-.42-.2c-.1-.34-.52-.07-.64.08s0,.25.15.21Z"></path><path class="cls-2" d="M69.9,6.34c.46,0,.32-.82-.25-.93s-.81.44-.56.65A1.63,1.63,0,0,0,69.9,6.34Z"></path><path class="cls-2" d="M66.76,6.06c.75.65,1.51-.23.6-.45C66.93,5.5,66.65,6,66.76,6.06Z"></path><path class="cls-2" d="M65.94,6.9a.32.32,0,0,0-.54-.08c-.15.15-.21.31.09.6S66.08,7.26,65.94,6.9Z"></path><path class="cls-2" d="M69.47,7.13a.71.71,0,0,0-.32,1c-.22.38,0,.59.25.53a.74.74,0,0,0,.68-.17.85.85,0,0,0,.07-1.22A.62.62,0,0,0,69.47,7.13Z"></path><path class="cls-2" d="M71.56,6.36c.25.28.64.21.94.21.11,0,.18-.2.11-.37-.22-.48-.65-.31-1-.38C71,5.69,70.79,6.22,71.56,6.36Z"></path><path class="cls-2" d="M59,9c-.09,0-.26.15-.22.26s.39.06.39.06a10.12,10.12,0,0,0-1.14,2.21c-.08.2.33.13.38,0a13,13,0,0,1,2.1-3.28c.11-.11-.11-.25-.21-.18a5.26,5.26,0,0,0-.69.66C59.65,8.41,59,8.37,59,9Z"></path><path class="cls-2" d="M61,6c-.53,0-.61.68-.49.82s.64-.17.71-.42S61.08,6,61,6Z"></path><path class="cls-2" d="M61.29,8.34c-.24,0-.65.26-.49.55a.58.58,0,0,0,.51.12.55.55,0,0,0,.22-.89C61.44,8,61.19,8.17,61.29,8.34Z"></path><path class="cls-2" d="M63.23,8.45s.19-.32,0-.44a.2.2,0,0,0,.14-.34.65.65,0,0,0-.5-.18c-.1,0-.3.17-.1.3a.62.62,0,0,0-.45.68C62.37,8.82,62.86,9,63.23,8.45Z"></path><path class="cls-2" d="M64.3,8.85c-.29.11-.21.45.12.45-.07.62,1.84.37,1.23-.65-.37-.77-1.24-.42-1.48-.17S64.06,8.89,64.3,8.85Z"></path><path class="cls-2" d="M71.65,8.1c.11,0,.52-.42.06-.6a.48.48,0,0,0-.58.17C70.84,8.21,71.49,8.46,71.65,8.1Z"></path><path class="cls-2" d="M73.19,7.73c.15.4,1.12.31,1.09-.11.09-.06,0-.22,0-.25C73.68,7.07,73.05,7.34,73.19,7.73Z"></path><path class="cls-2" d="M75.18,6.65c-.15.13-.31.39-.17.54a.44.44,0,0,0,.51,0c.28-.17.53-.46.28-.71-.1-.11-.62-.39-.82-.32s-.17.17-.1.25A1.37,1.37,0,0,0,75.18,6.65Z"></path><path class="cls-2" d="M63.26,6.18c-.23.07-.38.26-.21.43,0,.52.71.26.9.06C64.35,6.24,63.8,6,63.26,6.18Z"></path><path class="cls-2" d="M77.23,7.05c-.08.08-.11.22,0,.26a.52.52,0,0,1,.13.06l0,0a.44.44,0,0,0-.06.16.36.36,0,0,0,.12.27A.42.42,0,0,0,78,7.67.51.51,0,0,0,77.3,7,.13.13,0,0,0,77.23,7.05Z"></path><path class="cls-2" d="M79,7.74c.21.26.87.1,1-.29.08,0,.18-.11.13-.19-.21-.34-1-.33-1,0C79,7.37,78.85,7.58,79,7.74Z"></path><path class="cls-2" d="M82,7.88c.19,0,.21-.2,0-.27S81,7.42,81,8C81.05,8.73,82,8.23,82,7.88Z"></path><path class="cls-2" d="M84.09,7.75c.34,0,.45-.43-.33-.52-.31,0-.47.1-.36.25A1,1,0,0,0,84.09,7.75Z"></path><path class="cls-2" d="M83.58,8.65c.07-.65-1.32-.42-1.07.19C82.7,9.28,83.55,9,83.58,8.65Z"></path><path class="cls-2" d="M84.41,9.8a.75.75,0,0,0,1,0c.4,0,.22-.67-.49-.68C84.54,9.17,84.16,9.49,84.41,9.8Z"></path><path class="cls-2" d="M86.3,8.93c.81,0,.59-.37.34-.44s-.81-.05-.86.07S86.07,8.91,86.3,8.93Z"></path><path class="cls-2" d="M76.35,9.4c.36,0,.61,0,.59-.38a.43.43,0,0,0,0-.68.93.93,0,0,0-.73-.12c-.11,0-.3.29,0,.37A.43.43,0,0,0,76.35,9.4Z"></path><path class="cls-2" d="M80,9.23c.28-.39-.09-.81-.64-.38a.79.79,0,0,0-.21.78C79.29,9.81,79.86,9.47,80,9.23Z"></path><path class="cls-2" d="M66.75,8c.27.79,1.17.8,1.41.18a.19.19,0,0,0-.1-.25c.09-.3,0-.8-.36-.84C67.07,6.69,66.53,7.36,66.75,8Z"></path><path class="cls-2" d="M71.05,10.11c.15,0,.24-.27.23-.36a.57.57,0,0,0-.42-.48.59.59,0,0,0-.55.25.17.17,0,0,0-.29.1.89.89,0,0,0,0,.66C70.17,10.5,71.07,10.72,71.05,10.11Z"></path><path class="cls-2" d="M72.27,8.69c-.1.18-.39.33-.41.56s0,.55.29.59c.73.11,1-.8.93-1.09A.53.53,0,0,0,72.27,8.69Z"></path><path class="cls-2" d="M73.85,9.31a.65.65,0,0,0,.93.58,1,1,0,0,0,.41-.7c0-.39-.38-.48-.72-.25A.41.41,0,0,0,73.85,9.31Z"></path><path class="cls-2" d="M78.42,9.68a.44.44,0,0,0-.27-.61c-.12,0-.28.24-.14.31a.44.44,0,0,0-.16.57C78,10.3,78.75,10.36,78.42,9.68Z"></path><path class="cls-2" d="M59.7,9.94a1,1,0,0,0-.17.57c0,.09.11.1.17.08s.43-.16.47-.25,0-.36-.27-.3C60,9.87,59.79,9.8,59.7,9.94Z"></path><path class="cls-2" d="M60.87,10.18c-.08.15-.2.5-.15.59.12.25.44.17.59,0C61.87,10.24,61.1,9.76,60.87,10.18Z"></path><path class="cls-2" d="M62.33,11.72a.65.65,0,0,0,.67-.56.54.54,0,0,0-.3-.63c0-.49-1-.06-.57.08C61.8,11,62.08,11.69,62.33,11.72Z"></path><path class="cls-2" d="M63.74,10.43a.63.63,0,0,0,.28.88.46.46,0,0,0,.68-.48c-.07-.34-.46-.65-.76-.35v0C64,10.33,63.78,10.35,63.74,10.43Z"></path><path class="cls-2" d="M65.14,12.7c.22-.15.18-.56,0-.63a.37.37,0,0,0-.45.35A.33.33,0,0,0,65.14,12.7Z"></path><path class="cls-2" d="M67.66,12.07a.63.63,0,0,0-.47.42c-.25,0-.16.61.16.49a.24.24,0,0,0,.3.25.69.69,0,0,0,.54-.73A.47.47,0,0,0,67.66,12.07Z"></path><path class="cls-2" d="M66.27,12c.31,0,.72-.39.56-.77.24-.49-.16-.8-.62-.78-.17,0-.49.4-.22.5C65.22,11.14,65.39,12.06,66.27,12Z"></path><path class="cls-2" d="M68.36,10c.13-.24-.21-.35-.37-.35s-.88.25-.43.46a.47.47,0,0,0,.51.53A.39.39,0,0,0,68.36,10Z"></path><path class="cls-2" d="M69,12.13a.56.56,0,0,0,.62-.4,1,1,0,0,0,0-.84c-.27-.49-.9-.14-1,.33a1.63,1.63,0,0,0-.07.3A.59.59,0,0,0,69,12.13Z"></path><path class="cls-2" d="M72,12.1h0c.09-.51-.44-.55-.75-.27h0a.19.19,0,0,0-.23-.12c-.4.17-.59,1,0,1C70.91,13.38,72.5,13.3,72,12.1Z"></path><path class="cls-2" d="M70.49,14.46c.13-.27-.24-.45-.44-.41a.25.25,0,0,0-.16.33C70,14.58,70.38,14.7,70.49,14.46Z"></path><path class="cls-2" d="M69.37,13.12a.42.42,0,0,0-.31.44.64.64,0,0,0,.33.45.51.51,0,0,0,.71-.44C70.16,13.2,69.66,13,69.37,13.12Z"></path><path class="cls-2" d="M72.15,14.74a.66.66,0,0,0,.93-.26c.22-.6-.47-1-.92-.5-.39-.14-.56.62-.32.91A.2.2,0,0,0,72.15,14.74Z"></path><path class="cls-2" d="M74.22,6.07c.29-.35-.5-.66-.72-.55a.37.37,0,0,0-.17.43C73.42,6.1,74.1,6.23,74.22,6.07Z"></path><path class="cls-2" d="M72.88,11.9c-.18.48.58.77.85.36a.53.53,0,0,0,.08-.24c.4,0,.12-.67-.11-.76s-.29.17-.21.26C73.08,11.61,73,11.71,72.88,11.9Z"></path><path class="cls-2" d="M79.86,10.15c-.2,0-.58.35-.35.95-.13.26.06.59.25.43a3.42,3.42,0,0,0,.55-1C80.33,10.33,80.39,10.08,79.86,10.15Z"></path><path class="cls-2" d="M75.43,13c-.21,0-.6.07-.67.27h0a.45.45,0,0,0-.68.41c0,.3.43.36.73.25C75.49,14,75.82,13.06,75.43,13Z"></path><path class="cls-2" d="M78.49,13.15a5,5,0,0,0,.5-.26c1-.47.2-1.35-.28-.71a4.53,4.53,0,0,0-.45.84C78.21,13.12,78.39,13.17,78.49,13.15Z"></path><path class="cls-2" d="M77,12.33c-.34.06-1.07.82-.7,1s1.18,0,1.27-.48C77.62,12.64,77.58,12.15,77,12.33Z"></path><path class="cls-2" d="M72,11.06c.29-.13.33-.38.17-.45s-.38.1-.41.3A.16.16,0,0,0,72,11.06Z"></path><path class="cls-2" d="M77.08,14.3c0-.22-.49-.26-.56,0-.69.11-1.13,1.21-.56,1.2S77.07,14.57,77.08,14.3Z"></path><path class="cls-2" d="M75,16.26a.26.26,0,0,0,.3.31.77.77,0,0,0,.53-.39c.13,0,.23-.09.14-.16A.7.7,0,0,0,75,16.26Z"></path><path class="cls-2" d="M80.35,14.83c.29,0,.64-.36.7-.73s0-.78-.25-.81C80.09,13.22,80,14.78,80.35,14.83Z"></path><path class="cls-2" d="M74.48,15.33c.16-.16.26-.48,0-.61-.43-.21-.9.17-.76.45A.43.43,0,0,0,74.48,15.33Z"></path><path class="cls-2" d="M73.75,16.29a.34.34,0,0,0-.06-.4c-.23-.32-1.07,0-1.33.37s.55.49.79.45A.76.76,0,0,0,73.75,16.29Z"></path><path class="cls-2" d="M67.69,15.47c.27-.35.37-1.06-.22-1.14a.61.61,0,0,0-.71.34c-.56-.22-.77.57-.24.76C66.53,15.92,67.21,16.12,67.69,15.47Z"></path><path class="cls-2" d="M64.56,13.92a3.2,3.2,0,0,0,.09.75c0,.24.33.24.5.12s.3-.91.26-1.09C65.3,13.19,64.58,13.52,64.56,13.92Z"></path><path class="cls-2" d="M62.81,13.53c.87.34,1.06-.5.89-.76s-.58-.51-.77-.18C62.09,12.58,62.39,13.37,62.81,13.53Z"></path><path class="cls-2" d="M69.6,16.62c.21-.08.32-.33.33-.68.44-.44.26-.72-.14-.7.1-.3-.48-.2-.7,0a.41.41,0,0,0,0,.6C68.94,16.33,69.22,16.75,69.6,16.62Z"></path><path class="cls-2" d="M71.14,16.23a.52.52,0,0,0-.51.22.71.71,0,0,0-.08.56.77.77,0,0,0,.73.11.15.15,0,0,0,0-.28C71.38,16.63,71.41,16.29,71.14,16.23Z"></path><path class="cls-2" d="M65.46,16.1a.51.51,0,0,0-.81.31.43.43,0,0,0,.26.4.58.58,0,0,0,.55.09A.47.47,0,0,0,65.46,16.1Z"></path><path class="cls-2" d="M68.07,17c-.39-.33-1.4-.31-1.12.18-.33.35.17.66.37.64C67.9,17.76,68.36,17.24,68.07,17Z"></path><path class="cls-2" d="M63.07,15.37c.61.2.74-.8.24-.94a.62.62,0,0,0-.48.25C62.81,14.9,62.8,15.29,63.07,15.37Z"></path><path class="cls-2" d="M69.62,17.58c-.43-.06-.76.36-.89.72-.19.52.31,1.21,1.08.53.27.1.38-.23.38-.3C70.2,18.15,70.07,17.64,69.62,17.58Z"></path><path class="cls-2" d="M60.64,13c-.23.73.32.75.57.57s.36-.78-.08-.69C61.14,11.73,59.76,13,60.64,13Z"></path><path class="cls-2" d="M59.29,16a.56.56,0,0,0,.75-.55.59.59,0,0,0-.54-.56c.21-.4-.47-.3-.57-.18s0,.31.13.26C58.88,15.52,58.93,15.91,59.29,16Z"></path><path class="cls-2" d="M62,14.94a.44.44,0,0,0-.77-.21c-.43.46-.29,1.45.15,1.24A1.1,1.1,0,0,0,62,14.94Z"></path><path class="cls-2" d="M63.89,17.42c.15-.4-.35-1.1-.86-.75A.81.81,0,0,0,62.59,18C63,18.34,63.7,17.9,63.89,17.42Z"></path><path class="cls-2" d="M71.34,18.31c-.58.09-.72.37-.4.56-.21.65.24.64,1,.54C73,19.26,73,18.07,71.34,18.31Z"></path><path class="cls-2" d="M66.41,18.27c-1.44-.63-1.62.28-1.22.4a.76.76,0,0,0-.35.6c0,.6,1.91,0,1.64-.57C66.64,18.65,66.57,18.34,66.41,18.27Z"></path><path class="cls-2" d="M68,18.52c0-.19-.42-.2-.61.05a.21.21,0,0,0,.07.29A.35.35,0,0,0,68,18.52Z"></path><path class="cls-2" d="M69.31,21.34c.33,0,.24-.49,0-.48a1.29,1.29,0,0,0-1,.63c0,.16,0,.39.2.41A1,1,0,0,0,69.31,21.34Z"></path><path class="cls-2" d="M68.47,20.39a.4.4,0,0,0,0-.67,2.3,2.3,0,0,0-1.69.29C66.39,20.62,67.8,20.75,68.47,20.39Z"></path><path class="cls-2" d="M69,22.33a1.06,1.06,0,0,0-.26.17c-.3-.05-.65.39-.42.63s.56,0,.75-.12.36-.26.37-.49S69.22,22.26,69,22.33Z"></path><path class="cls-2" d="M70.66,20.65c-.17,0-.28,0-.38,0s-.25.15-.14.25a.63.63,0,0,0,1.1-.22c.42.11.64-.06.67-.22C72,19.89,70.85,19.86,70.66,20.65Z"></path><path class="cls-2" d="M72.73,20c.09.06.22,0,.32,0a1,1,0,0,0,.35.05c.23,0,.43-.46-.22-.49C72.7,19.6,72.56,19.9,72.73,20Z"></path><path class="cls-2" d="M65.09,21.55c.58-.14,1-.8-.14-.91a1.65,1.65,0,0,0-1.32.47C63.38,22,64.44,21.71,65.09,21.55Z"></path><path class="cls-2" d="M65.68,22.8c.63-.37-.77-.65-1-.61s-.52.32-.48.46C64.2,23.11,65.49,23.19,65.68,22.8Z"></path><path class="cls-2" d="M66.27,23.65c.36.22.81-.44.13-.37-.22-.57-1.47.3-1.19.77C65.33,24.26,66,24.06,66.27,23.65Z"></path><path class="cls-2" d="M67,23.93c-.35.15-.74.57-.59.72s.9-.34,1.09-.56S67.68,23.61,67,23.93Z"></path><path class="cls-2" d="M63.13,20.17a1,1,0,0,0,.19-.72.7.7,0,0,0-.79-.47c-.41.07-.76.38-.56.68S62.79,20.57,63.13,20.17Z"></path><path class="cls-2" d="M81.64,9.77c-.5-.15-.48.33-.29.53s.7.29.71-.33c.19,0,.27-.16.22-.23C82.07,9.43,81.6,9.56,81.64,9.77Z"></path><path class="cls-2" d="M80.87,11.84c0,.06-.08.64.36.58a.31.31,0,0,0,.26-.37c.21-.1.47-.22.51-.43s-.24-.31-.45-.28S80.88,11.47,80.87,11.84Z"></path><path class="cls-2" d="M83.69,11.71c.62.35,1.45-.55.9-.89s-1.34-.06-1.12.37C82.79,11.34,83.48,12,83.69,11.71Z"></path><path class="cls-2" d="M89.23,10.38c0-.22-.79-.8-1.07-.28C87.67,11,89.13,10.83,89.23,10.38Z"></path><path class="cls-2" d="M86.24,11.41c.2,0,.93-.05,1-.23s-.06-.52-.24-.63-1.13,0-.86.25A.33.33,0,0,0,86.24,11.41Z"></path><path class="cls-2" d="M87.49,12.63c.35,0,.57-.05.6-.26s-.5-.21-.66-.15A.21.21,0,0,0,87.49,12.63Z"></path><path class="cls-2" d="M88.92,8h0c.1,0,.29-.22.13-.27-.51-.14-1.74-.17-1.81,0C87.09,8.19,88.45,8,88.92,8Z"></path><path class="cls-2" d="M88,8.48a.23.23,0,0,0,0,.42,1.6,1.6,0,0,0,.82.24c.61,0,.55-.66-.15-.61A.57.57,0,0,0,88,8.48Z"></path><path class="cls-2" d="M85,7.77c0,.2.43.33.74.14.38.17.56-.1.41-.21a1.16,1.16,0,0,0-.62-.2C85.27,7.5,84.92,7.48,85,7.77Z"></path><path class="cls-2" d="M60.61,17.64a.89.89,0,0,0,.06.39c.15.47.59.46.52-.3C61.49,17.14,60.7,17.21,60.61,17.64Z"></path><path class="cls-2" d="M59.27,18c.42-.12.6-1.11-.22-1.1-.33,0-.6.28-.73.92s.06,1.22.44,1.29S60,18.62,59.27,18Z"></path><path class="cls-2" d="M59.54,20.35c.12.36.85.39,1.18.27a.72.72,0,0,0,.35-.94,1.45,1.45,0,0,0-.94-.25c-.12,0-.44.35-.25.61A.27.27,0,0,0,59.54,20.35Z"></path><path class="cls-2" d="M58.11,13.47c-.48.33,0,.74.38.53a.48.48,0,0,0,.27-.56C58.65,13.14,58.05,13.17,58.11,13.47Z"></path><path class="cls-2" d="M50,17.94c.24.35,1,0,1.12-.08s.18-.52-.29-.33a1.14,1.14,0,0,0-1.17.2C49.55,17.9,49.85,18.12,50,17.94Z"></path><path class="cls-2" d="M62,21c-.47-.17-.87.12-.36.65C61.94,22,62.65,21.28,62,21Z"></path><path class="cls-2" d="M61.39,23.72c.42.21.73.08.77-.14s-.19-.64-.59-.85c-1.5-.8-1.38.8-.59,1.16C61.07,23.92,61.35,23.93,61.39,23.72Z"></path><path class="cls-2" d="M62.69,24.77c.05.18.38.14.47,0,.29-.41,0-.5-.15-.43.06-.21-.56-.07-.62.29C62.36,24.78,62.5,24.93,62.69,24.77Z"></path><path class="cls-2" d="M59.34,24.74c.17.34.78.79,1,.53.27.19.72.23.84,0a.42.42,0,0,0-.33-.58A.91.91,0,0,0,60,24.1C59.45,24.05,59.18,24.41,59.34,24.74Z"></path><path class="cls-2" d="M56.48,23.82c-.15.12-.13.44.12.83a3,3,0,0,0,1.22.93c.53.12.81-.28.54-.77C58.2,24.53,56.68,23.64,56.48,23.82Z"></path><path class="cls-2" d="M57.92,22.66c-.35.06-.25.49,0,.69a.42.42,0,0,0,.59-.56C58.48,22.62,58.11,22.4,57.92,22.66Z"></path><path class="cls-2" d="M55.62,22.82c.4-.07.23-1-.06-1.23-.45-.31-1.27.19-.69.61A.75.75,0,0,0,55.62,22.82Z"></path><path class="cls-2" d="M51,26a4.21,4.21,0,0,0-.9,0,.33.33,0,0,0-.38.35c-.16.41.79.39,1.32.29C51.3,26.6,51.26,26.1,51,26Z"></path><path class="cls-2" d="M46.74,23.28a2.33,2.33,0,0,0,.9.16c.26,0,.55-.46.43-.62s-.82-.17-1-.16S46.45,23.14,46.74,23.28Z"></path><path class="cls-2" d="M48.84,23.7a3,3,0,0,0-1.6.31c-.37.21.1.78.46.74a4.05,4.05,0,0,0,1.16-.12C49.07,24.51,49.28,23.88,48.84,23.7Z"></path><path class="cls-2" d="M51.63,18.65a.41.41,0,0,0,.47.6c.23.21,1,.07,1.27-.11.48-.31.3-.78-.54-.73C52.45,18,51.8,18.34,51.63,18.65Z"></path><path class="cls-2" d="M52.71,21.08c.36.07,1.4.13,1.56-.56S53,20,52.65,20.18c-.09.05,0,.46.23.42C52.55,20.73,52.44,21,52.71,21.08Z"></path><path class="cls-2" d="M53.67,22.35a.93.93,0,0,0-1.35-.43.52.52,0,0,0-.17.76c-.22.63.55.75,1,.69A.74.74,0,0,0,53.67,22.35Z"></path><path class="cls-2" d="M49.55,20.15a.41.41,0,0,0,.72-.31C50.27,19.44,49.11,19.68,49.55,20.15Z"></path><path class="cls-2" d="M48.66,21.54a.8.8,0,0,0,1.15-.41c.09-.41-.23-.65-.66-.64a.55.55,0,0,0-.63.05A.57.57,0,0,0,48.66,21.54Z"></path><path class="cls-2" d="M48.49,19.25c.26-.2.09-.58-.31-.55a.33.33,0,0,0-.32.48C48,19.39,48.29,19.4,48.49,19.25Z"></path><path class="cls-2" d="M76,18.51l.19.11c.09.05.24-.1.19-.19-.23-.48-1.06-.45-.77,0a.69.69,0,0,0-.73.05.34.34,0,0,0,0,.46c.15.14.27-.15.42-.1A.5.5,0,0,0,76,18.51Z"></path><path class="cls-2" d="M79.37,17.23c.06-.26-.62-.53-1.1-.32a.18.18,0,0,0-.08.21H78c-.18,0-.24.25,0,.29s.21.09.32.13.42-.15.28-.27C78.84,17.36,79.34,17.32,79.37,17.23Z"></path><path class="cls-2" d="M79.93,18.38a.4.4,0,0,0,.16-.28h.35c.11,0,.24-.15.12-.23s-.61-.35-.88-.19a.43.43,0,0,0-.2.24.89.89,0,0,0-.28,0c-.15,0-.4.28-.23.44A.88.88,0,0,0,79.93,18.38Z"></path><path class="cls-2" d="M75.75,19.47c-.52,0-.29.88.18,1.09a.22.22,0,0,0,.3-.24C76.71,20.44,76.53,19.53,75.75,19.47Z"></path><path class="cls-2" d="M77,18.93a.36.36,0,0,0-.06.5c.15.15.57,0,.69-.13C77.86,19,77.35,18.58,77,18.93Z"></path><path class="cls-2" d="M81,16.46c.12,0,.39-.1.41-.24.61.12.54-.6.43-.89h0c-.06-.21-.43-.08-.42.08a.71.71,0,0,0-.65.32C80.69,15.92,80.62,16.48,81,16.46Z"></path><path class="cls-2" d="M83,13.48c-.29.09-.75.72-.54.94a1.17,1.17,0,0,0,1.38-.4c.19.16.38-.09.29-.24A1.07,1.07,0,0,0,83,13.48Z"></path><path class="cls-2" d="M84.8,13.09a1.51,1.51,0,0,0,.93-.24.3.3,0,0,0-.12-.52,1,1,0,0,0-.78.19C84.68,12.64,84.53,13,84.8,13.09Z"></path><path class="cls-2" d="M85.07,14.48c-.73.23-1.07.8-.89.89s1.32.14,1.51-.18A.51.51,0,0,0,85.07,14.48Z"></path><path class="cls-2" d="M91.79,7.75c.07-.4-1.31-.16-1.58-.1s-.11.28,0,.32C90.59,8.08,91.72,8.08,91.79,7.75Z"></path><path class="cls-2" d="M92.35,9.28a1,1,0,0,0,.77-.23c.2.11.37-.09.28-.2a.66.66,0,0,0-.68-.23c-.21.05-.1.13-.47.12S91.78,9.23,92.35,9.28Z"></path><path class="cls-2" d="M95.74,8.53c-.16-.14-.29,0-.31.12,0,.45.63.75.72.27C97.78,9.3,96.2,7.79,95.74,8.53Z"></path><path class="cls-2" d="M95,9.82c0-.52-1.23-.39-1.45-.1C93.19,10.21,95,10.63,95,9.82Z"></path><path class="cls-2" d="M95.78,10.51c-.47.34.51,1.28,1,.71a.42.42,0,0,0-.06-.52A1.12,1.12,0,0,0,95.78,10.51Z"></path><path class="cls-2" d="M90,9.54c.48.31,1.62-.26,1.06-.52.34-.55-1.06-.38-1-.19s.32.16.32.16C89.83,9.05,89.83,9.43,90,9.54Z"></path><path class="cls-2" d="M89.83,11.62c-.81.09-.57.83-.24.89.8.15,1.29.14,1.52-.43C91.26,11.7,90.88,11.5,89.83,11.62Z"></path><path class="cls-2" d="M91,10.62c.13.28,1.05.12,1.16,0s0-.46-.19-.55S90.72,10,91,10.62Z"></path><path class="cls-2" d="M86.89,17.5c-.28-.1-1.69-.42-1.48.22.11.34.56.29.8.27C87.2,17.91,87.2,17.6,86.89,17.5Z"></path><path class="cls-2" d="M87.22,16.63a1.25,1.25,0,0,0,1.1,0,.6.6,0,0,0,.05-.85c-.12-.14-.93,0-1.3.24S86.94,16.94,87.22,16.63Z"></path><path class="cls-2" d="M86.94,19.17c-.12-.35-.66-.2-.75,0s.69.49.91.33S87.26,19.24,86.94,19.17Z"></path><path class="cls-2" d="M83,18.64a.16.16,0,0,0,.1-.21c0-.14-.27-.18-.47-.19-.62,0-.81.38-.61.39C82.7,18.63,82.82,18.71,83,18.64Z"></path><path class="cls-2" d="M88.29,14.06c.09-1.07-2-.75-1.69-.21-.6.73.66.82,1,.75S88.26,14.36,88.29,14.06Z"></path><path class="cls-2" d="M92.6,11.66c0,.37.91.3,1.26.14.14-.06.26-.26,0-.45S92.65,11.23,92.6,11.66Z"></path><path class="cls-2" d="M92.9,15.58c-.3,0-.4.48-.17.56s.62.08.67-.16S93,15.58,92.9,15.58Z"></path><path class="cls-2" d="M91.12,16.84c.56.47.85.2.83,0,0-.42-.92-1.19-1.32-.49-.8-.35-1.12,0-1,.22A1.12,1.12,0,0,0,91.12,16.84Z"></path><path class="cls-2" d="M90.22,18.68c0-.4-1-.55-1.46-.44s-.54.67-.22.65C89.44,18.81,90.15,19.39,90.22,18.68Z"></path><path class="cls-2" d="M93.75,18.18c-1,0-1.28.28-1.28.48,0,.35.53.51,1,.44C94.43,19,94.81,18.2,93.75,18.18Z"></path><path class="cls-2" d="M96.08,14.38a1.54,1.54,0,0,0-1.2.11c-.39.28-.45.65-.13.81A1.5,1.5,0,0,0,96,15.1C96.29,14.92,96.4,14.55,96.08,14.38Z"></path><path class="cls-2" d="M95.38,13.24c.18.2,1.38,0,1.21-.44-.09-.25-.9-.61-1.11-.13C95.07,12.67,95.23,13.07,95.38,13.24Z"></path><path class="cls-2" d="M98.07,11.35a.86.86,0,0,0,.65.08c.49-.16.85-.72,0-.95C98.39,10.14,97.56,11,98.07,11.35Z"></path><path class="cls-2" d="M97.85,15.87c.23-.41-.31-.7-.64-.24-.51.11-.16.48.12.56S97.76,16,97.85,15.87Z"></path><path class="cls-2" d="M96.38,16.9c0-.34-.35-.44-.72-.43a1.5,1.5,0,0,0-1,.6c-.19.23.09.68.7.35A.67.67,0,0,0,96.38,16.9Z"></path><path class="cls-2" d="M92.34,20a2.46,2.46,0,0,0-1.57-.18c-.17,0-.35.31.27.53a.47.47,0,0,0,.49.32.22.22,0,0,0,.16-.35C92.29,20.44,92.49,20.08,92.34,20Z"></path><path class="cls-2" d="M96.14,18.62c-.2.11-.09.37.31.35.19,0,.24.15.33.22s.44,0,.47-.27S96.82,18.24,96.14,18.62Z"></path><path class="cls-2" d="M99.49,18.88c-.76-.29-.67.23-.56.46s.51.36.94.35a1,1,0,0,0,1,0C101.29,19.28,101,18.7,99.49,18.88Z"></path><path class="cls-2" d="M103,21.38c.43-.17.47-.57,0-.51s-.6.15-.54.36S102.79,21.45,103,21.38Z"></path><path class="cls-2" d="M101.73,22.52c0-.55-1.55-.09-1.57.32s.11.72.85.2C101.63,23.22,101.73,22.78,101.73,22.52Z"></path><path class="cls-2" d="M99.33,16.71a1.14,1.14,0,0,0-1.24.28c-.23.18-.28.58,0,.55C99.06,18.19,99.7,16.9,99.33,16.71Z"></path><path class="cls-2" d="M100.77,17c.47.11,1.51-.25.77-.64.11-.51-1.39,0-.88.34C100.57,16.76,100.63,17,100.77,17Z"></path><path class="cls-2" d="M104.41,17.28c.35-.35-.82-.28-1.33-.07a.46.46,0,0,0,.09.87C103.52,18.14,104.94,17.54,104.41,17.28Z"></path><path class="cls-2" d="M96.48,20.76c.45-.1.59-.64-.33-.72s-1.29.2-.87.45A2.16,2.16,0,0,0,96.48,20.76Z"></path><path class="cls-2" d="M104.37,14.52c-.19-.42-1.55,0-1.81.33a.33.33,0,0,0,.34.52C103.34,16.08,104.63,15.1,104.37,14.52Z"></path><path class="cls-2" d="M106.26,16.57a.74.74,0,0,0,.68-.58.39.39,0,0,0-.45-.46.68.68,0,0,0-.49.36C105.41,16.1,105.64,16.62,106.26,16.57Z"></path><path class="cls-2" d="M102.79,12.49a1.61,1.61,0,0,0-1,.15c-.42,0-.57.54,0,.75a1.29,1.29,0,0,0,1.17-.24C103.18,13,103.24,12.58,102.79,12.49Z"></path><path class="cls-2" d="M105.78,12.5a1,1,0,0,0,.33-.95c-.16-.32-1.22,0-1.45.47C104.18,12.94,105.08,13,105.78,12.5Z"></path><path class="cls-2" d="M100.46,9.54c.51.25.92-.4.71-.5-.51-.25-1.88.38-1.71.77S100.45,9.9,100.46,9.54Z"></path><path class="cls-2" d="M101.91,7.43c-.15.29,1,.35,1,0S102,7.24,101.91,7.43Z"></path><path class="cls-2" d="M103,8.47c0-.42-.55-.06-.82.27s.07.42.29.33C102.85,9.57,103.6,8.89,103,8.47Z"></path><path class="cls-2" d="M104.72,8c-.07-.19-.29-.38-.5-.3a.28.28,0,0,0-.15.15c-.28,0-.33.26-.14.33a1.48,1.48,0,0,1,.31.15.17.17,0,0,0,.25-.21C104.64,8.2,104.75,8.09,104.72,8Z"></path><path class="cls-2" d="M104.84,10.19a1,1,0,0,0,.7-.4c.26-.6-1.14-.94-1.3-.28C103.47,9.86,104.48,10.21,104.84,10.19Z"></path><path class="cls-2" d="M103,11.07h0c-.2,0-.16.25-.05.37s.61.12.77-.07a.32.32,0,0,0-.11-.54A.43.43,0,0,0,103,11.07Z"></path><path class="cls-2" d="M107.11,10.2c.16.18.69.06.72-.15a.41.41,0,0,0-.5-.46A.37.37,0,0,0,107.11,10.2Z"></path><path class="cls-2" d="M106.51,7.7a.85.85,0,0,0-.61.42c-.12.3.35.55.61.43-.06.21.27.21.42,0C107.5,7.87,107,7.57,106.51,7.7Z"></path><path class="cls-2" d="M109.61,5.78c.08.11.28.09.38-.08a.78.78,0,0,0,.07-.64C109.89,4.63,109,5.05,109.61,5.78Z"></path><path class="cls-2" d="M110.93,4.13c.81-.44.11-.8-.73-.63a.18.18,0,0,0-.06.33C110,4.18,110.59,4.32,110.93,4.13Z"></path><path class="cls-2" d="M108.47,6.93a.31.31,0,0,0-.29.27.57.57,0,0,0,.47.5c.54.13,1.13-.12.73-.72.19,0,.31-.09.21-.17C109,6.36,108.18,6.63,108.47,6.93Z"></path><path class="cls-2" d="M109.52,9.62c.51.6,1-.6.36-.86S108.66,9.92,109.52,9.62Z"></path><path class="cls-2" d="M108.58,12.27c.5-.15.9-.83.69-1.12s-1-.21-1.35.13c-.17.18-.28.54.08.58C107.84,12.28,108.36,12.34,108.58,12.27Z"></path><path class="cls-2" d="M110.4,14c.4-.52-.48-.67-.92-.64s-.76.68-.47.77C109.79,14.37,110.18,14.3,110.4,14Z"></path><path class="cls-2" d="M107.11,14c.33-.1.45-.59.25-.73s-.8,0-1.06.33a.48.48,0,0,0,0,.73A.53.53,0,0,0,107.11,14Z"></path><path class="cls-2" d="M112.85,4.47c-.14-.13-.72,0-1,.09s-.33.77.27.57C112.65,5.7,113.09,4.69,112.85,4.47Z"></path><path class="cls-2" d="M113.1,9.24c.33,0,.83-.48.53-.75a.51.51,0,0,0-.53,0,.24.24,0,0,0,0,.33C112.79,9,112.91,9.26,113.1,9.24Z"></path><path class="cls-2" d="M111.55,6.8c-.94.18,0,1.61.77.84C113.5,7.57,111.64,6.08,111.55,6.8Z"></path><path class="cls-2" d="M114.63,6.14c0-.17.11-.85-.25-.85a1.14,1.14,0,0,0-1,1.11.27.27,0,0,0,.36.1A.63.63,0,0,0,114.63,6.14Z"></path><path class="cls-2" d="M30,30.24c-.23.29-.14.56-.16.89s-.48.65-.46.86c0,.38.69-.15,1-.42a5.9,5.9,0,0,1,1.12-.7c.23-.12.16-.23,0-.24s-.45,0-.53,0,.19-.34.33-.45.33-.36.11-.46A1.91,1.91,0,0,0,30,30.24Z"></path><path class="cls-2" d="M48,25.13a3.31,3.31,0,0,0-1.5.1c-.18.06-.17.65,0,.68a4.16,4.16,0,0,0,1.22,0,.94.94,0,0,0,.61-.34C48.44,25.45,48.17,25.15,48,25.13Z"></path><path class="cls-2" d="M50.23,23.57a.25.25,0,0,0,.28-.39c-.11-.12-.39-.21-.55-.36.06-.3-.44-.43-.76-.15S49.29,23.32,50.23,23.57Z"></path><path class="cls-2" d="M56.28,17.69a.42.42,0,0,0,.58-.08.5.5,0,0,0,0-.6.47.47,0,0,0-.69,0A.5.5,0,0,0,56.28,17.69Z"></path><path class="cls-2" d="M57.17,22c.19.11.76.25.89-.2.08-.25.24-1,.09-1.23s-1.27-.07-1.36.26A1.64,1.64,0,0,0,57.17,22Z"></path><path class="cls-2" d="M56.78,19.79a.81.81,0,0,0,.15-1.1c-.23-.14-1.16-.3-1.13.39-.32.15-.15.62.18.72A1.94,1.94,0,0,0,56.78,19.79Z"></path><path class="cls-2" d="M54.27,17.14c.26.32,1.12-.11,1-.33S54.06,16.88,54.27,17.14Z"></path><path class="cls-2" d="M59.4,12.33c.11,0,.87-.68.6-.87C59.3,11,58.91,12.46,59.4,12.33Z"></path><path class="cls-2" d="M78.6,14a.92.92,0,0,0-.28.64.16.16,0,0,0,.32.05c.4.06.63-.35.83-.59a.18.18,0,0,0-.1-.3A.85.85,0,0,0,78.6,14Z"></path><path class="cls-2" d="M77.89,15.94c-.31.75,1.33.31,1.38.07a.55.55,0,0,0-.51-.69A1.12,1.12,0,0,0,77.89,15.94Z"></path><path class="cls-2" d="M43.65,25.3c.05-.2-.58-.16-.52.09S43.58,25.63,43.65,25.3Z"></path><path class="cls-2" d="M42.08,24.66c-.42-.21-.9.72-.42.72S42.53,24.89,42.08,24.66Z"></path><path class="cls-2" d="M39.84,26.47a.07.07,0,0,0,.07,0H40c.1,0,.22,0,.29-.06a.28.28,0,0,0,.09-.19.27.27,0,0,0-.18-.3C39.9,25.89,39.63,26.25,39.84,26.47Z"></path><path class="cls-2" d="M31.13,21.82c.25,0,.38-.28.08-.33-.46-.08-1.25-.07-1.63-.59-.26-.35-.61.09-.41.38A2.25,2.25,0,0,0,31.13,21.82Z"></path><path class="cls-2" d="M75.84,17.16c.09-.11-.14-.22-.22-.16l-.61.49c.16-.29.06-.66-.31-.62-.21,0-.52.29-.51.48a.31.31,0,0,0-.27.55.5.5,0,0,0,.51-.11.43.43,0,0,0,.25,0,10.75,10.75,0,0,0-1.14,1c-.07.09.17.17.26.11A8.66,8.66,0,0,0,75.84,17.16Z"></path><path class="cls-2" d="M84.56,20.3c.13,0,.25-.28.09-.32a15,15,0,0,0-2.14-.4s.19-.47-.21-.46a1,1,0,0,0-.72.39,15.22,15.22,0,0,0-4.37.39c-.1,0-.12.39,0,.37.74-.12,1.46-.19,2.18-.24,0,.51,1,.48,1.33.41.14,0,.18-.22,0-.33a2.43,2.43,0,0,0-.32-.12A22.46,22.46,0,0,1,84.56,20.3Z"></path><path class="cls-2" d="M84.93,18.67c.13,0,.3-.15.16-.23-1.08-.67-2-1.21-2.73-1.62-.11-.07-.29.13-.19.22s.38.32.58.48c0,.05-.1.14-.06.21a.45.45,0,0,0,.57.13A8.38,8.38,0,0,0,84.93,18.67Z"></path><path class="cls-2" d="M83.12,12.69a.75.75,0,0,0-.71,0c-.14.09,0,.46.18.44C83,13.06,83.33,12.84,83.12,12.69Z"></path><path class="cls-2" d="M83.59,16.09c-.27.09-.37.52,0,.78.21.14.49,0,.38-.32a1,1,0,0,0,.69,0,.24.24,0,0,0,.08-.3A1.51,1.51,0,0,0,83.59,16.09Z"></path><path class="cls-2" d="M86.87,21.2a.69.69,0,0,0,.3-.15c-.14.46.25.54.44.42a2.64,2.64,0,0,0,.65-.72.16.16,0,0,0-.23-.21c-.14.11-.44.38-.44.38a1,1,0,0,0,0-.23c0-.13-.2-.11-.3-.07a1.62,1.62,0,0,0-.42.26C86.65,21.08,86.71,21.23,86.87,21.2Z"></path><path class="cls-2" d="M91.42,21.48a4.13,4.13,0,0,0-2-1,.79.79,0,0,0-.76.43c0,.09,0,.24.1.23s.32-.13.44-.1,0,.25.13.34.51,0,.69-.09a5.12,5.12,0,0,0,1.32.44C91.38,21.7,91.51,21.56,91.42,21.48Z"></path><path class="cls-2" d="M86.32,20.61c0-.4-1.23-.6-1.23-.3S86.33,20.89,86.32,20.61Z"></path><path class="cls-2" d="M97.89,26.61c0-.23-.07-.46-.16-.46s-.29.39-.24.47S97.87,26.71,97.89,26.61Z"></path><path class="cls-2" d="M94.09,21.78c.11.11.55.09.71,0,.35-.1.39-.32.22-.42a2,2,0,0,0-.6,0,.26.26,0,0,0-.13-.27,1.8,1.8,0,0,0-.89,0c-.09,0,0,.31.13.36a4,4,0,0,0,.5.05A.38.38,0,0,0,94.09,21.78Z"></path><path class="cls-2" d="M93.48,22.15c-.18-.17-.6-.14-1.26-.32a.17.17,0,1,0,0,.33,2,2,0,0,1,.56.17c.25.14.36.29.55.31A.27.27,0,0,0,93.48,22.15Z"></path><path class="cls-2" d="M97.63,22.37a2.9,2.9,0,0,0-.56,0,.63.63,0,0,0-.06-.25c-.23-.48-1.19.14-1,.5s.43,0,.56.06a1,1,0,0,0,1.13,0C97.79,22.64,97.8,22.41,97.63,22.37Z"></path><path class="cls-2" d="M98.37,23.24c0-.21-.43-.09-.52,0s0,.49.21.44A.36.36,0,0,0,98.37,23.24Z"></path><path class="cls-2" d="M44.25,26.76a33.72,33.72,0,0,0-6.32,1.52c-.21.06-.08.32.07.28,2.39-.62,4-1.16,6.27-1.57C44.41,27,44.46,26.73,44.25,26.76Z"></path><path class="cls-2" d="M94.55,24.16c0-.14.29-.8.13-.84s-.47.47-.56.72A.22.22,0,1,0,94.55,24.16Z"></path><path class="cls-2" d="M93.46,24c-.12.19.15.31.3.14s.31-.43.23-.49S93.61,23.82,93.46,24Z"></path><path class="cls-2" d="M65.85,24.89a6.72,6.72,0,0,1-1.7,1s0,0,0,0a1.23,1.23,0,0,0-2.06.11.62.62,0,0,0,0,.48l-.35,0a1.29,1.29,0,0,0-1.31.06H59c-.14,0-.31.24-.11.28a8.43,8.43,0,0,0,7.21-1.72C66.17,25,66,24.8,65.85,24.89Z"></path><path class="cls-2" d="M105.24,22.72c.13-.49-.95-.16-1.09.3a.27.27,0,0,0,.07.32c.2.12.5-.07.6-.23-.13.5.47.74.81,0C105.79,22.78,105.66,22.46,105.24,22.72Z"></path><path class="cls-2" d="M98.7,24.76c-.1-.17-.29-.18-.36-.08a.37.37,0,0,0-.07.41c.06.1.18,0,.18,0s-.06.3,0,.39.25.18.35,0,.21-.47.26-.55S99,24.58,98.7,24.76Z"></path><path class="cls-2" d="M99.1,25.32c0,.12,0,.24,0,.36s.36.19.37,0a1.42,1.42,0,0,0-.1-.46C99.31,25.06,99.11,25.12,99.1,25.32Z"></path><path class="cls-2" d="M102.86,24.27c-.09-.18-.25-.2-.44-.09,0,0,.14-.34,0-.36-.38-.06-1,.63-.17.7,0,.46.43.84.78.5a2.44,2.44,0,0,0,.41-.8c0-.13-.14-.21-.28-.15A1.26,1.26,0,0,0,102.86,24.27Z"></path><path class="cls-2" d="M100.5,26.12c0,.15,0,.52.12.52s.17-.26.13-.57C100.73,25.92,100.55,26,100.5,26.12Z"></path><path class="cls-2" d="M101.41,25.85c-.11,0-.31.6-.41,1a.14.14,0,0,0,.25.11,4.94,4.94,0,0,0,.2-.55c.1.32.35.35.39.11S101.63,25.82,101.41,25.85Z"></path><path class="cls-2" d="M106.88,25.31c-.31-.25-.51.22-.51.22l.13-.57c0-.18-.26-.2-.31-.06a4.7,4.7,0,0,0-.28,1.05c0,.13.25.13.35.07a.85.85,0,0,0,.15-.18s0,.3.18.32.51-.38.71-.68S107.14,25.07,106.88,25.31Z"></path><path class="cls-2" d="M108.19,25.28a1.59,1.59,0,0,0-.55.66c0,.1,0,.21.12.16.21.37.69.18.67-.65C108.43,25.31,108.31,25.21,108.19,25.28Z"></path><path class="cls-2" d="M109.94,22.52a.4.4,0,0,0-.62,0c-.22-.34-.58-.17-.57,0a1.7,1.7,0,0,0,.1.37.37.37,0,0,0,.07.67.26.26,0,0,0,.32-.2s.2.26.31.29c.28.08.42-.11.35-.35C110.07,23.21,110.26,23,109.94,22.52Z"></path><path class="cls-2" d="M110.23,25.25c-.17,0,0,.77.35.72S110.43,25.22,110.23,25.25Z"></path><path class="cls-2" d="M112.56,24c-.2-.09-.42.57-.33.78a.92.92,0,0,0-.44-.38c-.27-.05-.46.34-.46.34s-.28-.44-.32-.49-.28,0-.27.11c.12,1.18.63,1.46.81,1,.32.44.62.1.81-.21a.32.32,0,0,0,.54-.14A2.06,2.06,0,0,0,112.56,24Z"></path><path class="cls-2" d="M118.38,22.53c.05-.5-.65-.52-.77,0-.73-.4-1,.54-1.64,1.34-.15.19.21.21.37.1a7.06,7.06,0,0,0,.61-.54c.14.1.45.25.72-.22C118.13,23.49,118.34,22.86,118.38,22.53Z"></path><path class="cls-2" d="M119.4,25.6a1.85,1.85,0,0,0-.58.42c-.15.16-.06.52.19.43a1.54,1.54,0,0,0,.64-.65C119.75,25.61,119.58,25.53,119.4,25.6Z"></path><path class="cls-2" d="M121.8,26.35c-.15,0-1.24.13-1.17-.16.12-.54-.88-.11-1,.73,0,.31.32.2.43,0a.46.46,0,0,0,.08-.19c.1,0-.09.55,1.61.06C121.94,26.79,122.11,26.35,121.8,26.35Z"></path><path class="cls-2" d="M118.23,25.19c-.09.16,0,.43.22.36-.18.38.34.36.66-.26.08-.15,0-.4-.17-.36.24-.43.32-.75.21-.78S118.7,24.4,118.23,25.19Z"></path><path class="cls-2" d="M106.84,18.29c-.14-.07-1.36.23-1.12.6s.76.1.92-.05S107,18.38,106.84,18.29Z"></path><path class="cls-2" d="M99.59,21.1c0-.41-.59-.16-.82,0a.16.16,0,0,0,.12.29l.32-.07-.17.1c-.13.13-.1.39.16.34a1.79,1.79,0,0,0,1.12-.61C100.43,21,100.25,20.66,99.59,21.1Z"></path><path class="cls-2" d="M104.24,19.78c0-.42-1.44-.39-1.5.07C102.6,20.9,104.2,20.35,104.24,19.78Z"></path><path class="cls-2" d="M115,24.13c-.31-.13-.56.52-.58.6-.07.25.27.29.43,0a3.29,3.29,0,0,0,.1.41c.08.18.38.1.34-.06C115.13,24.3,115.21,24.2,115,24.13Z"></path><path class="cls-2" d="M96.4,26.38a.11.11,0,0,0,.22,0,1.75,1.75,0,0,0-.12-.5c-.13-.22-.23-.09-.29.1s-.23.58,0,.58A.2.2,0,0,0,96.4,26.38Z"></path><path class="cls-2" d="M115.59,21.27c-.16-.08-.39.17-.57.24,0-.12,0-.23-.12-.24a.33.33,0,0,0-.31.21,3,3,0,0,0-.21-.6c-.06-.1-.29,0-.28.2a4.92,4.92,0,0,0,.25,1.36.35.35,0,0,0,.56-.14C115.5,22.49,115.83,21.4,115.59,21.27Z"></path><path class="cls-2" d="M107.92,20.33c0-.69-1,.39-.7.63,0,0,.12.12.5-.22.59,1.4,1.4-.09,1-.51C108.47,20,108.12,20.15,107.92,20.33Z"></path><path class="cls-2" d="M112.21,18.25c-.16-.2-.35,0-.38.21a2.83,2.83,0,0,0,0,1.33.32.32,0,0,0,.57-.23s.24.57.58.52.06-1.58-.61-1.42A2,2,0,0,0,112.21,18.25Z"></path><path class="cls-2" d="M112.43,15.31c.21,0,.52-.8-.68-.43-.52.15-.49.55-.12.57-.24.37.91.32,1.08.3C113.12,15.7,113,15.27,112.43,15.31Z"></path><path class="cls-2" d="M114.3,14.09a1.38,1.38,0,0,0,.81-.91c0-.3-.55-.15-.72,0,.07-.21,0-.47-.29-.31a1.72,1.72,0,0,0-.27.27c-.06.09,0,.28.08.3a.4.4,0,0,0,.13,0C113.89,13.75,114.1,14.14,114.3,14.09Z"></path><path class="cls-2" d="M109.63,18.67s.29-.2,0-.35a1.1,1.1,0,0,0-.8,0c-.18.08-.34.31.15.41-.15.07-.34.21-.15.32a2.74,2.74,0,0,0,1.24.05C110.33,19,110.19,18.71,109.63,18.67Z"></path><path class="cls-2" d="M110,15.88c-.46-.09-1.7.13-1.57.81s1.79.26,1.65-.46C110.27,16.14,110.21,15.92,110,15.88Z"></path><path class="cls-2" d="M117.11,12.22a1,1,0,0,0-.14-1.17.51.51,0,0,0-.7.42c0,.14.27.18.27.18C116.53,12.05,116.9,12.41,117.11,12.22Z"></path><path class="cls-2" d="M113.53,17.39s.32.25.51,0a1,1,0,0,0,.14-.41s.34.25.47.33.3.06.35-.23-.6-.77-.8-.79-.58.13-.57.57c-.39-.25-.54.31-.47.64,0,.16.3.12.35,0A.56.56,0,0,0,113.53,17.39Z"></path><path class="cls-2" d="M118.39,20.26c-.09-.07-.35,0-.33.29-.06-.12-.27,0-.26.1s.24.53.52.32A.81.81,0,0,0,118.39,20.26Z"></path><path class="cls-2" d="M118.84,13.77c.2-.19,0-.67-.15-.86-.34-.42-1-.17-1.26.22-.08.13.2.46.4.27,0,.29.33.27.4.16S118.6,14,118.84,13.77Z"></path><path class="cls-2" d="M116.68,19.2c.09-.05.4-.27.47-.32a.22.22,0,0,0,0-.34c-.19-.15-.52-.3-.75-.45s-.36.07-.24.21a5.41,5.41,0,0,0,.47.39,1.56,1.56,0,0,0-.35.33C116.17,19.27,116.49,19.32,116.68,19.2Z"></path><path class="cls-2" d="M117.39,19.41c.39-.14.3-.44,0-.38s-.33.2-.31.32S117.28,19.6,117.39,19.41Z"></path><path class="cls-2" d="M115.75,15.61c.13.26.3.46.56.25a.45.45,0,0,0,.23.15c.22.06.46-.1.37-.3s-.37-.55-.67-.29h0a.67.67,0,0,0-.19-.25s.08-.16.11-.24-.1-.27-.17-.19a8.14,8.14,0,0,0-.6.72C115.33,15.6,115.62,15.83,115.75,15.61Z"></path><path class="cls-2" d="M115.35,11h0c.08-.13.41-.78,0-.83,0-.58-.64-.35-1-.12-.13.08-.12.22,0,.23h.18a.42.42,0,0,0-.09.49.34.34,0,0,0,.52,0s0,.15,0,.19S115.23,11.15,115.35,11Z"></path><path class="cls-2" d="M112.78,12.34c0-.14-.1-.42-.26-.41-.33,0-.86.29-.74.63S112.65,12.7,112.78,12.34Z"></path><path class="cls-2" d="M111.11,10.81c-.27.56,1.1.38.92-.12C113.12,9.23,110.12,10,111.11,10.81Z"></path><path class="cls-2" d="M113.12,1.68c-.05.27.44.31.7.14-.1.37.59.55.79.41s0-.65-.51-.7a.24.24,0,0,0-.14-.32,1.2,1.2,0,0,0-1,.3C112.92,1.57,113,1.77,113.12,1.68Z"></path><path class="cls-2" d="M115.82,4.17c-.18.19.09.43.29.34s.54-.34.6-.57c.2-.65-.73-.45-1-.35S115.25,4.28,115.82,4.17Z"></path><path class="cls-2" d="M115.1,8.53c.33,0,.65-.58.61-.93s-.39-.26-.57-.14c-.09-.16-.32-.1-.43,0s0,.56.18.34C114.81,8.23,114.87,8.51,115.1,8.53Z"></path><path class="cls-2" d="M114.77,1.21a3.15,3.15,0,0,0,.48,0c-.07.09,0,.29.22.32-.34.21.07.46.61.25.29-.11.19-.35,0-.44a.42.42,0,0,0-.3,0c.13-.11.08-.61-1-.36C114.6,1,114.62,1.18,114.77,1.21Z"></path><path class="cls-2" d="M112.7,3.12c.36.12.44-.17.43-.38,0-.37-.51-.94-1-.29-.24-.5-.67.26-.37.67S112.68,3.4,112.7,3.12Z"></path><path class="cls-2" d="M113.86,3.57c0,.2.14.28.3.22a.87.87,0,0,0,.41-.47c.05-.2-.2-.21-.39-.18a.74.74,0,0,0-.54.37C113.61,3.6,113.77,3.66,113.86,3.57Z"></path><path class="cls-2" d="M118.27,5.75c.28-.39.23-1-.38-.8-.23-.25-.68,0-.83.19s-.14.52.09.5C117.12,6.12,117.92,6.24,118.27,5.75Z"></path><path class="cls-2" d="M117.13,8.74c.49,0,1-1,.4-1C116.93,6.6,116,8.72,117.13,8.74Z"></path><path class="cls-2" d="M120,7.19c0-.36-.72-.38-.85-.11a1,1,0,0,0,.06.71C119.4,8.11,120.07,7.66,120,7.19Z"></path><path class="cls-2" d="M121.1,2a.24.24,0,0,0-.24.25c0,.18.42.23.58.1S121.25,2,121.1,2Z"></path><path class="cls-2" d="M119.07,1.67c.2,0,.41-.62-.44-.51-.43.05-.46.24-.34.38A1,1,0,0,0,119.07,1.67Z"></path><path class="cls-2" d="M118.07,2.54c.1-.15-.06-.33-.21-.36a2,2,0,0,0-.81.06c-.12,0-.09.33,0,.34h.11c-.05.21.19.32.36.28A1.15,1.15,0,0,0,118.07,2.54Z"></path><path class="cls-2" d="M119,3.48a.43.43,0,0,0-.2.63.38.38,0,0,0,.72-.24C120,3.77,119.87,3.19,119,3.48Z"></path><path class="cls-2" d="M135.37,13.63c.07-.05.46-.69.27-.69s-.6.46-.62.58S135.3,13.69,135.37,13.63Z"></path><path class="cls-2" d="M135,3.15a1.66,1.66,0,0,0-1-.76c-.1,0-.28.13-.17.22,1.13.87.75,1.22.83,1.53,0,.14.19.12.28,0a.74.74,0,0,0,.17-.66c.58-.35.7-.68.73-.81s-.09-.32-.2-.18A1.25,1.25,0,0,1,135,3.15Z"></path><path class="cls-2" d="M132.77,4.94c.2.33.89.13.87-.23s-.81-.8-1.31-1.34a1.2,1.2,0,0,1,.31-2c.12-.05,0-.25-.18-.19a1.43,1.43,0,0,0-.88,2C131.86,3.8,132.17,3.92,132.77,4.94Z"></path><path class="cls-2" d="M127.21,0c-.54,0-.54.23-.14.36a1.22,1.22,0,0,0,1.08-.1C128.36.13,128,0,127.21,0Z"></path><path class="cls-2" d="M127.46,1.85c.37,0,.34-.29,0-.49s-.72-.18-.72,0S127.18,1.81,127.46,1.85Z"></path><path class="cls-2" d="M131.62,1.26c.19,0,.43-.19.36-.4C131.84.4,131.06,1.22,131.62,1.26Z"></path><path class="cls-2" d="M122.67,1.86a.26.26,0,0,0-.18,0c-.13,0-.25.31-.07.38.45.18.77-.05.65-.26a.24.24,0,0,0,.17,0c.06,0,.21-.21,0-.27S122.73,1.63,122.67,1.86Z"></path><path class="cls-2" d="M121.39,3.37c.2.08.77.21.82-.11s-.61-.24-.77-.2S121.22,3.31,121.39,3.37Z"></path><path class="cls-2" d="M128.94.89c-.17,0-.12-.08-.23-.12s-.67.25-.18.32c0,.17.18.31.51.24S129.17.88,128.94.89Z"></path><path class="cls-2" d="M125.7.68a.4.4,0,0,0,.53-.44c-.11-.25-.79-.19-1.14,0S125.31.59,125.7.68Z"></path><path class="cls-2" d="M123.57,4.33c.31.06.76-.08.74-.48s-.58-.34-.83-.24-.26.42,0,.37h0C123.4,4.08,123.39,4.3,123.57,4.33Z"></path><path class="cls-2" d="M124.21,1.4s-.11.15,0,.19c.3.1.39.17.53,0s-.25-.6-.61-.53c-.13,0-.24.23-.07.3Z"></path><path class="cls-2" d="M111.31,2.56A.26.26,0,0,0,111,2.4c-.2.06-.54.54-.32.64S111.35,2.78,111.31,2.56Z"></path><path class="cls-2" d="M109,4.32c.31.13.67-.35.66-.59s-.13-.06-.2,0C109.2,3.82,108.7,4.21,109,4.32Z"></path><path class="cls-2" d="M107.87,5.39l.13-.11a.29.29,0,0,0,.22.25.38.38,0,0,0,.42-.35.31.31,0,0,0-.18-.29l.2-.22c.08-.11,0-.21-.19-.11a5.51,5.51,0,0,0-.71.62C107.69,5.27,107.75,5.47,107.87,5.39Z"></path><path class="cls-2" d="M102,10.91c.21-.43.14-1-.7-.57a.79.79,0,0,0-.37.64C100.8,11.66,101.8,11.23,102,10.91Z"></path><path class="cls-2" d="M119.44,2.63c.19.19.83.15.84-.18s-.81-.21-1-.14-.18.26-.1.3A.41.41,0,0,0,119.44,2.63Z"></path><path class="cls-2" d="M121.9,5c.29.06.62-.11.48-.4a.54.54,0,0,0-.76-.11C121.46,4.67,121.58,5,121.9,5Z"></path><path class="cls-2" d="M126.34,5.08c.18.07.27,0,.2-.18a2.44,2.44,0,0,0-.55-.63.18.18,0,0,0-.26.2C125.31,4.69,126.13,5,126.34,5.08Z"></path><path class="cls-2" d="M124.08,2.58s.36.31.52.28a.35.35,0,0,0,.31-.24.25.25,0,0,0-.2-.24C124.35,2.25,123.94,2.45,124.08,2.58Z"></path><path class="cls-2" d="M127.31,8c.1.14.54.76.61-.07.61.16.27-.68,0-.75s-.41.43-.35.65C127.36,7.58,127.22,7.87,127.31,8Z"></path><path class="cls-2" d="M119.81,5.65a.32.32,0,0,0,.32.5c.38-.07.94-.39.94-.66s-.44-.75-1.33-.2C119.64,5.36,119.59,5.63,119.81,5.65Z"></path><path class="cls-2" d="M122.56,6.36c-.58-.17-1.41,0-1.26.87a.66.66,0,0,0,.86.52c.48-.15.7-.5.51-.81C123,6.91,122.88,6.46,122.56,6.36Z"></path><path class="cls-2" d="M121.32,9.29a.56.56,0,0,0-.58-.62c-.73,0-1,1.11-.59,1.18C120.2,10.46,121.27,10.1,121.32,9.29Z"></path><path class="cls-2" d="M118.22,9.22c-.33,0-.48.7-.4,1,0,.07.17.06.22,0,.08.17.34.26.45.1S118.75,9.22,118.22,9.22Z"></path><path class="cls-2" d="M118.94,10.6a.25.25,0,0,0-.41,0c-.17.22-.1.55,0,.61S119.31,11.07,118.94,10.6Z"></path><path class="cls-2" d="M123.11,8.91c-.11.32.45.28.81,0s.6-.65,0-.7C124.05,7.49,122.61,8.29,123.11,8.91Z"></path><path class="cls-2" d="M125.09,7.1a.16.16,0,0,0-.17-.18.43.43,0,0,0-.38.25c-.05.21.26.34.49.2S125.22,7.17,125.09,7.1Z"></path><path class="cls-2" d="M126.53,6.83c.21.08.3,0,.3-.14a.72.72,0,0,0-.51-.75c-.22-.06-.37.24-.22.32C125.93,6.47,126.21,6.72,126.53,6.83Z"></path><path class="cls-2" d="M128.09,9.82s.06-.32-.11-.41c-.59-.28-.55.73,0,.81a.79.79,0,0,0,0,.32c0,.15.16.11.23,0a.71.71,0,0,0,.07-.71C128.22,9.74,128.09,9.82,128.09,9.82Z"></path><path class="cls-2" d="M125.64,2.07a1,1,0,0,0,.46,0,.18.18,0,0,0-.12-.33c.22-.27-.32-.34-.47-.25s-.26.34.12.33C125.57,1.88,125.52,2,125.64,2.07Z"></path><path class="cls-2" d="M125.93,3.21c.21.11.7.45.86.1s-.44-.36-.72-.36C126,2.94,125.78,3.13,125.93,3.21Z"></path><path class="cls-2" d="M129,6.64c.1-.37-.4-.7-.57-.72s-.19.13-.12.22c-.3.23-.15.65.31.72A.36.36,0,0,0,129,6.64Z"></path><path class="cls-2" d="M129.76,5.27a.92.92,0,0,0-.32-.18c-.09,0-.24.1-.15.19a2,2,0,0,1,.53.7c.06.15.3,0,.33-.08a1.38,1.38,0,0,0,0-.2l.07.1c.11.2.45-.06.34-.22a1.43,1.43,0,0,0-.53-.56C129.92,4.93,129.75,5.13,129.76,5.27Z"></path><path class="cls-2" d="M131.17,5c-.09,0-.25,0-.25.11a1.11,1.11,0,0,0,.52.57c.11,0,.26-.08.26-.19A.73.73,0,0,0,131.17,5Z"></path><path class="cls-2" d="M132.47,5.87c-.14.06-.15.55.11.61a.27.27,0,0,0,.28-.34A.32.32,0,0,0,132.47,5.87Z"></path><path class="cls-2" d="M129.91,2.24c.06-.14-.34-.26-.42-.11a.39.39,0,0,0,0,.46.38.38,0,0,0,.46.05C130.08,2.57,130.34,2.23,129.91,2.24Z"></path><path class="cls-2" d="M128.09,2.61c0,.12.12.31.24.35.3.11.41-.1.41-.35a.39.39,0,0,0-.24-.34C128.06,2.19,128.06,2.5,128.09,2.61Z"></path><path class="cls-2" d="M129.66,3.44c-.32,0-.4.91.4.8C130.42,4.2,130.33,3.44,129.66,3.44Z"></path><path class="cls-2" d="M130.4,7.27c-.45-.19-.79.4-.23.56,0,.32.43.41.59.41S131.15,7.6,130.4,7.27Z"></path><path class="cls-2" d="M131.4,7.45c.18,0,.4-.11.31-.25a.34.34,0,0,0-.45-.16C130.89,7.21,131.32,7.44,131.4,7.45Z"></path><path class="cls-2" d="M132.62,7.76c-.14-.08-.25.09-.27.18a.82.82,0,0,0,.36.74.2.2,0,0,0,.28-.19A1.94,1.94,0,0,0,132.62,7.76Z"></path><path class="cls-2" d="M133.4,6.88c-.17-.07-.72.16-.29.38-.16.12,0,.26.1.24S133.62,7,133.4,6.88Z"></path><path class="cls-2" d="M122.09,11.42c.81,0,.26-1.1-.1-.65-.2-.26-.61.12-.53.38S121.83,11.93,122.09,11.42Z"></path><path class="cls-2" d="M125.88,9.83c-.09.14-.21.57.27.52,0,.1.24.05.26,0C126.56,9.72,126,9.61,125.88,9.83Z"></path><path class="cls-2" d="M126.36,8.69c.63.15.12-.52-.31-.75-.22-.11-.42,0-.45.07C125.45,8.47,126,9.09,126.36,8.69Z"></path><path class="cls-2" d="M125.94,11.38c-.54.3-.49.9.09.94-.1.17.17.33.4.21a.74.74,0,0,0,.27-1.11C126.59,11.22,126.15,11.27,125.94,11.38Z"></path><path class="cls-2" d="M120,11.68a.24.24,0,0,0-.14.25c-.24.29,0,1,.46.89a.39.39,0,0,0,.31-.22c.08,0,.22,0,.21-.11C120.76,12,120.13,11.58,120,11.68Z"></path><path class="cls-2" d="M124.46,13.87c.8,0,.78-1.38,0-1.23-.31,0-.82.48-.41.84C123.74,13.79,124.24,13.86,124.46,13.87Z"></path><path class="cls-2" d="M123.41,10.35a1,1,0,0,0,.15,1.07c.19.19.71.12.92-.56.53,0,.28-.62-.15-.79A.78.78,0,0,0,123.41,10.35Z"></path><path class="cls-2" d="M126.4,14.18c-.12-.11-.44,0-.52.13s-.09.49.18.49A.4.4,0,0,0,126.4,14.18Z"></path><path class="cls-2" d="M127.26,16.6c.37-.4.46-.88.1-1-.09-.33-.9-.15-1,.74S127,16.93,127.26,16.6Z"></path><path class="cls-2" d="M129.49,13c-.26-.38-.72-.09-.41.8,0,.15.25.4.42,0A1.12,1.12,0,0,0,129.49,13Z"></path><path class="cls-2" d="M122.59,15.59c0,.49.34.84.77.63a1.15,1.15,0,0,0,.61-.95c0-.08-.09-.35-.33-.36.07-.09,0-.22-.19-.2A1,1,0,0,0,122.59,15.59Z"></path><path class="cls-2" d="M125.25,16.26c-.08-.16-.29-.14-.42-.08-.66.3-.34,1.38.18.85C125.52,17.15,125.33,16.41,125.25,16.26Z"></path><path class="cls-2" d="M128.06,18.82c0-.23-.13-.43-.48-.41.29-.37,0-.65-.28-.6s-.67.63-.33.91C126.59,19.94,128,19.46,128.06,18.82Z"></path><path class="cls-2" d="M128.87,15.76c.43.11.29-1,0-1S128.26,16.28,128.87,15.76Z"></path><path class="cls-2" d="M128.84,17.8c0,.21.29.27.42.14a2.53,2.53,0,0,0,.34-.89c0-.24-.34-.28-.49-.12A2.18,2.18,0,0,0,128.84,17.8Z"></path><path class="cls-2" d="M123,19c-.12.62.29.51.43.4.33-.25.64-1.56,0-1.57S122.55,19,123,19Z"></path><path class="cls-2" d="M121.43,17.94c.31,0,.91-1.59.07-1.23-.33-.11-.4.39-.4.55C121.1,17.58,121.12,18,121.43,17.94Z"></path><path class="cls-2" d="M129.56,24.51c.48-.28.77-.75.61-1s-.63-.22-1,.17C127.65,23.82,128.48,25.14,129.56,24.51Z"></path><path class="cls-2" d="M128.8,23a.42.42,0,0,0,0-.81,1.23,1.23,0,0,0-1.23.32c-.06.08,0,.18.09.19C127.38,23.16,128.54,23.17,128.8,23Z"></path><path class="cls-2" d="M130.83,22c.2-.08.43-.32.33-.5s-1.22-.15-1.1.29C130.14,22,130.62,22.05,130.83,22Z"></path><path class="cls-2" d="M120.7,19.56c.5,0,.24-.67.09-.82a.28.28,0,0,0-.5.12,1,1,0,0,0,.18.74A.14.14,0,0,0,120.7,19.56Z"></path><path class="cls-2" d="M122.4,20.55c.08-.25,0-.64-.33-.62a.66.66,0,0,0-.45.91c-.29.32.23.42.39.29A1.43,1.43,0,0,0,122.4,20.55Z"></path><path class="cls-2" d="M124.44,21.1c.1-.11.22-.43-.06-.49-.11-.54-1,.17-.71.58C123.87,21.44,124.24,21.3,124.44,21.1Z"></path><path class="cls-2" d="M126.07,20.39c-.57.11.06.53.67.44C127.07,20.78,126.35,19.92,126.07,20.39Z"></path><path class="cls-2" d="M126.89,21.28a.43.43,0,0,0-.61.41c0,.12.43.22.82.09a.3.3,0,0,0,.07-.47A.26.26,0,0,0,126.89,21.28Z"></path><path class="cls-2" d="M125.19,22.36c-.12-.26-1.07-.34-1.48.22s-.16.89.23.86S125.35,22.7,125.19,22.36Z"></path><path class="cls-2" d="M123.31,21.92c-.35-.07-.75.43-.74.79,0,.16.35.09.42,0C123.25,22.47,123.49,22,123.31,21.92Z"></path><path class="cls-2" d="M119.94,24.59c-.18,0-.35.13-.29.28s.36,0,.41-.13S120.06,24.6,119.94,24.59Z"></path><path class="cls-2" d="M121.05,24.58a.35.35,0,0,0,.55.29c.16-.1.46-.52.22-.66S121.06,24.35,121.05,24.58Z"></path><path class="cls-2" d="M123.33,24.42c-.24,0-.46.66-.18.78C123.66,25.42,123.76,24.44,123.33,24.42Z"></path><path class="cls-2" d="M126.33,23.75c.12-.2-.27-.3-.48-.21a.62.62,0,0,0-.33.44c-.3,0-.23.36,0,.32A1.25,1.25,0,0,0,126.33,23.75Z"></path><path class="cls-2" d="M116.13,6a.39.39,0,0,0-.4.66C116,6.81,116.64,6.07,116.13,6Z"></path><path class="cls-2" d="M131.3,10.31c-.34-.27-.77-.26-.86-.13s.4.62.81.58C131.89,10.71,131.61,10.23,131.3,10.31Z"></path><path class="cls-2" d="M132.16,8.85c-.18.17,0,.42.25.5a.2.2,0,0,0,.24-.2C132.64,8.89,132.37,8.65,132.16,8.85Z"></path><path class="cls-2" d="M134.08,9.87c.07-.09.13-.27,0-.35s-.67.17-.33.27C133.69,10,133.91,10.09,134.08,9.87Z"></path><path class="cls-2" d="M93.52,12.94c-.41-.15-1-.06-1.09.43-1.37,0,.52,1.59.83.42C94,13.72,94,13.13,93.52,12.94Z"></path><path class="cls-2" d="M100.47,12.31c.21-.52-.52-.52-.69-.08S100.3,12.76,100.47,12.31Z"></path><path class="cls-2" d="M99.31,14.31c-.18.19-.16.51.11.51.35.73,1.45-.27,1.08-.78C100.3,13.78,99.6,14,99.31,14.31Z"></path><path class="cls-2" d="M97.87,13.11c-.28.2-.38.48-.28.61.29.41,1.08-.05,1.21-.6C98.86,12.86,98.55,12.63,97.87,13.11Z"></path><path class="cls-2" d="M97.85,9.24c.21.1.63.11.73-.21.56-.1,0-.45-.46-.36S97.51,9.09,97.85,9.24Z"></path><path class="cls-2" d="M148.29,27c.22.29.83-.23.47-.42S148.12,26.75,148.29,27Z"></path><path class="cls-2" d="M147.25,28.78c-.52,0-.75-.68-.17-.7S147.84,28.71,147.25,28.78Z"></path><path class="cls-2" d="M145.89,11.36a1.89,1.89,0,0,1-.39.85c-.21.2-.47,0-.44-.12.14-.56-.21-.73-.21-1.07S146,11,145.89,11.36Z"></path><path class="cls-2" d="M143.46,8.75c0-.6-.81-.69-.81-1.44,0-.34.61-1,.17-1.2a1.54,1.54,0,0,0-1.69.47c0,.32.9.17.93.65s.67,1,.94,1.63a1.76,1.76,0,0,1-.52,1.88c-.42.45.19.5,0,.8-.48.82-1.82.48-2.05.9a2.67,2.67,0,0,0,2.41,1c.38-.13,1.23-.46.58-1.52-.14-.23.17-.43.32-.66C144.09,10.73,143.46,10.86,143.46,8.75Z"></path><path class="cls-2" d="M39.09,21.45c-3.22.12-6.49,2.43-10.33,1.14-.33-.11-.54.24-.17.4,3.8,1.66,7.23-1,10.46-1.27C39.2,21.71,39.28,21.45,39.09,21.45Z"></path><path class="cls-2" d="M72.05,3.82a6.3,6.3,0,0,0-2.28-.9c-.12,0-.27.21-.13.25.33.09.6.18.87.27-.13.15,0,.44.16.51s.69,0,.75-.14l.48.24A.14.14,0,0,0,72.05,3.82Z"></path><path class="cls-2" d="M65.5,5c-.16-.13-.53,0-.75.18-.39-.08-.5.33-.25.45a.82.82,0,0,0,.9,0C65.55,5.45,65.68,5.15,65.5,5Z"></path><path class="cls-2" d="M120.13,17.34c0-.28-.27-.32-.34-.21,0-.09-.18-.18-.19-.06a1.83,1.83,0,0,0,.08.9C119.78,18.19,120.18,18,120.13,17.34Z"></path><path class="cls-2" d="M119.56,15.81c0,.29.42.26.55.06S119.59,15.17,119.56,15.81Z"></path><path class="cls-2" d="M120.69,14a.49.49,0,0,0-.24.55c0,.13.09.24.25.14,0,.47.32.58.52.49C121.63,15,121.43,13.68,120.69,14Z"></path><path class="cls-2" d="M129.75,8.57c-.53-.14-.5.23-.33.42C130,9.6,130.28,8.7,129.75,8.57Z"></path><path class="cls-2" d="M128.91,8.43a.24.24,0,0,0,.35-.24C129.09,7.78,128.66,8.26,128.91,8.43Z"></path><path class="cls-2" d="M125.3,18.62c-.44-.12-.43.64-.23.95s.6,0,.59-.58c.28,0,.31-.36.28-.64S125.48,17.84,125.3,18.62Z"></path><path class="cls-2" d="M82.17,6.76a16.34,16.34,0,0,0-3.39-1c-1.86-.33-3-.32-4.18-1-.19-.1-.36.14-.17.25a6.32,6.32,0,0,0,2.31.72c-.7.27-.21.78.72.59.23,0,.4-.27.22-.43l0,0,1.09.18c.33.06.73.16,1.15.27a.12.12,0,0,0,0,.14c.19.31.91.3,1.05.2a0,0,0,0,0,0,0l1,.33C82.42,7.2,82.45,6.88,82.17,6.76Z"></path><path class="cls-2" d="M73.53,4.33c-.88-.36-.69.16-.27.34C73.85,4.91,74.31,4.65,73.53,4.33Z"></path><path class="cls-2" d="M128.2,25.34a11.39,11.39,0,0,1-2.19-.48c-.2-.06-.41.15-.26.3a6.19,6.19,0,0,1-.91.71c-.19.13-.17.43.11.3a5.28,5.28,0,0,0,1.21-.8,12.36,12.36,0,0,0,1.91.25C128.34,25.61,128.49,25.38,128.2,25.34Z"></path><path class="cls-2" d="M123.77,26.25c-.15.29.21.39.37.16.31-.48.28-.75.12-.71S124,25.91,123.77,26.25Z"></path><path class="cls-2" d="M122.94,25.53c-.25,0-.48.46-.18.46S123.23,25.53,122.94,25.53Z"></path><path class="cls-2" d="M140.24,26.52c0-.36-.93-.44-.86-.07S140.18,26.88,140.24,26.52Z"></path><path class="cls-2" d="M131.26,25c-.21.32.11.43.36.22a1.35,1.35,0,0,0,.36-.51c.12-.24-.09-.35-.27-.19A1.89,1.89,0,0,0,131.26,25Z"></path><path class="cls-2" d="M130.25,25c-.25.17,0,.4.37.21s.53-.51.42-.55S130.63,24.72,130.25,25Z"></path><path class="cls-2" d="M132.86,22a.41.41,0,0,0-.3.66c.14.2,1.3.8,1.41.21S133.42,21.93,132.86,22Z"></path><path class="cls-2" d="M136.84,23c-.17-.16-.84-.2-1,.08s.3.36.85.22C136.87,23.3,137,23.16,136.84,23Z"></path><path class="cls-2" d="M135.89,22c-.6.05-.49.44-.32.53s.88.18,1-.09S136.27,21.94,135.89,22Z"></path><path class="cls-2" d="M138.55,23.14c.08.21.72.21.94-.08C140,22.42,138.3,22.46,138.55,23.14Z"></path><path class="cls-2" d="M141.57,23c-.34,0-.62.6-.2.76a1.36,1.36,0,0,0,1.1,0C142.79,23.43,141.9,22.92,141.57,23Z"></path><path class="cls-2" d="M144.34,23.4c-.6-.28-.9.47-.09.74A.38.38,0,0,0,144.34,23.4Z"></path><path class="cls-2" d="M145.32,24.05c-.24-.06-.47.38-.19.46S145.84,24.17,145.32,24.05Z"></path><path class="cls-2" d="M141.29,24.05a1.1,1.1,0,0,0-.92-.32.5.5,0,0,0-.11,1C141.4,25.08,141.51,24.32,141.29,24.05Z"></path><path class="cls-2" d="M152.88,25.25c-.42.26-.41.9-.8.81-.15,0-.25-.21-.23-.57s-.27-.44-.51,0c-.4.79-1.24.52-2.11.93-.31.15-.24.55-.09.59a5.3,5.3,0,0,0,3.4-.32,2.43,2.43,0,0,0,1.25-1.31C153.91,25.12,153.32,25,152.88,25.25Z"></path><path class="cls-2" d="M137.53,26.2a4.91,4.91,0,0,1-.59.37c-.24.12-.2.51.17.31a2.34,2.34,0,0,0,.61-.45C137.89,26.27,137.74,26.05,137.53,26.2Z"></path><path class="cls-2" d="M135.2,26.31c-.4.08-.85.21-1.17.31s-.34.45,0,.39a7.86,7.86,0,0,0,1.23-.38C135.47,26.53,135.44,26.26,135.2,26.31Z"></path><path class="cls-2" d="M136.37,25a9.27,9.27,0,0,0-1.93-.12.42.42,0,0,0,.11-.53c-.3-.42-1.14,0-1.35.31a.4.4,0,0,0,.07.32l-.69.1c-.23,0-.38.36-.06.33a17,17,0,0,1,3.67-.07C136.43,25.4,136.68,25.08,136.37,25Z"></path><path class="cls-2" d="M136.56,26.1c-.08.06-.23.25-.3.31,0-.32-.3-.28-.32-.08s0,.36,0,.54.19.12.29,0,.41-.42.56-.56S136.76,26,136.56,26.1Z"></path><path class="cls-2" d="M139.55,25.33a11.47,11.47,0,0,0-2.33-.22c.21-.25-.08-.43-.22-.26a1.77,1.77,0,0,0-.21.32c-.12.25.13.31.3.21a11.7,11.7,0,0,1,2.31.17C139.61,25.59,139.8,25.41,139.55,25.33Z"></path><path class="cls-2" d="M114.23,24a5.78,5.78,0,0,0-.38.74c-.11.28.11.39.25.23a3.74,3.74,0,0,0,.4-.87C114.6,23.86,114.35,23.86,114.23,24Z"></path><path class="cls-2" d="M112.44,21.46c0,.58-.21,1.06-.49.75-.25.26-.67,0-.15-.43.11-.1.26.08.26.08s.06-.16.14-.41S112.43,21.28,112.44,21.46Z"></path><path class="cls-2" d="M104.76,25.3c-.13.29-.18.43-.29.73s.31.35.42.07a6.34,6.34,0,0,0,.23-.74C105.22,25,104.86,25.08,104.76,25.3Z"></path><path class="cls-2" d="M87,22.85c-.19,0-.65.46-.31.49S87.3,22.85,87,22.85Z"></path><path class="cls-2" d="M147.44,26.68c-1.75-.58-3.53.11-5-.54-.23-.1-.38.15-.12.28,1.35.64,3.17.1,5,.5C147.54,27,147.74,26.78,147.44,26.68Z"></path><path class="cls-2" d="M43.56,15.44c.23-.18.33-.44,0-.78,0-.78-.54-1-.71-1-.34-1-1.26.11-.84.75-.37.67,0,1.49.56,1.23h0c-.82.21-1.67.47-2.5.72.28-.16.51-.55.32-.82.17-.3.09-.79-.26-.81.29-.63-.63-.31-.57-.58s-.31-.19-.45-.08a.43.43,0,0,0-.12.51c-.38.3-.48,1,0,1.14-.17.39-.06.8.27.89l-.75.21c-.35.13-.19.44.19.33,5.31-1.46,8.6-2.79,8.89,0,0,.24.3.09.3-.11C47.86,15,45.94,14.92,43.56,15.44Z"></path><path class="cls-2" d="M34.73,18l-.92.27a1.67,1.67,0,0,0,0-1.22c-.13-.53-.36-1.35-1-1.26a.45.45,0,0,0-.34.46c0,.25.08.49-.22.63-.15.07-.16.38.05.41a1.66,1.66,0,0,0-.15,1.34.21.21,0,0,0,.15.1l-.86.32a.36.36,0,0,0-.3-.53.77.77,0,0,0-.4-1.21c.29-.38,0-1-.45-.66s-.92,1.21-.45,1.33a.4.4,0,0,0,.13.56c-.32.38-.5,1.06-.1,1.17a.49.49,0,0,0,.21,0,10.47,10.47,0,0,0-.91.55c-.15.1.11.25.24.18a23,23,0,0,1,5.27-2.2C34.9,18.18,34.92,17.93,34.73,18Z"></path><path class="cls-2" d="M46.94,17.21a1.67,1.67,0,0,0-.89-.55c-.13,0-.38.12-.28.27l.12.19a1.82,1.82,0,0,0-.68-.19c-.16,0-.41.27-.2.38.45.22,1,.32,1.39.58.13.08.36-.14.27-.27s-.14-.22-.2-.33l.27.16C46.86,17.53,47,17.31,46.94,17.21Z"></path><path class="cls-2" d="M45.41,17.82A2.7,2.7,0,0,0,44,17.44c-.11,0-.28.26-.12.31.46.13.94.24,1.41.33C45.41,18.11,45.54,17.9,45.41,17.82Z"></path><path class="cls-2" d="M57.11,10.41a41.45,41.45,0,0,1-4.78,3,.24.24,0,0,0-.14-.4c.42-.19.21-.75-.32-.82.28-.46-.41-.64-1-.58-.16,0-.24.38,0,.4a1.19,1.19,0,0,0,.22,0,.42.42,0,0,0-.19.77c-.36.58.42.91,1,.85l-.81.4c-.14.06-.06.36.12.29a23.58,23.58,0,0,0,6.06-3.7C57.34,10.52,57.25,10.3,57.11,10.41Z"></path><path class="cls-2" d="M27.44,19.29c.36,0,.43-.19.4-.34-.07-.38-1-.79-1.37-.9s-.41.35,0,.57c0,0-.84-.26-1.2.33-.27-.15-.71-.19-.77,0a.86.86,0,0,0,.17.65c.24.38-.33.42-.66.69s-.34.6.82,1.11c-.76,1,1.84,1.42,3,1.22.45-.07.42-.37.21-.57a.77.77,0,0,1,.23-1.34C29,20.47,28.66,20,27.44,19.29Z"></path><path class="cls-2" d="M101.29,7.51c-2.49-.12-5.64-.09-8.71,0-.16,0-.25.31,0,.3l1.42,0a.27.27,0,0,0-.1.16c-.08.61,2,.28,1.49-.19l1.81,0c0,.24.92.39,1.06,0h1.35c-.15.14-.07.31.14.34.47.06,1.16-.1.93-.33h.54C101.32,7.78,101.46,7.53,101.29,7.51Z"></path><path class="cls-2" d="M73.85,20.72a6.92,6.92,0,0,0-1.67.54c-.23.1-.21.33.08.22s1.08-.39,1.61-.53C74.08,20.89,74.07,20.68,73.85,20.72Z"></path><path class="cls-2" d="M67.24,21.54a1,1,0,0,0-.46,0c-.25,0-.43.45-.17.49a1.55,1.55,0,0,0,.64-.08C67.42,21.85,67.46,21.6,67.24,21.54Z"></path><path class="cls-2" d="M86.49,22.4a6,6,0,0,0-.39.7c0,.15,0,.33.16.2a3.19,3.19,0,0,0,.5-.8C86.84,22.32,86.57,22.29,86.49,22.4Z"></path><path class="cls-2" d="M85.45,21.86c-.1-.22-.33-.1-.29.11s0,.39.08.58.31.09.31-.16A1.84,1.84,0,0,0,85.45,21.86Z"></path><path class="cls-2" d="M84.7,21.27c-.09-.12-.29,0-.27.12a4.61,4.61,0,0,0,.15.84c.06.14.32,0,.3-.16A2.43,2.43,0,0,0,84.7,21.27Z"></path><path class="cls-2" d="M84.2,21.84a1.24,1.24,0,0,0-.17-.23c-.2-.21-.29.05-.22.16L84,22C84.06,22.22,84.29,22,84.2,21.84Z"></path><path class="cls-2" d="M82.14,21.19l-.22.28c-.14.2.14.33.28.12s.14-.22.19-.33S82.22,21.09,82.14,21.19Z"></path><path class="cls-2" d="M81.64,20.73l-.09.2-.06-.1c-.12-.21-.35,0-.27.2a2.13,2.13,0,0,0,.14.35c0,.12.19.12.27,0a2.73,2.73,0,0,0,.29-.53C82,20.64,81.74,20.55,81.64,20.73Z"></path><path class="cls-2" d="M88.13,23.3a4.89,4.89,0,0,0-.37.41c-.11.14.07.27.19.15a4.71,4.71,0,0,0,.36-.42C88.42,23.31,88.25,23.18,88.13,23.3Z"></path><path class="cls-2" d="M88.82,23.17a8,8,0,0,0-.51.72c-.14.21.12.44.27.25a3.39,3.39,0,0,0,.39-.75C89.05,23.16,88.92,23.06,88.82,23.17Z"></path><path class="cls-2" d="M92.46,25l-.36.07.08-.2c.09-.19-.14-.31-.25-.13s-.22.39-.3.56,0,.22.15.2a2,2,0,0,0,.41-.11v.27c0,.24.28.19.36,0s.06-.26.09-.43S92.63,24.94,92.46,25Z"></path><path class="cls-2" d="M89.91,23.81l-.22.22s0-.13,0-.19-.22-.12-.24,0a2.66,2.66,0,0,0,0,.74.15.15,0,0,0,.28.08,3.67,3.67,0,0,0,.42-.61C90.18,23.87,90.05,23.67,89.91,23.81Z"></path><path class="cls-2" d="M93.08,25a1.86,1.86,0,0,0-.19.4c-.07.2.14.25.24.09a1.58,1.58,0,0,0,.19-.4C93.39,24.89,93.17,24.84,93.08,25Z"></path><path class="cls-2" d="M91.22,24.79a4.21,4.21,0,0,0-.11.6c0,.2.25.14.29,0s.09-.43.13-.65S91.25,24.63,91.22,24.79Z"></path><path class="cls-2" d="M90.72,22.43l-.29.33c-.12.15.08.24.19.14a1.85,1.85,0,0,0,.25-.32C90.94,22.46,90.79,22.35,90.72,22.43Z"></path><path class="cls-2" d="M91.57,22.63a2.37,2.37,0,0,0-.33.22v-.09c0-.16-.24-.06-.26,0s-.06.22-.09.35.14.17.23.11a6.42,6.42,0,0,0,.53-.38C91.75,22.8,91.76,22.54,91.57,22.63Z"></path><path class="cls-2" d="M97.22,26.57c0-.18-.06-.55-.09-.73s-.33-.08-.32.08.07.55.1.73S97.24,26.73,97.22,26.57Z"></path><path class="cls-2" d="M104.24,26.24c0-.19-.11-.37-.17-.56s-.33-.08-.29.11a3.53,3.53,0,0,0,.14.56C104,26.57,104.27,26.42,104.24,26.24Z"></path><path class="cls-2" d="M131.3.24a7.55,7.55,0,0,0-2-.12c-.11,0-.2.19,0,.19.4,0,.78,0,1.17.08a.2.2,0,0,0,0,.11c-.38.28.06.74.32.65s.14-.29,0-.38c.16-.13.14-.25.06-.34l.33,0C131.36.49,131.49.29,131.3.24Z"></path><path class="cls-2" d="M124,5.47c-.61-.21-.61.55-.25.69.55.22,1,.24,1.19-.26S124.18,4.91,124,5.47Z"></path><path class="cls-2" d="M135.91,1a3.72,3.72,0,0,0-.74-.14c-.12,0-.27.22-.13.26l.64.16C135.86,1.27,136.12,1,135.91,1Z"></path><path class="cls-2" d="M140.7,7.4c0-.13-.11-.16-.21-.1a.62.62,0,0,0-.24.24c-.09.15.09.21.16.15a1,1,0,0,0,.05.17c0,.16.28,0,.27-.14S140.71,7.48,140.7,7.4Z"></path><path class="cls-2" d="M139.39,7.85c0-.25-.53-.49-.7-.12S139.49,8.39,139.39,7.85Z"></path><path class="cls-2" d="M138.35,8.61c-.29,0-.47.39-.18.44C138.64,9.12,138.8,8.59,138.35,8.61Z"></path><path class="cls-2" d="M136.72,8.47c-.27-.35-.91.27-.46.55S137,8.67,136.72,8.47Z"></path><path class="cls-2" d="M135,5.75a.57.57,0,0,0-.17.06,1.46,1.46,0,0,1,.21-.24c.12-.1,0-.28-.13-.18a1.15,1.15,0,0,0-.47.73c0,.16.16.14.23.07s0,.1,0,.22.18,0,.21,0a2,2,0,0,1,.24-.45C135.19,5.83,135.13,5.72,135,5.75Z"></path><path class="cls-2" d="M135.09,7.24a.87.87,0,0,0-.46.36c-.11.19.1.22.23.12a2.57,2.57,0,0,0,.29-.28C135.25,7.31,135.24,7.21,135.09,7.24Z"></path><path class="cls-2" d="M135.4,8c-.27-.42-.7.29-.6.44S135.6,8.31,135.4,8Z"></path><path class="cls-2" d="M136.81,9.69a.3.3,0,1,0,.07.58c.1,0,.25-.15.1-.28C137.15,9.91,137,9.69,136.81,9.69Z"></path><path class="cls-2" d="M135.76,9.9c-.42,0-.53.66-.11.66A.33.33,0,0,0,135.76,9.9Z"></path><path class="cls-2" d="M138.29,9.6c-.28,0-.37.32-.09.33S138.49,9.58,138.29,9.6Z"></path><path class="cls-2" d="M139.86,8.87c-.3,0-.55.49-.19.49S140.23,8.87,139.86,8.87Z"></path><path class="cls-2" d="M140.75,9.43a.16.16,0,1,0-.16.28C140.81,9.79,141,9.53,140.75,9.43Z"></path><path class="cls-2" d="M137.41,7.05c0-.23-.58,0-.37.22S137.42,7.25,137.41,7.05Z"></path><path class="cls-2" d="M138.1,6c-.15-.12-.36-.16-.48,0s0,.46.32.36S138.31,6.15,138.1,6Z"></path><path class="cls-2" d="M138.82,5.69c-.1,0-.41.11-.3.3C138.74,6.37,139.15,5.73,138.82,5.69Z"></path><path class="cls-2" d="M143.21,4.9c-.14-.21-.51.07-.39.26l.16.26C143.12,5.63,143.41,5.23,143.21,4.9Z"></path><path class="cls-2" d="M141.1,2.89c-.22,0-.35.35-.08.35S141.37,2.89,141.1,2.89Z"></path><path class="cls-2" d="M121.27,22.44c-.3-.27-1.21.15-1.23.3a.21.21,0,0,0,.27.21l.45-.09a.46.46,0,0,0-.16.38c.07.27,1-.31,1.22-.71C121.89,22.42,121.7,22.12,121.27,22.44Z"></path><path class="cls-2" d="M134.51,5.13c-.09,0-.19,0-.24.09l-.12.16a.14.14,0,0,0,0,.21c.09,0,.19,0,.24-.09l.12-.16C134.58,5.28,134.59,5.17,134.51,5.13Z"></path><path class="cls-2" d="M128.17,4.32c.27-.31-.35-.64-.48-.69s-.26.16-.2.28a1.71,1.71,0,0,0,.32.37c-.46.22.18.61.35.6S128.59,4.67,128.17,4.32Z"></path><path class="cls-2" d="M130.81,2.4h0c-.23-.2-.66.24-.43.44h0C130.61,3,131,2.6,130.81,2.4Z"></path><path class="cls-2" d="M130.2,1.77a.21.21,0,0,0,.41,0C130.69,1.63,130.28,1.47,130.2,1.77Z"></path><path class="cls-2" d="M131.49,4.26c-.23-.21-.78-.07-.51.19S131.76,4.53,131.49,4.26Z"></path><path class="cls-2" d="M144.1,13.58a1.53,1.53,0,0,1-.86.25c-.21,0-.26.11-.3.22-.47,1.1-2.06.78-2.9.48-.22-.08-.4.14-.16.24,1.34.51,2.87.56,3.36-.64a2,2,0,0,0,.95-.32C144.37,13.68,144.35,13.43,144.1,13.58Z"></path><path class="cls-2" d="M139.66,14.06c-.15.1-.29.22-.44.34s-.12.54.19.28l.43-.36A.16.16,0,0,0,139.66,14.06Z"></path><path class="cls-2" d="M139,14c-.23,0-.53.42-.24.42S139.27,14,139,14Z"></path><path class="cls-2" d="M132.23,20.6a8,8,0,0,0-2.94-.21.85.85,0,0,0-.56-.88c-.42-.05-.33.67,0,.94l-.63.09c-.27.05-.1.27.09.25a10.66,10.66,0,0,1,3.91,0C132.33,20.82,132.47,20.64,132.23,20.6Z"></path><path class="cls-2" d="M134.77,13.17a3.82,3.82,0,0,1-1.55-.85,1.33,1.33,0,0,1-.3-1.64h0c.51.14.14-.65-.25-.68s-.2.29,0,.5a1.09,1.09,0,0,0-.4.74c-.47-.32-1.28.24-.8.53a12.33,12.33,0,0,0-1.23.4h0c0-.16,0-.33-.09-.49.22.07.46,0,.37-.25a.46.46,0,0,0-.54-.27,6.58,6.58,0,0,0-.7-1.52c-.13-.19-.32,0-.22.24a10.68,10.68,0,0,1,1,4.26c0,.29.28.1.29-.11a10.53,10.53,0,0,0,0-1.25h0c.49-.1,1.64-.37,2-.5a2.72,2.72,0,0,0,2.25,1.19C134.75,13.48,135,13.24,134.77,13.17Z"></path><path class="cls-2" d="M57.71,15.28a.61.61,0,0,0-.46.22s.07-.48.09-.58a.14.14,0,0,0-.27-.08c0,.12-.11.49-.24,1.06a5.2,5.2,0,0,0-1.23.61.13.13,0,1,0,.14.21A9,9,0,0,1,57,16.16c.54.08.92-.32.69-.54C57.85,15.43,57.87,15.31,57.71,15.28Z"></path><path class="cls-2" d="M106.93,6l.5-.31c.16-.11,0-.29-.13-.2A14.62,14.62,0,0,1,103.55,7c-.33.08-.3.35-.06.3a9.71,9.71,0,0,0,1.18-.3c-.08.23.11.45.5.4s.65-.51.33-.7c.24-.1.45-.21.67-.31-.11.14.25.26.36.11a.55.55,0,0,0,1-.19C107.54,6.05,107.21,6,106.93,6Z"></path><path class="cls-2" d="M96.69,24.48c0-.16-.12-.32-.18-.48a.16.16,0,0,0-.28-.05.34.34,0,0,0-.31.17l-.18.35c-.14.31.31.28.42.05h0l.09.25C96.37,25,96.77,24.71,96.69,24.48Z"></path><path class="cls-2" d="M136.8,2.06c-.24,0-.47.4-.18.4S137.09,2.06,136.8,2.06Z"></path><path class="cls-2" d="M138.1,2.92h0c-.11-.12-.31,0-.37.1h0C137.38,3.53,138.46,3.31,138.1,2.92Z"></path><path class="cls-2" d="M140.61,2.69a21.42,21.42,0,0,0-4.1-1.54c-.2-.09-.32.09-.11.22a8,8,0,0,0,1.36.5c-.1.09-.1.24.1.31s.42,0,.45-.13a12,12,0,0,1,2.13.85C140.65,3,140.81,2.81,140.61,2.69Z"></path><path class="cls-2" d="M136.94,13.71c-.31-.07-.59-.15-.89-.2s-.41.25-.13.3.64.11.92.14S137.19,13.77,136.94,13.71Z"></path><path class="cls-2" d="M38.41,20.25c-.3,0-.39.52,0,.47S38.79,20.29,38.41,20.25Z"></path><path class="cls-2" d="M46.2,22.79c.21-.78-2.2-.47-4-1.55.21-.12.3-.35,0-.44a.38.38,0,0,0-.48.39,4.45,4.45,0,0,0-1,0c-.36.06-.46.49-.08.55a5.86,5.86,0,0,1-2.08,1,5.83,5.83,0,0,0-1.87,1.17c-.25.24,0,.4.29.19a6.41,6.41,0,0,1,2-.82c-.13.69,1.68.51,1.75-.37.61.84,1.52.32,1.94.74-.42,1,1.21.66,1.54.43s.28-.72-.4-.87C45.07,22.57,46,23.4,46.2,22.79Z"></path><path class="cls-2" d="M45.29,19.59c-.13-.14-.85-.29-.76,0-.32.14-.26.42,0,.58C45,20.48,45.57,19.93,45.29,19.59Z"></path><path class="cls-2" d="M43.75,20.29a4.51,4.51,0,0,0-.52,0c-.18,0-.42.37-.18.47a.8.8,0,0,0,.55.07.27.27,0,0,0,.17-.13C43.91,20.56,44,20.31,43.75,20.29Z"></path><path class="cls-2" d="M46.19,20.62c-.35-.47-1.65.1-1.15.63a.71.71,0,0,0,.93.08A.49.49,0,0,0,46.19,20.62Z"></path><path class="cls-2" d="M43.07,19.92c-.1-.31-.83-.18-.72.06S43.18,20.3,43.07,19.92Z"></path><path class="cls-2" d="M143.62,22.35a16.92,16.92,0,0,0-4.38-.66c-.21,0-.29.21,0,.22.48,0,1,.07,1.44.12-.08.1,0,.33.3.35s.53-.12.52-.24c.67.1,1.34.23,2.05.4C143.74,22.58,143.87,22.42,143.62,22.35Z"></path><path class="cls-2" d="M142.33,27.15c-.33.19.36.79.75.41C143.29,27.36,142.53,27,142.33,27.15Z"></path><path class="cls-2" d="M132.58,23.26c0-.27-.54-.59-.59-.26S132.52,23.6,132.58,23.26Z"></path><path class="cls-2" d="M29.47,27c-.49.28-.58,1.72-1.13,2.21A6.88,6.88,0,0,0,27,30.75c-.49,1,.42,1,.76.9s.42-.3.8-.15.38-.74.47-1.13c.35-1.41,1.19-2,1.22-2.54C30.33,27,29.87,26.73,29.47,27Z"></path><path class="cls-2" d="M26.47,32.78c-.33.68,1.51.62,1.7.26.27-.52-.48-.88-.84-.83A1.08,1.08,0,0,0,26.47,32.78Z"></path><path class="cls-2" d="M142.74,4.29c-.07-.21-.37,0-.16.25S142.83,4.54,142.74,4.29Z"></path><path class="cls-2" d="M122.09,13.28c-.23.73.32.75.57.57s.37-.78-.08-.69C122.59,12,121.21,13.22,122.09,13.28Z"></path><path class="cls-2" d="M128.23,13.52a1.69,1.69,0,0,0-.18-1.12c-.08-.18-.38-.08-.44.12s-.22.53-.28.79.36.28.43.07C127.83,13.65,128.15,13.74,128.23,13.52Z"></path><path class="cls-2" d="M90.87,14.53c.15-.14.15-.6-.4-.6s-1.07.52-1,.91S90.39,15,90.87,14.53Z"></path><path class="cls-2" d="M120.16,20.86c-.3-1-.7-.66-.84-.3a25.77,25.77,0,0,0-.74-4.07c.34.11.49-.18.39-.36a.82.82,0,0,0-.48-.43v-.23c.09,0,.24-.12.1-.22a3.32,3.32,0,0,0-.78-.3c-.15,0-.32.21-.18.28s.29.11.43.16c0,2.56,1.32,4.26.59,8.31,0,.2.23.38.33,0a10.57,10.57,0,0,0,.36-2.62.66.66,0,0,0,.4.4C119.94,21.54,120.29,21.32,120.16,20.86Z"></path><path class="cls-2" d="M116.51.75c-.11-.08-.35,0-.27.18s.25.49.57.33S116.59.81,116.51.75Z"></path><path class="cls-2" d="M124.1.15c-2.51.07-4.78.44-6.7.5h0l0,0c-.27-.2-.62,0-.37.24l.45.34c.26.2.62,0,.36-.24l-.09-.07c.81,0,1.65-.11,2.49-.19-.14.07.07.24.33.2,0,0-.28.11-.25.35s.47.29.72.25.35-.48,0-.58c.13-.06.19-.22.07-.3l1.11-.1a.29.29,0,0,0,.18.49c.38.09.71,0,.78-.24s-.1-.22-.28-.3l1.23-.08C124.47.39,124.38.14,124.1.15Z"></path><path class="cls-2" d="M140.87,27.85c-1.57-.42-1.24-1.14.2-.67C142.25,27.56,141.61,28.05,140.87,27.85Z"></path><path class="cls-2" d="M134.49,11c-.32,0-.47.4-.08.4S134.88,11,134.49,11Z"></path><path class="cls-2" d="M118.85,14.89c.15-.07-.3-.42-.41-.47-.32-.15-.4.12-.23.23S118.72,15,118.85,14.89Z"></path><path class="cls-2" d="M57.35,26.45c-.19-.65-.83-1.28-1.17-1.26s-.55.38-1.13.24l-.42-.11c.52-.62-1-.77-1.13-.32l-1-.29a.31.31,0,0,0-.19-.37.54.54,0,0,0-.62.08,1.23,1.23,0,0,0-.91-.1c-.54.23-.46.87.06,1.19a1.13,1.13,0,0,0,1.35-.2c.75.09,1.15.42,1.26.75-.59.25-.4.55.16.62C54.49,26.78,57.52,27.05,57.35,26.45Z"></path><path class="cls-2" d="M77.65,11.36a.65.65,0,0,0-.29-.72.44.44,0,0,0-.51.12c-.1.11-.39.84-.12,1.08s.7-.41.7-.41S77.64,11.45,77.65,11.36Z"></path><path class="cls-2" d="M75.59,10.6a.65.65,0,0,0-.75.65.39.39,0,0,0,.36.37.42.42,0,0,0,.31-.13C75.89,11.41,76.16,10.52,75.59,10.6Z"></path><path class="cls-2" d="M134.56.68a2.68,2.68,0,0,0-1.27-.13c-.16,0-.15.2,0,.24s.8.07,1.16.18C134.65,1,134.73.74,134.56.68Z"></path><path class="cls-2" d="M156.51,29.51c-.34,0-.31.34-.6.33-.53,0-.74-.38-1.25-.27-.74.16-1.06,1.19-1.56,1.29-.83.18-.45-1-1.62-1.11-.06-.59-.63-1.24-1.21-1.12s-.59.8-.62,1c-1.2.28-1.33.87-2.33,1a.51.51,0,0,0-.17.93c.81.35,1.51-.28,2.18,0a7.55,7.55,0,0,0,7.45-.72C157.16,30.56,157,29.51,156.51,29.51Z"></path><path class="cls-2" d="M126.11,27.15a1.07,1.07,0,0,0-.88.17,1.05,1.05,0,0,0-.31.32c-.18.26.17.46.38.49a1.41,1.41,0,0,0,.78-.12.54.54,0,0,0,.38-.41A.43.43,0,0,0,126.11,27.15Z"></path><path class="cls-2" d="M129.34,25.78v0a.27.27,0,0,0-.16-.28.28.28,0,0,0-.2,0,.86.86,0,0,0-.55.43.31.31,0,0,0-.05.26.28.28,0,0,0,.29.16,1.09,1.09,0,0,0,.45-.18A.47.47,0,0,0,129.34,25.78Z"></path><path class="cls-2" d="M128.43,27.31c-.12-.28-.58-.33-.93-.26s-.24.23-.13.3a.43.43,0,0,0-.15.27c0,.29.29.44.61.39S128.56,27.62,128.43,27.31Z"></path><path class="cls-2" d="M130.08,25.77a.19.19,0,0,1,.08.34.19.19,0,0,1-.25-.28A.16.16,0,0,1,130.08,25.77Z"></path><path class="cls-2" d="M131.56,26.88c-.22-.41-.91-.17-1.24-.05a.22.22,0,0,0-.16.24.28.28,0,0,0-.21.35c.09.42.64.34.94.22S131.77,27.27,131.56,26.88Z"></path><path class="cls-2" d="M143.17,29.62c-.06-.42-.42-.91-.73-.92s-.31.22-.23.41a.45.45,0,0,0-.22.08c-.54.39.48,1,.87,1S143.2,29.87,143.17,29.62Z"></path><path class="cls-2" d="M132.2,28.64a1.27,1.27,0,0,0-1-.31c-.4.05-.15.5,0,.58a2.41,2.41,0,0,0,.87.16A.28.28,0,0,0,132.2,28.64Z"></path><path class="cls-2" d="M145.88,28.89a1.8,1.8,0,0,0-.32-.06c-.25,0-.29.41,0,.42C146,29.27,146.12,29,145.88,28.89Z"></path><path class="cls-2" d="M151.19,24.77a.2.2,0,0,0-.24-.14,1.3,1.3,0,0,0-.48.25.2.2,0,0,0-.05.21.19.19,0,0,0,.28.18C150.89,25.19,151.26,25.05,151.19,24.77Z"></path><path class="cls-7" d="M154.81,29.55c.16.09.52.27.63,0s-.27-.4-.45-.4S154.57,29.42,154.81,29.55Z"></path><path class="cls-2" d="M154,29c-.11-.06-.36,0-.37.13s.05.17.16.15S154.22,29.11,154,29Z"></path><path class="cls-2" d="M148.34,29.71c.13.17-.56.64-.88.23S148.15,29.44,148.34,29.71Z"></path><path class="cls-2" d="M146.49,31.19l-.4-.06a1.51,1.51,0,0,0,.25-.13.19.19,0,0,0,0-.36,2.28,2.28,0,0,0-.58-.09.2.2,0,0,0-.09.39c-.45.18-.35.49-.16.56a2.15,2.15,0,0,0,.92.07C146.68,31.53,146.65,31.21,146.49,31.19Z"></path><path class="cls-2" d="M136,1.87c-.11-.1-.37-.34-.54-.27a.41.41,0,0,0-.15.19,1.14,1.14,0,0,0-.28-.26c-.14-.09-.28.07-.15.18a1.81,1.81,0,0,1,.41.46.15.15,0,0,0,.27,0c0-.07,0-.22,0-.22l.25.19C136,2.19,136.18,2,136,1.87Z"></path><path class="cls-2" d="M136.4,3.18a.63.63,0,0,0-.48.18c-.1.1,0,.36.15.33a.93.93,0,0,0,.42-.21C136.6,3.39,136.5,3.19,136.4,3.18Z"></path><path class="cls-7" d="M150.91,28.47c-.09,0-.2.07-.17.16a.81.81,0,0,0,.33.37c.16.07.27,0,.25-.11A.5.5,0,0,0,150.91,28.47Z"></path><path class="cls-7" d="M132.78,28.91a15.43,15.43,0,0,1-3.73-.7,7,7,0,0,0-2-.46c-1.08,0-2.41.35-2.93-.37-.11-.16-.4.08-.27.31.59,1.06,2.72.2,4.15.57a20.73,20.73,0,0,0,4.74,1C133,29.27,133.06,28.93,132.78,28.91Z"></path><path class="cls-2" d="M134,28.17a.6.6,0,0,0-.49,0,.32.32,0,0,0,0,.43.17.17,0,0,0,.26,0A.28.28,0,0,0,134,28.17Z"></path><path class="cls-2" d="M126.65,26.09a1.59,1.59,0,0,0-.56.14c-.12.05-.26.19-.21.32.12.34.66.06.82-.07S126.88,26.08,126.65,26.09Z"></path><path class="cls-7" d="M136.61,28.26c-.12.17,0,.38.2.55-.17,0-.2.18,0,.28a1.22,1.22,0,0,0,.77.1c.07,0,0-.24,0-.29C138.06,28.45,136.82,28,136.61,28.26Z"></path><path class="cls-7" d="M144.16,30.64a17.34,17.34,0,0,0-8.39-1.56c-.29,0-.18.42.09.41A18.74,18.74,0,0,1,144,31,.21.21,0,0,0,144.16,30.64Z"></path></g></g><g id="Whiskers_and_claws" data-name="Whiskers and claws"><path class="cls-3" d="M141.44,13.39A3.55,3.55,0,0,1,142.75,12c.11-.07.22.11.1.19a3.28,3.28,0,0,0-1.19,1.29C141.59,13.55,141.39,13.5,141.44,13.39Z"></path><path class="cls-3" d="M142.37,13.57a4.28,4.28,0,0,0,.63-1c.09-.18.27-.08.2.1a5.66,5.66,0,0,1-.63,1C142.44,13.84,142.25,13.71,142.37,13.57Z"></path><path class="cls-3" d="M150.4,29.2c-.67.37.42,1.24.63,1.14S151,28.92,150.4,29.2Z"></path><path class="cls-3" d="M154.77,29.85c-.71.32.35,1.1.57,1S155.29,29.6,154.77,29.85Z"></path></g></g></g></svg> 