<?xml version="1.0" encoding="UTF-8"?> <svg xmlns="http://www.w3.org/2000/svg" width="157" height="100" viewBox="0 0 157 100"><title>cheetah-conservation-fund-united-states-logo</title><g><g><path d="M27,95.3a5.2,5.2,0,0,1-.8,3.1,4.4,4.4,0,0,1-3.5,1.5,4.6,4.6,0,0,1-3.6-1.5,5.3,5.3,0,0,1-.7-3.1V90.4H21v4.8a2.8,2.8,0,0,0,.4,1.8,1.6,1.6,0,0,0,1.3.6A1.5,1.5,0,0,0,24,97a2.6,2.6,0,0,0,.4-1.8V90.4H27Z" fill="#d89c29"></path><path d="M33.6,96.4c-.5-.7-.9-1.4-1.4-2h0v5.3H29.7V90.4h2.4l2.5,3.4a24.3,24.3,0,0,1,1.4,2h.1a19.3,19.3,0,0,1-.1-2.4v-3h2.6v9.3H36.1Z" fill="#d89c29"></path><path d="M41.3,90.4H44v9.3H41.3Z" fill="#d89c29"></path><path d="M49,92.7H46.1V90.4h8.5v2.3H51.7v7H49Z" fill="#d89c29"></path><path d="M56.7,90.4h6.1v2.3H59.4v1.2h2.9V96H59.4v1.5h3.5v2.2H56.7Z" fill="#d89c29"></path><path d="M65.4,90.4h2.7a7.1,7.1,0,0,1,4.3,1.1,4.8,4.8,0,0,1,.3,6.9c-.9.9-2.3,1.3-4.6,1.3H65.4Zm2.7,7.1c1.7,0,2.4-.3,2.8-.8a2.2,2.2,0,0,0,.5-1.6,2.3,2.3,0,0,0-.8-1.9,4.4,4.4,0,0,0-2.5-.5H68v4.8Z" fill="#d89c29"></path><path d="M80.7,96.7a7.2,7.2,0,0,0,3.1,1c.6,0,.9-.2.9-.7s-.7-.7-1.9-1.1-2.4-1.2-2.4-2.7,1.4-2.9,3.5-2.9a6,6,0,0,1,3,.7v2.4a7.1,7.1,0,0,0-3-.9c-.5,0-.8.1-.8.6s.7.6,1.9,1,2.4,1.2,2.4,2.8-1.4,3-3.6,3a7,7,0,0,1-3.1-.7Z" fill="#d89c29"></path><path d="M92,92.7H89.1V90.4h8.5v2.3H94.7v7H92Z" fill="#d89c29"></path><path d="M101.6,90.4h2.6l3.8,9.3h-2.9l-.6-1.9h-3.2l-.7,1.9H97.8Zm1.3,2.9-.6,1.7-.3.9h1.8l-.3-.9a17.7,17.7,0,0,1-.6-1.7Z" fill="#d89c29"></path><path d="M111.1,92.7h-2.9V90.4h8.5v2.3h-2.9v7h-2.7Z" fill="#d89c29"></path><path d="M118.8,90.4h6.1v2.3h-3.4v1.2h2.9V96h-2.9v1.5h3.6v2.2h-6.3Z" fill="#d89c29"></path><path d="M127.5,96.7a7.2,7.2,0,0,0,3.1,1c.5,0,.9-.2.9-.7s-.7-.7-1.9-1.1-2.4-1.2-2.4-2.7,1.4-2.9,3.5-2.9a6,6,0,0,1,3,.7v2.4a7.1,7.1,0,0,0-3-.9c-.5,0-.8.1-.8.6s.7.6,1.8,1,2.5,1.2,2.5,2.8-1.5,3-3.6,3a6.7,6.7,0,0,1-3.1-.7Z" fill="#d89c29"></path></g><g><g><path d="M4.8,76.1a5.3,5.3,0,0,1,2.6.7v1.3a4.5,4.5,0,0,0-2.6-.9,3.7,3.7,0,1,0,.1,7.3,4.4,4.4,0,0,0,2.7-.9v1.3a5.3,5.3,0,0,1-2.8.7A4.6,4.6,0,0,1,0,80.9,4.7,4.7,0,0,1,4.8,76.1Z"></path><path d="M14.2,76.1a4.7,4.7,0,0,1,4.7,4.8,4.6,4.6,0,0,1-4.7,4.7,4.6,4.6,0,0,1-4.7-4.7A4.7,4.7,0,0,1,14.2,76.1Zm0,8.4a3.5,3.5,0,0,0,3.5-3.6,3.6,3.6,0,0,0-3.5-3.7,3.6,3.6,0,0,0-3.5,3.7A3.5,3.5,0,0,0,14.2,84.5Z"></path><path d="M21.2,85.5V76.3h1.2l3.8,5.1,1.6,2.1h0V76.3H29v9.2H27.8L24,80.4c-.6-.7-1.1-1.5-1.6-2.2h0v7.3Z"></path><path d="M31.7,83.6a5.4,5.4,0,0,0,2.8.9c1.1,0,1.9-.5,1.9-1.5s-1.1-1.4-2.3-1.7-2.5-.9-2.5-2.6,1.1-2.6,2.9-2.6a5,5,0,0,1,2.7.7v1.3a4.8,4.8,0,0,0-2.7-.9c-1,0-1.7.5-1.7,1.4s1,1.4,2.1,1.7,2.7.9,2.7,2.7-1.2,2.6-3.1,2.6a5.5,5.5,0,0,1-2.8-.7Z"></path><path d="M40.2,76.3h5.4v1.1H41.5v2.8h3.6v1H41.5v3.2h4.2v1.1H40.2Z"></path><path d="M48.4,76.3h2.5a5.5,5.5,0,0,1,2.6.4,2.4,2.4,0,0,1,1.3,2.2A2.3,2.3,0,0,1,53.6,81a2.1,2.1,0,0,1-1.1.4l3,4.1H54l-2.8-4H49.6v4H48.4Zm2.8,4.2a3,3,0,0,0,1.8-.4,1.1,1.1,0,0,0,.6-1.1,1.3,1.3,0,0,0-.8-1.3,3.8,3.8,0,0,0-2-.3H49.6v3.1Z"></path><path d="M56.5,76.3h1.3l1.9,5.1.9,2.5h.1l.9-2.5,2-5.1h1.2l-3.5,9.2H60Z"></path><path d="M68.5,76.3h1.2l3.8,9.2H72.2l-1.1-2.6H67l-1.1,2.6H64.7Zm-1.1,5.6h3.3l-.7-2-.9-2.2h0c-.3.7-.6,1.5-1,2.3Z"></path><path d="M76.7,77.4H73.6V76.3H81v1.1H77.9v8.1H76.7Z"></path><path d="M83.3,76.3h1.2v9.2H83.3Z"></path><path d="M91.8,76.1a4.6,4.6,0,0,1,4.6,4.8,4.7,4.7,0,1,1-9.3,0A4.7,4.7,0,0,1,91.8,76.1Zm0,8.4a3.4,3.4,0,0,0,3.4-3.6,3.5,3.5,0,1,0-6.9,0A3.4,3.4,0,0,0,91.8,84.5Z"></path><path d="M98.9,85.5V76.3h1.2l3.9,5.1,1.5,2.1h.1c0-.8-.1-1.7-.1-2.6V76.3h1.2v9.2h-1.1l-3.9-5.1-1.6-2.2h0v7.3Z"></path><path d="M115.2,76.3h5.5v1.1h-4.2v2.9h3.7v1.1h-3.7v4.1h-1.3Z"></path><path d="M123.2,81.1V76.3h1.2V81a4.7,4.7,0,0,0,.4,2.4,2.1,2.1,0,0,0,2.1,1.1c1.2,0,1.9-.4,2.2-1.1a4.7,4.7,0,0,0,.4-2.3V76.3h1.1V81a5.3,5.3,0,0,1-.6,3.2,4.1,4.1,0,0,1-6.2,0A5.9,5.9,0,0,1,123.2,81.1Z"></path><path d="M133.5,85.5V76.3h1.2l3.9,5.1,1.6,2.1h0V76.3h1.1v9.2h-1.1l-3.9-5.1-1.6-2.2h0v7.3Z"></path><path d="M144.3,76.3h2.6a6.6,6.6,0,0,1,3.2.7,4.2,4.2,0,0,1,2.1,3.8,4.8,4.8,0,0,1-1.8,3.8,6.3,6.3,0,0,1-3.8.9h-2.3Zm2.5,8.1a4.5,4.5,0,0,0,2.7-.6,3.6,3.6,0,0,0,0-5.8,5.2,5.2,0,0,0-2.8-.6h-1.1v7Z"></path></g><g><path d="M0,42.5q0-7.7,2.7-10.8c1.7-2.1,4.7-3.1,8.9-3.1s7.2,1,9,3.1,2.6,5.7,2.6,10.8v3H13.9V40.4a6.6,6.6,0,0,0-.5-3.2c-.3-.5-.9-.7-1.8-.7a2.2,2.2,0,0,0-1.8.6,5.9,5.9,0,0,0-.5,3V59.7a5.9,5.9,0,0,0,.5,3,2.1,2.1,0,0,0,1.8.7,2.2,2.2,0,0,0,1.8-.7,7.4,7.4,0,0,0,.5-3.3V52.2h9.3v5.1c0,5.1-.9,8.7-2.6,10.8s-4.8,3.1-9,3.1-7.2-1-8.9-3.1S0,62.4,0,57.3Z" fill="#d89c29"></path><path d="M25.2,28.5h8.6V36a7.6,7.6,0,0,1,2.3-1.5,8.2,8.2,0,0,1,2.8-.4c2.7,0,4.6.8,5.8,2.4s1.7,4.5,1.7,8.6V70.7H37.8V44.3a8.6,8.6,0,0,0-.4-3.1,1.8,1.8,0,0,0-1.6-.6,1.8,1.8,0,0,0-1.5.6,6.8,6.8,0,0,0-.4,3.1V70.7H25.2Z" fill="#d89c29"></path><path d="M69.7,54H57v6.8c0,1.7.1,2.8.4,3.2a2.1,2.1,0,0,0,1.7.6,1.8,1.8,0,0,0,1.6-.7c.3-.4.4-1.4.4-3.1V56h8.6v3.6q0,6.4-2.4,9c-1.6,1.8-4.4,2.6-8.2,2.6s-6.7-.8-8.3-2.6-2.4-4.7-2.4-9V45.5q0-6.3,2.4-9c1.6-1.7,4.4-2.6,8.3-2.6s6.6.9,8.2,2.6,2.4,4.8,2.4,9ZM57,44.6v2.7h4.1V44.6a8.1,8.1,0,0,0-.4-3.4,1.8,1.8,0,0,0-1.6-.6,2.1,2.1,0,0,0-1.7.6A8.1,8.1,0,0,0,57,44.6Z" fill="#d89c29"></path><path d="M93.2,54H80.4v6.8c0,1.7.1,2.8.4,3.2a2.1,2.1,0,0,0,1.7.6,1.8,1.8,0,0,0,1.6-.7,6.1,6.1,0,0,0,.5-3.1V56h8.6v3.6c0,4.3-.9,7.3-2.5,9s-4.4,2.6-8.2,2.6-6.7-.8-8.3-2.6-2.4-4.7-2.4-9V45.5q0-6.3,2.4-9c1.7-1.7,4.4-2.6,8.3-2.6s6.6.9,8.2,2.6,2.5,4.8,2.5,9ZM80.4,44.6v2.7h4.2V44.6a7.6,7.6,0,0,0-.5-3.4,1.8,1.8,0,0,0-1.6-.6,2.1,2.1,0,0,0-1.7.6A8.1,8.1,0,0,0,80.4,44.6Z" fill="#d89c29"></path><path d="M94.1,34.5h2.1V30.2l8.6-1.7v6H107v6.6h-2.2V61.9a3.3,3.3,0,0,0,.4,1.9,2.6,2.6,0,0,0,1.8.4v6.2a8.1,8.1,0,0,1-2.2.7,17.5,17.5,0,0,1-2.4.3q-3.5,0-4.8-1.5c-.9-1-1.4-3.2-1.4-6.5V41.1H94.1Z" fill="#d89c29"></path><path d="M108.7,45.4V43c0-3.1.8-5.4,2.5-6.8s4.1-2.3,7.5-2.3,6.2.9,7.9,2.5,2.4,4.3,2.4,7.9V70.7h-8.2v-2a6.1,6.1,0,0,1-2.4,1.9,6.7,6.7,0,0,1-3.1.7,7.1,7.1,0,0,1-5.4-2.2,9.3,9.3,0,0,1-1.9-6.3V57.4a9.9,9.9,0,0,1,2-6.5c1.3-1.5,4.7-3.4,10.4-5.8V43.9a5.3,5.3,0,0,0-.4-2.7,1.8,1.8,0,0,0-1.5-.6,1.8,1.8,0,0,0-1.6.6,5.3,5.3,0,0,0-.4,2.7v1.5Zm11.7,6.3a8.8,8.8,0,0,0-3,2.6,8.3,8.3,0,0,0-.9,4.4v2.1a7.3,7.3,0,0,0,.4,3.2,1.8,1.8,0,0,0,1.6.6A1.8,1.8,0,0,0,120,64a7.3,7.3,0,0,0,.4-3.2Z" fill="#d89c29"></path><path d="M131.1,28.5h8.6V36a8.6,8.6,0,0,1,2.2-1.5,8.8,8.8,0,0,1,2.9-.4q4,0,5.7,2.4c1.2,1.6,1.8,4.5,1.8,8.6V70.7h-8.7V44.3a6.8,6.8,0,0,0-.4-3.1,1.8,1.8,0,0,0-1.5-.6,1.8,1.8,0,0,0-1.6.6,8.6,8.6,0,0,0-.4,3.1V70.7h-8.6Z" fill="#d89c29"></path></g><g><g><path d="M39.4,13.7c-2.6,1-8.1,2.5-12.8,4.5a1.7,1.7,0,0,1,.7,1,1.7,1.7,0,0,0,1.8,1.4c1.9-.6,10.3-3.2,10.6-3.9A7.3,7.3,0,0,0,39.4,13.7Z" fill="#fff"></path><path d="M156.6,29.6a3.4,3.4,0,0,0-2.2-1.3c-1.4-.2-1.8.4-3.5,0s-4.7-.3-7.9-1.8c2.7.2,3.1-.1,4.9.4s3.8.3,4.7-.4,1.3-1.5.3-2.1a12.4,12.4,0,0,0-2.3-1.2c-1.8-.6-3.4,0-6.5-.7a36,36,0,0,0-8-.9c-1.4-.2-4.9-1.4-7-1.1a5.1,5.1,0,0,0,0-2.7,6.9,6.9,0,0,0,1.1-4.4c-.2-1.4,1.8-1.5,2.3-1.5s3.6,1.7,6.4,2.4,3.7,1.1,4.2-.3,1.8,0,2.6-2.5c.3-.9-1.3-2.1-1.5-3s0-2.7-.4-3.4-2.4-1.9-5.5-3.2A22,22,0,0,0,130.1.3a38.7,38.7,0,0,0-8.5.2l-6.1.5c-4.9.5-6.3,3.9-9.2,5.2S102,7.7,96.1,7.5s-8.6.8-12.7-.2A44.9,44.9,0,0,0,78.7,6c-3.3-.4-5.1-1.4-7.7-2.4a15.4,15.4,0,0,0-6.7-1.5c-7.8,0-9.1,4.7-24.8,11.6-.6.2-1.8,1-1,1.5s-1,1.4.3,1.7a36.5,36.5,0,0,0-9.5,3.5c-2.5.3-2.1,1.1-1.8,1.5s3,1.6,5.4,1.2,2.8-.7,4.1-1,4.1-.7,4.2-.1c-4,1.5-5.6,3.2-10.6,4.5-1.4.4-1.3,1.7-1.7,2.3s-3,4.1-1.5,4.3,1.1-1,5.5-2.9a61.7,61.7,0,0,1,7.3-2.4c7.1-2.2,17.7-.6,22.1-1.1s5.5-5.3,15.1-6.6c20.5,6,41.4,3.7,41.4,3.7s-.5,2.3.8,2.8,3.7-.2,3.7-.2a1.6,1.6,0,0,0,.9,1.4c.8.2,3.2,0,4.2.4,5.1,1.9,9.6.6,14.2,1.9,1.8.5,3,2.4,5.4.7C151.9,33.7,158.1,31.1,156.6,29.6ZM58.8,10.3a21.5,21.5,0,0,0-1.9,5.8,18.3,18.3,0,0,1-4.3,1.4,19.7,19.7,0,0,1-4.9-.4c0-1.1-.3-1.3-.3-1.3A33.8,33.8,0,0,0,57.8,10C58.2,9.7,58.9,10.1,58.8,10.3Z" fill="#fdc364"></path><path d="M118.4,16.4c-.8-.8-2.7.4-3.2,2.4-.7-.5-1.7.2-1.8,1.1a2.4,2.4,0,0,1-1.6-.8s-.8,2.2-2.4,2.3a1.5,1.5,0,0,0-2-.6c-.3.3-1,.9-1.6.3a5.5,5.5,0,0,1-4.9,1.5c-.5.4-1.8.5-3.9-.1a1.2,1.2,0,0,0-1.6.7c-.3-.5-2.8-.9-5.9-2.4a1.6,1.6,0,0,0-1.9.3,17.6,17.6,0,0,0-10-1.1c-.1,0-.2.5.4.5s2.4,1,3.5.6,4.4.4,5.3,2c1.1-.5,3,1.9,4.4,2a10.8,10.8,0,0,1,4.4.8,8,8,0,0,0,5.9.1c1.9,1.1,4.7-1.3,6.6,0s3.2-.9,4.3-1.1,3.3.1,4.2-.7,1.1.2,1.4-.3.7.4.8-.2C119.4,21,119.2,19.4,118.4,16.4Z" fill="#ffe4b6"></path><path d="M143.1,14c-.3,1-1.4,1.4-5,.1s-5.2-.9-5.6-2.1,2.1-4.5,3.3-2.7,2.5,0,2.5,1.8C140.9,10.8,143.1,14,143.1,14Z" fill="#ffe1b6"></path><path d="M135.6,2.5c.2.3-.4.9-.7.8a1.4,1.4,0,0,1-.8,1.8c-1,.1-2.7-1.8-2.2-3.2S135.2,1,135.6,2.5Z" fill="#ffe1b6"></path></g><g><g><path d="M35.6,24.6l-5.1,1.8c-.3,0-.3.3.1.2a23.9,23.9,0,0,0,5-1.7C35.9,24.7,35.7,24.5,35.6,24.6Z"></path><path d="M40.8,14c.2,0,.4-.2.3-.3s.2-1-.5-.6S40.2,13.9,40.8,14Z"></path><path d="M37.3,16.9a1.3,1.3,0,0,0-.7-1.4c0-.5-.4-1.2-.8-.6s-.6,1.1-.1,1.6-.5,1.2.1,1.3A1.6,1.6,0,0,0,37.3,16.9Z"></path><path d="M43.3,12.9a.5.5,0,0,0,.5-.5c0-.6-.1-.7-.4-.7a1.7,1.7,0,0,0-.9.6A2.4,2.4,0,0,0,43.3,12.9Z"></path><path d="M44.6,12.4a1.1,1.1,0,0,0,0,1.1c.6.6-.1,1,.6,1.2s.6.1.9-.6a.9.9,0,0,0-.3-1.3c.1-.4-.5-.7-.7-.8S44.3,12.2,44.6,12.4Z"></path><path d="M45.7,10.9c-.4.5.1.8.4,1s1.2-.4.7-.7.2-.6-.1-.8,0-.3-.2-.2a2.7,2.7,0,0,0-1,.6C45.4,10.8,45.5,11,45.7,10.9Z"></path><path d="M48.2,11.1c-.1.3-.2.9,0,1.1a.6.6,0,0,0,.8-.1c1.1.2,1-1.6.5-1.7s-.6-.4-.8-.4-.5.6-.7,1S48,11.3,48.2,11.1Z"></path><path d="M56,9.4c-.1-.4-.7-.4-1.1-.3s-.5.6-.1.8.7,1.5,1.2.9a1,1,0,0,0,0-.9C56.3,10,56.4,9.4,56,9.4Z"></path><path d="M57.7,9c.1.2.4.2.4.1s.1-1-.2-.9S57.6,8.9,57.7,9Z"></path><path d="M49.9,9.1c-.3,1,.7.9,1.1.5a.8.8,0,0,0-.5-1.4,1.5,1.5,0,0,0-.9.4C49.5,8.7,49.3,9.1,49.9,9.1Z"></path><path d="M51.9,9.6a.7.7,0,0,0,.9.6c0,.4,1.2-.1.7-.5s-.1-.4-.4-.4.2-.7-.1-.8a1.4,1.4,0,0,0-1.3.9C51.6,9.5,51.8,9.7,51.9,9.6Z"></path><path d="M53.6,7.2,53.2,7c.2-.5-.6-.5-.8,0s0,.9.2,1S53.9,7.7,53.6,7.2Z"></path><path d="M58.6,6.2c-.2.2-.3.7,0,.7s.6.8.9.4a.5.5,0,0,0-.3-.9C59.1,5.9,58.7,6,58.6,6.2Z"></path><path d="M47.2,13.8a.1.1,0,0,1,.1-.1,2,2,0,0,0-.2.6.6.6,0,0,0,.9.5c-.5.4.4.8.9.4s.2-1.1-.6-1a.4.4,0,0,0-.4-.6c.2-.3-.2-.6-.9-.1S47,13.8,47.2,13.8Z"></path><path d="M54.5,5.9c-.4.7-.1,1,.3,1.1s1.2,1.6,1.8.7-.2-1-.7-1.2-.3-.8-.8-.6-.1-.6-.6-.4S54.2,5.9,54.5,5.9Z"></path><path d="M57.3,6.4c.4.1,1.1-.4.5-.7s.2-.6-.4-.7.1-.5-.4-.5-.3.2-.2.2h.1a.5.5,0,0,0-.2.8C56.4,6,56.6,6.4,57.3,6.4Z"></path><path d="M58.1,4.2a.3.3,0,0,0,.3.5c.1.1.2.3.4.3s.3-.4.3-.8-.4-1.1-.8-.9S57.8,4.1,58.1,4.2Z"></path><path d="M60.3,4.3c-.2.6.2.9.7.6s.8-1.3.1-1.4,0-1-.6-.7-.1.2-.1.3S59.9,4.3,60.3,4.3Z"></path><path d="M62.3,2.9c.5.3,1.3-.1.7-.6s-1.1-.1-1.1.6S62.3,3,62.3,2.9Z"></path><path d="M62.8,3.7c-.2.4.7.5,1,.4s.2-.5.1-.6S62.9,3.3,62.8,3.7Z"></path><path d="M62.9,5.4c.3-.2-.2-.8-.5-.8s-.3.9-.2,1S62.8,5.5,62.9,5.4Z"></path><path d="M64.7,4a.5.5,0,0,0,.6-.2c.1-.1.2-.6-.1-.7s.8-.6.4-1-.8-.1-1,0-.4.3,0,.4-.1.4.1.5S64.4,3.9,64.7,4Z"></path><path d="M67.1,4.2a.6.6,0,0,0,.3-.6c.7,0,1.6-.8.9-1.1s-.9.1-.8.6-.7-.2-.6.1C65.4,3.6,66.4,4.6,67.1,4.2Z"></path><path d="M69,4.5c.5.2,1-.1.8-.4s.2-.3.1-.3-.8-.2-1,0A.4.4,0,0,0,69,4.5Z"></path><path d="M71.5,5.1c.6.5,1.2,0,1-.3s-.3-.3-.6-.2-.6,0-.8.3S71.3,5.2,71.5,5.1Z"></path><path d="M67.6,4.9c.1.4.7.2.8,0s-.1-.4-.4-.2-.5-.1-.6.1,0,.2.1.2Z"></path><path d="M69.9,6.3c.5,0,.3-.8-.3-.9s-.8.5-.5.7Z"></path><path d="M66.8,6.1c.7.6,1.5-.3.6-.5S66.7,6,66.8,6.1Z"></path><path d="M65.9,6.9c0-.2-.3-.2-.5-.1s-.2.3.1.6S66.1,7.3,65.9,6.9Z"></path><path d="M69.5,7.1a.8.8,0,0,0-.4,1c-.2.4,0,.6.3.6s.5-.1.7-.2a.7.7,0,0,0,0-1.2A.5.5,0,0,0,69.5,7.1Z"></path><path d="M71.6,6.4a1.3,1.3,0,0,0,.9.2c.1,0,.2-.2.1-.4s-.6-.3-1-.4S70.8,6.2,71.6,6.4Z"></path><path d="M59,9l-.2.2c.1.2.4.1.4.1A14.5,14.5,0,0,0,58,11.5c0,.2.4.1.4,0a19.2,19.2,0,0,1,2.1-3.3c.1-.1-.1-.2-.2-.2l-.7.7C59.7,8.4,59,8.4,59,9Z"></path><path d="M61,6a.6.6,0,0,0-.5.8c.2.3.6-.1.7-.4S61.1,6,61,6Z"></path><path d="M61.3,8.3c-.2,0-.7.3-.5.6h.5a.5.5,0,0,0,.2-.9C61.4,8,61.2,8.2,61.3,8.3Z"></path><path d="M63.2,8.4c.1,0,.2-.3,0-.4s.2-.2.1-.3-.3-.2-.5-.2-.3.2-.1.3a.5.5,0,0,0-.4.7C62.4,8.8,62.9,8.9,63.2,8.4Z"></path><path d="M64.3,8.8c-.3.2-.2.5.1.5s1.9.4,1.3-.6a.9.9,0,0,0-1.5-.2C64,8.6,64.1,8.9,64.3,8.8Z"></path><path d="M71.6,8.1c.2,0,.6-.4.1-.6a.5.5,0,0,0-.6.2C70.8,8.2,71.5,8.5,71.6,8.1Z"></path><path d="M73.2,7.7c.1.4,1.1.3,1.1-.1s0-.2,0-.2S73,7.3,73.2,7.7Z"></path><path d="M75.2,6.6c-.2.2-.3.4-.2.6h.5c.3-.2.5-.5.3-.7s-.6-.4-.8-.3-.2.1-.1.2Z"></path><path d="M63.3,6.2c-.3.1-.4.2-.2.4s.7.3.8.1S63.8,6,63.3,6.2Z"></path><path d="M77.2,7c-.1.1-.1.3.1.3a.1.1,0,0,1,.1.1h0v.2c0,.1,0,.2.1.2a.4.4,0,0,0,.6-.1.6.6,0,0,0-.1-.7.5.5,0,0,0-.6,0Z"></path><path d="M79,7.7c.2.3.8.1,1-.3h.1c-.2-.4-1-.4-1,0S78.9,7.6,79,7.7Z"></path><path d="M81.9,7.9c.2,0,.3-.2.1-.3s-1-.2-1,.4S82,8.2,81.9,7.9Z"></path><path d="M84.1,7.7c.3,0,.4-.4-.3-.5s-.5.1-.4.3A.7.7,0,0,0,84.1,7.7Z"></path><path d="M83.6,8.7c.1-.7-1.3-.5-1.1.1S83.6,9,83.6,8.7Z"></path><path d="M84.4,9.8a.8.8,0,0,0,1,0c.4.1.2-.6-.5-.6S84.2,9.5,84.4,9.8Z"></path><path d="M86.3,8.9c.8.1.6-.3.3-.4s-.8-.1-.8.1S86.1,8.9,86.3,8.9Z"></path><path d="M76.4,9.4c.3,0,.6,0,.5-.4s.3-.4,0-.7h-.7c-.1,0-.3.3,0,.4A.4.4,0,0,0,76.4,9.4Z"></path><path d="M80,9.2c.3-.4-.1-.8-.6-.4a.8.8,0,0,0-.2.8C79.3,9.8,79.9,9.5,80,9.2Z"></path><path d="M66.7,8a.8.8,0,0,0,1.5.2.4.4,0,0,0-.1-.3c.1-.3,0-.8-.4-.8S66.5,7.4,66.7,8Z"></path><path d="M71,10.1c.2,0,.3-.3.3-.3a.5.5,0,0,0-.4-.5c-.2-.1-.4,0-.6.2s-.2,0-.3.1-.1.5,0,.7S71.1,10.7,71,10.1Z"></path><path d="M72.3,8.7c-.1.2-.4.3-.4.5s0,.6.3.6,1-.8.9-1S72.4,8.4,72.3,8.7Z"></path><path d="M73.9,9.3a.6.6,0,0,0,.9.6,1,1,0,0,0,.4-.7c0-.4-.4-.5-.7-.3S73.8,9.1,73.9,9.3Z"></path><path d="M78.4,9.7c.1-.3,0-.6-.3-.6s-.2.2-.1.3-.2.4-.2.6S78.8,10.4,78.4,9.7Z"></path><path d="M59.7,9.9a1.4,1.4,0,0,0-.2.6h.2l.5-.3c0-.1,0-.3-.3-.3S59.8,9.8,59.7,9.9Z"></path><path d="M60.9,10.2a1.4,1.4,0,0,0-.2.6c.1.2.5.1.6,0S61.1,9.8,60.9,10.2Z"></path><path d="M62.3,11.7c.4.1.6-.2.7-.5a.6.6,0,0,0-.3-.7c0-.5-1,0-.6.1S62.1,11.7,62.3,11.7Z"></path><path d="M63.7,10.4c-.1.3,0,.8.3.9a.5.5,0,0,0,.7-.5c-.1-.3-.5-.6-.8-.3h0C64,10.3,63.8,10.3,63.7,10.4Z"></path><path d="M65.1,12.7c.3-.1.2-.6,0-.6s-.5.1-.4.3S64.9,12.8,65.1,12.7Z"></path><path d="M67.7,12.1c-.2,0-.5.2-.5.4s-.2.6.1.5.1.3.3.2a.7.7,0,0,0,.6-.7C68.2,12.2,67.9,12,67.7,12.1Z"></path><path d="M66.3,12a.6.6,0,0,0,.5-.8c.3-.5-.1-.8-.6-.8s-.5.4-.2.5S65.4,12.1,66.3,12Z"></path><path d="M68.4,10c.1-.2-.2-.3-.4-.3s-.9.2-.4.4a.5.5,0,0,0,.5.6A.5.5,0,0,0,68.4,10Z"></path><path d="M69,12.1c.3.1.5-.1.6-.4a1.1,1.1,0,0,0,0-.8c-.3-.5-.9-.1-1,.3a.4.4,0,0,1-.1.3A.6.6,0,0,0,69,12.1Z"></path><path d="M72,12.1h0c.1-.5-.5-.6-.8-.3H71c-.4.2-.6,1-.1,1S72.5,13.3,72,12.1Z"></path><path d="M70.5,14.5a.4.4,0,0,0-.4-.5c-.2.1-.3.3-.2.4S70.4,14.7,70.5,14.5Z"></path><path d="M69.4,13.1c-.2.1-.4.3-.3.5a.5.5,0,0,0,.3.4.5.5,0,0,0,.7-.4C70.2,13.2,69.7,13,69.4,13.1Z"></path><path d="M72.2,14.7c.2.3.8.1.9-.2a.5.5,0,0,0-.9-.5c-.4-.2-.6.6-.4.9S72.1,14.9,72.2,14.7Z"></path><path d="M74.2,6.1c.3-.4-.5-.7-.7-.6a.8.8,0,0,0-.2.4A1,1,0,0,0,74.2,6.1Z"></path><path d="M72.9,11.9c-.2.5.6.8.8.4a.4.4,0,0,0,.1-.3c.4,0,.1-.6-.1-.7s-.3.1-.2.2S73,11.7,72.9,11.9Z"></path><path d="M79.9,10.2c-.2,0-.6.3-.4.9s.1.6.3.4l.5-.9C80.3,10.3,80.4,10.1,79.9,10.2Z"></path><path d="M75.4,13c-.2-.1-.6,0-.6.2h-.1a.4.4,0,0,0-.6.5c0,.2.4.3.7.2S75.8,13.1,75.4,13Z"></path><path d="M78.5,13.1l.5-.2c1-.5.2-1.4-.3-.7a2,2,0,0,0-.4.8C78.2,13.1,78.4,13.2,78.5,13.1Z"></path><path d="M77,12.3c-.3.1-1.1.8-.7,1s1.2,0,1.3-.5S77.6,12.2,77,12.3Z"></path><path d="M72,11.1c.3-.2.4-.4.2-.5s-.4.1-.4.3Z"></path><path d="M77.1,14.3c0-.2-.5-.3-.6.1s-1.1,1.2-.5,1.2S77.1,14.6,77.1,14.3Z"></path><path d="M75,16.3a.3.3,0,0,0,.3.3c.2-.1.5-.2.6-.4s.2-.1.1-.2A.8.8,0,0,0,75,16.3Z"></path><path d="M80.4,14.8c.2.1.6-.3.7-.7s0-.8-.3-.8S80,14.8,80.4,14.8Z"></path><path d="M74.5,15.3c.1-.1.2-.5,0-.6s-.9.2-.8.5A.5.5,0,0,0,74.5,15.3Z"></path><path d="M73.8,16.3a1,1,0,0,0-.1-.4c-.2-.3-1.1,0-1.3.4s.5.5.7.4A.8.8,0,0,0,73.8,16.3Z"></path><path d="M67.7,15.5c.3-.4.4-1.1-.2-1.2a.7.7,0,0,0-.7.4c-.6-.3-.8.5-.3.7S67.2,16.1,67.7,15.5Z"></path><path d="M64.6,13.9a2.2,2.2,0,0,0,.1.8c0,.2.3.2.4.1s.3-.9.3-1.1S64.6,13.5,64.6,13.9Z"></path><path d="M62.8,13.5c.9.4,1.1-.5.9-.7s-.6-.5-.8-.2S62.4,13.4,62.8,13.5Z"></path><path d="M69.6,16.6c.2-.1.3-.3.3-.7s.3-.7-.1-.7-.5-.2-.7.1a.5.5,0,0,0,0,.6A.5.5,0,0,0,69.6,16.6Z"></path><path d="M71.1,16.2l-.5.2c-.1.2-.1.6,0,.6s.5.2.7.1.1-.2,0-.3A.4.4,0,0,0,71.1,16.2Z"></path><path d="M65.5,16.1a.5.5,0,0,0-.8.3c-.1.2.1.3.2.4a.7.7,0,0,0,.6.1A.5.5,0,0,0,65.5,16.1Z"></path><path d="M68.1,17c-.4-.3-1.4-.3-1.1.2s.1.6.3.6S68.4,17.2,68.1,17Z"></path><path d="M63.1,15.4c.6.2.7-.8.2-1l-.5.3C62.8,14.9,62.8,15.3,63.1,15.4Z"></path><path d="M69.6,17.6c-.4-.1-.7.3-.9.7s.3,1.2,1.1.5a.3.3,0,0,0,.4-.3C70.2,18.2,70.1,17.6,69.6,17.6Z"></path><path d="M60.6,13c-.2.8.4.8.6.6s.4-.8-.1-.7S59.8,13,60.6,13Z"></path><path d="M59.3,16c.4.1.8-.1.7-.5s0-.5-.5-.6-.5-.3-.6-.2,0,.3.2.3S58.9,15.9,59.3,16Z"></path><path d="M62,14.9a.5.5,0,0,0-.8-.2c-.4.5-.3,1.5.2,1.3S62.1,15.4,62,14.9Z"></path><path d="M63.9,17.4c.1-.4-.4-1.1-.9-.7s-.9.9-.4,1.3S63.7,17.9,63.9,17.4Z"></path><path d="M71.3,18.3c-.5.1-.7.4-.4.6s.3.6,1,.5S73,18.1,71.3,18.3Z"></path><path d="M66.4,18.3c-1.4-.7-1.6.3-1.2.4a.7.7,0,0,0-.4.6c0,.6,2,0,1.7-.6S66.6,18.3,66.4,18.3Z"></path><path d="M68,18.5c0-.2-.4-.2-.6.1s0,.2.1.3S68.1,18.8,68,18.5Z"></path><path d="M69.3,21.3c.3.1.2-.5,0-.4a1.5,1.5,0,0,0-1.1.6c0,.1.1.4.2.4A1,1,0,0,0,69.3,21.3Z"></path><path d="M68.5,20.4a.5.5,0,0,0,0-.7,2.7,2.7,0,0,0-1.7.3C66.4,20.6,67.8,20.7,68.5,20.4Z"></path><path d="M69,22.3l-.2.2c-.3-.1-.7.4-.4.6s.5.1.7-.1a.7.7,0,0,0,.4-.5C69.5,22.3,69.2,22.3,69,22.3Z"></path><path d="M70.7,20.7h-.4c-.1,0-.3.1-.2.2s1,.1,1.1-.2.7-.1.7-.2S70.9,19.9,70.7,20.7Z"></path><path d="M72.7,20h.7c.2,0,.4-.5-.2-.5S72.6,19.9,72.7,20Z"></path><path d="M65.1,21.5c.6-.1,1-.8-.2-.9a1.8,1.8,0,0,0-1.3.5C63.4,22,64.4,21.7,65.1,21.5Z"></path><path d="M65.7,22.8c.6-.4-.8-.6-1-.6s-.6.3-.5.4S65.5,23.2,65.7,22.8Z"></path><path d="M66.3,23.7c.3.2.8-.5.1-.4s-1.5.3-1.2.7S65.9,24.1,66.3,23.7Z"></path><path d="M66.9,23.9c-.3.2-.7.6-.5.8s.9-.4,1-.6S67.7,23.6,66.9,23.9Z"></path><path d="M63.1,20.2a.8.8,0,0,0,.2-.8c0-.3-.4-.5-.8-.4s-.7.4-.5.7S62.8,20.6,63.1,20.2Z"></path><path d="M81.6,9.8c-.5-.2-.4.3-.3.5s.7.3.8-.3.2-.2.2-.3S81.6,9.6,81.6,9.8Z"></path><path d="M80.9,11.8c-.1.1-.1.7.3.6a.3.3,0,0,0,.3-.3c.2-.1.5-.3.5-.5s-.2-.3-.4-.3S80.9,11.5,80.9,11.8Z"></path><path d="M83.7,11.7c.6.4,1.4-.5.9-.9s-1.3,0-1.1.4S83.5,12,83.7,11.7Z"></path><path d="M89.2,10.4c.1-.2-.8-.8-1-.3S89.1,10.8,89.2,10.4Z"></path><path d="M86.2,11.4c.2,0,1,0,1.1-.2s-.1-.5-.3-.6-1.1,0-.8.2S86,11.4,86.2,11.4Z"></path><path d="M87.5,12.6c.3.1.6,0,.6-.2s-.5-.2-.7-.2S87.2,12.6,87.5,12.6Z"></path><path d="M88.9,8h0c.1,0,.3-.2.1-.3s-1.7-.2-1.8.1S88.5,8,88.9,8Z"></path><path d="M88,8.5a.2.2,0,0,0,0,.4l.8.2c.6,0,.5-.6-.2-.6A.5.5,0,0,0,88,8.5Z"></path><path d="M85,7.8c0,.2.4.3.7.1s.5-.1.4-.2l-.6-.2C85.3,7.5,84.9,7.5,85,7.8Z"></path><path d="M60.6,17.6c0,.2,0,.3.1.4s.6.5.5-.3S60.7,17.2,60.6,17.6Z"></path><path d="M59.3,18c.4-.1.6-1.1-.2-1.1s-.6.3-.8.9.1,1.2.5,1.3S60,18.6,59.3,18Z"></path><path d="M59.5,20.4c.2.3.9.3,1.2.2s.5-.8.4-.9l-1-.3c-.1.1-.4.4-.2.6A.4.4,0,0,0,59.5,20.4Z"></path><path d="M58.1,13.5c-.5.3,0,.7.4.5s.3-.4.3-.6S58,13.2,58.1,13.5Z"></path><path d="M50,17.9c.3.4,1,.1,1.2,0s.1-.6-.3-.4a1.3,1.3,0,0,0-1.2.2C49.6,17.9,49.9,18.1,50,17.9Z"></path><path d="M62,21c-.5-.1-.9.2-.4.7S62.6,21.3,62,21Z"></path><path d="M61.4,23.7c.4.2.7.1.8-.1a1.1,1.1,0,0,0-.6-.9c-1.5-.8-1.4.8-.6,1.2S61.4,23.9,61.4,23.7Z"></path><path d="M62.7,24.8h.5c.3-.4,0-.5-.2-.5s-.6,0-.6.3S62.5,24.9,62.7,24.8Z"></path><path d="M59.3,24.7c.2.4.8.8,1.1.6s.7.2.8,0a.4.4,0,0,0-.3-.6.9.9,0,0,0-.9-.6C59.5,24.1,59.2,24.4,59.3,24.7Z"></path><path d="M56.5,23.8c-.2.1-.2.5.1.8a3.5,3.5,0,0,0,1.2,1c.5.1.8-.3.6-.8S56.7,23.6,56.5,23.8Z"></path><path d="M57.9,22.7c-.3,0-.2.4,0,.6s.8-.1.6-.5A.3.3,0,0,0,57.9,22.7Z"></path><path d="M55.6,22.8c.4,0,.2-1,0-1.2s-1.3.2-.7.6A.6.6,0,0,0,55.6,22.8Z"></path><path d="M51,26a2.6,2.6,0,0,0-.9,0,.4.4,0,0,0-.4.4c-.1.4.8.3,1.3.3A.4.4,0,0,0,51,26Z"></path><path d="M46.7,23.3a1.4,1.4,0,0,0,.9.1c.3,0,.6-.4.5-.6a1.4,1.4,0,0,0-1.1-.1C46.8,22.7,46.5,23.1,46.7,23.3Z"></path><path d="M48.8,23.7a3,3,0,0,0-1.6.3c-.3.2.1.8.5.8s.9,0,1.2-.2A.5.5,0,0,0,48.8,23.7Z"></path><path d="M51.6,18.7a.4.4,0,0,0,.5.6c.2.2,1,0,1.3-.2s.3-.7-.6-.7A.8.8,0,0,0,51.6,18.7Z"></path><path d="M52.7,21.1c.4,0,1.4.1,1.6-.6s-1.3-.5-1.7-.3,0,.4.3.4S52.4,21,52.7,21.1Z"></path><path d="M53.7,22.3a1.1,1.1,0,0,0-1.4-.4c-.1.1-.4.5-.2.8s.6.7,1.1.7A.9.9,0,0,0,53.7,22.3Z"></path><path d="M49.5,20.2a.5.5,0,0,0,.8-.4C50.3,19.4,49.1,19.7,49.5,20.2Z"></path><path d="M48.7,21.5a.7.7,0,0,0,1.1-.4c.1-.4-.2-.6-.6-.6a.9.9,0,0,0-.7,0C48.1,20.8,48.3,21.3,48.7,21.5Z"></path><path d="M48.5,19.2c.3-.2.1-.5-.3-.5a.3.3,0,0,0-.3.5C48,19.4,48.3,19.4,48.5,19.2Z"></path><path d="M76,18.5h.2c.1.1.2-.1.2-.2s-1.1-.4-.8,0a.6.6,0,0,0-.7.1.2.2,0,0,0-.1.4c.2.2.3-.1.5-.1A.4.4,0,0,0,76,18.5Z"></path><path d="M79.4,17.2c0-.2-.6-.5-1.1-.3s-.1.2-.1.2H78a.2.2,0,0,0,0,.3h.3c.2.1.4-.1.3-.2A1.1,1.1,0,0,0,79.4,17.2Z"></path><path d="M79.9,18.4l.2-.3h.3c.1,0,.3-.1.2-.2s-.6-.4-.9-.2a.2.2,0,0,0-.2.2h-.3c-.2.1-.4.3-.2.5A.8.8,0,0,0,79.9,18.4Z"></path><path d="M75.8,19.5c-.6-.1-.3.8.1,1.1s.4-.1.3-.3S76.5,19.5,75.8,19.5Z"></path><path d="M77,18.9c-.1.2-.2.4-.1.5a.5.5,0,0,0,.7-.1C77.9,18.9,77.3,18.6,77,18.9Z"></path><path d="M81,16.5c.1,0,.4-.1.4-.3s.5-.6.4-.9h0c0-.2-.4-.1-.4.1a1.1,1.1,0,0,0-.7.3C80.7,15.9,80.6,16.5,81,16.5Z"></path><path d="M83,13.5c-.3.1-.8.7-.6.9a1.2,1.2,0,0,0,1.4-.4c.2.2.4-.1.3-.2S83.3,13.4,83,13.5Z"></path><path d="M84.8,13.1l.9-.2c.2-.2.2-.5-.1-.6l-.8.2C84.7,12.6,84.5,13,84.8,13.1Z"></path><path d="M85.1,14.5c-.8.2-1.1.8-.9.9s1.3.1,1.5-.2S85.5,14.3,85.1,14.5Z"></path><path d="M91.8,7.7c.1-.4-1.3-.1-1.6-.1a.3.3,0,0,0,0,.4C90.6,8.1,91.7,8.1,91.8,7.7Z"></path><path d="M92.3,9.3a1.1,1.1,0,0,0,.8-.3c.2.2.4,0,.3-.1s-.4-.3-.7-.3-.1.2-.4.1S91.8,9.2,92.3,9.3Z"></path><path d="M95.7,8.5a.2.2,0,0,0-.3.1c0,.5.7.8.8.3S96.2,7.8,95.7,8.5Z"></path><path d="M95,9.8c0-.5-1.2-.4-1.4-.1S95,10.6,95,9.8Z"></path><path d="M95.8,10.5c-.5.4.5,1.3,1,.7s.1-.3-.1-.5A1.1,1.1,0,0,0,95.8,10.5Z"></path><path d="M90,9.5c.5.3,1.6-.2,1.1-.5s-1.1-.4-1-.2a.4.4,0,0,0,.3.2C89.8,9.1,89.8,9.4,90,9.5Z"></path><path d="M89.8,11.6c-.8.1-.5.9-.2.9s1.3.1,1.5-.4S90.9,11.5,89.8,11.6Z"></path><path d="M91,10.6c.1.3,1,.1,1.2,0s0-.4-.2-.5S90.7,10,91,10.6Z"></path><path d="M86.9,17.5c-.3-.1-1.7-.4-1.5.2s.6.3.8.3S87.2,17.6,86.9,17.5Z"></path><path d="M87.2,16.6a1.4,1.4,0,0,0,1.1,0,.5.5,0,0,0,.1-.8,1.3,1.3,0,0,0-1.3.2C86.7,16.3,86.9,16.9,87.2,16.6Z"></path><path d="M86.9,19.2c-.1-.4-.6-.2-.7,0s.7.5.9.3S87.3,19.2,86.9,19.2Z"></path><path d="M83,18.6c.1,0,.1-.1.1-.2l-.5-.2c-.6,0-.8.4-.6.4Z"></path><path d="M88.3,14.1c.1-1.1-2-.8-1.7-.2s.7.8.9.7S88.3,14.4,88.3,14.1Z"></path><path d="M92.6,11.7c0,.3.9.3,1.3.1s.2-.3,0-.4S92.7,11.2,92.6,11.7Z"></path><path d="M92.9,15.6c-.3,0-.4.5-.2.5s.7.1.7-.1S93,15.6,92.9,15.6Z"></path><path d="M91.1,16.8c.6.5.9.2.9,0s-1-1.2-1.4-.5-1.1.1-.9.2S90.9,17.1,91.1,16.8Z"></path><path d="M90.2,18.7c.1-.4-.9-.6-1.4-.5s-.6.7-.3.7S90.1,19.4,90.2,18.7Z"></path><path d="M93.8,18.2c-1,0-1.3.3-1.3.5s.5.5.9.4S94.8,18.2,93.8,18.2Z"></path><path d="M96.1,14.4a1.3,1.3,0,0,0-1.2.1c-.4.3-.5.6-.2.8a2.1,2.1,0,0,0,1.3-.2C96.3,14.9,96.4,14.5,96.1,14.4Z"></path><path d="M95.4,13.2c.2.2,1.4,0,1.2-.4s-.9-.6-1.1-.1S95.2,13.1,95.4,13.2Z"></path><path d="M98.1,11.3c.1.2.4.2.6.1s.9-.7,0-.9S97.6,11,98.1,11.3Z"></path><path d="M97.9,15.9c.2-.4-.4-.7-.7-.3s-.2.5.1.6A.9.9,0,0,0,97.9,15.9Z"></path><path d="M96.4,16.9a.7.7,0,0,0-.7-.4,1.3,1.3,0,0,0-1,.6c-.2.2.1.6.7.3A.7.7,0,0,0,96.4,16.9Z"></path><path d="M92.3,20a1.7,1.7,0,0,0-1.5-.2c-.2,0-.4.3.2.5s.4.4.5.3.2-.2.2-.3S92.5,20.1,92.3,20Z"></path><path d="M96.1,18.6c-.2.1,0,.4.3.4l.4.2c.2.1.4,0,.5-.3S96.8,18.2,96.1,18.6Z"></path><path d="M99.5,18.9c-.8-.3-.7.2-.6.4s.5.4,1,.4a.9.9,0,0,0,1,0C101.3,19.3,101,18.7,99.5,18.9Z"></path><path d="M103,21.4c.4-.2.4-.6,0-.5s-.6.1-.6.3A.5.5,0,0,0,103,21.4Z"></path><path d="M101.7,22.5c0-.5-1.5-.1-1.5.3s.1.8.8.2S101.7,22.8,101.7,22.5Z"></path><path d="M99.3,16.7a1.2,1.2,0,0,0-1.2.3c-.2.2-.3.6,0,.5S99.7,16.9,99.3,16.7Z"></path><path d="M100.8,17c.4.1,1.5-.3.7-.6s-1.4,0-.8.3S100.6,17,100.8,17Z"></path><path d="M104.4,17.3c.4-.4-.8-.3-1.3-.1a.5.5,0,0,0,.1.9C103.5,18.1,104.9,17.5,104.4,17.3Z"></path><path d="M96.5,20.8c.4-.1.6-.7-.3-.8s-1.3.2-.9.5A2.7,2.7,0,0,0,96.5,20.8Z"></path><path d="M104.4,14.5c-.2-.4-1.6,0-1.8.3s-.1.6.3.6S104.6,15.1,104.4,14.5Z"></path><path d="M106.3,16.6c.3-.1.6-.3.6-.6s-.1-.5-.4-.5a1,1,0,0,0-.5.4C105.4,16.1,105.6,16.6,106.3,16.6Z"></path><path d="M102.8,12.5a1.6,1.6,0,0,0-1,.1c-.5,0-.6.6,0,.8a1.3,1.3,0,0,0,1.2-.3C103.2,12.9,103.2,12.6,102.8,12.5Z"></path><path d="M105.8,12.5c.2-.2.4-.7.3-.9s-1.2,0-1.4.4S105.1,13,105.8,12.5Z"></path><path d="M100.5,9.5c.5.3.9-.4.7-.5s-1.9.4-1.7.8S100.5,9.9,100.5,9.5Z"></path><path d="M101.9,7.4c-.1.3,1,.4,1,0S102,7.2,101.9,7.4Z"></path><path d="M103,8.5c0-.4-.6-.1-.9.2s.1.5.3.4S103.6,8.9,103,8.5Z"></path><path d="M104.7,8c-.1-.2-.3-.4-.5-.3h-.1c-.3,0-.4.3-.2.4h.3c.2.1.4,0,.3-.2S104.7,8.1,104.7,8Z"></path><path d="M104.8,10.2c.2,0,.7-.2.7-.4s-1.1-.9-1.3-.3S104.5,10.2,104.8,10.2Z"></path><path d="M103,11.1h0c-.2,0-.1.2,0,.3a.5.5,0,0,0,.8,0c.1-.2.1-.5-.1-.6A.5.5,0,0,0,103,11.1Z"></path><path d="M107.1,10.2c.2.2.7.1.7-.1a.4.4,0,0,0-.5-.5A.4.4,0,0,0,107.1,10.2Z"></path><path d="M106.5,7.7c-.2.1-.5.2-.6.4s.4.6.6.5.3.2.4,0S107,7.6,106.5,7.7Z"></path><path d="M109.6,5.8a.2.2,0,0,0,.4-.1.6.6,0,0,0,.1-.6C109.9,4.6,109,5,109.6,5.8Z"></path><path d="M110.9,4.1c.8-.4.1-.8-.7-.6a.2.2,0,0,0-.1.3C110,4.2,110.6,4.3,110.9,4.1Z"></path><path d="M108.5,6.9a.3.3,0,0,0-.3.3.5.5,0,0,0,.4.5c.6.1,1.2-.1.8-.7s.3-.1.2-.2S108.2,6.6,108.5,6.9Z"></path><path d="M109.5,9.6c.5.6,1.1-.6.4-.8S108.7,9.9,109.5,9.6Z"></path><path d="M108.6,12.3c.5-.2.9-.9.7-1.1a1.1,1.1,0,0,0-1.4.1c-.2.2-.3.5.1.6S108.4,12.3,108.6,12.3Z"></path><path d="M110.4,14c.4-.5-.5-.7-.9-.6s-.8.6-.5.7S110.2,14.3,110.4,14Z"></path><path d="M107.1,14c.3-.1.5-.6.3-.7a1.3,1.3,0,0,0-1.1.3.6.6,0,0,0,0,.8A.6.6,0,0,0,107.1,14Z"></path><path d="M112.9,4.5c-.2-.2-.8-.1-1.1.1s-.3.7.3.5S113.1,4.7,112.9,4.5Z"></path><path d="M113.1,9.2c.3,0,.8-.4.5-.7h-.5a.3.3,0,0,0,0,.4C112.8,9,112.9,9.3,113.1,9.2Z"></path><path d="M111.5,6.8c-.9.2,0,1.6.8.8S111.6,6.1,111.5,6.8Z"></path><path d="M114.6,6.1c.1-.1.1-.8-.2-.8s-1.1.7-1,1.1.3.2.4.1A.5.5,0,0,0,114.6,6.1Z"></path><path d="M30,30.2c-.2.3-.1.6-.1.9s-.5.7-.5.9.7-.2,1.1-.4l1.1-.7c.2-.2.1-.3,0-.3h-.5c-.2-.1.2-.3.3-.5s.3-.3.1-.4A2.3,2.3,0,0,0,30,30.2Z"></path><path d="M48,25.1H46.5c-.2.1-.2.7,0,.7a2.4,2.4,0,0,0,1.2,0,.6.6,0,0,0,.6-.3C48.4,25.4,48.2,25.2,48,25.1Z"></path><path d="M50.2,23.6c.3,0,.5-.3.3-.4s-.4-.2-.5-.4-.5-.4-.8-.1S49.3,23.3,50.2,23.6Z"></path><path d="M56.3,17.7a.5.5,0,0,0,.6-.1.6.6,0,0,0,0-.6c-.1-.2-.5-.2-.7,0A.5.5,0,0,0,56.3,17.7Z"></path><path d="M57.2,22c.2.1.7.2.9-.2s.2-1,0-1.2-1.2-.1-1.3.2A1.6,1.6,0,0,0,57.2,22Z"></path><path d="M56.8,19.8c.3-.1.4-.9.1-1.1s-1.1-.3-1.1.4-.1.6.2.7Z"></path><path d="M54.3,17.1c.2.4,1.1-.1.9-.3S54.1,16.9,54.3,17.1Z"></path><path d="M59.4,12.3c.1,0,.9-.7.6-.8S58.9,12.5,59.4,12.3Z"></path><path d="M78.6,14a.7.7,0,0,0-.3.6c0,.2.3.2.3.1s.7-.4.9-.6a.2.2,0,0,0-.1-.3A.8.8,0,0,0,78.6,14Z"></path><path d="M77.9,15.9c-.3.8,1.3.3,1.4.1a.5.5,0,0,0-.5-.7A1.2,1.2,0,0,0,77.9,15.9Z"></path><path d="M43.7,25.3c0-.2-.6-.2-.6.1S43.6,25.6,43.7,25.3Z"></path><path d="M42.1,24.7c-.4-.2-.9.7-.4.7S42.5,24.9,42.1,24.7Z"></path><path d="M39.8,26.5h.5a.3.3,0,0,1,.1-.2c0-.2-.1-.3-.2-.3A.3.3,0,0,0,39.8,26.5Z"></path><path d="M31.1,21.8c.3,0,.4-.3.1-.3s-1.2-.1-1.6-.6-.6.1-.4.4A2.2,2.2,0,0,0,31.1,21.8Z"></path><path d="M75.8,17.2c.1-.1-.1-.3-.2-.2l-.6.5c.2-.3.1-.7-.3-.6a.6.6,0,0,0-.5.5c-.4-.1-.5.4-.3.5s.4.1.5-.1h.3l-1.2,1a.2.2,0,0,0,.3.1A8.8,8.8,0,0,0,75.8,17.2Z"></path><path d="M84.6,20.3c.1,0,.2-.3.1-.3l-2.2-.4s.2-.5-.2-.5a1,1,0,0,0-.7.4,16,16,0,0,0-4.4.4c-.1,0-.1.4,0,.4l2.2-.3c0,.5,1,.5,1.3.4s.2-.2,0-.3h-.3A30.7,30.7,0,0,1,84.6,20.3Z"></path><path d="M84.9,18.7c.2,0,.3-.2.2-.3l-2.7-1.6c-.2-.1-.3.1-.2.2s.3.4.6.5v.2c0,.2.3.3.6.2Z"></path><path d="M83.1,12.7a.8.8,0,0,0-.7-.1c-.1.1,0,.5.2.5S83.3,12.8,83.1,12.7Z"></path><path d="M83.6,16.1c-.3.1-.4.5,0,.8s.5,0,.4-.3h.7c.1,0,.1-.2.1-.3A2.3,2.3,0,0,0,83.6,16.1Z"></path><path d="M86.9,21.2h.3c-.2.4.2.5.4.4a2.7,2.7,0,0,0,.7-.8c.1-.1-.1-.3-.3-.2a1.4,1.4,0,0,1-.4.4v-.2h-.3l-.4.3Q86.6,21.2,86.9,21.2Z"></path><path d="M91.4,21.5a4,4,0,0,0-2-1.1,1,1,0,0,0-.8.5c0,.1,0,.2.1.2h.5c.1,0,0,.3.1.4s.5,0,.7-.1a5,5,0,0,0,1.3.4C91.4,21.7,91.5,21.6,91.4,21.5Z"></path><path d="M86.3,20.6c0-.4-1.2-.6-1.2-.3S86.3,20.9,86.3,20.6Z"></path><path d="M97.9,26.6c0-.2-.1-.5-.2-.5s-.3.4-.2.5Z"></path><path d="M94.1,21.8h.7c.3-.1.4-.3.2-.4h-.6s.1-.3-.1-.3a1.4,1.4,0,0,0-.9,0c-.1,0,0,.3.1.4H94A.5.5,0,0,0,94.1,21.8Z"></path><path d="M93.5,22.1l-1.3-.3c-.2,0-.3.3,0,.4h.5c.3.2.4.3.6.3S93.7,22.4,93.5,22.1Z"></path><path d="M97.6,22.4h-.5a.5.5,0,0,0-.1-.3c-.2-.5-1.2.2-1,.5s.4,0,.5.1a1.1,1.1,0,0,0,1.2,0C97.8,22.6,97.8,22.4,97.6,22.4Z"></path><path d="M98.4,23.2c-.1-.2-.5-.1-.5,0s0,.5.2.5A.6.6,0,0,0,98.4,23.2Z"></path><path d="M44.3,26.8a29.2,29.2,0,0,0-6.4,1.5c-.2,0,0,.3.1.3A52.9,52.9,0,0,1,44.3,27C44.4,27,44.5,26.7,44.3,26.8Z"></path><path d="M94.5,24.2c.1-.2.3-.8.2-.9s-.5.5-.6.7S94.5,24.5,94.5,24.2Z"></path><path d="M93.5,24c-.2.2.1.3.3.2s.3-.5.2-.5S93.6,23.8,93.5,24Z"></path><path d="M65.9,24.9l-1.7,1h0a1.3,1.3,0,0,0-2.1.1.4.4,0,0,0,0,.5h-.4a1.5,1.5,0,0,0-1.3.1H59c-.2,0-.3.2-.1.3a8.6,8.6,0,0,0,7.2-1.7C66.2,25,66,24.8,65.9,24.9Z"></path><path d="M105.2,22.7c.2-.5-.9-.1-1,.3s-.1.3,0,.3.5,0,.6-.2.5.8.8,0S105.7,22.5,105.2,22.7Z"></path><path d="M98.7,24.8a.2.2,0,0,0-.4-.1.3.3,0,0,0,0,.4h.1s0,.4.1.4.2.2.3,0,.2-.5.3-.6S99,24.6,98.7,24.8Z"></path><path d="M99.1,25.3v.4c0,.2.3.2.4,0s-.1-.4-.1-.5S99.1,25.1,99.1,25.3Z"></path><path d="M102.9,24.3c-.1-.2-.3-.2-.5-.1s.2-.4,0-.4-1,.7-.2.7.5.9.8.5a1.2,1.2,0,0,0,.4-.8c0-.1-.1-.2-.3-.1S102.9,24.3,102.9,24.3Z"></path><path d="M100.5,26.1c-.1.2,0,.5.1.5s.2-.2.1-.5S100.5,26,100.5,26.1Z"></path><path d="M101.4,25.8a5.1,5.1,0,0,0-.4,1c0,.2.2.3.2.1s.2-.4.3-.5.3.3.3.1A.6.6,0,0,0,101.4,25.8Z"></path><path d="M106.9,25.3c-.3-.2-.5.2-.5.2V25c0-.2-.3-.2-.3-.1a8.1,8.1,0,0,0-.3,1.1c0,.1.3.1.4,0v-.2s0,.3.2.4.5-.4.7-.7S107.1,25.1,106.9,25.3Z"></path><path d="M108.2,25.3c-.2.1-.4.4-.6.6s0,.3.2.2.6.2.6-.6S108.3,25.2,108.2,25.3Z"></path><path d="M109.9,22.5c-.1-.2-.4-.1-.6.1s-.6-.2-.5-.1,0,.3.1.4a.4.4,0,0,0,0,.7c.3,0,.3-.2.3-.2l.4.3c.2.1.4-.1.3-.4S110.3,23,109.9,22.5Z"></path><path d="M110.2,25.2c-.1.1.1.8.4.8S110.4,25.2,110.2,25.2Z"></path><path d="M112.6,24c-.2-.1-.5.5-.4.8s-.2-.4-.4-.4-.5.3-.5.3a2.2,2.2,0,0,1-.3-.5c-.1-.1-.3.1-.3.1s.7,1.5.9,1.1.6.1.8-.2a.3.3,0,0,0,.5-.2C112.9,24.8,112.7,24,112.6,24Z"></path><path d="M118.4,22.5c0-.5-.7-.5-.8,0s-1,.5-1.6,1.3.2.3.3.2l.6-.6c.2.1.5.3.8-.2S118.3,22.9,118.4,22.5Z"></path><path d="M119.4,25.6l-.6.4c-.1.2,0,.5.2.5a4.6,4.6,0,0,0,.7-.7C119.7,25.6,119.6,25.5,119.4,25.6Z"></path><path d="M121.8,26.4c-.2-.1-1.2.1-1.2-.2s-.9-.1-1,.7.3.2.5.1v-.2c.1,0,0,.5,1.6,0S122.1,26.4,121.8,26.4Z"></path><path d="M118.2,25.2c-.1.1,0,.4.3.4s.3.3.6-.3.1-.4-.2-.4.4-.7.3-.7S118.7,24.4,118.2,25.2Z"></path><path d="M106.8,18.3c-.1-.1-1.3.2-1.1.6s.8.1.9-.1S107,18.4,106.8,18.3Z"></path><path d="M99.6,21.1c0-.4-.6-.2-.8,0s-.1.3.1.3H99c-.1.2-.1.4.2.4a2.4,2.4,0,0,0,1.1-.6C100.4,21,100.3,20.7,99.6,21.1Z"></path><path d="M104.2,19.8c.1-.4-1.4-.4-1.5.1S104.2,20.3,104.2,19.8Z"></path><path d="M115,24.1c-.3-.1-.5.6-.6.6s.3.3.5.1,0,.3.1.4.4.1.3-.1S115.2,24.2,115,24.1Z"></path><path d="M96.4,26.4c0,.1.2.1.2-.1s-.1-.4-.1-.5-.2,0-.3.1-.2.6,0,.6S96.4,26.5,96.4,26.4Z"></path><path d="M115.6,21.3c-.2-.1-.4.1-.6.2s0-.2-.1-.2-.3.1-.3.2-.2-.5-.2-.6-.3,0-.3.2a5.1,5.1,0,0,0,.2,1.3.4.4,0,0,0,.6-.1C115.5,22.5,115.8,21.4,115.6,21.3Z"></path><path d="M107.9,20.3c0-.7-1,.4-.7.7s.1.1.5-.3c.6,1.4,1.4,0,1-.5S108.1,20.2,107.9,20.3Z"></path><path d="M112.2,18.2c-.1-.2-.3.1-.4.3s-.1,1.1.1,1.3.5.2.5-.2.3.5.6.5.1-1.6-.6-1.4A1.7,1.7,0,0,0,112.2,18.2Z"></path><path d="M112.4,15.3c.2,0,.6-.8-.7-.4s-.4.5-.1.6.9.3,1.1.3S113,15.3,112.4,15.3Z"></path><path d="M114.3,14.1a1.4,1.4,0,0,0,.8-.9c0-.3-.5-.2-.7,0s-.1-.5-.3-.3l-.3.3a.4.4,0,0,0,.1.3h.1C113.9,13.8,114.1,14.1,114.3,14.1Z"></path><path d="M109.6,18.7s.3-.2.1-.4a1.1,1.1,0,0,0-.8.1c-.2,0-.4.3.1.4s-.3.2-.1.3h1.2C110.3,19,110.2,18.7,109.6,18.7Z"></path><path d="M110,15.9c-.5-.1-1.7.1-1.6.8s1.8.3,1.7-.5S110.2,15.9,110,15.9Z"></path><path d="M117.1,12.2c.2-.2.2-1-.1-1.1a.5.5,0,0,0-.7.4l.2.2C116.5,12,116.9,12.4,117.1,12.2Z"></path><path d="M113.5,17.4s.4.2.5,0,.2-.4.2-.4.3.3.5.3.2.1.3-.2-.6-.8-.8-.8a.6.6,0,0,0-.6.6c-.4-.3-.5.3-.4.6a.2.2,0,1,0,.3,0Z"></path><path d="M118.4,20.3c-.1-.1-.4-.1-.3.3s-.3,0-.3,0,.2.6.5.4S118.5,20.4,118.4,20.3Z"></path><path d="M118.8,13.8a.8.8,0,0,0-.1-.9c-.3-.4-1-.2-1.3.2s.2.5.4.3.4.3.4.2S118.6,14,118.8,13.8Z"></path><path d="M116.7,19.2l.4-.3c.1-.1.2-.2.1-.4l-.8-.4c-.1-.1-.3.1-.2.2l.5.4-.4.3C116.2,19.3,116.5,19.3,116.7,19.2Z"></path><path d="M117.4,19.4c.4-.1.3-.4,0-.4s-.4.2-.3.4S117.3,19.6,117.4,19.4Z"></path><path d="M115.8,15.6c.1.3.2.5.5.3h.2c.3.1.5-.1.4-.3a.5.5,0,0,0-.7-.3h0l-.2-.2.2-.3-.2-.2c-.2.2-.6.6-.6.8S115.6,15.8,115.8,15.6Z"></path><path d="M115.4,11h0c0-.2.4-.8-.1-.9s-.6-.3-1-.1-.1.2.1.2h.1c-.1.1-.1.4-.1.5s.4.2.6.1V11C114.9,11.1,115.2,11.2,115.4,11Z"></path><path d="M112.8,12.3c0-.1-.1-.4-.3-.4s-.8.3-.7.7S112.7,12.7,112.8,12.3Z"></path><path d="M111.1,10.8c-.3.6,1.1.4.9-.1S110.1,10,111.1,10.8Z"></path><path d="M113.1,1.7c0,.2.5.3.7.1s.6.6.8.4,0-.6-.5-.7,0-.2-.1-.3a1.1,1.1,0,0,0-1,.3C112.9,1.6,113,1.8,113.1,1.7Z"></path><path d="M115.8,4.2c-.2.2.1.4.3.3a1.2,1.2,0,0,0,.6-.6c.2-.6-.7-.4-1-.3S115.2,4.3,115.8,4.2Z"></path><path d="M115.1,8.5c.3.1.7-.5.6-.9s-.4-.3-.6-.1-.3-.1-.4,0,0,.6.2.3S114.9,8.5,115.1,8.5Z"></path><path d="M114.8,1.2h.5c-.1.1-.1.3.2.3s0,.5.6.3.2-.4,0-.5h-.3c.2-.1.1-.6-1-.3S114.6,1.2,114.8,1.2Z"></path><path d="M112.7,3.1c.4.1.4-.1.4-.4s-.5-.9-.9-.3-.7.3-.4.7S112.7,3.4,112.7,3.1Z"></path><path d="M113.9,3.6c-.1.2.1.3.3.2a1,1,0,0,0,.4-.5c0-.2-.2-.2-.4-.2s-.5.2-.6.4A.2.2,0,0,0,113.9,3.6Z"></path><path d="M118.3,5.7c.3-.3.2-1-.4-.7s-.7,0-.8.1-.2.6,0,.5S117.9,6.2,118.3,5.7Z"></path><path d="M117.1,8.7c.5,0,1-1,.4-1S116,8.7,117.1,8.7Z"></path><path d="M120,7.2c0-.4-.7-.4-.8-.1a.8.8,0,0,0,0,.7C119.4,8.1,120.1,7.7,120,7.2Z"></path><path d="M121.1,2a.2.2,0,0,0-.2.2c0,.2.4.2.5.1S121.3,2,121.1,2Z"></path><path d="M119.1,1.7c.2-.1.4-.6-.5-.5s-.4.2-.3.3S118.7,1.7,119.1,1.7Z"></path><path d="M118.1,2.5c.1-.1-.1-.3-.2-.3a2.7,2.7,0,0,0-.9,0c-.1.1,0,.4,0,.4h.1c0,.2.2.3.4.3S118,2.7,118.1,2.5Z"></path><path d="M119,3.5a.4.4,0,0,0-.2.6.4.4,0,0,0,.7-.2C120,3.8,119.9,3.2,119,3.5Z"></path><path d="M135.4,13.6s.4-.7.2-.7-.6.5-.6.6S135.3,13.7,135.4,13.6Z"></path><path d="M134.9,3.2a1.4,1.4,0,0,0-.9-.8c-.1,0-.3.1-.2.2s.7,1.2.8,1.5.2.2.3.1a.8.8,0,0,0,.2-.7c.6-.3.7-.7.7-.8s-.1-.3-.2-.2A1.5,1.5,0,0,1,134.9,3.2Z"></path><path d="M132.8,4.9c.2.4.9.2.8-.2s-.8-.8-1.3-1.3-.8-1.6.3-2.1,0-.2-.1-.1a1.4,1.4,0,0,0-.9,2C131.9,3.8,132.2,3.9,132.8,4.9Z"></path><path d="M127.2,0c-.5,0-.5.2-.1.4a2,2,0,0,0,1.1-.1C128.4.1,128,0,127.2,0Z"></path><path d="M127.5,1.9c.3,0,.3-.3,0-.5s-.7-.2-.7-.1S127.2,1.8,127.5,1.9Z"></path><path d="M131.6,1.3a.4.4,0,0,0,.4-.4C131.8.4,131.1,1.2,131.6,1.3Z"></path><path d="M122.7,1.9h-.2c-.1.1-.3.3-.1.4s.8,0,.7-.2a.1.1,0,0,0,.1-.1c.1,0,.3-.2.1-.2S122.7,1.6,122.7,1.9Z"></path><path d="M121.4,3.4c.2,0,.8.2.8-.1s-.6-.3-.8-.2S121.2,3.3,121.4,3.4Z"></path><path d="M128.9.9h-.2c-.2-.1-.7.2-.2.3s.2.3.5.2S129.2.9,128.9.9Z"></path><path d="M125.7.7a.4.4,0,0,0,.5-.5c-.1-.2-.8-.1-1.1,0S125.3.6,125.7.7Z"></path><path d="M123.6,4.3c.3.1.7,0,.7-.4s-.6-.4-.8-.3-.3.4,0,.4h0C123.4,4.1,123.4,4.3,123.6,4.3Z"></path><path d="M124.2,1.4a.1.1,0,0,0,0,.2c.3.1.4.2.6,0s-.3-.6-.6-.5-.3.2-.1.3Z"></path><path d="M111.3,2.6c0-.2-.2-.2-.3-.2s-.5.5-.3.6S111.4,2.8,111.3,2.6Z"></path><path d="M109,4.3c.3.2.6-.3.6-.6s-.1,0-.2,0S108.7,4.2,109,4.3Z"></path><path d="M107.9,5.4h.1a.2.2,0,0,0,.2.2c.2.1.4-.1.4-.3s0-.3-.1-.3a.2.2,0,0,1,.2-.2c0-.1-.1-.2-.2-.1l-.7.6C107.7,5.3,107.7,5.5,107.9,5.4Z"></path><path d="M102,10.9c.2-.4.1-1-.7-.6a.8.8,0,0,0-.4.7C100.8,11.7,101.8,11.2,102,10.9Z"></path><path d="M119.4,2.6c.2.2.9.2.9-.1s-.8-.3-1-.2-.2.3-.1.3A.1.1,0,0,0,119.4,2.6Z"></path><path d="M121.9,5c.3.1.6-.1.5-.4a.6.6,0,0,0-.8-.1A.3.3,0,0,0,121.9,5Z"></path><path d="M126.3,5.1c.2,0,.3-.1.2-.2a1.3,1.3,0,0,0-.5-.6c-.1-.1-.3,0-.3.2S126.1,5,126.3,5.1Z"></path><path d="M124.1,2.6s.3.3.5.3.3-.2.3-.3a.2.2,0,0,0-.2-.2C124.3,2.3,123.9,2.5,124.1,2.6Z"></path><path d="M127.3,8c.1.1.5.8.6-.1s.3-.7.1-.7-.4.4-.4.6S127.2,7.9,127.3,8Z"></path><path d="M119.8,5.6c-.1.3,0,.6.3.5s1-.3,1-.6-.5-.8-1.4-.2S119.6,5.6,119.8,5.6Z"></path><path d="M122.6,6.4c-.6-.2-1.5,0-1.3.8a.7.7,0,0,0,.9.5c.4-.1.7-.5.5-.8S122.9,6.5,122.6,6.4Z"></path><path d="M121.3,9.3a.5.5,0,0,0-.6-.6c-.7,0-1,1.1-.6,1.2S121.3,10.1,121.3,9.3Z"></path><path d="M118.2,9.2c-.3,0-.5.7-.4,1s.2.1.2,0,.4.3.5.1S118.7,9.2,118.2,9.2Z"></path><path d="M118.9,10.6h-.4c-.1.3-.1.6.1.6S119.3,11.1,118.9,10.6Z"></path><path d="M123.1,8.9c-.1.3.5.3.8,0s.6-.6,0-.7S122.6,8.3,123.1,8.9Z"></path><path d="M125.1,7.1l-.2-.2a.5.5,0,0,0-.4.3c0,.2.3.3.5.2S125.2,7.2,125.1,7.1Z"></path><path d="M126.5,6.8c.2.1.3,0,.3-.1a.7.7,0,0,0-.5-.8.3.3,0,0,0-.2.4C125.9,6.5,126.2,6.7,126.5,6.8Z"></path><path d="M128.1,9.8s.1-.3-.1-.4-.6.7,0,.8-.1.2,0,.3.1.1.2.1a.9.9,0,0,0,.1-.7C128.2,9.7,128.1,9.8,128.1,9.8Z"></path><path d="M125.6,2.1h.5c.1-.1.2-.4-.1-.4s-.3-.3-.5-.2-.3.3.1.3S125.5,2,125.6,2.1Z"></path><path d="M125.9,3.2c.2.1.7.5.9.1s-.4-.4-.7-.4S125.8,3.1,125.9,3.2Z"></path><path d="M129,6.6c.1-.3-.4-.7-.6-.7s-.2.1-.1.2-.1.7.3.8S129,6.8,129,6.6Z"></path><path d="M129.8,5.3l-.4-.2c-.1,0-.2.1-.1.2a1.8,1.8,0,0,1,.5.7.2.2,0,0,0,.3-.1V5.7h.1c.1.2.4-.1.3-.2s-.3-.4-.5-.6S129.8,5.1,129.8,5.3Z"></path><path d="M131.2,5h-.3a1.2,1.2,0,0,0,.5.5h.3A.6.6,0,0,0,131.2,5Z"></path><path d="M132.5,5.9c-.2,0-.2.5.1.6s.3-.1.3-.4S132.5,5.8,132.5,5.9Z"></path><path d="M129.9,2.2c.1-.1-.3-.2-.4-.1a.4.4,0,0,0,0,.5.4.4,0,0,0,.5,0C130.1,2.6,130.3,2.2,129.9,2.2Z"></path><path d="M128.1,2.6a.8.8,0,0,0,.2.4c.3.1.4-.1.4-.4s-.1-.3-.2-.3S128.1,2.5,128.1,2.6Z"></path><path d="M129.7,3.4c-.4,0-.4.9.4.8S130.3,3.4,129.7,3.4Z"></path><path d="M130.4,7.3c-.4-.2-.8.4-.2.5s.4.4.6.4S131.2,7.6,130.4,7.3Z"></path><path d="M131.4,7.5c.2,0,.4-.2.3-.3a.4.4,0,0,0-.4-.2C130.9,7.2,131.3,7.4,131.4,7.5Z"></path><path d="M132.6,7.8c-.1-.1-.2.1-.2.1a.8.8,0,0,0,.3.8c.1.1.3-.1.3-.2S132.8,7.8,132.6,7.8Z"></path><path d="M133.4,6.9c-.2-.1-.7.1-.3.4s0,.2.1.2S133.6,7,133.4,6.9Z"></path><path d="M122.1,11.4c.8,0,.3-1.1-.1-.6s-.6.1-.5.3S121.8,11.9,122.1,11.4Z"></path><path d="M125.9,9.8c-.1.2-.2.6.2.5h.3C126.6,9.7,126,9.6,125.9,9.8Z"></path><path d="M126.4,8.7c.6.1.1-.5-.3-.8s-.5,0-.5.1S125.9,9.1,126.4,8.7Z"></path><path d="M125.9,11.4c-.5.3-.4.9.1.9s.2.3.4.2.6-.6.3-1.1S126.1,11.3,125.9,11.4Z"></path><path d="M119.9,11.7c-.1,0-.1.1-.1.2s0,1,.5.9l.3-.2h.2C120.8,12,120.1,11.6,119.9,11.7Z"></path><path d="M124.5,13.9c.8,0,.7-1.4-.1-1.3s-.8.5-.4.9S124.2,13.9,124.5,13.9Z"></path><path d="M123.4,10.4a1,1,0,0,0,.2,1c.1.2.7.1.9-.5s.3-.7-.2-.8A.7.7,0,0,0,123.4,10.4Z"></path><path d="M126.4,14.2c-.1-.1-.4,0-.5.1s-.1.5.2.5S126.6,14.3,126.4,14.2Z"></path><path d="M127.3,16.6c.3-.4.4-.9.1-1s-.9-.1-1,.8S127,16.9,127.3,16.6Z"></path><path d="M129.5,13c-.3-.4-.7-.1-.4.8s.2.4.4-.1A.8.8,0,0,0,129.5,13Z"></path><path d="M122.6,15.6c-.1.5.3.8.8.6a1.5,1.5,0,0,0,.6-.9.4.4,0,0,0-.4-.4c.1-.1,0-.2-.1-.2A.9.9,0,0,0,122.6,15.6Z"></path><path d="M125.2,16.3c0-.2-.2-.2-.4-.1s-.3,1.4.2.8S125.3,16.4,125.2,16.3Z"></path><path d="M128.1,18.8a.5.5,0,0,0-.5-.4c.3-.4,0-.6-.3-.6s-.7.6-.3.9S128,19.5,128.1,18.8Z"></path><path d="M128.9,15.8c.4.1.3-1.1,0-1.1S128.3,16.3,128.9,15.8Z"></path><path d="M128.8,17.8c0,.2.3.3.5.1a2.6,2.6,0,0,0,.3-.8c0-.3-.3-.3-.5-.2S128.9,17.7,128.8,17.8Z"></path><path d="M123,19c-.1.6.3.5.5.4s.6-1.6-.1-1.6S122.6,19,123,19Z"></path><path d="M121.4,17.9c.3,0,.9-1.6.1-1.2s-.4.4-.4.6S121.1,18,121.4,17.9Z"></path><path d="M129.6,24.5c.4-.3.7-.7.6-1a1,1,0,0,0-1.1.2C127.7,23.8,128.5,25.1,129.6,24.5Z"></path><path d="M128.8,23c.4-.1.4-.6,0-.8a1.3,1.3,0,0,0-1.3.4h.1C127.4,23.2,128.5,23.2,128.8,23Z"></path><path d="M130.8,22c.2-.1.5-.4.4-.5s-1.3-.2-1.1.2S130.6,22.1,130.8,22Z"></path><path d="M120.7,19.6c.5-.1.2-.7.1-.9a.3.3,0,0,0-.5.2.7.7,0,0,0,.2.7Z"></path><path d="M122.4,20.6c.1-.3,0-.7-.3-.7a.7.7,0,0,0-.5.9c-.3.4.2.5.4.3A.9.9,0,0,0,122.4,20.6Z"></path><path d="M124.4,21.1c.1-.1.3-.4,0-.5s-1.1.2-.7.6A.5.5,0,0,0,124.4,21.1Z"></path><path d="M126.1,20.4c-.6.1,0,.5.6.4S126.3,19.9,126.1,20.4Z"></path><path d="M126.9,21.3a.4.4,0,0,0-.6.4c0,.1.4.2.8.1a.3.3,0,0,0,.1-.5A.2.2,0,0,0,126.9,21.3Z"></path><path d="M125.2,22.4c-.1-.3-1.1-.4-1.5.2s-.2.9.2.8S125.3,22.7,125.2,22.4Z"></path><path d="M123.3,21.9c-.3-.1-.7.5-.7.8s.3.1.4,0S123.5,22,123.3,21.9Z"></path><path d="M119.9,24.6a.3.3,0,0,0-.3.3c.1.2.4,0,.5-.2Z"></path><path d="M121.1,24.6c-.1.3.3.4.5.3s.5-.5.2-.7S121.1,24.4,121.1,24.6Z"></path><path d="M123.3,24.4c-.2,0-.4.7-.1.8S123.8,24.4,123.3,24.4Z"></path><path d="M126.3,23.8c.1-.2-.2-.4-.4-.3a1,1,0,0,0-.4.5c-.3,0-.2.3,0,.3A1.1,1.1,0,0,0,126.3,23.8Z"></path><path d="M116.1,6a.4.4,0,0,0-.4.6C116,6.8,116.6,6.1,116.1,6Z"></path><path d="M131.3,10.3c-.3-.3-.8-.3-.9-.1s.4.6.9.6S131.6,10.2,131.3,10.3Z"></path><path d="M132.2,8.9c-.2.1,0,.4.2.4s.3,0,.2-.1S132.4,8.7,132.2,8.9Z"></path><path d="M134.1,9.9a.3.3,0,0,0,0-.4c-.3-.1-.7.2-.3.3S133.9,10.1,134.1,9.9Z"></path><path d="M93.5,12.9c-.4-.1-1,0-1.1.5s.5,1.6.9.4S94,13.1,93.5,12.9Z"></path><path d="M100.5,12.3c.2-.5-.5-.5-.7-.1S100.3,12.8,100.5,12.3Z"></path><path d="M99.3,14.3c-.2.2-.2.5.1.5s1.5-.2,1.1-.8S99.6,14,99.3,14.3Z"></path><path d="M97.9,13.1c-.3.2-.4.5-.3.6s1.1,0,1.2-.6S98.5,12.6,97.9,13.1Z"></path><path d="M97.8,9.2c.3.1.7.1.8-.2s0-.4-.5-.3S97.5,9.1,97.8,9.2Z"></path><path d="M148.3,27c.2.3.8-.3.5-.4S148.1,26.8,148.3,27Z"></path><path d="M147.2,28.8c-.5,0-.7-.7-.1-.7S147.8,28.7,147.2,28.8Z"></path><path d="M145.9,11.4a2,2,0,0,1-.4.8c-.2.2-.5,0-.4-.1s-.3-.7-.3-1.1S146,11,145.9,11.4Z"></path><path d="M143.5,8.7c0-.6-.9-.6-.9-1.4s.7-1,.2-1.2a1.6,1.6,0,0,0-1.7.5c0,.3.9.1,1,.6s.6,1,.9,1.7a1.7,1.7,0,0,1-.5,1.8c-.4.5.2.5,0,.8s-1.8.5-2.1.9,1.5,1.4,2.4,1,1.3-.4.6-1.5.2-.4.3-.6S143.5,10.9,143.5,8.7Z"></path><path d="M39.1,21.5c-3.2.1-6.5,2.4-10.3,1.1-.4-.1-.6.2-.2.4,3.8,1.6,7.2-1,10.5-1.3C39.2,21.7,39.3,21.4,39.1,21.5Z"></path><path d="M72.1,3.8a9.2,9.2,0,0,0-2.3-.9c-.1,0-.3.2-.2.3l.9.2a.5.5,0,0,0,.2.6c.2.1.7,0,.7-.2l.5.3C72,4.1,72.2,3.9,72.1,3.8Z"></path><path d="M65.5,5a.5.5,0,0,0-.7.2c-.4-.1-.5.3-.3.4a.7.7,0,0,0,.9,0C65.5,5.5,65.7,5.1,65.5,5Z"></path><path d="M120.1,17.3c0-.2-.2-.3-.3-.2s-.2-.1-.2,0a2.8,2.8,0,0,0,.1.9C119.8,18.2,120.2,18,120.1,17.3Z"></path><path d="M119.6,15.8c-.1.3.4.3.5.1S119.6,15.2,119.6,15.8Z"></path><path d="M120.7,14a.5.5,0,0,0-.3.5c.1.2.1.3.3.2s.3.6.5.5S121.4,13.7,120.7,14Z"></path><path d="M129.8,8.6c-.6-.2-.6.2-.4.4S130.3,8.7,129.8,8.6Z"></path><path d="M128.9,8.4a.3.3,0,0,0,.4-.2C129.1,7.8,128.7,8.3,128.9,8.4Z"></path><path d="M125.3,18.6c-.4-.1-.4.7-.2,1s.6-.1.6-.6.3-.4.2-.6S125.5,17.8,125.3,18.6Z"></path><path d="M82.2,6.8a13.2,13.2,0,0,0-3.4-1c-1.9-.4-3-.3-4.2-1s-.4.1-.2.3a7.8,7.8,0,0,0,2.3.7c-.7.3-.2.8.8.6s.4-.3.2-.5h-.1l1.1.2,1.2.3h0a1,1,0,0,0,1,.2h0l1,.3C82.4,7.2,82.5,6.9,82.2,6.8Z"></path><path d="M73.5,4.3c-.8-.3-.7.2-.2.4S74.3,4.7,73.5,4.3Z"></path><path d="M128.2,25.3l-2.2-.4a.2.2,0,0,0-.3.3s-.1.2-.9.7-.1.4.1.3a5.7,5.7,0,0,0,1.3-.8l1.9.2C128.3,25.6,128.5,25.4,128.2,25.3Z"></path><path d="M123.8,26.3c-.2.2.2.3.3.1s.3-.7.2-.7S124,25.9,123.8,26.3Z"></path><path d="M122.9,25.5c-.2,0-.4.5-.1.5S123.2,25.5,122.9,25.5Z"></path><path d="M140.2,26.5c.1-.3-.9-.4-.8-.1S140.2,26.9,140.2,26.5Z"></path><path d="M131.3,25c-.2.4.1.5.3.3l.4-.5c.1-.3-.1-.4-.3-.2A.8.8,0,0,0,131.3,25Z"></path><path d="M130.2,25c-.2.2.1.4.4.2s.6-.5.4-.5S130.6,24.7,130.2,25Z"></path><path d="M132.9,22c-.4.1-.6.4-.3.7s1.3.8,1.4.2S133.4,21.9,132.9,22Z"></path><path d="M136.8,23c-.1-.1-.8-.2-.9.1s.3.4.8.2S137,23.2,136.8,23Z"></path><path d="M135.9,22c-.6,0-.5.4-.3.5s.8.2,1-.1S136.3,21.9,135.9,22Z"></path><path d="M138.6,23.1c0,.2.7.2.9,0S138.3,22.5,138.6,23.1Z"></path><path d="M141.6,23c-.4,0-.6.6-.2.7a1.4,1.4,0,0,0,1.1,0C142.8,23.4,141.9,22.9,141.6,23Z"></path><path d="M144.3,23.4c-.6-.3-.9.5,0,.7S145,23.7,144.3,23.4Z"></path><path d="M145.3,24c-.2,0-.5.4-.2.5S145.8,24.2,145.3,24Z"></path><path d="M141.3,24a1.2,1.2,0,0,0-.9-.3c-.6.2-.6.8-.1,1S141.5,24.3,141.3,24Z"></path><path d="M152.9,25.3c-.4.2-.4.9-.8.8a.4.4,0,0,1-.2-.6c0-.3-.3-.5-.6,0s-1.2.5-2.1.9-.2.6-.1.6a5.2,5.2,0,0,0,3.4-.3,2.7,2.7,0,0,0,1.3-1.3C153.9,25.1,153.3,25,152.9,25.3Z"></path><path d="M137.5,26.2l-.6.4c-.2.1-.2.5.2.3l.6-.5C137.9,26.3,137.7,26,137.5,26.2Z"></path><path d="M135.2,26.3l-1.2.3c-.2.1-.3.5,0,.4a4,4,0,0,0,1.3-.4C135.5,26.5,135.4,26.3,135.2,26.3Z"></path><path d="M136.4,25h-2c.2-.1.3-.3.1-.5s-1.1,0-1.3.3a.4.4,0,0,0,.1.3h-.7c-.3.1-.4.4-.1.3h3.7C136.4,25.4,136.7,25.1,136.4,25Z"></path><path d="M136.6,26.1l-.3.3c0-.3-.3-.3-.4-.1v.6c0,.1.2.1.3,0s.4-.4.6-.6S136.8,25.9,136.6,26.1Z"></path><path d="M139.6,25.3a12.5,12.5,0,0,0-2.4-.2c.2-.2-.1-.4-.2-.3a.8.8,0,0,0-.2.4c-.1.2.1.3.3.2a10,10,0,0,1,2.3.1C139.6,25.6,139.8,25.4,139.6,25.3Z"></path><path d="M114.2,24l-.4.8c-.1.3.2.4.3.2l.4-.9C114.6,23.9,114.4,23.9,114.2,24Z"></path><path d="M112.4,21.5c.1.5-.2,1-.5.7s-.6,0-.1-.4.3.1.3.1a1,1,0,0,1,.1-.4C112.3,21.3,112.4,21.3,112.4,21.5Z"></path><path d="M104.8,25.3a2.1,2.1,0,0,0-.3.7c-.2.4.3.4.4.1l.2-.7C105.2,25,104.9,25.1,104.8,25.3Z"></path><path d="M87,22.9c-.2,0-.6.4-.3.4S87.3,22.9,87,22.9Z"></path><path d="M147.4,26.7c-1.7-.6-3.5.1-5-.6s-.4.2-.1.3,3.2.1,5,.5C147.5,27,147.7,26.8,147.4,26.7Z"></path><path d="M43.6,15.4c.2-.1.3-.4,0-.7a.9.9,0,0,0-.7-1c-.4-1-1.3.1-.9.7s0,1.5.6,1.3h0l-2.5.7c.3-.2.5-.6.3-.8s.1-.8-.2-.8-.7-.3-.6-.6-.3-.2-.5-.1-.1.4-.1.5-.4,1,0,1.2a.5.5,0,0,0,.3.8l-.8.3c-.3.1-.2.4.2.3,5.3-1.5,8.6-2.8,8.9,0,0,.2.3.1.3-.1C47.9,15,45.9,14.9,43.6,15.4Z"></path><path d="M34.7,18l-.9.3a1.5,1.5,0,0,0,0-1.3c-.1-.5-.3-1.3-.9-1.2s-.4.2-.3.4,0,.5-.3.7-.1.3.1.4-.4,1-.2,1.3h.2l-.9.3a.3.3,0,0,0-.3-.5.7.7,0,0,0-.4-1.2c.3-.4,0-1-.4-.7s-1,1.2-.5,1.4,0,.5.2.5-.5,1.1-.2,1.2h.3a3.3,3.3,0,0,0-1,.6c-.1.1.2.2.3.1a24.8,24.8,0,0,1,5.3-2.2C34.9,18.2,34.9,17.9,34.7,18Z"></path><path d="M46.9,17.2a1.3,1.3,0,0,0-.9-.5c-.1-.1-.3.1-.2.2s0,.2.1.2l-.7-.2c-.2,0-.4.3-.2.4a5.9,5.9,0,0,1,1.4.6c.1.1.4-.2.3-.3l-.2-.3.2.2C46.9,17.5,47,17.3,46.9,17.2Z"></path><path d="M45.4,17.8a3.3,3.3,0,0,0-1.4-.4c-.1,0-.3.3-.1.3l1.4.4A.2.2,0,0,0,45.4,17.8Z"></path><path d="M57.1,10.4a29.7,29.7,0,0,1-4.8,3c.1-.2.1-.3-.1-.4s.2-.8-.3-.8-.4-.7-1-.6-.2.4,0,.4h.2a.4.4,0,0,0-.2.8c-.4.6.4.9,1,.8L51,14c-.1.1,0,.4.2.3a22.1,22.1,0,0,0,6-3.7C57.3,10.5,57.3,10.3,57.1,10.4Z"></path><path d="M27.4,19.3c.4,0,.5-.2.4-.3s-.9-.8-1.3-1-.4.4-.1.6a1.2,1.2,0,0,0-1.2.4c-.2-.2-.7-.2-.7,0s0,.3.1.6-.3.4-.6.7-.4.6.8,1.1c-.8,1,1.8,1.4,3,1.2s.4-.3.2-.5-.3-1.2.3-1.4S28.7,20,27.4,19.3Z"></path><path d="M101.3,7.5H92.6c-.2,0-.3.3-.1.3H94c-.1,0-.1.1-.1.2s1.9.2,1.4-.2h1.9c-.1.3.9.4,1,0h1.4c-.2.1-.1.3.1.3s1.2-.1.9-.3h.6C101.3,7.8,101.5,7.5,101.3,7.5Z"></path><path d="M73.8,20.7a5.2,5.2,0,0,0-1.6.6c-.2.1-.2.3.1.2l1.6-.6C74.1,20.9,74.1,20.7,73.8,20.7Z"></path><path d="M67.2,21.5h-.4c-.3,0-.4.5-.2.5h.7C67.4,21.9,67.5,21.6,67.2,21.5Z"></path><path d="M86.5,22.4a2.5,2.5,0,0,0-.4.7c0,.2,0,.3.2.2a3.5,3.5,0,0,0,.5-.8C86.8,22.3,86.6,22.3,86.5,22.4Z"></path><path d="M85.4,21.9c0-.3-.3-.1-.2.1v.6c.1.1.3,0,.4-.2A1.1,1.1,0,0,0,85.4,21.9Z"></path><path d="M84.7,21.3a.2.2,0,0,0-.3.1c.1.2.1.6.2.8s.3,0,.3-.1S84.8,21.4,84.7,21.3Z"></path><path d="M84.2,21.8l-.2-.2c-.2-.2-.3.1-.2.2l.2.2C84.1,22.2,84.3,22,84.2,21.8Z"></path><path d="M82.1,21.2l-.2.3c-.1.2.2.3.3.1s.1-.2.2-.3S82.2,21.1,82.1,21.2Z"></path><path d="M81.6,20.7a.3.3,0,0,1-.1.2h0c-.1-.2-.4,0-.3.2s.1.3.2.4.2.1.2,0l.3-.5C82,20.6,81.7,20.5,81.6,20.7Z"></path><path d="M88.1,23.3l-.3.4a.1.1,0,1,0,.1.2l.4-.5C88.4,23.3,88.2,23.2,88.1,23.3Z"></path><path d="M88.8,23.2l-.5.7c-.1.2.1.4.3.2l.4-.7C89,23.2,88.9,23.1,88.8,23.2Z"></path><path d="M92.5,25h-.4v-.2c.1-.1-.2-.3-.3-.1l-.3.6c0,.1,0,.2.2.2h.4v.2c-.1.3.3.2.3,0s.1-.2.1-.4S92.6,24.9,92.5,25Z"></path><path d="M89.9,23.8l-.2.2v-.2c0-.1-.2-.1-.3,0v.8c0,.1.2.2.3,0a1.5,1.5,0,0,0,.4-.6C90.2,23.9,90.1,23.7,89.9,23.8Z"></path><path d="M93.1,25l-.2.4c-.1.2.1.3.2.1l.2-.4C93.4,24.9,93.2,24.8,93.1,25Z"></path><path d="M91.2,24.8c0,.2-.1.4-.1.6s.3.1.3,0a1.5,1.5,0,0,0,.1-.7C91.6,24.5,91.3,24.6,91.2,24.8Z"></path><path d="M90.7,22.4l-.3.4c-.1.1.1.2.2.1l.3-.3A.2.2,0,0,0,90.7,22.4Z"></path><path d="M91.6,22.6l-.4.2h0c0-.2-.2-.1-.2,0s-.1.2-.1.4.1.1.2.1l.5-.4C91.8,22.8,91.8,22.5,91.6,22.6Z"></path><path d="M97.2,26.6a2.2,2.2,0,0,0-.1-.8c0-.1-.3,0-.3.1s.1.6.1.7S97.2,26.7,97.2,26.6Z"></path><path d="M104.2,26.2c0-.2-.1-.3-.1-.5s-.4-.1-.3.1.1.4.1.6S104.3,26.4,104.2,26.2Z"></path><path d="M131.3.2h-2c-.1,0-.2.2,0,.2h1.2c-.4.3,0,.7.3.7s.1-.3,0-.4.2-.3.1-.4h.3C131.4.5,131.5.3,131.3.2Z"></path><path d="M124,5.5c-.6-.2-.6.5-.2.7s1,.2,1.2-.3S124.2,4.9,124,5.5Z"></path><path d="M135.9,1l-.7-.2c-.2,0-.3.2-.2.3h.7C135.9,1.3,136.1,1,135.9,1Z"></path><path d="M140.7,7.4c0-.1-.1-.2-.2-.1l-.3.2c0,.2.1.2.2.2v.2l.2-.2Z"></path><path d="M139.4,7.9c-.1-.3-.5-.5-.7-.2S139.5,8.4,139.4,7.9Z"></path><path d="M138.3,8.6c-.2,0-.4.4-.1.4S138.8,8.6,138.3,8.6Z"></path><path d="M136.7,8.5c-.3-.4-.9.2-.4.5S137,8.7,136.7,8.5Z"></path><path d="M135,5.7h-.2l.2-.2a.1.1,0,1,0-.1-.2,1.3,1.3,0,0,0-.5.7c0,.2.2.2.3.1a.1.1,0,0,0,0,.2h.2l.2-.5C135.2,5.8,135.1,5.7,135,5.7Z"></path><path d="M135.1,7.2c-.1.1-.4.2-.5.4s.1.2.3.1l.3-.3C135.2,7.3,135.2,7.2,135.1,7.2Z"></path><path d="M135.4,8c-.3-.4-.7.3-.6.5S135.6,8.3,135.4,8Z"></path><path d="M136.8,9.7c-.5,0-.4.7.1.6s.2-.2.1-.3S137,9.7,136.8,9.7Z"></path><path d="M135.8,9.9c-.5,0-.6.7-.2.7S136.1,9.9,135.8,9.9Z"></path><path d="M138.3,9.6c-.3,0-.4.3-.1.3S138.5,9.6,138.3,9.6Z"></path><path d="M139.9,8.9c-.3,0-.6.5-.2.5S140.2,8.9,139.9,8.9Z"></path><path d="M140.8,9.4c-.3-.1-.3.3-.2.3S141,9.5,140.8,9.4Z"></path><path d="M137.4,7c0-.2-.6,0-.4.3S137.4,7.2,137.4,7Z"></path><path d="M138.1,6c-.1-.1-.4-.2-.5,0s.1.5.3.4S138.3,6.1,138.1,6Z"></path><path d="M138.8,5.7c-.1,0-.4.1-.3.3S139.1,5.7,138.8,5.7Z"></path><path d="M143.2,4.9c-.1-.2-.5.1-.4.3l.2.2C143.1,5.6,143.4,5.2,143.2,4.9Z"></path><path d="M141.1,2.9c-.2,0-.3.3-.1.3S141.4,2.9,141.1,2.9Z"></path><path d="M121.3,22.4c-.3-.2-1.2.2-1.3.3s.1.3.3.2h.5l-.2.3c.1.3,1-.3,1.2-.7S121.7,22.1,121.3,22.4Z"></path><path d="M134.5,5.1h-.2v.2c-.1,0-.1.2,0,.2h.2V5.3C134.6,5.3,134.6,5.2,134.5,5.1Z"></path><path d="M128.2,4.3c.2-.3-.4-.6-.5-.7s-.3.2-.2.3l.3.4c-.4.2.2.6.4.6S128.6,4.7,128.2,4.3Z"></path><path d="M130.8,2.4h0c-.2-.2-.7.2-.4.4h0C130.6,3,131,2.6,130.8,2.4Z"></path><path d="M130.2,1.8s.3.3.4,0S130.3,1.5,130.2,1.8Z"></path><path d="M131.5,4.3c-.2-.2-.8-.1-.5.2S131.8,4.5,131.5,4.3Z"></path><path d="M144.1,13.6l-.9.2c-.2,0-.2.1-.3.2s-2,.8-2.9.5-.4.2-.1.3,2.9.5,3.3-.7a1.9,1.9,0,0,0,1-.3C144.4,13.7,144.4,13.4,144.1,13.6Z"></path><path d="M139.7,14.1l-.5.3c-.3.2-.1.5.2.3l.4-.4C140,14.2,139.8,13.9,139.7,14.1Z"></path><path d="M139,14c-.2,0-.5.5-.2.5S139.3,14,139,14Z"></path><path d="M132.2,20.6a7.5,7.5,0,0,0-2.9-.2.8.8,0,0,0-.6-.9c-.4,0-.3.7.1,1h-.7c-.2.1-.1.3.1.3a10.2,10.2,0,0,1,3.9,0C132.3,20.8,132.5,20.6,132.2,20.6Z"></path><path d="M134.8,13.2a3.7,3.7,0,0,1-1.6-.9,1.4,1.4,0,0,1-.3-1.6h0c.5.1.2-.7-.2-.7s-.2.3,0,.5a.8.8,0,0,0-.4.7c-.5-.3-1.3.3-.8.6a4.9,4.9,0,0,0-1.3.4h0a.7.7,0,0,0-.1-.5c.3.1.5,0,.4-.3a.4.4,0,0,0-.5-.2,7.7,7.7,0,0,0-.7-1.6c-.2-.2-.3.1-.2.3a10.4,10.4,0,0,1,1,4.2c0,.3.3.1.3-.1a4.9,4.9,0,0,0-.1-1.2h0l2.1-.5c.3.6,1,1,2.2,1.2S135,13.2,134.8,13.2Z"></path><path d="M57.7,15.3l-.5.2v-.6c.1-.2-.2-.2-.2-.1s-.1.5-.3,1.1l-1.2.6c-.1.1,0,.3.1.2l1.3-.5c.5,0,.9-.4.7-.6S57.9,15.3,57.7,15.3Z"></path><path d="M106.9,6l.5-.3c.2-.1.1-.3-.1-.2A11.6,11.6,0,0,1,103.5,7c-.3.1-.3.4,0,.3l1.2-.3c-.1.2.1.5.5.4s.6-.5.3-.7l.7-.3c-.1.1.2.3.3.1a.6.6,0,0,0,1-.2C107.5,6.1,107.2,6,106.9,6Z"></path><path d="M96.7,24.5l-.2-.5c0-.1-.2-.1-.3,0s-.2,0-.3.1l-.2.4c-.1.3.3.2.5,0h0a.4.4,0,0,0,.1.3C96.4,25,96.8,24.7,96.7,24.5Z"></path><path d="M136.8,2.1c-.2,0-.5.4-.2.4S137.1,2.1,136.8,2.1Z"></path><path d="M138.1,2.9h0c-.1-.1-.3,0-.4.1h0C137.4,3.5,138.5,3.3,138.1,2.9Z"></path><path d="M140.6,2.7a27,27,0,0,0-4.1-1.6c-.2,0-.3.1-.1.3l1.4.5c-.1.1-.1.2.1.3a.3.3,0,0,0,.4-.2l2.1.9C140.6,3,140.8,2.8,140.6,2.7Z"></path><path d="M136.9,13.7l-.8-.2c-.3,0-.5.3-.2.3l.9.2C137.1,14,137.2,13.8,136.9,13.7Z"></path><path d="M38.4,20.2c-.3,0-.4.6,0,.5S38.8,20.3,38.4,20.2Z"></path><path d="M46.2,22.8c.2-.8-2.2-.5-4-1.6.2-.1.3-.3,0-.4a.4.4,0,0,0-.5.4h-.9c-.4.1-.5.5-.1.6a7.9,7.9,0,0,1-2.1,1,4.7,4.7,0,0,0-1.9,1.1c-.2.3,0,.4.3.2a7.6,7.6,0,0,1,2-.8c-.1.7,1.7.5,1.8-.4.6.9,1.5.3,1.9.8s1.2.6,1.5.4.3-.7-.4-.9C45.1,22.6,46,23.4,46.2,22.8Z"></path><path d="M45.3,19.6c-.1-.2-.9-.3-.8,0s-.2.4,0,.6S45.6,19.9,45.3,19.6Z"></path><path d="M43.7,20.3h-.5a.3.3,0,0,0-.2.5h.8C43.9,20.6,44,20.3,43.7,20.3Z"></path><path d="M46.2,20.6c-.4-.4-1.7.1-1.2.7a.9.9,0,0,0,1,0A.5.5,0,0,0,46.2,20.6Z"></path><path d="M43.1,19.9c-.1-.3-.9-.2-.7.1S43.2,20.3,43.1,19.9Z"></path><path d="M143.6,22.3a16.7,16.7,0,0,0-4.4-.6c-.2,0-.2.2,0,.2h1.5c-.1.1,0,.4.3.4s.5-.1.5-.3l2,.4C143.7,22.6,143.9,22.4,143.6,22.3Z"></path><path d="M142.3,27.1c-.3.2.4.8.8.5S142.5,27,142.3,27.1Z"></path><path d="M132.6,23.3c0-.3-.6-.6-.6-.3S132.5,23.6,132.6,23.3Z"></path><path d="M29.5,27c-.5.2-.6,1.7-1.2,2.2A7.5,7.5,0,0,0,27,30.8c-.5,1,.5.9.8.9s.4-.4.8-.2.4-.7.5-1.1,1.1-2,1.2-2.6S29.9,26.7,29.5,27Z"></path><path d="M26.5,32.8c-.4.7,1.5.6,1.7.2s-.5-.8-.9-.8S26.6,32.5,26.5,32.8Z"></path><path d="M142.7,4.3c0-.2-.3,0-.1.2S142.8,4.5,142.7,4.3Z"></path><path d="M122.1,13.3c-.2.7.3.7.6.6s.3-.8-.1-.7S121.2,13.2,122.1,13.3Z"></path><path d="M128.2,13.5a1.5,1.5,0,0,0-.1-1.1c-.1-.2-.4-.1-.5.1l-.3.8c0,.3.4.3.5.1S128.2,13.7,128.2,13.5Z"></path><path d="M90.9,14.5a.4.4,0,0,0-.4-.6c-.7,0-1.1.5-1,.9S90.4,15,90.9,14.5Z"></path><path d="M120.2,20.9c-.3-1.1-.7-.7-.9-.3a28.6,28.6,0,0,0-.7-4.1.3.3,0,0,0,.4-.4c-.3-.4-.5-.4-.5-.4v-.2c.1,0,.2-.1.1-.2l-.8-.4c-.2,0-.3.3-.2.3l.5.2c0,2.6,1.3,4.2.5,8.3,0,.2.3.4.4,0a13,13,0,0,0,.3-2.6l.4.4A.5.5,0,0,0,120.2,20.9Z"></path><g><path d="M116.5.7c-.1,0-.3,0-.3.2s.3.5.6.4S116.6.8,116.5.7Z"></path><path d="M124.1.2c-2.5,0-4.8.4-6.7.5h0c-.3-.2-.7.1-.4.3l.4.3c.3.2.7,0,.4-.2h-.1l2.5-.2c-.1.1.1.3.3.2a.3.3,0,0,0-.2.4c0,.2.5.3.7.2s.3-.5,0-.6a.2.2,0,0,0,.1-.3h1.1c-.2.2-.1.5.1.5s.8,0,.8-.2-.1-.2-.2-.3h1.2C124.5.4,124.4.1,124.1.2Z"></path></g><path d="M140.9,27.9c-1.6-.5-1.3-1.2.2-.7S141.6,28,140.9,27.9Z"></path><path d="M134.5,11c-.3,0-.5.4-.1.4S134.9,11,134.5,11Z"></path><path d="M118.9,14.9c.1-.1-.4-.4-.5-.5s-.4.1-.2.3S118.7,15,118.9,14.9Z"></path><path d="M57.3,26.5a1.7,1.7,0,0,0-1.1-1.3c-.4,0-.6.4-1.1.2h-.5c.5-.6-1-.8-1.1-.3l-1-.3c.1-.2,0-.3-.1-.4a.9.9,0,0,0-.7.1c-.4-.1-.6-.2-.9-.1s-.4.9.1,1.2a1,1,0,0,0,1.3-.2c.8.1,1.2.4,1.3.8s-.4.5.2.6S57.5,27,57.3,26.5Z"></path><path d="M77.7,11.4a1.1,1.1,0,0,0-.3-.8c-.2,0-.4,0-.5.2s-.4.8-.2,1,.7-.4.7-.4S77.6,11.5,77.7,11.4Z"></path><path d="M75.6,10.6a.7.7,0,0,0-.8.7c.1.1.2.3.4.3h.3C75.9,11.4,76.2,10.5,75.6,10.6Z"></path><path d="M134.6.7a3.4,3.4,0,0,0-1.3-.2q-.3.1,0,.3l1.2.2C134.7,1,134.7.7,134.6.7Z"></path></g><path d="M156.5,29.5c-.3,0-.3.3-.6.3s-.7-.3-1.2-.2-1.1,1.2-1.6,1.3-.4-1-1.6-1.1-.6-1.3-1.2-1.2-.6.8-.6,1.1-1.4.8-2.4,1-.5.7-.1.9,1.5-.3,2.1,0a7.8,7.8,0,0,0,7.5-.7C157.2,30.6,157,29.5,156.5,29.5Z"></path><path d="M126.1,27.1l-.9.2-.3.3c-.2.3.2.5.4.5a1.1,1.1,0,0,0,.8-.1.8.8,0,0,0,.4-.4A.7.7,0,0,0,126.1,27.1Z"></path><path d="M129.3,25.8h0c0-.2,0-.3-.1-.3H129a.7.7,0,0,0-.6.4v.3c0,.1.2.1.3.1h.4Z"></path><path d="M128.4,27.3c-.1-.3-.5-.3-.9-.2s-.2.2-.1.3a.2.2,0,0,0-.2.2.4.4,0,0,0,.6.4C128.2,27.9,128.6,27.6,128.4,27.3Z"></path><path d="M130.1,25.8a.2.2,0,0,1,.1.3h-.3a.2.2,0,0,1,0-.3Z"></path><path d="M131.6,26.9c-.3-.4-1-.2-1.3-.1a.4.4,0,0,0-.1.3.3.3,0,0,0-.3.3c.1.4.7.4,1,.2S131.8,27.3,131.6,26.9Z"></path><path d="M143.2,29.6c-.1-.4-.5-.9-.8-.9s-.3.2-.2.4H142c-.6.4.5,1,.9,1A.6.6,0,0,0,143.2,29.6Z"></path><path d="M132.2,28.6a1.7,1.7,0,0,0-1-.3c-.4.1-.2.5,0,.6l.8.2A.4.4,0,0,0,132.2,28.6Z"></path><path d="M145.9,28.9h-.3c-.3,0-.3.4-.1.5S146.1,29,145.9,28.9Z"></path><path d="M151.2,24.8c0-.1-.1-.2-.3-.2l-.4.3c-.1,0-.1.1-.1.2s.1.2.3.2S151.3,25,151.2,24.8Z"></path><path d="M154.8,29.6c.2,0,.5.2.6,0s-.2-.4-.4-.4S154.6,29.4,154.8,29.6Z" fill="#231f20"></path><path d="M154,29c-.1,0-.3,0-.3.1s0,.2.1.2S154.2,29.1,154,29Z"></path><path d="M148.3,29.7c.2.2-.5.7-.8.2S148.2,29.4,148.3,29.7Z"></path><path d="M146.5,31.2h-.4s.2,0,.2-.1a.2.2,0,0,0,0-.4h-.5c-.3.1-.3.3-.1.4s-.4.5-.2.6h.9C146.7,31.5,146.6,31.2,146.5,31.2Z"></path><path d="M136,1.9c-.1-.1-.3-.4-.5-.3s-.1.1-.1.2l-.3-.3c-.2-.1-.3.1-.2.2a1,1,0,0,1,.4.5c.1.1.3.1.3-.1V1.9l.3.2A.1.1,0,1,0,136,1.9Z"></path><path d="M136.4,3.2a.6.6,0,0,0-.5.2c-.1.1,0,.3.2.3l.4-.2A.2.2,0,0,0,136.4,3.2Z"></path><path d="M150.9,28.5c-.1,0-.2,0-.2.1l.4.4c.1.1.2,0,.2-.1A.4.4,0,0,0,150.9,28.5Z" fill="#231f20"></path><path d="M132.8,28.9a16.1,16.1,0,0,1-3.7-.7,7.1,7.1,0,0,0-2.1-.4c-1-.1-2.4.3-2.9-.4s-.4.1-.3.3,2.8.2,4.2.6a24.7,24.7,0,0,0,4.7,1C133,29.3,133.1,28.9,132.8,28.9Z" fill="#231f20"></path><path d="M134,28.2h-.5a.3.3,0,0,0,0,.4h.3A.2.2,0,0,0,134,28.2Z"></path><path d="M126.7,26.1h-.6c-.1.1-.3.2-.2.4s.6,0,.8-.1S126.9,26.1,126.7,26.1Z"></path><path d="M136.6,28.3c-.1.1.1.3.2.5s-.2.2,0,.3.6.2.7.1,0-.3.1-.3S136.8,28,136.6,28.3Z" fill="#231f20"></path><path d="M144.2,30.6a17,17,0,0,0-8.4-1.5c-.3,0-.2.4.1.4A19.9,19.9,0,0,1,144,31C144.2,31.1,144.4,30.8,144.2,30.6Z" fill="#231f20"></path></g><g><path d="M141.4,13.4a4.6,4.6,0,0,1,1.3-1.4c.2-.1.3.1.2.1a3,3,0,0,0-1.2,1.3C141.6,13.6,141.4,13.5,141.4,13.4Z" fill="#fff"></path><path d="M142.4,13.6a4.8,4.8,0,0,0,.6-1.1c.1-.1.3,0,.2.2a5.3,5.3,0,0,1-.6,1C142.4,13.8,142.2,13.7,142.4,13.6Z" fill="#fff"></path><path d="M150.4,29.2c-.7.4.4,1.2.6,1.1S151,28.9,150.4,29.2Z" fill="#fff"></path><path d="M154.8,29.8c-.7.4.3,1.1.5,1.1S155.3,29.6,154.8,29.8Z" fill="#fff"></path></g></g></g></g></svg> 