<?xml version="1.0" encoding="UTF-8"?> <svg xmlns="http://www.w3.org/2000/svg" width="135" height="45" viewBox="0 0 135 45"><title>dr-laurie-signature-dark</title><g><path d="M17.974,36.689a7.539,7.539,0,0,1-2.473,1.3,4.718,4.718,0,0,1-2.869-.1,10.641,10.641,0,0,1-4.193-3.446L6.781,32.417a8.792,8.792,0,0,0-1.8-1.718,1.9,1.9,0,0,0-1-.335,1.5,1.5,0,0,0-.923.352,5.107,5.107,0,0,0-1.12,2.064,20.117,20.117,0,0,0-.863,4.988,14.607,14.607,0,0,0,.41,4.944,2.882,2.882,0,0,0,.477.941.552.552,0,0,0,.559.241A3.6,3.6,0,0,0,3,43.74c.176-.075.351-.157.522-.251a6.4,6.4,0,0,0,.986-.678A16.049,16.049,0,0,0,7.691,38.94a60.235,60.235,0,0,0,4.488-9.3c1.281-3.218,2.429-6.493,3.537-9.784s2.157-6.606,3.3-9.9c.571-1.647,1.156-3.291,1.809-4.921.328-.814.674-1.624,1.073-2.422a12.227,12.227,0,0,1,.667-1.183A3.8,3.8,0,0,1,23.571.324h0L23.993,0l.227.507a4.751,4.751,0,0,1,.3,2.218,12.994,12.994,0,0,1-.3,2.084A21.617,21.617,0,0,1,22.88,8.745a17.173,17.173,0,0,1-5.027,6.7,11.762,11.762,0,0,1-3.865,1.939,8.672,8.672,0,0,1-4.382.137A6.689,6.689,0,0,1,5.893,15.2a6.009,6.009,0,0,1-1.274-4.066.368.368,0,0,1,.731-.016v.006a6.451,6.451,0,0,0,1.283,3.5,5.7,5.7,0,0,0,3.2,1.92,9.11,9.11,0,0,0,7.339-1.957A16.456,16.456,0,0,0,21.927,8.32,20.607,20.607,0,0,0,23.25,4.581a12.544,12.544,0,0,0,.325-1.928A3.988,3.988,0,0,0,23.409.876l.648.183h0a5.742,5.742,0,0,0-1.334,1.945c-.373.765-.7,1.56-1.021,2.363-.628,1.608-1.2,3.248-1.749,4.893L16.7,20.171c-1.1,3.3-2.244,6.6-3.526,9.847A61.089,61.089,0,0,1,8.624,39.5a17.046,17.046,0,0,1-3.407,4.147,6.082,6.082,0,0,1-2.529,1.329,1.692,1.692,0,0,1-1.572-.64,3.883,3.883,0,0,1-.662-1.309A15.5,15.5,0,0,1,.059,37.7a21.033,21.033,0,0,1,.994-5.217,5.8,5.8,0,0,1,1.423-2.434,2.434,2.434,0,0,1,1.506-.559,2.8,2.8,0,0,1,1.484.477,9.505,9.505,0,0,1,2,1.9L9.12,33.9a9.9,9.9,0,0,0,3.807,3.19,3.764,3.764,0,0,0,2.33.069A6.632,6.632,0,0,0,17.421,36l.008-.006a.453.453,0,0,1,.627.078.434.434,0,0,1-.08.616Z" fill="#fdba4d"></path><path d="M23.99,29.56a54.339,54.339,0,0,1-2.272,5.733,16.484,16.484,0,0,1-1.565,2.78,3.047,3.047,0,0,1-.686.69,1.235,1.235,0,0,1-.79.233,1.047,1.047,0,0,1-.516-.193,1.731,1.731,0,0,1-.241-.219,3.362,3.362,0,0,1-.725-1.739,11.463,11.463,0,0,1,.05-3.231,19.815,19.815,0,0,1,.687-3.078,15.215,15.215,0,0,1,1.231-2.948,7.14,7.14,0,0,1,.985-1.374,2.821,2.821,0,0,1,1.745-.96,2,2,0,0,1,.589.04,1.96,1.96,0,0,1,.277.08,1.209,1.209,0,0,1,.373.217,1.627,1.627,0,0,1,.485,1.133,7.315,7.315,0,0,1-.126,1.671c-.176,1.038-.414,2.027-.624,3.017a26.858,26.858,0,0,0-.5,2.944A4.771,4.771,0,0,0,22.658,37a1.2,1.2,0,0,0,.354.379c.111.1.429.168.249.137a1.972,1.972,0,0,0,.46-.31,7.132,7.132,0,0,0,.52-.489,22.036,22.036,0,0,0,1.9-2.309A29.267,29.267,0,0,0,29.2,29.241v0l.029-.054a.677.677,0,0,1,.9-.274.652.652,0,0,1,.3.845,18.044,18.044,0,0,0-1.354,4.054,4.333,4.333,0,0,0-.016,1.938.755.755,0,0,0,.439.513,1.432,1.432,0,0,0,.842.007,6.5,6.5,0,0,0,3.177-2.539,12.96,12.96,0,0,0,1.92-3.81v0A.45.45,0,0,1,36,29.63a.439.439,0,0,1,.3.492l0,.015a25.91,25.91,0,0,0-.549,5.246c.025.819.242,1.724.68,1.939a.87.87,0,0,0,.382.1,1.636,1.636,0,0,0,.243,0,.6.6,0,0,0,.164-.041,3.284,3.284,0,0,0,.905-.635,24.315,24.315,0,0,0,3.242-4.131c.979-1.489,1.907-3.035,2.768-4.585l0-.007a.9.9,0,0,1,1.224-.317.874.874,0,0,1,.39,1.06,6.5,6.5,0,0,0-.365,3.874,2.051,2.051,0,0,0,1.025,1.248,1.329,1.329,0,0,0,.2.095l.1.042c.039.018.081.031.028.014-.113-.008-.007.006.1-.042a3.526,3.526,0,0,0,.794-.469,13.5,13.5,0,0,0,2.89-3.18,12.985,12.985,0,0,0,1.052-1.885c.074-.162.139-.327.206-.491l.2-.548a3.613,3.613,0,0,1,.769-1.157,3.878,3.878,0,0,1,.528-.447l.475-.328c.313-.21.614-.433.918-.654.6-.445,1.189-.911,1.752-1.4a25.182,25.182,0,0,0,3.1-3.213,30.6,30.6,0,0,0,4.429-7.755l0,0,0-.01a.451.451,0,0,1,.582-.243.44.44,0,0,1,.261.533c-1.277,4.182-2.542,8.353-4.079,12.476-.2.516-.4,1.026-.654,1.546l-.756,1.462c-.5.968-.991,1.94-1.448,2.922a29.37,29.37,0,0,0-1.223,2.984,8.75,8.75,0,0,0-.378,1.505,2.379,2.379,0,0,0-.006.678.523.523,0,0,0,.077.216c.011.032.033.038.012.026a.219.219,0,0,0-.144-.024c-.064.027.039-.025.1-.1a2.874,2.874,0,0,0,.222-.278c.148-.206.293-.434.437-.662l.88-1.4c.619-.926,1.179-1.815,1.717-2.768,1.066-1.89,2.029-3.846,2.959-5.816,1.85-3.945,3.558-7.966,5.17-12.012v0a.449.449,0,0,1,.578-.25.437.437,0,0,1,.259.558c-1.405,3.863-2.709,7.776-3.816,11.729a56.528,56.528,0,0,0-1.373,5.973,12.58,12.58,0,0,0-.191,2.963c.03.459.2.934.389,1.012a.969.969,0,0,0,.491.022,2.388,2.388,0,0,0,.627-.2,7.574,7.574,0,0,0,2.258-1.849,21.7,21.7,0,0,0,1.841-2.424,43.449,43.449,0,0,0,2.982-5.362,64.815,64.815,0,0,0,4.155-11.551h0a.448.448,0,0,1,.543-.319.44.44,0,0,1,.329.513l0,.007-1.277,6.123q-.65,3.059-1.252,6.126c-.394,2.045-.775,4.094-1.076,6.144a20.034,20.034,0,0,0-.271,3.026,1.394,1.394,0,0,0,.036.265c0,.013,0-.014-.011-.014l.04.058a.878.878,0,0,0,.083.1.393.393,0,0,0,.362.144,2.431,2.431,0,0,0,1.15-.644l.021-.017a.226.226,0,0,1,.315.02.216.216,0,0,1,.024.258,2.294,2.294,0,0,1-1.37,1.169,1.262,1.262,0,0,1-1.1-.306,1.7,1.7,0,0,1-.183-.188l-.08-.1a1.024,1.024,0,0,1-.095-.191,1.893,1.893,0,0,1-.088-.5,20.209,20.209,0,0,1,.26-3.2c.293-2.08.664-4.138,1.048-6.193q1.152-6.165,2.59-12.266l.871.2h0a65.568,65.568,0,0,1-4.212,11.709,44.388,44.388,0,0,1-3.043,5.471,22.563,22.563,0,0,1-1.918,2.522A8.375,8.375,0,0,1,65.033,36.1a3.27,3.27,0,0,1-.867.267,1.757,1.757,0,0,1-1.05-.115,1.492,1.492,0,0,1-.672-.838,3.394,3.394,0,0,1-.184-.86,13.355,13.355,0,0,1,.2-3.185,57.318,57.318,0,0,1,1.394-6.07c1.118-3.988,2.424-7.907,3.839-11.8l.837.308h0c-1.622,4.069-3.332,8.094-5.194,12.065-.936,1.982-1.905,3.952-2.989,5.875-.537.954-1.145,1.918-1.745,2.813l-.872,1.383c-.149.235-.3.47-.468.709a4.012,4.012,0,0,1-.292.364,1.139,1.139,0,0,1-.568.366.713.713,0,0,1-.54-.1.86.86,0,0,1-.265-.272,1.375,1.375,0,0,1-.211-.543,3.183,3.183,0,0,1,0-.95A9.6,9.6,0,0,1,55.8,33.86a30.085,30.085,0,0,1,1.26-3.076c.464-1,.959-1.981,1.464-2.955l.75-1.451c.227-.462.428-.969.621-1.471,1.514-4.062,2.786-8.249,4.057-12.412l.846.28v0a31.516,31.516,0,0,1-4.54,7.991,26.127,26.127,0,0,1-3.2,3.339q-.873.762-1.8,1.451c-.312.227-.621.458-.94.674a5.777,5.777,0,0,0-.871.664,2.666,2.666,0,0,0-.573.86c-.122.325-.256.721-.416,1.064a13.791,13.791,0,0,1-1.12,2.023,14.423,14.423,0,0,1-3.1,3.424,4.458,4.458,0,0,1-1.03.605,1.181,1.181,0,0,1-.658.087,2.953,2.953,0,0,1-.57-.235,3.022,3.022,0,0,1-1.5-1.787,7.313,7.313,0,0,1,.369-4.52l.161.074,0,.008q-1.329,2.368-2.829,4.639a24.849,24.849,0,0,1-3.413,4.291,4,4,0,0,1-1.222.812,1.942,1.942,0,0,1-.8.089,1.807,1.807,0,0,1-.785-.238,2.133,2.133,0,0,1-.894-1.273,5.819,5.819,0,0,1-.211-1.414,26.7,26.7,0,0,1,.588-5.441l.863.223,0,0a16.225,16.225,0,0,1-2.077,4.024,10.276,10.276,0,0,1-1.55,1.713,5.262,5.262,0,0,1-2.106,1.184,2.5,2.5,0,0,1-1.366-.009,1.7,1.7,0,0,1-1.037-1.038,5.178,5.178,0,0,1-.127-2.418,25.261,25.261,0,0,1,1.157-4.372l1.232.517v0a38.478,38.478,0,0,1-3.32,5.288,22.879,22.879,0,0,1-2.039,2.406,7.84,7.84,0,0,1-.61.557,2.734,2.734,0,0,1-.843.5.967.967,0,0,1-.434.043.824.824,0,0,1-.185-.041l-.119-.039a2.229,2.229,0,0,1-1.165-.943,5.673,5.673,0,0,1-.5-3.315,29.421,29.421,0,0,1,.464-3.08c.192-1.005.408-2,.552-2.974a6.276,6.276,0,0,0,.084-1.366c-.006-.188-.1-.341-.051-.26.007.012.061.037.04.028a.634.634,0,0,0-.1-.027.666.666,0,0,0-.183-.014,1.553,1.553,0,0,0-.88.545,5.939,5.939,0,0,0-.795,1.118,13.925,13.925,0,0,0-1.119,2.689,14.325,14.325,0,0,0-.7,5.724,2.2,2.2,0,0,0,.4,1.063c.012.015.067.062.041.042a.323.323,0,0,0-.16-.053c-.126,0-.114.029-.068,0a1.905,1.905,0,0,0,.4-.392,15.707,15.707,0,0,0,1.516-2.508c.9-1.8,1.714-3.666,2.5-5.528l0-.006a.451.451,0,0,1,.585-.237A.438.438,0,0,1,23.99,29.56Z" fill="#fdba4d"></path><path d="M81.831,27.388a4.128,4.128,0,0,0,.4-1.042.673.673,0,0,0,0-.351c-.017-.025-.011-.038-.146-.057a2.331,2.331,0,0,0-.993.257,6.714,6.714,0,0,0-1.023.587,7.772,7.772,0,0,0-1.733,1.609,4.084,4.084,0,0,0-.573.966,6.36,6.36,0,0,0-.306,1.12,4.919,4.919,0,0,0,.012,2.242c.12.326.261.456.48.456a1.419,1.419,0,0,0,.824-.407,13.391,13.391,0,0,0,2.643-3.986.452.452,0,0,1,.6-.212.443.443,0,0,1,.246.5,12.442,12.442,0,0,0-.321,2.155,4.066,4.066,0,0,0,.277,1.987.822.822,0,0,0,.572.454,2.677,2.677,0,0,0,.949-.075,3.834,3.834,0,0,0,1.778-.991,9.378,9.378,0,0,0,2.165-3.719,20.722,20.722,0,0,0,.972-4.315l.868.182a14.727,14.727,0,0,0-.794,4.659,4.024,4.024,0,0,0,.545,2.11,1.867,1.867,0,0,0,1.721.821A3.631,3.631,0,0,0,92.9,31.321a11.462,11.462,0,0,0,1.566-1.783,29.066,29.066,0,0,0,2.454-4.175,62.515,62.515,0,0,0,3.543-9.078c.475-1.554.9-3.125,1.227-4.707.162-.791.3-1.586.384-2.375a9.051,9.051,0,0,0,.053-1.165,3.037,3.037,0,0,0-.058-.529,1.58,1.58,0,0,0-.085-.241h0l.226.061a1.336,1.336,0,0,0-.393.391,5.947,5.947,0,0,0-.463.77,17.168,17.168,0,0,0-.753,1.728c-.45,1.187-.831,2.409-1.18,3.639-.7,2.463-1.259,4.968-1.733,7.485s-.847,5.054-1.082,7.594a33.415,33.415,0,0,0,0,7.554h0l-.427-.52c-.079-.019-.018.01.087-.027a1.934,1.934,0,0,0,.368-.164,6.237,6.237,0,0,0,.806-.566,17.031,17.031,0,0,0,1.533-1.435,36.972,36.972,0,0,0,2.759-3.269,35.039,35.039,0,0,0,2.382-3.556,16.014,16.014,0,0,0,.946-1.895,6.155,6.155,0,0,0,.313-.983,1.437,1.437,0,0,0-.028-.9l-.007-.014a.217.217,0,0,1,.092-.3.226.226,0,0,1,.3.087,1.824,1.824,0,0,1,.138,1.207,6.7,6.7,0,0,1-.283,1.085,16.367,16.367,0,0,1-.879,2.015,35.772,35.772,0,0,1-2.242,3.752,38.05,38.05,0,0,1-2.658,3.5,18.468,18.468,0,0,1-1.559,1.614,7.4,7.4,0,0,1-.941.731,3.255,3.255,0,0,1-.614.308,1.476,1.476,0,0,1-.987.039.61.61,0,0,1-.42-.483l-.006-.038h0a34.5,34.5,0,0,1,.1-7.86c.277-2.585.7-5.144,1.208-7.684s1.122-5.06,1.864-7.55c.373-1.244.777-2.481,1.26-3.7a18.121,18.121,0,0,1,.82-1.81,6.874,6.874,0,0,1,.551-.883,2.717,2.717,0,0,1,.394-.429,1.123,1.123,0,0,1,.731-.312.4.4,0,0,1,.227.061l0,0a1.2,1.2,0,0,1,.5.806,3.858,3.858,0,0,1,.078.687,9.64,9.64,0,0,1-.056,1.281c-.087.836-.231,1.653-.4,2.463-.337,1.619-.767,3.21-1.248,4.785a63.318,63.318,0,0,1-3.595,9.209,29.89,29.89,0,0,1-2.531,4.3A12.376,12.376,0,0,1,93.5,31.97a4.49,4.49,0,0,1-2.426,1.238A2.769,2.769,0,0,1,88.518,32a4.826,4.826,0,0,1-.7-2.572,15.492,15.492,0,0,1,.841-4.966.447.447,0,0,1,.558-.288.44.44,0,0,1,.31.47,21.505,21.505,0,0,1-1.016,4.517,10.2,10.2,0,0,1-2.392,4.068,4.725,4.725,0,0,1-2.19,1.211,3.411,3.411,0,0,1-1.337.081,1.728,1.728,0,0,1-1.179-.9,4.816,4.816,0,0,1-.382-2.447,13.163,13.163,0,0,1,.347-2.323l.841.286A21.134,21.134,0,0,1,81,31.384a9.159,9.159,0,0,1-1.653,2.047,2.242,2.242,0,0,1-1.422.622,1.314,1.314,0,0,1-.875-.343,1.728,1.728,0,0,1-.437-.7,5.637,5.637,0,0,1-.046-2.685,7.1,7.1,0,0,1,.351-1.279,4.935,4.935,0,0,1,.694-1.179,8.662,8.662,0,0,1,1.933-1.8,7.622,7.622,0,0,1,1.163-.665,3.093,3.093,0,0,1,1.443-.334,1.037,1.037,0,0,1,.88.562,1.443,1.443,0,0,1,.074.871,4.862,4.862,0,0,1-.479,1.285.45.45,0,0,1-.6.2.434.434,0,0,1-.206-.586v0Z" fill="#fdba4d"></path><path d="M110.8,18.3c-1.555,1.541-3.084,3.133-4.531,4.778a38.024,38.024,0,0,0-3.973,5.152,5.2,5.2,0,0,0-.605,1.366.6.6,0,0,0,.01.424c.01.043.175.11.4.111a6.719,6.719,0,0,0,3-.793,15.335,15.335,0,0,0,4.861-4.156h0a.454.454,0,0,1,.627-.085.434.434,0,0,1,.125.555,12.786,12.786,0,0,0-1.434,3.646,3.579,3.579,0,0,0,.079,1.789,2.321,2.321,0,0,0,1.133,1.251,8.341,8.341,0,0,0,3.817.657,30.507,30.507,0,0,0,4.061-.369c2.706-.407,5.392-1.018,8.065-1.668s5.338-1.368,8.005-2.073a.447.447,0,0,1,.548.309.437.437,0,0,1-.315.538h0c-2.667.7-5.335,1.418-8.021,2.077s-5.392,1.269-8.148,1.684a31.277,31.277,0,0,1-4.185.379,9.15,9.15,0,0,1-4.258-.765,3.215,3.215,0,0,1-1.545-1.727,4.414,4.414,0,0,1-.117-2.229,13.573,13.573,0,0,1,1.528-3.915l.752.471h0A17.322,17.322,0,0,1,105.5,30.1a7.586,7.586,0,0,1-3.4.907,1.211,1.211,0,0,1-1.325-1.585,5.926,5.926,0,0,1,.671-1.656,38.647,38.647,0,0,1,3.961-5.4c1.437-1.7,2.9-3.352,4.428-4.977a.679.679,0,0,1,.948-.038.649.649,0,0,1,.039.93l-.015.015Z" fill="#fdba4d"></path></g><g><path d="M74.235,26.573q.6-3.068,1.251-6.126l1.277-6.123,0-.007a.44.44,0,0,0-.329-.513.448.448,0,0,0-.543.319h0a64.815,64.815,0,0,1-4.155,11.551,43.449,43.449,0,0,1-2.982,5.362,21.7,21.7,0,0,1-1.841,2.424,7.574,7.574,0,0,1-2.258,1.849,2.388,2.388,0,0,1-.627.2.969.969,0,0,1-.491-.022c-.187-.078-.359-.553-.389-1.012a12.58,12.58,0,0,1,.191-2.963,56.528,56.528,0,0,1,1.373-5.973c1.107-3.953,2.411-7.866,3.816-11.729a.437.437,0,0,0-.259-.558.449.449,0,0,0-.578.25v0c-1.612,4.046-3.32,8.067-5.17,12.012-.93,1.97-1.893,3.926-2.959,5.816-.538.953-1.1,1.842-1.717,2.768l-.88,1.4c-.144.228-.289.456-.437.662a2.874,2.874,0,0,1-.222.278l0,0a.472.472,0,0,1-.042-.119,2.379,2.379,0,0,1,.006-.678,8.75,8.75,0,0,1,.378-1.505,29.37,29.37,0,0,1,1.223-2.984c.457-.982.946-1.954,1.448-2.922l.756-1.462c.255-.52.455-1.03.654-1.546,1.537-4.123,2.8-8.294,4.079-12.476a.44.44,0,0,0-.261-.533.451.451,0,0,0-.582.243l0,.01,0,0a30.618,30.618,0,0,1-4.429,7.755,25.182,25.182,0,0,1-3.1,3.213c-.563.49-1.149.956-1.752,1.4-.3.221-.6.444-.918.654l-.475.328a3.878,3.878,0,0,0-.528.447,3.613,3.613,0,0,0-.769,1.157l-.2.548c-.067.164-.132.329-.206.491a12.985,12.985,0,0,1-1.052,1.885,13.5,13.5,0,0,1-2.89,3.18,3.526,3.526,0,0,1-.794.469.391.391,0,0,1-.114.033l-.011-.005-.1-.042a1.329,1.329,0,0,1-.2-.095,2.051,2.051,0,0,1-1.025-1.248,6.5,6.5,0,0,1,.365-3.874.874.874,0,0,0-.39-1.06.9.9,0,0,0-1.224.317l0,.007c-.861,1.55-1.789,3.1-2.768,4.585a24.315,24.315,0,0,1-3.242,4.131,3.284,3.284,0,0,1-.905.635.6.6,0,0,1-.164.041,1.636,1.636,0,0,1-.243,0,.884.884,0,0,1-.382-.1c-.438-.215-.655-1.12-.68-1.939a25.979,25.979,0,0,1,.548-5.246l0-.015a.439.439,0,0,0-.3-.492.45.45,0,0,0-.562.284v0a12.96,12.96,0,0,1-1.92,3.81,6.5,6.5,0,0,1-3.177,2.539,1.432,1.432,0,0,1-.842-.007.758.758,0,0,1-.44-.513,4.348,4.348,0,0,1,.017-1.938,18.044,18.044,0,0,1,1.354-4.054.652.652,0,0,0-.3-.845.677.677,0,0,0-.9.274l-.029.054v0a29.267,29.267,0,0,1-3.056,5.168,21.911,21.911,0,0,1-1.9,2.309,7.132,7.132,0,0,1-.52.489,2.006,2.006,0,0,1-.444.3.985.985,0,0,1-.265-.128A1.2,1.2,0,0,1,22.658,37a4.771,4.771,0,0,1-.289-2.645c.028-.285.078-.574.121-.861.544-1.3,1.053-2.6,1.5-3.935a.438.438,0,0,0-.252-.543.453.453,0,0,0-.373.019c.042-.214.089-.423.126-.641a7.315,7.315,0,0,0,.126-1.671,1.627,1.627,0,0,0-.485-1.133,1.209,1.209,0,0,0-.373-.217,1.96,1.96,0,0,0-.277-.08,2,2,0,0,0-.589-.04,2.821,2.821,0,0,0-1.745.96,7.14,7.14,0,0,0-.985,1.374,15.215,15.215,0,0,0-1.231,2.948,19.815,19.815,0,0,0-.687,3.078,12.655,12.655,0,0,0-.113,2.591,6.2,6.2,0,0,1-1.875.955,3.764,3.764,0,0,1-2.33-.069,6.666,6.666,0,0,1-2.212-1.458c.9-1.842,1.7-3.723,2.455-5.615,1.282-3.25,2.425-6.544,3.526-9.847L18.4,15a17.794,17.794,0,0,0,4.483-6.25,21.617,21.617,0,0,0,1.349-3.936,12.994,12.994,0,0,0,.3-2.084,4.751,4.751,0,0,0-.3-2.218L23.993,0l-.422.323h0a3.8,3.8,0,0,0-1.006,1.107A12.227,12.227,0,0,0,21.9,2.614c-.4.8-.745,1.608-1.073,2.422-.653,1.63-1.238,3.274-1.809,4.921-.495,1.428-.968,2.861-1.44,4.294-.134.111-.263.226-.4.331a9.11,9.11,0,0,1-7.339,1.957,5.7,5.7,0,0,1-3.2-1.92,6.451,6.451,0,0,1-1.283-3.5v-.006a.368.368,0,0,0-.731.015A6.01,6.01,0,0,0,5.893,15.2,6.689,6.689,0,0,0,9.606,17.52a8.683,8.683,0,0,0,4.382-.137,11.2,11.2,0,0,0,2.993-1.344c-.418,1.274-.835,2.549-1.265,3.818-1.108,3.291-2.256,6.566-3.537,9.784-.7,1.748-1.446,3.485-2.261,5.179-.273-.3-.538-.61-.8-.919L7.461,31.865a9.505,9.505,0,0,0-1.995-1.9,2.8,2.8,0,0,0-1.484-.477,2.428,2.428,0,0,0-1.506.559,5.8,5.8,0,0,0-1.423,2.434A21.033,21.033,0,0,0,.059,37.7a15.494,15.494,0,0,0,.4,5.328,3.878,3.878,0,0,0,.662,1.31,1.692,1.692,0,0,0,1.572.64,6.082,6.082,0,0,0,2.529-1.329A17.046,17.046,0,0,0,8.624,39.5c.614-1,1.164-2.023,1.69-3.059a7.358,7.358,0,0,0,2.318,1.45,4.718,4.718,0,0,0,2.869.1,6.593,6.593,0,0,0,1.761-.813,3.016,3.016,0,0,0,.658,1.409,1.731,1.731,0,0,0,.241.219,1.047,1.047,0,0,0,.516.193,1.235,1.235,0,0,0,.79-.233,3.068,3.068,0,0,0,.686-.69,12.652,12.652,0,0,0,1.085-1.806,3.983,3.983,0,0,0,.457,1.306,2.318,2.318,0,0,0,.706.72,2.37,2.37,0,0,0,.459.223l.119.039a.824.824,0,0,0,.185.041.967.967,0,0,0,.434-.043,2.734,2.734,0,0,0,.843-.5,7.84,7.84,0,0,0,.61-.557,22.759,22.759,0,0,0,2.039-2.406q.47-.636.917-1.287a4.9,4.9,0,0,0,.142,2.269A1.7,1.7,0,0,0,29.185,37.1a2.5,2.5,0,0,0,1.367.009,5.262,5.262,0,0,0,2.106-1.184,10.276,10.276,0,0,0,1.55-1.713c.269-.376.513-.766.746-1.163a17.156,17.156,0,0,0-.118,2.353,5.819,5.819,0,0,0,.211,1.414,2.133,2.133,0,0,0,.894,1.273,1.807,1.807,0,0,0,.785.238,1.942,1.942,0,0,0,.8-.089,4,4,0,0,0,1.222-.812,24.919,24.919,0,0,0,3.413-4.29c.859-1.295,1.661-2.62,2.433-3.963a6.64,6.64,0,0,0-.13,3.761,3.022,3.022,0,0,0,1.5,1.787,2.953,2.953,0,0,0,.57.235,1.181,1.181,0,0,0,.658-.087,4.458,4.458,0,0,0,1.03-.605,14.423,14.423,0,0,0,3.1-3.424,13.791,13.791,0,0,0,1.12-2.023c.16-.343.294-.739.416-1.064a2.666,2.666,0,0,1,.573-.86,5.777,5.777,0,0,1,.871-.664c.319-.216.628-.447.94-.674q.928-.69,1.8-1.451a26.127,26.127,0,0,0,3.2-3.339,26.718,26.718,0,0,0,2.068-3.018c-.761,2.407-1.553,4.8-2.43,7.155-.193.5-.394,1.009-.621,1.471l-.75,1.451c-.505.974-1,1.956-1.464,2.955A30.085,30.085,0,0,0,55.8,33.86a9.6,9.6,0,0,0-.415,1.664,3.183,3.183,0,0,0,0,.95,1.375,1.375,0,0,0,.211.543.871.871,0,0,0,.265.272.713.713,0,0,0,.54.1,1.139,1.139,0,0,0,.568-.366,4.012,4.012,0,0,0,.292-.364c.171-.239.319-.474.468-.709l.872-1.383c.6-.895,1.208-1.859,1.745-2.813,1.084-1.923,2.053-3.893,2.989-5.875.329-.7.648-1.408.968-2.113-.15.512-.306,1.022-.45,1.537a57.318,57.318,0,0,0-1.394,6.07,13.352,13.352,0,0,0-.2,3.185,3.394,3.394,0,0,0,.184.86,1.492,1.492,0,0,0,.672.838,1.757,1.757,0,0,0,1.05.115,3.27,3.27,0,0,0,.867-.267,8.375,8.375,0,0,0,2.554-2.067,22.563,22.563,0,0,0,1.918-2.522,44.388,44.388,0,0,0,3.043-5.471C73.1,24.883,73.6,23.7,74.075,22.51c-.262,1.3-.532,2.59-.775,3.891-.384,2.055-.755,4.113-1.048,6.193a20.209,20.209,0,0,0-.26,3.2,1.893,1.893,0,0,0,.088.5,1.024,1.024,0,0,0,.095.191l.08.1a1.7,1.7,0,0,0,.183.188,1.262,1.262,0,0,0,1.1.306,2.294,2.294,0,0,0,1.37-1.169.216.216,0,0,0-.024-.258.226.226,0,0,0-.315-.02l-.021.017a2.431,2.431,0,0,1-1.15.644.393.393,0,0,1-.362-.144,1,1,0,0,1-.083-.1l-.04-.058c.009,0,.015.027.011.014a1.394,1.394,0,0,1-.036-.265,20.034,20.034,0,0,1,.271-3.026C73.458,30.667,73.84,28.618,74.235,26.573ZM21.7,5.368c.316-.8.648-1.6,1.021-2.363a9.35,9.35,0,0,1,.847-1.431,6.164,6.164,0,0,1,0,1.079,12.544,12.544,0,0,1-.325,1.928A20.607,20.607,0,0,1,21.927,8.32a19.087,19.087,0,0,1-2.78,4.393l.806-2.452C20.507,8.616,21.074,6.976,21.7,5.368ZM7.69,38.94a16.022,16.022,0,0,1-3.185,3.871,6.4,6.4,0,0,1-.986.678c-.171.094-.346.175-.522.251a3.6,3.6,0,0,1-.472.154.552.552,0,0,1-.559-.241,2.882,2.882,0,0,1-.477-.941,14.607,14.607,0,0,1-.41-4.944,20.164,20.164,0,0,1,.863-4.988,5.107,5.107,0,0,1,1.12-2.064,1.5,1.5,0,0,1,.923-.352,1.9,1.9,0,0,1,1,.335,8.792,8.792,0,0,1,1.8,1.718l1.658,2.028c.341.4.694.806,1.065,1.2C8.94,36.77,8.349,37.878,7.69,38.94ZM19.13,37.3a2.462,2.462,0,0,1-.288.3,2.508,2.508,0,0,1-.323-.955,14.325,14.325,0,0,1,.7-5.724,13.925,13.925,0,0,1,1.119-2.689,5.939,5.939,0,0,1,.795-1.118,1.553,1.553,0,0,1,.88-.545.666.666,0,0,1,.183.014.207.207,0,0,1,.056.016.758.758,0,0,1,.051.243,6.214,6.214,0,0,1-.084,1.366c-.144.972-.36,1.969-.552,2.973-.137.726-.259,1.463-.356,2.21-.22.467-.431.942-.662,1.4A15.707,15.707,0,0,1,19.13,37.3Z" fill="#212528"></path><path d="M134.984,29.192a.447.447,0,0,0-.548-.309c-2.667.706-5.331,1.417-8.005,2.073s-5.359,1.261-8.065,1.668a30.507,30.507,0,0,1-4.061.369,8.341,8.341,0,0,1-3.817-.657,2.321,2.321,0,0,1-1.133-1.251,3.579,3.579,0,0,1-.079-1.789,12.786,12.786,0,0,1,1.434-3.646.434.434,0,0,0-.125-.555.454.454,0,0,0-.627.085h0a15.335,15.335,0,0,1-4.861,4.156,7.467,7.467,0,0,1-2,.688c.573-.9,1.124-1.812,1.609-2.763a16.367,16.367,0,0,0,.879-2.015,6.7,6.7,0,0,0,.283-1.085,3,3,0,0,0,.027-.654c.124-.144.247-.288.371-.431,1.447-1.645,2.976-3.237,4.531-4.778l.007-.007.015-.015a.649.649,0,0,0-.039-.93.679.679,0,0,0-.948.038c-1.527,1.625-2.991,3.282-4.428,4.977a38.647,38.647,0,0,0-3.961,5.4,5.926,5.926,0,0,0-.671,1.656,1.379,1.379,0,0,0,.208,1.151,1.106,1.106,0,0,0,.452.315,36.054,36.054,0,0,1-2.459,2.891,17.176,17.176,0,0,1-1.533,1.435,6.237,6.237,0,0,1-.806.566c-.033.019-.06.025-.093.041a35.867,35.867,0,0,1,.062-6.884c.043-.463.114-.925.166-1.388q.5-.891.952-1.8a63.318,63.318,0,0,0,3.595-9.209c.481-1.575.911-3.166,1.248-4.785.166-.81.31-1.627.4-2.463a9.64,9.64,0,0,0,.056-1.281,3.858,3.858,0,0,0-.078-.687,1.2,1.2,0,0,0-.5-.806l0,0a.4.4,0,0,0-.227-.061,1.123,1.123,0,0,0-.731.312,2.717,2.717,0,0,0-.394.429,6.874,6.874,0,0,0-.551.883,18.121,18.121,0,0,0-.82,1.81c-.483,1.22-.887,2.457-1.26,3.7-.742,2.49-1.347,5.011-1.864,7.55q-.683,3.389-1.094,6.83c-.326.538-.664,1.067-1.031,1.572A11.462,11.462,0,0,1,92.9,31.321a3.631,3.631,0,0,1-1.917,1.014,1.867,1.867,0,0,1-1.721-.821,4.024,4.024,0,0,1-.545-2.11c-.006-.332.012-.667.038-1a21.836,21.836,0,0,0,.778-3.756.44.44,0,0,0-.31-.47.447.447,0,0,0-.558.288,17.154,17.154,0,0,0-.8,3.786c-.065.21-.125.422-.2.629A9.378,9.378,0,0,1,85.505,32.6a3.834,3.834,0,0,1-1.778.991,2.677,2.677,0,0,1-.949.075.822.822,0,0,1-.572-.454,4.068,4.068,0,0,1-.277-1.987,12.428,12.428,0,0,1,.321-2.155.443.443,0,0,0-.246-.5.452.452,0,0,0-.6.212,13.391,13.391,0,0,1-2.643,3.986,1.419,1.419,0,0,1-.824.407c-.219,0-.36-.13-.48-.456a4.919,4.919,0,0,1-.012-2.242,6.36,6.36,0,0,1,.306-1.12,4.084,4.084,0,0,1,.573-.966,7.772,7.772,0,0,1,1.733-1.609,6.714,6.714,0,0,1,1.023-.587,2.331,2.331,0,0,1,.994-.257c.134.019.128.032.145.057a.673.673,0,0,1,0,.351,4.128,4.128,0,0,1-.4,1.042l0,.007v0a.434.434,0,0,0,.206.586.45.45,0,0,0,.6-.2,4.862,4.862,0,0,0,.479-1.285,1.443,1.443,0,0,0-.074-.871,1.037,1.037,0,0,0-.88-.562,3.093,3.093,0,0,0-1.443.334,7.622,7.622,0,0,0-1.163.665,8.662,8.662,0,0,0-1.933,1.8,4.935,4.935,0,0,0-.694,1.179,7.1,7.1,0,0,0-.351,1.279,5.637,5.637,0,0,0,.046,2.685,1.728,1.728,0,0,0,.437.7,1.314,1.314,0,0,0,.875.343,2.242,2.242,0,0,0,1.422-.622A9.159,9.159,0,0,0,81,31.384c.011-.017.02-.035.031-.052a4.564,4.564,0,0,0,.384,2.292,1.728,1.728,0,0,0,1.179.9,3.411,3.411,0,0,0,1.337-.081,4.725,4.725,0,0,0,2.19-1.211,8.714,8.714,0,0,0,1.824-2.686A3.993,3.993,0,0,0,88.518,32a2.769,2.769,0,0,0,2.557,1.207A4.49,4.49,0,0,0,93.5,31.97a12.376,12.376,0,0,0,1.691-1.921c.032-.045.061-.092.093-.137a31.312,31.312,0,0,0,0,6.768h0l.006.038a.61.61,0,0,0,.42.483,1.476,1.476,0,0,0,.987-.039,3.255,3.255,0,0,0,.614-.308,7.4,7.4,0,0,0,.941-.731,18.468,18.468,0,0,0,1.559-1.614,38.05,38.05,0,0,0,2.658-3.5l.024-.037A7.844,7.844,0,0,0,105.5,30.1a15.118,15.118,0,0,0,3.312-2.425,9.734,9.734,0,0,0-.416,1.474,4.417,4.417,0,0,0,.117,2.23,3.218,3.218,0,0,0,1.545,1.727,9.15,9.15,0,0,0,4.258.765,31.277,31.277,0,0,0,4.185-.379c2.756-.415,5.46-1.031,8.148-1.684s5.355-1.372,8.021-2.077h0A.437.437,0,0,0,134.984,29.192ZM99.421,13.857c.349-1.23.73-2.452,1.18-3.639a17.168,17.168,0,0,1,.753-1.728,5.947,5.947,0,0,1,.463-.77,1.293,1.293,0,0,1,.235-.269.491.491,0,0,1,.016.058,3.037,3.037,0,0,1,.058.529,9.051,9.051,0,0,1-.053,1.165,23.943,23.943,0,0,1-.384,2.375c-.328,1.582-.752,3.153-1.227,4.707a63.112,63.112,0,0,1-3.385,8.736q.269-1.843.611-3.679C98.162,18.825,98.726,16.32,99.421,13.857Zm2.269,15.737a5.2,5.2,0,0,1,.605-1.366,31.669,31.669,0,0,1,3.065-4.1,6.454,6.454,0,0,1-.3.928,16.014,16.014,0,0,1-.946,1.895,34.131,34.131,0,0,1-2.105,3.169c-.176-.015-.3-.067-.311-.1A.6.6,0,0,1,101.69,29.594Z" fill="#212528"></path></g></svg> 