<?xml version="1.0" encoding="UTF-8"?> <svg xmlns="http://www.w3.org/2000/svg" id="Artwork" viewBox="0 0 157 100"><defs><style>.cls-1{fill:#e5a92e;}.cls-2{fill:#fff;}.cls-3{fill:#fec46f;}.cls-4{fill:#ffe5b8;}.cls-5{fill:#ffe3b7;}.cls-6{fill:#010101;}</style></defs><title>CCFCanada_web</title><path class="cls-1" d="M51.83,99.41a6.46,6.46,0,0,1-2.7.55c-3.12,0-5.22-2.08-5.22-4.78s2.17-4.81,5.22-4.81a6.33,6.33,0,0,1,2.58.53v2.59a5.06,5.06,0,0,0-2.53-.77,2.42,2.42,0,0,0-2.62,2.43,2.45,2.45,0,0,0,2.68,2.46,4.94,4.94,0,0,0,2.59-.81Z"></path><path class="cls-1" d="M57.35,90.51H60l3.77,9.31H60.85l-.66-1.9H57l-.68,1.9H53.58Zm1.26,2.83c-.18.59-.36,1.13-.58,1.74l-.32.88h1.8l-.31-.88c-.22-.63-.39-1.16-.57-1.74Z"></path><path class="cls-1" d="M69.74,96.45c-.51-.69-1-1.32-1.43-2h0c0,.79,0,1.58,0,2.37v3H65.77V90.51h2.48l2.47,3.37c.51.69,1,1.32,1.43,2h0c0-.78,0-1.58,0-2.37v-3h2.54v9.31H72.21Z"></path><path class="cls-1" d="M80.5,90.51h2.61l3.77,9.31H84l-.65-1.9H80.16l-.69,1.9H76.73Zm1.26,2.83c-.18.59-.36,1.13-.57,1.74l-.33.88h1.8l-.3-.88c-.22-.63-.39-1.16-.57-1.74Z"></path><path class="cls-1" d="M88.92,90.51H91.6A7.16,7.16,0,0,1,96,91.58a4.31,4.31,0,0,1,1.6,3.6,4.37,4.37,0,0,1-1.33,3.36c-.92.83-2.35,1.28-4.59,1.28H88.92Zm2.76,7.07c1.68,0,2.36-.33,2.76-.81a2.45,2.45,0,0,0,.48-1.59,2.23,2.23,0,0,0-.8-1.91,4.17,4.17,0,0,0-2.46-.52h-.09v4.83Z"></path><path class="cls-1" d="M102.48,90.51h2.61l3.77,9.31H106l-.66-1.9h-3.19l-.68,1.9H98.71Zm1.26,2.83c-.18.59-.36,1.13-.58,1.74l-.32.88h1.8l-.31-.88c-.22-.63-.39-1.16-.57-1.74Z"></path><path class="cls-1" d="M0,42.56q0-7.71,2.66-10.83t9-3.12q6.3,0,9,3.12t2.66,10.83v3H13.89V40.41a6.63,6.63,0,0,0-.49-3.21,2.08,2.08,0,0,0-1.78-.68,2.14,2.14,0,0,0-1.79.62,5.75,5.75,0,0,0-.48,3V59.77a5.77,5.77,0,0,0,.49,3,2.12,2.12,0,0,0,1.78.64,2.07,2.07,0,0,0,1.79-.68,6.86,6.86,0,0,0,.48-3.27v-7.2h9.35v5q0,7.71-2.66,10.83t-9,3.12q-6.3,0-9-3.12T0,57.33Z"></path><path class="cls-1" d="M25.25,28.57h8.58V36a6.11,6.11,0,0,1,2.25-1.47A8.29,8.29,0,0,1,39,34.08q4,0,5.75,2.42t1.72,8.61V70.74H37.8V44.37a7.06,7.06,0,0,0-.42-3.14,1.74,1.74,0,0,0-1.55-.64,1.67,1.67,0,0,0-1.53.66,7.07,7.07,0,0,0-.41,3.12V70.74H25.25Z"></path><path class="cls-1" d="M69.79,54H57v6.87A6.58,6.58,0,0,0,57.46,64a1.88,1.88,0,0,0,1.64.63A1.85,1.85,0,0,0,60.73,64a6.42,6.42,0,0,0,.46-3.12V56.06h8.6v3.59c0,4.33-.81,7.34-2.43,9.06S63,71.28,59.1,71.28s-6.64-.86-8.26-2.57S48.41,64,48.41,59.65V45.59c0-4.28.81-7.29,2.45-9S55.24,34,59.1,34s6.63.86,8.26,2.59,2.43,4.74,2.43,9ZM57,44.61v2.76h4.18V44.61a7.46,7.46,0,0,0-.45-3.35,2.34,2.34,0,0,0-3.28,0A7.46,7.46,0,0,0,57,44.61Z"></path><path class="cls-1" d="M93.23,54H80.44v6.87A6.58,6.58,0,0,0,80.89,64a1.89,1.89,0,0,0,1.64.63A1.85,1.85,0,0,0,84.16,64a6.42,6.42,0,0,0,.46-3.12V56.06h8.61v3.59c0,4.33-.82,7.34-2.44,9.06s-4.37,2.57-8.26,2.57-6.63-.86-8.26-2.57S71.84,64,71.84,59.65V45.59q0-6.42,2.45-9T82.53,34q5.84,0,8.26,2.59c1.62,1.72,2.44,4.74,2.44,9ZM80.44,44.61v2.76h4.18V44.61a7.66,7.66,0,0,0-.44-3.35,2.35,2.35,0,0,0-3.29,0A7.46,7.46,0,0,0,80.44,44.61Z"></path><path class="cls-1" d="M94.14,34.5h2.15V30.25l8.6-1.68V34.5H107v6.66h-2.15V62c0,1,.14,1.64.43,1.89a2.78,2.78,0,0,0,1.72.37v6.25a9.67,9.67,0,0,1-2.15.7,15.38,15.38,0,0,1-2.45.25q-3.47,0-4.81-1.5t-1.34-6.5V41.16H94.14Z"></path><path class="cls-1" d="M108.81,45.41V43q0-4.61,2.46-6.84c1.64-1.48,4.15-2.23,7.51-2.23,3.6,0,6.23.83,7.87,2.47s2.47,4.29,2.47,7.94V70.74h-8.19v-2a7.49,7.49,0,0,1-2.48,1.92,7,7,0,0,1-3,.64,6.78,6.78,0,0,1-5.43-2.2,9.41,9.41,0,0,1-1.89-6.3V57.48A9.68,9.68,0,0,1,110,51q2-2.28,10.44-5.82V44a5.89,5.89,0,0,0-.41-2.72,1.71,1.71,0,0,0-1.53-.64,1.75,1.75,0,0,0-1.54.64,5.69,5.69,0,0,0-.43,2.72v1.46Zm11.67,6.33a8.8,8.8,0,0,0-3,2.64,8.23,8.23,0,0,0-.9,4.38v2.11A7.06,7.06,0,0,0,117,64a1.71,1.71,0,0,0,1.55.64,1.69,1.69,0,0,0,1.53-.64,7.27,7.27,0,0,0,.41-3.14Z"></path><path class="cls-1" d="M131.2,28.57h8.58V36A6.11,6.11,0,0,1,142,34.57a8.29,8.29,0,0,1,2.88-.49q4,0,5.75,2.42t1.72,8.61V70.74h-8.63V44.37a7.06,7.06,0,0,0-.42-3.14,1.74,1.74,0,0,0-1.55-.64,1.67,1.67,0,0,0-1.53.66,7.07,7.07,0,0,0-.41,3.12V70.74H131.2Z"></path><g id="Cheetah"><g id="Fill"><path id="Tail_White" data-name="Tail White" class="cls-2" d="M39.39,13.75c-2.52,1-8,2.44-12.78,4.5a1.56,1.56,0,0,1,.71,1,1.57,1.57,0,0,0,1.81,1.32C31,20,39.47,17.46,39.71,16.67A6.57,6.57,0,0,0,39.39,13.75Z"></path><g id="Body"><path class="cls-3" d="M156.75,29.61a3.61,3.61,0,0,0-2.22-1.26c-1.4-.18-1.88.4-3.5,0-1.08-.26-4.73-.3-7.9-1.8,2.68.19,3-.09,4.89.4,1.94-.63,3.78.31,4.66-.37,1.41-1.1,1.36-1.58.32-2.18a15.46,15.46,0,0,0-2.3-1.17c-1.81-.61-3.36,0-6.53-.7a36,36,0,0,0-8-.87c-1.34-.28-4.86-1.46-6.95-1.15a5.23,5.23,0,0,0-.07-2.66,7.34,7.34,0,0,0,1.13-4.46c-.22-1.38,1.8-1.45,2.34-1.42.29,1.29,3.59,1.63,6.39,2.33,2,.71,3.7,1.08,4.23-.26,0,0,1.8,0,2.54-2.5.28-1-1.31-2.16-1.53-3-.38-1.45.08-2.76-.35-3.41-1.07-1.65-2.41-1.91-5.46-3.22A24.07,24.07,0,0,0,130.18.3a41.61,41.61,0,0,0-8.55.25c-1,.09-2.87.15-6.06.48-5,.51-6.29,3.88-9.25,5.18C103,7.66,102.06,7.72,96.15,7.57s-8.64.77-12.68-.24A48.34,48.34,0,0,0,78.74,6C75.45,5.62,73.6,4.57,71,3.57a16.76,16.76,0,0,0-6.75-1.45c-7.75,0-9.1,4.68-24.75,11.56-.59.26-1.86,1.06-1.05,1.5.25.14-1,1.49.29,1.78a39.46,39.46,0,0,0-9.5,3.43c-2.47.38-2.1,1.12-1.81,1.59.81,1.32,3,1.55,5.45,1.16,1.34-.21,2.78-.74,4.05-1.06,2.62-.66,4.19-.66,4.24,0-4,1.49-5.62,3.15-10.65,4.46-1.4.37-1.21,1.75-1.7,2.32-1.65,1.93-2.94,4.11-1.41,4.29,1,.12,1-1,5.47-2.95,1.81-.79,3.62-1.22,7.3-2.37C47.27,25.6,58,27.26,62.3,26.74s5.56-5.28,15.18-6.62c20.5,6,41.37,3.71,41.37,3.71s-.47,2.31.8,2.8,3.75-.21,3.75-.21C127.47,30,134.93,29,139.21,30c2.52.56,6.93,2,8.88.9C152,33.73,158.15,31.1,156.75,29.61ZM58.84,10.34A18,18,0,0,0,57,16.13a15.94,15.94,0,0,1-4.33,1.37,16.77,16.77,0,0,1-4.93-.42c0-1.07-.22-1.3-.22-1.3A34.92,34.92,0,0,0,57.89,10C58.22,9.76,58.94,10.16,58.84,10.34Z"></path></g><path id="Belly" class="cls-4" d="M118.47,16.44c-.81-.8-2.7.34-3.22,2.33-.7-.44-1.64.2-1.74,1.16a3.32,3.32,0,0,1-1.66-.77s-.78,2.21-2.42,2.21a1.39,1.39,0,0,0-1.93-.53c-.37.31-1,.86-1.58.27A5.63,5.63,0,0,1,101,22.65c-.53.41-1.76.47-3.93-.13a1.19,1.19,0,0,0-1.59.73c-.27-.58-2.76-.88-5.88-2.45a1.66,1.66,0,0,0-1.93.33,17.86,17.86,0,0,0-10-1.13c-.17,0-.21.5.42.5,1.74,0,2.36,1,3.48.59.57.88,4.41.46,5.24,2.06,1.16-.55,3.07,1.9,4.46,1.94a11.56,11.56,0,0,1,4.44.83,7.86,7.86,0,0,0,5.83.13c2,1,4.72-1.32,6.59,0,2.27-.25,3.25-.95,4.35-1.16s3.29.13,4.22-.7c.33.48,1.12.26,1.35-.25,0,0,.7.36.84-.27C119.48,21,119.24,19.41,118.47,16.44Z"></path><path id="Chin" class="cls-5" d="M143.23,14c-.35,1-1.45,1.38-5,.09-2.76-.48-5.24-1-5.63-2.16-.52-1.63,2.08-4.49,3.33-2.65.68.93,2.5,0,2.5,1.81C141,10.78,143.23,14,143.23,14Z"></path><path id="Ear" class="cls-5" d="M135.75,2.5c.11.33-.4.87-.75.77.26,1.05-.28,1.73-.78,1.8-1,.13-2.67-1.74-2.25-3.2C132.36.61,135.25,1,135.75,2.5Z"></path></g><g id="Spots_and_strokes" data-name="Spots and strokes"><g id="Spots"><path class="cls-6" d="M35.6,24.62a36.67,36.67,0,0,1-5.13,1.77c-.25.07-.22.36.11.27a26.71,26.71,0,0,0,5-1.76C35.88,24.76,35.77,24.54,35.6,24.62Z"></path><path class="cls-6" d="M40.8,14c.27,0,.44-.24.3-.31s.27-1-.5-.59C40.08,13.36,40.23,14,40.8,14Z"></path><path class="cls-6" d="M37.35,16.87a1.19,1.19,0,0,0-.71-1.31c0-.52-.41-1.2-.77-.65s-.66,1.06-.11,1.63c-.37.32-.52,1.22,0,1.26A1.49,1.49,0,0,0,37.35,16.87Z"></path><path class="cls-6" d="M43.37,12.87a.45.45,0,0,0,.5-.48c0-.53-.18-.65-.42-.63-.39,0-.9.43-.87.56A1.46,1.46,0,0,0,43.37,12.87Z"></path><path class="cls-6" d="M44.66,12.46a1,1,0,0,0,0,1.07c.58.56-.15,1,.57,1.22.2.05.63.08.92-.6a1,1,0,0,0-.26-1.34c0-.43-.51-.73-.71-.79C44.66,11.89,44.32,12.24,44.66,12.46Z"></path><path class="cls-6" d="M45.71,11c-.4.49.13.75.41.94.59.42,1.24-.41.7-.69.35-.21.17-.58-.13-.81.19-.11,0-.29-.16-.21a5.45,5.45,0,0,0-1,.58C45.47,10.84,45.53,11,45.71,11Z"></path><path class="cls-6" d="M48.24,11.15a1.54,1.54,0,0,0,0,1.06c.19.22.56.07.81-.08,1.12.19,1-1.63.53-1.67C49.63,10,49,10,48.69,10c-.51.13-.44.52-.69.93C47.89,11.15,48.07,11.28,48.24,11.15Z"></path><path class="cls-6" d="M56.07,9.4C56,9,55.3,9,55,9.06s-.56.64-.07.82c-.16.58.67,1.5,1.13,1,.11-.13.19-.78,0-.9C56.38,10,56.46,9.42,56.07,9.4Z"></path><path class="cls-6" d="M57.72,9a.33.33,0,0,0,.47,0c.1-.17.06-.91-.21-.84S57.65,8.92,57.72,9Z"></path><path class="cls-6" d="M49.93,9.15c-.29.91.74.87,1.14.48s.64-1.28-.52-1.38a1.3,1.3,0,0,0-.92.31C49.5,8.69,49.36,9.14,49.93,9.15Z"></path><path class="cls-6" d="M51.93,9.63a.63.63,0,0,0,.87.58c.07.43,1.25-.09.79-.51,0-.22-.13-.41-.44-.42.38-.35.23-.72-.07-.74a1.46,1.46,0,0,0-1.37.87C51.64,9.54,51.83,9.69,51.93,9.63Z"></path><path class="cls-6" d="M53.6,7.22A.43.43,0,0,0,53.28,7c.17-.47-.6-.53-.8,0-.12.34,0,.93.17,1C53.06,8.22,53.9,7.75,53.6,7.22Z"></path><path class="cls-6" d="M58.59,6.23c-.12.16-.22.66.1.64-.37.56.54.79.87.45a.52.52,0,0,0-.35-.91C59.19,5.94,58.78,6,58.59,6.23Z"></path><path class="cls-6" d="M47.21,13.77l.14,0a1.66,1.66,0,0,0-.24.63.62.62,0,0,0,1,.44c-.48.45.33.82.88.38.38-.3.21-1.05-.65-1a.36.36,0,0,0-.35-.56c.15-.28-.24-.63-.88-.17C46.92,13.57,47.06,13.8,47.21,13.77Z"></path><path class="cls-6" d="M54.56,5.91c-.4.71-.1,1,.31,1.13-.61.92,1.19,1.54,1.72.68.42-.68-.11-1-.66-1.17,0-.43-.31-.81-.81-.66.17-.31-.08-.55-.55-.36C54.4,5.6,54.29,5.94,54.56,5.91Z"></path><path class="cls-6" d="M57.37,6.46c.4,0,1.12-.47.52-.79.19-.14.1-.54-.48-.64.27-.2.16-.54-.39-.54-.17,0-.26.17-.14.24l.08,0a.63.63,0,0,0-.19.85C56.41,6,56.62,6.45,57.37,6.46Z"></path><path class="cls-6" d="M58.11,4.18a.38.38,0,0,0,.35.57c0,.1.2.29.4.24s.26-.37.24-.74c0-.53-.32-1.11-.76-.92C57.68,3.61,57.88,4.13,58.11,4.18Z"></path><path class="cls-6" d="M60.34,4.34c-.18.55.24.91.73.57s.75-1.26,0-1.45c.32-.32.07-1-.59-.68a.24.24,0,0,0-.07.29C59.85,3.43,59.93,4.29,60.34,4.34Z"></path><path class="cls-6" d="M62.31,2.88c.54.33,1.36-.12.71-.62-.46-.34-1-.09-1,.64C62,3.08,62.3,3,62.31,2.88Z"></path><path class="cls-6" d="M62.82,3.7c-.15.4.69.5,1,.36a.39.39,0,0,0,.08-.56C63.67,3.31,63,3.33,62.82,3.7Z"></path><path class="cls-6" d="M63,5.38c.25-.17-.2-.74-.58-.73-.23,0-.29.85-.16.95S62.87,5.46,63,5.38Z"></path><path class="cls-6" d="M64.71,4a.58.58,0,0,0,.64-.22c.11-.13.24-.6-.09-.76a.55.55,0,0,0,.36-1,1.47,1.47,0,0,0-1-.05c-.23.07-.38.36,0,.46a.24.24,0,0,0,.06.45C64.21,3.18,64.48,3.93,64.71,4Z"></path><path class="cls-6" d="M67.17,4.24a.68.68,0,0,0,.31-.6c.72-.08,1.59-.82.88-1.14s-.89.06-.83.63c-.19-.22-.7-.24-.6.12C65.48,3.56,66.47,4.56,67.17,4.24Z"></path><path class="cls-6" d="M69.06,4.53c.45.17,1-.11.82-.43.19,0,.19-.26,0-.33a.83.83,0,0,0-.91,0A.41.41,0,0,0,69.06,4.53Z"></path><path class="cls-6" d="M71.56,5.08c.57.55,1.15,0,1-.24a.58.58,0,0,0-.65-.22c-.23-.2-.58,0-.79.24S71.34,5.16,71.56,5.08Z"></path><path class="cls-6" d="M67.64,5c.07.34.71.14.83-.06s-.12-.34-.41-.2c-.1-.34-.53-.06-.65.09s0,.24.15.21A.28.28,0,0,1,67.64,5Z"></path><path class="cls-6" d="M70,6.34c.46,0,.32-.82-.25-.92s-.8.44-.56.65A1.54,1.54,0,0,0,70,6.34Z"></path><path class="cls-6" d="M66.81,6.07c.76.64,1.51-.23.6-.46C67,5.5,66.7,6,66.81,6.07Z"></path><path class="cls-6" d="M66,6.91a.33.33,0,0,0-.54-.09c-.15.16-.21.31.09.61S66.13,7.27,66,6.91Z"></path><path class="cls-6" d="M69.53,7.14a.69.69,0,0,0-.33,1c-.21.39,0,.6.26.54a.72.72,0,0,0,.67-.17.84.84,0,0,0,.07-1.22A.61.61,0,0,0,69.53,7.14Z"></path><path class="cls-6" d="M71.62,6.37c.24.28.64.2.93.21.12,0,.19-.21.12-.37-.22-.49-.66-.31-1-.38C71.08,5.69,70.85,6.22,71.62,6.37Z"></path><path class="cls-6" d="M59.06,9c-.09,0-.26.15-.22.26s.39.06.39.06a10.12,10.12,0,0,0-1.14,2.21c-.07.2.33.13.38,0a12.53,12.53,0,0,1,2.11-3.28c.1-.11-.12-.25-.21-.18a3.86,3.86,0,0,0-.69.66C59.69,8.42,59,8.38,59.06,9Z"></path><path class="cls-6" d="M61,6a.58.58,0,0,0-.49.81c.2.23.63-.16.7-.41A.33.33,0,0,0,61,6Z"></path><path class="cls-6" d="M61.33,8.35c-.23,0-.65.26-.49.55a.59.59,0,0,0,.52.12.55.55,0,0,0,.22-.89C61.49,8.05,61.24,8.18,61.33,8.35Z"></path><path class="cls-6" d="M63.28,8.46c0-.05.18-.32-.05-.44a.2.2,0,0,0,.14-.35.68.68,0,0,0-.5-.17c-.1,0-.3.17-.1.3a.61.61,0,0,0-.45.67C62.41,8.83,62.9,9,63.28,8.46Z"></path><path class="cls-6" d="M64.35,8.86c-.29.11-.21.45.11.45-.06.62,1.85.37,1.24-.65-.37-.77-1.24-.42-1.48-.17S64.11,8.9,64.35,8.86Z"></path><path class="cls-6" d="M71.7,8.1c.11,0,.52-.41.06-.6a.5.5,0,0,0-.58.18C70.89,8.22,71.54,8.47,71.7,8.1Z"></path><path class="cls-6" d="M73.25,7.73c.15.41,1.11.32,1.08-.1.1-.06,0-.23,0-.26C73.74,7.07,73.1,7.35,73.25,7.73Z"></path><path class="cls-6" d="M75.24,6.66c-.15.13-.32.38-.17.53a.45.45,0,0,0,.51,0c.28-.17.52-.47.28-.72-.11-.1-.62-.38-.83-.31s-.16.17-.09.25A1.73,1.73,0,0,0,75.24,6.66Z"></path><path class="cls-6" d="M63.31,6.18c-.23.08-.39.27-.21.44,0,.51.7.26.89,0C64.4,6.24,63.84,6,63.31,6.18Z"></path><path class="cls-6" d="M77.29,7.05c-.08.09-.11.23,0,.27a.31.31,0,0,1,.13.06l0,0a.49.49,0,0,0-.06.17.32.32,0,0,0,.12.26.41.41,0,0,0,.58-.17A.52.52,0,0,0,77.36,7,.15.15,0,0,0,77.29,7.05Z"></path><path class="cls-6" d="M79,7.74c.21.27.87.1,1-.28.09,0,.18-.12.14-.19-.22-.34-1-.33-1,0C79,7.38,78.91,7.59,79,7.74Z"></path><path class="cls-6" d="M82,7.89c.2,0,.21-.2,0-.27s-1-.2-1,.36C81.11,8.73,82.07,8.24,82,7.89Z"></path><path class="cls-6" d="M84.15,7.75c.35,0,.46-.42-.33-.51-.3,0-.46.1-.36.25A1,1,0,0,0,84.15,7.75Z"></path><path class="cls-6" d="M83.65,8.66c.07-.65-1.33-.42-1.07.18C82.77,9.29,83.61,9,83.65,8.66Z"></path><path class="cls-6" d="M84.48,9.81a.74.74,0,0,0,1,0c.4,0,.22-.68-.49-.68C84.6,9.18,84.23,9.5,84.48,9.81Z"></path><path class="cls-6" d="M86.37,8.93c.81.05.59-.37.34-.43s-.82-.05-.86.07S86.14,8.92,86.37,8.93Z"></path><path class="cls-6" d="M76.41,9.41c.36,0,.61,0,.59-.39a.42.42,0,0,0,0-.67.9.9,0,0,0-.73-.12c-.11,0-.31.29,0,.37A.43.43,0,0,0,76.41,9.41Z"></path><path class="cls-6" d="M80.09,9.24c.28-.39-.09-.81-.64-.38a.79.79,0,0,0-.21.78C79.35,9.82,79.92,9.48,80.09,9.24Z"></path><path class="cls-6" d="M66.8,8c.27.78,1.17.8,1.41.18a.2.2,0,0,0-.1-.26c.09-.29,0-.79-.36-.84C67.12,6.7,66.58,7.36,66.8,8Z"></path><path class="cls-6" d="M71.1,10.12c.15,0,.24-.27.24-.36a.52.52,0,0,0-1-.23c-.15-.1-.26,0-.3.1a.84.84,0,0,0,0,.66C70.22,10.51,71.13,10.73,71.1,10.12Z"></path><path class="cls-6" d="M72.33,8.69c-.11.19-.4.33-.41.57s0,.55.29.59c.73.11,1-.8.93-1.09A.54.54,0,0,0,72.33,8.69Z"></path><path class="cls-6" d="M73.91,9.32a.65.65,0,0,0,.93.58,1,1,0,0,0,.41-.7c0-.4-.39-.49-.72-.26A.42.42,0,0,0,73.91,9.32Z"></path><path class="cls-6" d="M78.48,9.69a.44.44,0,0,0-.27-.61c-.12,0-.28.24-.15.3a.48.48,0,0,0-.16.58C78,10.31,78.81,10.37,78.48,9.69Z"></path><path class="cls-6" d="M59.74,10a1,1,0,0,0-.16.57c0,.09.1.1.17.08s.42-.16.46-.25,0-.36-.26-.3C60,9.88,59.84,9.81,59.74,10Z"></path><path class="cls-6" d="M60.92,10.19c-.08.15-.2.5-.15.59.11.25.44.17.59,0C61.91,10.25,61.15,9.76,60.92,10.19Z"></path><path class="cls-6" d="M62.38,11.73a.66.66,0,0,0,.67-.56.55.55,0,0,0-.3-.63c0-.49-1-.06-.57.08C61.85,11,62.13,11.7,62.38,11.73Z"></path><path class="cls-6" d="M63.78,10.44a.64.64,0,0,0,.29.88.45.45,0,0,0,.67-.48c-.06-.34-.45-.65-.75-.35v0C64,10.34,63.83,10.36,63.78,10.44Z"></path><path class="cls-6" d="M65.19,12.72c.22-.15.18-.57,0-.64a.39.39,0,0,0-.46.35C64.72,12.65,65,12.86,65.19,12.72Z"></path><path class="cls-6" d="M67.71,12.08a.62.62,0,0,0-.47.43c-.25,0-.16.6.16.48a.25.25,0,0,0,.3.26.71.71,0,0,0,.54-.74A.48.48,0,0,0,67.71,12.08Z"></path><path class="cls-6" d="M66.32,12c.31,0,.72-.39.56-.77.24-.49-.16-.8-.62-.78-.17,0-.49.4-.22.5C65.27,11.15,65.44,12.08,66.32,12Z"></path><path class="cls-6" d="M68.41,10c.14-.24-.2-.35-.37-.35s-.88.25-.43.46a.48.48,0,0,0,.51.53A.39.39,0,0,0,68.41,10Z"></path><path class="cls-6" d="M69.08,12.14a.55.55,0,0,0,.61-.4,1,1,0,0,0,0-.84c-.28-.49-.91-.14-1,.33a1.07,1.07,0,0,0-.06.3A.57.57,0,0,0,69.08,12.14Z"></path><path class="cls-6" d="M72,12.11h0c.1-.51-.44-.55-.75-.27h0a.19.19,0,0,0-.23-.12c-.4.17-.59,1,0,1C71,13.39,72.55,13.31,72,12.11Z"></path><path class="cls-6" d="M70.55,14.48c.12-.28-.24-.46-.45-.42a.26.26,0,0,0-.16.33C70.08,14.59,70.44,14.72,70.55,14.48Z"></path><path class="cls-6" d="M69.42,13.13a.41.41,0,0,0-.3.44.64.64,0,0,0,.32.46.52.52,0,0,0,.72-.45C70.22,13.21,69.72,13,69.42,13.13Z"></path><path class="cls-6" d="M72.21,14.75a.67.67,0,0,0,.93-.25c.22-.61-.48-1-.93-.51-.38-.14-.55.62-.32.91A.21.21,0,0,0,72.21,14.75Z"></path><path class="cls-6" d="M74.28,6.08c.29-.36-.5-.66-.73-.55a.36.36,0,0,0-.16.42C73.47,6.1,74.15,6.23,74.28,6.08Z"></path><path class="cls-6" d="M72.93,11.91c-.18.48.58.77.86.36a.51.51,0,0,0,.07-.24c.41,0,.13-.67-.11-.76s-.29.17-.21.26C73.14,11.62,73,11.72,72.93,11.91Z"></path><path class="cls-6" d="M79.92,10.16c-.2,0-.58.35-.35.95-.13.26.06.6.25.43a3.42,3.42,0,0,0,.55-1C80.39,10.34,80.46,10.09,79.92,10.16Z"></path><path class="cls-6" d="M75.49,13c-.21,0-.6.07-.68.27h0a.45.45,0,0,0-.68.4c0,.3.44.37.74.25C75.55,14,75.87,13.07,75.49,13Z"></path><path class="cls-6" d="M78.55,13.16a5,5,0,0,0,.5-.26c1-.47.2-1.35-.28-.7a4.15,4.15,0,0,0-.45.83C78.27,13.14,78.45,13.18,78.55,13.16Z"></path><path class="cls-6" d="M77.06,12.34c-.33.06-1.06.82-.69,1s1.18,0,1.27-.48C77.68,12.65,77.64,12.16,77.06,12.34Z"></path><path class="cls-6" d="M72.09,11.07c.29-.13.34-.38.18-.45s-.39.1-.41.3A.15.15,0,0,0,72.09,11.07Z"></path><path class="cls-6" d="M77.14,14.31c0-.21-.49-.26-.56.06-.69.1-1.14,1.2-.56,1.2S77.12,14.59,77.14,14.31Z"></path><path class="cls-6" d="M75.09,16.27a.26.26,0,0,0,.3.31.75.75,0,0,0,.53-.38c.13,0,.23-.09.14-.16A.69.69,0,0,0,75.09,16.27Z"></path><path class="cls-6" d="M80.41,14.84c.3,0,.64-.36.7-.73s0-.78-.24-.81C80.15,13.23,80,14.8,80.41,14.84Z"></path><path class="cls-6" d="M74.54,15.35c.16-.16.26-.49,0-.61-.43-.22-.9.16-.77.44A.44.44,0,0,0,74.54,15.35Z"></path><path class="cls-6" d="M73.81,16.31a.34.34,0,0,0-.06-.4c-.23-.33-1.07,0-1.34.36s.56.5.8.46A.81.81,0,0,0,73.81,16.31Z"></path><path class="cls-6" d="M67.75,15.48c.26-.35.36-1.06-.23-1.14a.63.63,0,0,0-.71.34c-.56-.22-.77.57-.24.77C66.58,15.94,67.26,16.13,67.75,15.48Z"></path><path class="cls-6" d="M64.61,13.93a3.14,3.14,0,0,0,.09.75c0,.24.32.24.5.12s.3-.91.26-1.09C65.35,13.2,64.63,13.54,64.61,13.93Z"></path><path class="cls-6" d="M62.86,13.54c.87.35,1.06-.5.88-.76s-.57-.51-.77-.18C62.14,12.59,62.44,13.38,62.86,13.54Z"></path><path class="cls-6" d="M69.65,16.63c.21-.07.32-.32.33-.68.44-.43.27-.72-.14-.69.1-.31-.48-.21-.69,0a.41.41,0,0,0,0,.6C69,16.35,69.27,16.76,69.65,16.63Z"></path><path class="cls-6" d="M71.2,16.25a.5.5,0,0,0-.51.21.69.69,0,0,0-.09.56.75.75,0,0,0,.73.11.14.14,0,0,0,0-.27C71.43,16.65,71.46,16.31,71.2,16.25Z"></path><path class="cls-6" d="M65.51,16.12a.51.51,0,0,0-.81.31.45.45,0,0,0,.26.4.61.61,0,0,0,.55.09A.47.47,0,0,0,65.51,16.12Z"></path><path class="cls-6" d="M68.12,17c-.39-.32-1.4-.3-1.12.19-.33.34.17.66.37.64C68,17.78,68.41,17.25,68.12,17Z"></path><path class="cls-6" d="M63.11,15.39c.62.2.75-.81.24-1-.15,0-.47.19-.48.25C62.86,14.92,62.85,15.3,63.11,15.39Z"></path><path class="cls-6" d="M69.67,17.59c-.43-.05-.75.36-.88.72-.19.52.3,1.22,1.07.54.27.1.39-.23.39-.3C70.25,18.17,70.12,17.65,69.67,17.59Z"></path><path class="cls-6" d="M60.68,13c-.23.73.33.75.58.57s.36-.78-.09-.69C61.18,11.74,59.8,13,60.68,13Z"></path><path class="cls-6" d="M59.34,16a.55.55,0,0,0,.74-.55.58.58,0,0,0-.53-.56c.2-.39-.47-.3-.58-.18s0,.32.13.26C58.92,15.54,59,15.92,59.34,16Z"></path><path class="cls-6" d="M62,15a.43.43,0,0,0-.77-.21c-.42.45-.29,1.44.16,1.23A1.07,1.07,0,0,0,62,15Z"></path><path class="cls-6" d="M63.94,17.44c.15-.4-.35-1.11-.86-.75A.81.81,0,0,0,62.64,18C63,18.36,63.75,17.92,63.94,17.44Z"></path><path class="cls-6" d="M71.39,18.33c-.58.09-.72.37-.39.56-.22.65.23.64,1,.53C73,19.28,73.06,18.09,71.39,18.33Z"></path><path class="cls-6" d="M66.46,18.29c-1.44-.63-1.62.28-1.22.4a.76.76,0,0,0-.35.6c0,.6,1.91,0,1.64-.58C66.69,18.67,66.62,18.36,66.46,18.29Z"></path><path class="cls-6" d="M68.07,18.53c0-.19-.42-.19-.61.06a.21.21,0,0,0,.07.29A.35.35,0,0,0,68.07,18.53Z"></path><path class="cls-6" d="M69.37,21.36c.33,0,.23-.49-.06-.48a1.29,1.29,0,0,0-1,.63c0,.16,0,.39.2.41A1,1,0,0,0,69.37,21.36Z"></path><path class="cls-6" d="M68.52,20.41a.4.4,0,0,0,0-.67,2.25,2.25,0,0,0-1.69.29C66.44,20.64,67.86,20.77,68.52,20.41Z"></path><path class="cls-6" d="M69.1,22.35a1,1,0,0,0-.27.17c-.29-.05-.65.39-.42.63s.56,0,.75-.12.37-.26.37-.49S69.27,22.28,69.1,22.35Z"></path><path class="cls-6" d="M70.71,20.67c-.16,0-.28,0-.38,0s-.24.16-.14.26a.63.63,0,0,0,1.1-.22c.42.11.64-.06.67-.22C72.07,19.91,70.91,19.88,70.71,20.67Z"></path><path class="cls-6" d="M72.78,20a.73.73,0,0,0,.33,0,1,1,0,0,0,.34.05c.24,0,.43-.46-.22-.49C72.76,19.62,72.61,19.92,72.78,20Z"></path><path class="cls-6" d="M65.14,21.57c.58-.14,1-.8-.15-.91a1.64,1.64,0,0,0-1.31.47C63.43,22,64.49,21.73,65.14,21.57Z"></path><path class="cls-6" d="M65.73,22.82c.63-.37-.77-.65-1-.61s-.52.32-.48.46C64.25,23.13,65.54,23.21,65.73,22.82Z"></path><path class="cls-6" d="M66.32,23.68c.36.21.81-.45.13-.38-.22-.57-1.47.3-1.2.77C65.38,24.28,66,24.09,66.32,23.68Z"></path><path class="cls-6" d="M67,24c-.35.16-.74.58-.59.73s.9-.35,1.09-.57S67.73,23.64,67,24Z"></path><path class="cls-6" d="M63.17,20.19a.9.9,0,0,0,.19-.72.67.67,0,0,0-.78-.47c-.42.07-.76.38-.56.68S62.84,20.59,63.17,20.19Z"></path><path class="cls-6" d="M81.7,9.78c-.5-.15-.48.33-.29.52s.7.3.71-.32c.19,0,.27-.16.22-.23C82.13,9.44,81.66,9.57,81.7,9.78Z"></path><path class="cls-6" d="M80.93,11.85c0,.06-.08.64.36.58a.3.3,0,0,0,.26-.36c.22-.11.47-.23.51-.44s-.24-.31-.45-.28C81.25,11.42,80.94,11.48,80.93,11.85Z"></path><path class="cls-6" d="M83.76,11.72c.61.35,1.45-.55.9-.89s-1.34-.06-1.13.37C82.85,11.35,83.55,12,83.76,11.72Z"></path><path class="cls-6" d="M89.3,10.39c0-.22-.79-.8-1.08-.28C87.74,11,89.2,10.84,89.3,10.39Z"></path><path class="cls-6" d="M86.31,11.42c.2,0,.93-.05,1-.23s0-.52-.23-.63-1.14,0-.86.25A.33.33,0,0,0,86.31,11.42Z"></path><path class="cls-6" d="M87.55,12.64c.35,0,.58-.05.61-.26s-.5-.21-.67-.15A.21.21,0,0,0,87.55,12.64Z"></path><path class="cls-6" d="M89,8h0c.1,0,.29-.22.13-.27-.51-.14-1.74-.17-1.82,0C87.15,8.2,88.52,8,89,8Z"></path><path class="cls-6" d="M88,8.49a.24.24,0,0,0,0,.42,1.63,1.63,0,0,0,.83.24c.61,0,.55-.66-.15-.61A.55.55,0,0,0,88,8.49Z"></path><path class="cls-6" d="M85,7.78c0,.2.43.32.74.14.38.17.55-.1.41-.21a1.12,1.12,0,0,0-.63-.21C85.34,7.5,85,7.48,85,7.78Z"></path><path class="cls-6" d="M60.66,17.65a.74.74,0,0,0,.05.39c.15.48.6.47.53-.3C61.54,17.16,60.75,17.22,60.66,17.65Z"></path><path class="cls-6" d="M59.32,18c.42-.13.6-1.12-.22-1.11-.34,0-.6.29-.74.93s.06,1.21.44,1.28S60.06,18.64,59.32,18Z"></path><path class="cls-6" d="M59.59,20.37c.11.36.85.39,1.17.27a.73.73,0,0,0,.36-.94,1.55,1.55,0,0,0-.95-.26c-.12,0-.43.36-.24.62C59.69,20,59.53,20.21,59.59,20.37Z"></path><path class="cls-6" d="M58.16,13.49c-.49.32,0,.73.37.53a.47.47,0,0,0,.27-.57C58.69,13.15,58.09,13.18,58.16,13.49Z"></path><path class="cls-6" d="M50.07,18c.24.35,1,0,1.12-.08s.18-.52-.29-.34a1.16,1.16,0,0,0-1.17.21C49.59,17.91,49.89,18.14,50.07,18Z"></path><path class="cls-6" d="M62,21.05c-.47-.17-.87.12-.36.66C62,22.06,62.69,21.3,62,21.05Z"></path><path class="cls-6" d="M61.43,23.74c.43.21.73.08.78-.13a1,1,0,0,0-.59-.86c-1.51-.8-1.38.8-.59,1.16C61.11,23.94,61.4,24,61.43,23.74Z"></path><path class="cls-6" d="M62.74,24.79c0,.18.38.14.47,0,.29-.4,0-.49-.15-.43.06-.21-.57-.06-.63.29C62.41,24.8,62.54,25,62.74,24.79Z"></path><path class="cls-6" d="M59.38,24.76c.17.34.79.79,1,.53.27.19.73.23.85,0a.42.42,0,0,0-.33-.57.92.92,0,0,0-.89-.63C59.5,24.08,59.23,24.43,59.38,24.76Z"></path><path class="cls-6" d="M56.52,23.84c-.15.12-.13.44.12.83a3.21,3.21,0,0,0,1.22.94c.53.11.82-.29.54-.78C58.24,24.55,56.72,23.66,56.52,23.84Z"></path><path class="cls-6" d="M58,22.68c-.36.06-.26.49,0,.69s.76-.11.6-.56C58.52,22.64,58.15,22.42,58,22.68Z"></path><path class="cls-6" d="M55.66,22.84c.4-.06.23-1-.06-1.23-.44-.31-1.27.19-.69.61A.75.75,0,0,0,55.66,22.84Z"></path><path class="cls-6" d="M51,26.06a4.22,4.22,0,0,0-.9,0,.33.33,0,0,0-.38.35c-.16.41.79.39,1.32.29C51.34,26.63,51.3,26.12,51,26.06Z"></path><path class="cls-6" d="M46.77,23.3a2.4,2.4,0,0,0,.9.16c.27,0,.55-.46.43-.61s-.82-.18-1-.17S46.49,23.16,46.77,23.3Z"></path><path class="cls-6" d="M48.88,23.73a2.88,2.88,0,0,0-1.61.3c-.37.22.11.78.46.74a3.76,3.76,0,0,0,1.17-.12C49.11,24.54,49.32,23.9,48.88,23.73Z"></path><path class="cls-6" d="M51.67,18.67a.41.41,0,0,0,.47.6c.23.21,1,.07,1.27-.11.48-.32.3-.78-.54-.73C52.49,18,51.84,18.35,51.67,18.67Z"></path><path class="cls-6" d="M52.75,21.1c.36.07,1.4.13,1.56-.56s-1.24-.52-1.62-.34c-.09,0-.06.46.23.42C52.59,20.75,52.48,21.05,52.75,21.1Z"></path><path class="cls-6" d="M53.71,22.37a.93.93,0,0,0-1.35-.43.52.52,0,0,0-.17.76c-.22.63.55.76,1,.69A.74.74,0,0,0,53.71,22.37Z"></path><path class="cls-6" d="M49.58,20.17a.41.41,0,0,0,.72-.31C50.31,19.46,49.14,19.7,49.58,20.17Z"></path><path class="cls-6" d="M48.7,21.56a.8.8,0,0,0,1.15-.41c.09-.41-.23-.65-.66-.64a.55.55,0,0,0-.64,0A.57.57,0,0,0,48.7,21.56Z"></path><path class="cls-6" d="M48.52,19.27c.27-.21.09-.59-.31-.55a.33.33,0,0,0-.31.47C48,19.41,48.33,19.41,48.52,19.27Z"></path><path class="cls-6" d="M76.05,18.53l.19.1c.08.05.23-.1.19-.18-.23-.48-1.06-.45-.77,0a.73.73,0,0,0-.73,0,.32.32,0,0,0,0,.46c.14.15.27-.14.42-.09S75.93,19,76.05,18.53Z"></path><path class="cls-6" d="M79.43,17.25c.06-.26-.62-.54-1.1-.32-.09,0-.1.18-.08.21a.51.51,0,0,0-.18,0c-.18,0-.24.25,0,.29s.21.09.31.12.43-.14.29-.27C78.9,17.38,79.4,17.34,79.43,17.25Z"></path><path class="cls-6" d="M80,18.4a.37.37,0,0,0,.16-.28h.35c.11,0,.24-.16.12-.24s-.61-.34-.88-.19a.42.42,0,0,0-.2.25.54.54,0,0,0-.28,0c-.15,0-.4.28-.23.44A.88.88,0,0,0,80,18.4Z"></path><path class="cls-6" d="M75.81,19.48c-.53,0-.29.89.18,1.1a.22.22,0,0,0,.3-.24C76.77,20.46,76.59,19.55,75.81,19.48Z"></path><path class="cls-6" d="M77.06,18.94a.38.38,0,0,0-.06.51.58.58,0,0,0,.69-.14C77.92,19,77.41,18.59,77.06,18.94Z"></path><path class="cls-6" d="M81,16.48c.12,0,.39-.1.41-.24.61.11.54-.61.43-.9h0c-.05-.21-.43-.08-.41.09a.69.69,0,0,0-.66.32C80.75,15.93,80.68,16.49,81,16.48Z"></path><path class="cls-6" d="M83,13.49c-.28.09-.75.73-.54.94a1.17,1.17,0,0,0,1.38-.4c.19.17.38-.09.29-.24A1.06,1.06,0,0,0,83,13.49Z"></path><path class="cls-6" d="M84.87,13.1a1.41,1.41,0,0,0,.92-.24.3.3,0,0,0-.11-.52,1,1,0,0,0-.79.19C84.75,12.65,84.6,13.05,84.87,13.1Z"></path><path class="cls-6" d="M85.13,14.5c-.72.22-1.07.79-.88.89s1.32.13,1.51-.18A.51.51,0,0,0,85.13,14.5Z"></path><path class="cls-6" d="M91.86,7.76c.07-.41-1.31-.16-1.58-.1s-.11.28,0,.32C90.66,8.08,91.79,8.09,91.86,7.76Z"></path><path class="cls-6" d="M92.42,9.28a1,1,0,0,0,.77-.22c.2.11.37-.1.29-.2a.67.67,0,0,0-.69-.23c-.2,0-.1.13-.47.12S91.85,9.24,92.42,9.28Z"></path><path class="cls-6" d="M95.81,8.54a.17.17,0,0,0-.3.11c-.05.46.62.75.72.28C97.86,9.31,96.27,7.8,95.81,8.54Z"></path><path class="cls-6" d="M95.09,9.83c0-.52-1.22-.39-1.45-.1C93.26,10.22,95.08,10.64,95.09,9.83Z"></path><path class="cls-6" d="M95.85,10.52c-.46.34.51,1.28,1,.71a.44.44,0,0,0-.07-.52A1.12,1.12,0,0,0,95.85,10.52Z"></path><path class="cls-6" d="M90.07,9.55c.49.31,1.63-.26,1.07-.52.34-.55-1.06-.38-1-.19s.32.15.32.15C89.9,9.06,89.89,9.44,90.07,9.55Z"></path><path class="cls-6" d="M89.9,11.63c-.81.09-.57.83-.24.89.8.15,1.29.14,1.52-.43C91.33,11.71,91,11.51,89.9,11.63Z"></path><path class="cls-6" d="M91.06,10.63c.13.28,1,.12,1.16,0s0-.46-.19-.55S90.79,10,91.06,10.63Z"></path><path class="cls-6" d="M87,17.51c-.28-.09-1.69-.42-1.49.22.11.34.56.29.81.28C87.27,17.93,87.26,17.62,87,17.51Z"></path><path class="cls-6" d="M87.29,16.64a1.28,1.28,0,0,0,1.1,0,.6.6,0,0,0,0-.85c-.12-.15-.94,0-1.3.23S87,17,87.29,16.64Z"></path><path class="cls-6" d="M87,19.19c-.12-.36-.65-.21-.74,0s.69.49.91.33S87.33,19.26,87,19.19Z"></path><path class="cls-6" d="M83,18.66a.17.17,0,0,0,.1-.22c0-.13-.26-.18-.46-.19-.62,0-.82.39-.62.39C82.76,18.65,82.88,18.72,83,18.66Z"></path><path class="cls-6" d="M88.35,14.07c.1-1.06-2-.75-1.68-.2-.6.72.66.81,1,.74S88.33,14.37,88.35,14.07Z"></path><path class="cls-6" d="M92.67,11.67c0,.37.92.3,1.26.14.14-.06.26-.26,0-.44S92.72,11.24,92.67,11.67Z"></path><path class="cls-6" d="M93,15.59c-.3,0-.4.49-.17.56s.62.09.67-.15S93.1,15.6,93,15.59Z"></path><path class="cls-6" d="M91.19,16.85c.56.48.85.21.83,0,0-.43-.92-1.2-1.32-.49-.8-.36-1.12,0-1,.21A1.11,1.11,0,0,0,91.19,16.85Z"></path><path class="cls-6" d="M90.29,18.7c0-.4-1-.56-1.46-.45s-.54.68-.22.65C89.51,18.83,90.22,19.41,90.29,18.7Z"></path><path class="cls-6" d="M93.82,18.2c-1,0-1.28.28-1.28.47,0,.36.53.51,1,.45C94.5,19,94.88,18.22,93.82,18.2Z"></path><path class="cls-6" d="M96.15,14.4a1.46,1.46,0,0,0-1.2.11c-.38.27-.45.65-.13.81a1.54,1.54,0,0,0,1.24-.2C96.36,14.94,96.48,14.56,96.15,14.4Z"></path><path class="cls-6" d="M95.46,13.25c.17.2,1.38,0,1.2-.44-.09-.24-.9-.61-1.11-.13C95.14,12.68,95.31,13.08,95.46,13.25Z"></path><path class="cls-6" d="M98.15,11.36a.86.86,0,0,0,.65.08c.49-.16.85-.72,0-.95C98.47,10.15,97.63,11,98.15,11.36Z"></path><path class="cls-6" d="M97.93,15.88c.22-.41-.31-.7-.65-.24-.51.11-.16.49.12.56S97.84,16,97.93,15.88Z"></path><path class="cls-6" d="M96.46,16.92c0-.34-.35-.45-.73-.44a1.5,1.5,0,0,0-1,.6c-.19.23.09.69.7.36A.68.68,0,0,0,96.46,16.92Z"></path><path class="cls-6" d="M92.41,20a2.37,2.37,0,0,0-1.57-.18c-.17,0-.35.31.27.53a.46.46,0,0,0,.49.31.21.21,0,0,0,.16-.34C92.36,20.46,92.56,20.1,92.41,20Z"></path><path class="cls-6" d="M96.21,18.63c-.19.11-.09.38.31.35.2,0,.25.16.34.22s.43,0,.47-.26S96.89,18.25,96.21,18.63Z"></path><path class="cls-6" d="M99.57,18.89c-.76-.28-.67.24-.56.47a1.06,1.06,0,0,0,.94.35,1,1,0,0,0,1,0C101.37,19.3,101.05,18.72,99.57,18.89Z"></path><path class="cls-6" d="M103,21.4c.42-.17.47-.57,0-.51s-.61.15-.54.35S102.87,21.47,103,21.4Z"></path><path class="cls-6" d="M101.81,22.54c0-.55-1.55-.09-1.58.32s.12.72.85.2C101.7,23.24,101.81,22.8,101.81,22.54Z"></path><path class="cls-6" d="M99.4,16.72a1.16,1.16,0,0,0-1.24.29c-.22.17-.27.57.06.54C99.14,18.21,99.77,16.91,99.4,16.72Z"></path><path class="cls-6" d="M100.84,17c.47.11,1.52-.24.77-.63.12-.51-1.38,0-.87.33C100.65,16.77,100.71,17,100.84,17Z"></path><path class="cls-6" d="M104.49,17.3c.35-.35-.82-.28-1.33-.08a.45.45,0,0,0,.09.87C103.6,18.15,105,17.56,104.49,17.3Z"></path><path class="cls-6" d="M96.55,20.78c.46-.1.59-.64-.32-.72s-1.3.2-.88.45A2.2,2.2,0,0,0,96.55,20.78Z"></path><path class="cls-6" d="M104.45,14.54c-.19-.43-1.55,0-1.81.32a.33.33,0,0,0,.34.52C103.42,16.09,104.71,15.12,104.45,14.54Z"></path><path class="cls-6" d="M106.34,16.58A.74.74,0,0,0,107,16a.39.39,0,0,0-.45-.46.69.69,0,0,0-.49.37C105.49,16.12,105.72,16.64,106.34,16.58Z"></path><path class="cls-6" d="M102.87,12.5a1.6,1.6,0,0,0-1,.15c-.42,0-.57.55,0,.75a1.3,1.3,0,0,0,1.17-.24C103.25,13,103.31,12.6,102.87,12.5Z"></path><path class="cls-6" d="M105.86,12.51a1,1,0,0,0,.33-.95c-.16-.32-1.22,0-1.45.47C104.26,13,105.16,13.06,105.86,12.51Z"></path><path class="cls-6" d="M100.54,9.54c.51.26.91-.4.71-.5-.51-.25-1.88.39-1.72.78S100.53,9.91,100.54,9.54Z"></path><path class="cls-6" d="M102,7.44c-.15.29,1,.35,1,0S102.09,7.25,102,7.44Z"></path><path class="cls-6" d="M103,8.48c0-.42-.56-.06-.82.27s.06.42.29.33C102.93,9.58,103.68,8.9,103,8.48Z"></path><path class="cls-6" d="M104.8,8c-.07-.18-.29-.37-.5-.29a.29.29,0,0,0-.15.14c-.28,0-.33.26-.14.34a1.27,1.27,0,0,1,.31.15c.15.11.32,0,.25-.22C104.72,8.21,104.83,8.09,104.8,8Z"></path><path class="cls-6" d="M104.92,10.2a1,1,0,0,0,.7-.4c.26-.6-1.14-.94-1.3-.28C103.55,9.87,104.56,10.22,104.92,10.2Z"></path><path class="cls-6" d="M103.12,11.08h0c-.2.05-.16.25-.05.37s.61.12.77-.07a.32.32,0,0,0-.11-.54A.43.43,0,0,0,103.12,11.08Z"></path><path class="cls-6" d="M107.19,10.21c.16.18.7.06.72-.15a.42.42,0,0,0-.5-.47A.38.38,0,0,0,107.19,10.21Z"></path><path class="cls-6" d="M106.59,7.71a.84.84,0,0,0-.61.41c-.12.31.35.55.61.44,0,.21.28.21.43,0C107.58,7.88,107.13,7.57,106.59,7.71Z"></path><path class="cls-6" d="M109.69,5.79a.25.25,0,0,0,.39-.09.76.76,0,0,0,.07-.64C110,4.64,109.11,5.05,109.69,5.79Z"></path><path class="cls-6" d="M111,4.14c.81-.44.1-.81-.73-.64a.18.18,0,0,0-.06.33C110.06,4.19,110.68,4.32,111,4.14Z"></path><path class="cls-6" d="M108.56,6.94a.3.3,0,0,0-.3.27.56.56,0,0,0,.47.49c.54.13,1.13-.12.73-.71.2,0,.32-.1.21-.17C109.07,6.37,108.26,6.64,108.56,6.94Z"></path><path class="cls-6" d="M109.61,9.63c.5.6,1-.6.35-.86S108.74,9.93,109.61,9.63Z"></path><path class="cls-6" d="M108.66,12.28c.5-.15.9-.83.7-1.12s-1.06-.21-1.36.13-.28.54.08.58C107.92,12.29,108.45,12.35,108.66,12.28Z"></path><path class="cls-6" d="M110.49,14c.39-.52-.48-.67-.92-.63s-.77.67-.47.76C109.88,14.38,110.26,14.31,110.49,14Z"></path><path class="cls-6" d="M107.19,14c.33-.09.45-.58.25-.73s-.8,0-1.06.33a.49.49,0,0,0,0,.74A.53.53,0,0,0,107.19,14Z"></path><path class="cls-6" d="M112.94,4.47c-.14-.13-.72,0-1,.09s-.32.77.27.58C112.74,5.71,113.18,4.7,112.94,4.47Z"></path><path class="cls-6" d="M113.19,9.25c.32,0,.83-.48.53-.75a.47.47,0,0,0-.53,0,.25.25,0,0,0,0,.33C112.88,9,113,9.27,113.19,9.25Z"></path><path class="cls-6" d="M111.63,6.81c-.94.17,0,1.61.78.83C113.58,7.58,111.72,6.09,111.63,6.81Z"></path><path class="cls-6" d="M114.72,6.14c0-.17.1-.84-.26-.84a1.13,1.13,0,0,0-1,1.11c0,.12.28.16.36.09A.62.62,0,0,0,114.72,6.14Z"></path><path class="cls-6" d="M30.06,30.27c-.23.29-.14.56-.16.89s-.48.64-.46.86c0,.38.69-.15,1-.42a7.17,7.17,0,0,1,1.12-.71c.23-.11.16-.22,0-.23-.3,0-.46,0-.54,0s.19-.34.33-.45.33-.37.11-.46A1.88,1.88,0,0,0,30.06,30.27Z"></path><path class="cls-6" d="M48,25.15a3.51,3.51,0,0,0-1.51.1c-.17.06-.17.66,0,.68a4.22,4.22,0,0,0,1.23,0,.93.93,0,0,0,.61-.33C48.48,25.47,48.2,25.17,48,25.15Z"></path><path class="cls-6" d="M50.27,23.59a.25.25,0,0,0,.28-.39c-.11-.12-.39-.21-.55-.36.06-.3-.44-.43-.77-.15S49.32,23.34,50.27,23.59Z"></path><path class="cls-6" d="M56.32,17.71a.41.41,0,0,0,.58-.08.51.51,0,0,0,0-.61.48.48,0,0,0-.69,0A.51.51,0,0,0,56.32,17.71Z"></path><path class="cls-6" d="M57.21,22c.19.11.76.25.9-.2.07-.26.24-1,.08-1.23s-1.27-.07-1.36.26A1.73,1.73,0,0,0,57.21,22Z"></path><path class="cls-6" d="M56.82,19.81c.33-.12.42-.93.15-1.1s-1.16-.3-1.13.38c-.32.15-.15.63.18.73A1.94,1.94,0,0,0,56.82,19.81Z"></path><path class="cls-6" d="M54.31,17.15c.27.33,1.12-.1,1-.32S54.1,16.9,54.31,17.15Z"></path><path class="cls-6" d="M59.44,12.34c.12,0,.88-.68.6-.87C59.34,11,59,12.47,59.44,12.34Z"></path><path class="cls-6" d="M78.66,14a.92.92,0,0,0-.28.64.16.16,0,0,0,.32,0c.4.06.64-.34.83-.59a.18.18,0,0,0-.1-.3A.88.88,0,0,0,78.66,14Z"></path><path class="cls-6" d="M78,16c-.31.75,1.33.3,1.38.07a.56.56,0,0,0-.51-.7A1.11,1.11,0,0,0,78,16Z"></path><path class="cls-6" d="M43.69,25.33c0-.21-.59-.17-.53.09S43.61,25.66,43.69,25.33Z"></path><path class="cls-6" d="M42.11,24.69c-.42-.21-.9.72-.42.72S42.56,24.92,42.11,24.69Z"></path><path class="cls-6" d="M41.2,26.38a.07.07,0,0,0,.07,0h.07c.1,0,.22,0,.29-.06a.34.34,0,0,0,.09-.19.27.27,0,0,0-.18-.3C41.25,25.8,41,26.16,41.2,26.38Z"></path><path class="cls-6" d="M31.16,21.84c.24,0,.37-.28.08-.33-.47-.08-1.26-.07-1.64-.59-.26-.35-.61.09-.41.38A2.26,2.26,0,0,0,31.16,21.84Z"></path><path class="cls-6" d="M75.9,17.17c.09-.1-.14-.21-.22-.15s-.32.25-.62.48c.16-.28.06-.66-.3-.61s-.52.28-.52.48a.3.3,0,0,0-.27.54.51.51,0,0,0,.52-.1.55.55,0,0,0,.25,0,11.16,11.16,0,0,0-1.15,1c-.06.1.17.18.27.12A8.68,8.68,0,0,0,75.9,17.17Z"></path><path class="cls-6" d="M84.62,20.31c.13,0,.25-.27.1-.32a15.49,15.49,0,0,0-2.14-.39s.18-.47-.22-.47a1,1,0,0,0-.72.4,15.22,15.22,0,0,0-4.37.38c-.1,0-.12.4,0,.37.74-.11,1.46-.18,2.18-.23,0,.51,1,.48,1.33.4.14,0,.19-.22,0-.32a1.74,1.74,0,0,0-.33-.12A23.35,23.35,0,0,1,84.62,20.31Z"></path><path class="cls-6" d="M85,18.68c.14.05.3-.14.17-.22-1.09-.68-2-1.21-2.74-1.63-.11-.07-.29.13-.19.22a5.6,5.6,0,0,0,.59.48.19.19,0,0,0-.07.22.44.44,0,0,0,.57.12A7.87,7.87,0,0,0,85,18.68Z"></path><path class="cls-6" d="M83.18,12.7a.76.76,0,0,0-.7,0c-.15.09,0,.46.18.44C83,13.07,83.39,12.86,83.18,12.7Z"></path><path class="cls-6" d="M83.65,16.1c-.27.09-.37.53,0,.79.2.13.49,0,.38-.32a1.06,1.06,0,0,0,.69-.05.21.21,0,0,0,.07-.29A1.44,1.44,0,0,0,83.65,16.1Z"></path><path class="cls-6" d="M86.94,21.22a.62.62,0,0,0,.29-.15c-.13.46.26.54.45.42a2.64,2.64,0,0,0,.65-.72.16.16,0,0,0-.23-.21c-.14.11-.44.38-.44.38s0-.15,0-.23-.2-.11-.3-.07a1.46,1.46,0,0,0-.42.26C86.72,21.1,86.78,21.24,86.94,21.22Z"></path><path class="cls-6" d="M91.49,21.5a4.2,4.2,0,0,0-2-1,.8.8,0,0,0-.76.44c-.05.09-.05.24.1.23s.32-.13.44-.11,0,.26.13.35.51.05.69-.09a5.12,5.12,0,0,0,1.32.44C91.45,21.72,91.58,21.58,91.49,21.5Z"></path><path class="cls-6" d="M86.39,20.63c0-.4-1.23-.61-1.23-.3S86.39,20.91,86.39,20.63Z"></path><path class="cls-6" d="M98,26.63c0-.23-.08-.46-.17-.46s-.28.39-.23.48S98,26.73,98,26.63Z"></path><path class="cls-6" d="M94.16,21.8a1.07,1.07,0,0,0,.71,0c.35-.1.39-.32.23-.42a2,2,0,0,0-.6-.05.26.26,0,0,0-.14-.27,1.8,1.8,0,0,0-.89,0c-.09,0,0,.31.13.36a4.08,4.08,0,0,0,.51.05S94.08,21.72,94.16,21.8Z"></path><path class="cls-6" d="M93.56,22.17c-.19-.17-.61-.14-1.27-.32a.17.17,0,1,0-.05.33,2,2,0,0,1,.56.17c.25.14.36.29.55.31A.27.27,0,0,0,93.56,22.17Z"></path><path class="cls-6" d="M97.7,22.39a2.82,2.82,0,0,0-.55,0,.63.63,0,0,0-.06-.25c-.24-.48-1.2.14-1,.5s.44,0,.57.06a1,1,0,0,0,1.12,0C97.86,22.66,97.87,22.43,97.7,22.39Z"></path><path class="cls-6" d="M98.45,23.26c0-.21-.44-.09-.52,0-.24.16,0,.49.21.44A.37.37,0,0,0,98.45,23.26Z"></path><path class="cls-6" d="M44.29,26.78A33.62,33.62,0,0,0,38,28.3a.15.15,0,0,0,.06.29c2.4-.62,4-1.17,6.28-1.58C44.45,27,44.49,26.76,44.29,26.78Z"></path><path class="cls-6" d="M94.62,24.18c0-.14.29-.8.13-.84s-.47.48-.56.73S94.53,24.51,94.62,24.18Z"></path><path class="cls-6" d="M93.53,24.07c-.12.18.15.3.3.13s.31-.43.23-.48S93.68,23.84,93.53,24.07Z"></path><path class="cls-6" d="M65.9,24.92a7.61,7.61,0,0,1-1.7,1l0,0a1.23,1.23,0,0,0-2.06.11.6.6,0,0,0,0,.47c-.11,0-.23,0-.34,0a1.31,1.31,0,0,0-1.31.06H59c-.14,0-.3.24-.11.29a8.48,8.48,0,0,0,7.22-1.73C66.22,25,66,24.83,65.9,24.92Z"></path><path class="cls-6" d="M105.32,22.74c.13-.49-.95-.16-1.09.3a.27.27,0,0,0,.07.32c.2.12.5-.07.6-.23-.13.5.47.74.81,0C105.87,22.8,105.74,22.48,105.32,22.74Z"></path><path class="cls-6" d="M98.77,24.78a.23.23,0,0,0-.36-.08.39.39,0,0,0-.07.41c.07.1.18,0,.18,0a.91.91,0,0,0,0,.4c.08.11.25.17.35,0s.21-.47.25-.55S99.09,24.61,98.77,24.78Z"></path><path class="cls-6" d="M99.18,25.34c0,.12,0,.24,0,.36s.35.19.37,0a1.74,1.74,0,0,0-.1-.46C99.38,25.08,99.18,25.14,99.18,25.34Z"></path><path class="cls-6" d="M102.94,24.29c-.09-.18-.25-.2-.45-.09,0,0,.15-.34,0-.36-.38-.05-1,.64-.17.71,0,.45.43.84.78.49a2.44,2.44,0,0,0,.41-.8c0-.13-.14-.21-.28-.15A1.34,1.34,0,0,0,102.94,24.29Z"></path><path class="cls-6" d="M100.58,26.14c0,.15,0,.53.12.53s.17-.27.13-.57S100.62,26,100.58,26.14Z"></path><path class="cls-6" d="M101.49,25.87c-.11,0-.31.61-.41,1a.14.14,0,0,0,.25.1,4.75,4.75,0,0,0,.2-.54c.1.32.35.34.39.1S101.71,25.85,101.49,25.87Z"></path><path class="cls-6" d="M107,25.34c-.31-.25-.5.21-.5.21s.1-.49.12-.57-.26-.2-.31-.06A5.23,5.23,0,0,0,106,26c0,.12.25.12.35.06a.66.66,0,0,0,.15-.18s0,.3.18.32.52-.38.71-.67S107.22,25.09,107,25.34Z"></path><path class="cls-6" d="M108.27,25.3a1.62,1.62,0,0,0-.55.67c0,.09,0,.21.12.16.21.36.69.18.68-.65C108.51,25.34,108.39,25.23,108.27,25.3Z"></path><path class="cls-6" d="M110,22.54a.39.39,0,0,0-.61,0c-.22-.34-.59-.17-.57,0a1.7,1.7,0,0,0,.1.37.37.37,0,0,0,.07.67.25.25,0,0,0,.31-.2s.21.26.31.29c.29.09.42-.1.35-.35C110.16,23.23,110.34,23,110,22.54Z"></path><path class="cls-6" d="M110.32,25.27c-.18,0,0,.77.34.73S110.52,25.24,110.32,25.27Z"></path><path class="cls-6" d="M112.64,24c-.19-.09-.41.57-.32.78a.92.92,0,0,0-.44-.38c-.27,0-.46.35-.46.35l-.32-.5c-.07-.09-.28,0-.27.11.12,1.18.62,1.46.81,1,.31.44.61.1.81-.2A.32.32,0,0,0,113,25,2,2,0,0,0,112.64,24Z"></path><path class="cls-6" d="M118.47,22.55c.06-.5-.65-.52-.77,0-.73-.4-1,.54-1.64,1.34-.15.19.2.21.37.1a5.67,5.67,0,0,0,.61-.54c.14.11.46.25.72-.22C118.22,23.51,118.43,22.88,118.47,22.55Z"></path><path class="cls-6" d="M119.49,25.62a1.85,1.85,0,0,0-.58.42c-.15.17-.06.53.19.44a1.51,1.51,0,0,0,.64-.66C119.84,25.63,119.67,25.55,119.49,25.62Z"></path><path class="cls-6" d="M121.89,26.37c-.15,0-1.24.13-1.17-.16.12-.53-.88-.1-1,.73,0,.32.32.21.44.06a.63.63,0,0,0,.07-.19c.1,0-.08.55,1.61.06C122,26.81,122.2,26.38,121.89,26.37Z"></path><path class="cls-6" d="M118.32,25.21c-.09.16,0,.43.23.36-.19.38.33.36.65-.26.08-.15.06-.4-.17-.36.25-.42.32-.74.21-.77S118.79,24.42,118.32,25.21Z"></path><path class="cls-6" d="M106.92,18.3c-.13-.07-1.36.24-1.12.6s.76.11.92,0S107.12,18.4,106.92,18.3Z"></path><path class="cls-6" d="M99.67,21.12c0-.41-.6-.16-.82,0a.16.16,0,0,0,.12.29l.31-.07a.89.89,0,0,0-.16.1c-.13.13-.11.39.16.34a1.87,1.87,0,0,0,1.12-.61C100.51,21,100.33,20.68,99.67,21.12Z"></path><path class="cls-6" d="M104.32,19.79c0-.41-1.44-.38-1.5.08C102.68,20.92,104.28,20.36,104.32,19.79Z"></path><path class="cls-6" d="M115.12,24.15c-.31-.13-.56.53-.58.6-.07.25.27.3.43.05a3.78,3.78,0,0,0,.1.41c.08.18.38.09.34-.06C115.22,24.32,115.3,24.22,115.12,24.15Z"></path><path class="cls-6" d="M96.48,26.4a.11.11,0,0,0,.21,0,2.31,2.31,0,0,0-.11-.5c-.14-.21-.23-.08-.3.1s-.23.58,0,.58A.23.23,0,0,0,96.48,26.4Z"></path><path class="cls-6" d="M115.68,21.29c-.16-.08-.4.17-.57.24,0-.12,0-.24-.12-.24a.33.33,0,0,0-.31.21,3,3,0,0,0-.21-.6c-.06-.1-.29,0-.28.2a5.33,5.33,0,0,0,.24,1.36.36.36,0,0,0,.57-.14C115.58,22.51,115.92,21.42,115.68,21.29Z"></path><path class="cls-6" d="M108,20.35c0-.69-1,.39-.7.63,0,0,.12.11.5-.22.59,1.4,1.4-.09,1-.52C108.55,20,108.2,20.17,108,20.35Z"></path><path class="cls-6" d="M112.3,18.26c-.16-.2-.35,0-.39.22a3,3,0,0,0,0,1.33.32.32,0,0,0,.57-.23s.23.57.58.52.06-1.58-.61-1.42A3.43,3.43,0,0,0,112.3,18.26Z"></path><path class="cls-6" d="M112.51,15.32c.22,0,.53-.8-.67-.43-.52.16-.5.56-.13.57-.23.38.92.32,1.09.31C113.21,15.71,113.12,15.28,112.51,15.32Z"></path><path class="cls-6" d="M114.39,14.1a1.34,1.34,0,0,0,.8-.91c0-.3-.54-.15-.71,0,.07-.21,0-.47-.29-.3a1.34,1.34,0,0,0-.27.26c-.07.09,0,.29.08.3l.13,0C114,13.76,114.19,14.16,114.39,14.1Z"></path><path class="cls-6" d="M109.71,18.69s.29-.2,0-.35a1.1,1.1,0,0,0-.8,0c-.17.07-.33.3.15.4-.14.08-.33.21-.15.32a2.78,2.78,0,0,0,1.25.06C110.42,19.05,110.28,18.73,109.71,18.69Z"></path><path class="cls-6" d="M110.09,15.89c-.47-.09-1.7.14-1.57.82s1.78.26,1.64-.46C110.35,16.16,110.29,15.94,110.09,15.89Z"></path><path class="cls-6" d="M117.2,12.23a1,1,0,0,0-.14-1.17.51.51,0,0,0-.7.42c0,.14.27.18.27.18C116.62,12.06,117,12.42,117.2,12.23Z"></path><path class="cls-6" d="M113.62,17.41s.32.25.51,0a.88.88,0,0,0,.13-.41l.48.33c.14.09.3.06.35-.23s-.61-.77-.8-.8-.59.14-.57.58c-.4-.25-.54.3-.48.64,0,.16.3.12.36,0A1.25,1.25,0,0,0,113.62,17.41Z"></path><path class="cls-6" d="M118.48,20.28c-.09-.08-.35,0-.33.29-.06-.12-.27,0-.25.1s.23.53.51.32C118.52,20.91,118.6,20.38,118.48,20.28Z"></path><path class="cls-6" d="M118.93,13.79c.2-.2,0-.67-.15-.87-.34-.42-1-.17-1.26.22-.08.13.2.46.4.27a.24.24,0,0,0,.41.16S118.69,14,118.93,13.79Z"></path><path class="cls-6" d="M116.77,19.22c.09-.06.4-.27.47-.33s.17-.22,0-.33-.52-.3-.76-.46-.35.08-.23.22a5.41,5.41,0,0,0,.47.39,1.34,1.34,0,0,0-.35.33C116.26,19.29,116.58,19.34,116.77,19.22Z"></path><path class="cls-6" d="M117.48,19.42c.39-.13.3-.43,0-.37s-.33.2-.31.32S117.37,19.62,117.48,19.42Z"></path><path class="cls-6" d="M115.84,15.63c.13.25.3.46.56.24a.45.45,0,0,0,.23.15c.22.06.46-.09.37-.29s-.37-.55-.67-.3h0a.69.69,0,0,0-.19-.24s.08-.17.11-.25-.1-.27-.17-.19a7,7,0,0,0-.6.73C115.42,15.61,115.71,15.84,115.84,15.63Z"></path><path class="cls-6" d="M115.44,11h0c.09-.13.42-.78,0-.84,0-.57-.64-.34-1-.11-.13.08-.12.22,0,.23l.18,0a.43.43,0,0,0-.09.5.34.34,0,0,0,.52,0,1.18,1.18,0,0,1,0,.19C115,11.13,115.31,11.16,115.44,11Z"></path><path class="cls-6" d="M112.87,12.35c0-.14-.1-.41-.27-.41s-.86.29-.74.63S112.74,12.71,112.87,12.35Z"></path><path class="cls-6" d="M111.19,10.82c-.26.56,1.11.38.93-.12C113.21,9.24,110.2,10,111.19,10.82Z"></path><path class="cls-6" d="M113.2,1.68c0,.27.44.31.71.14-.1.38.59.55.79.42s0-.66-.51-.71a.25.25,0,0,0-.14-.32,1.23,1.23,0,0,0-1,.3C113,1.57,113,1.77,113.2,1.68Z"></path><path class="cls-6" d="M115.9,4.18c-.17.19.1.42.3.33s.54-.34.6-.57c.2-.65-.73-.45-1-.35S115.34,4.28,115.9,4.18Z"></path><path class="cls-6" d="M115.18,8.54c.34,0,.66-.58.62-.94s-.39-.25-.57-.13c-.09-.16-.32-.11-.43,0s0,.56.18.34C114.9,8.24,115,8.52,115.18,8.54Z"></path><path class="cls-6" d="M114.85,1.21a2.3,2.3,0,0,0,.49,0c-.07.09-.06.29.22.32-.34.22.07.46.61.26a.23.23,0,0,0,0-.44.39.39,0,0,0-.3,0c.13-.11.08-.61-1-.36C114.69,1,114.71,1.18,114.85,1.21Z"></path><path class="cls-6" d="M112.79,3.13c.36.11.44-.17.42-.39,0-.37-.5-.94-1-.29-.24-.5-.66.26-.36.67S112.77,3.4,112.79,3.13Z"></path><path class="cls-6" d="M114,3.58c-.06.19.14.28.3.21a.87.87,0,0,0,.41-.47c0-.2-.2-.21-.39-.18a.75.75,0,0,0-.54.38C113.7,3.61,113.85,3.67,114,3.58Z"></path><path class="cls-6" d="M118.36,5.75c.28-.39.23-1-.38-.79-.23-.25-.68,0-.83.18s-.14.53.09.5C117.21,6.12,118,6.24,118.36,5.75Z"></path><path class="cls-6" d="M117.22,8.75c.49,0,1-1,.4-1C117,6.61,116,8.73,117.22,8.75Z"></path><path class="cls-6" d="M120.11,7.19c0-.36-.73-.38-.85-.1a1,1,0,0,0,0,.71C119.49,8.11,120.17,7.67,120.11,7.19Z"></path><path class="cls-6" d="M121.19,2a.25.25,0,0,0-.24.26c0,.17.42.22.58.09S121.34,2,121.19,2Z"></path><path class="cls-6" d="M119.16,1.67c.2,0,.41-.61-.44-.51-.43.06-.46.24-.34.38A1,1,0,0,0,119.16,1.67Z"></path><path class="cls-6" d="M118.16,2.55c.1-.16-.06-.34-.21-.37a1.85,1.85,0,0,0-.81.07c-.12,0-.09.32,0,.34h.11c0,.21.19.33.36.29A1.27,1.27,0,0,0,118.16,2.55Z"></path><path class="cls-6" d="M119.06,3.49a.42.42,0,0,0-.2.62.38.38,0,0,0,.71-.24C120.11,3.77,120,3.19,119.06,3.49Z"></path><path class="cls-6" d="M135.48,13.65c.07-.06.46-.7.26-.7s-.6.46-.62.58S135.41,13.7,135.48,13.65Z"></path><path class="cls-6" d="M135.05,3.16a1.59,1.59,0,0,0-1-.76c-.09,0-.28.12-.17.21,1.14.87.75,1.23.83,1.53,0,.14.19.12.28,0a.74.74,0,0,0,.17-.66c.59-.36.71-.69.73-.82s-.09-.32-.19-.18A1.29,1.29,0,0,1,135.05,3.16Z"></path><path class="cls-6" d="M132.87,4.94c.2.34.89.13.87-.22s-.81-.81-1.31-1.35a1.19,1.19,0,0,1,.32-2c.11-.05,0-.25-.19-.19a1.43,1.43,0,0,0-.88,2C132,3.8,132.27,3.92,132.87,4.94Z"></path><path class="cls-6" d="M127.31,0c-.54,0-.54.23-.15.36a1.28,1.28,0,0,0,1.09-.09C128.46.13,128.14,0,127.31,0Z"></path><path class="cls-6" d="M127.56,1.85c.37,0,.34-.29,0-.49s-.72-.18-.72,0S127.28,1.81,127.56,1.85Z"></path><path class="cls-6" d="M131.72,1.26a.35.35,0,0,0,.37-.4C131.94.4,131.16,1.22,131.72,1.26Z"></path><path class="cls-6" d="M122.76,1.86a.25.25,0,0,0-.18,0c-.12,0-.25.31-.06.38.45.18.76-.05.64-.26a.24.24,0,0,0,.17,0c.07,0,.22-.21,0-.27S122.82,1.63,122.76,1.86Z"></path><path class="cls-6" d="M121.49,3.38c.19.07.76.21.81-.11s-.6-.25-.77-.2S121.32,3.31,121.49,3.38Z"></path><path class="cls-6" d="M129,.89c-.17,0-.12-.08-.23-.12s-.67.25-.18.32c0,.17.18.31.51.24S129.27.88,129,.89Z"></path><path class="cls-6" d="M125.79.68c.41.09.61-.28.54-.44s-.79-.19-1.14,0S125.41.59,125.79.68Z"></path><path class="cls-6" d="M123.66,4.33c.32.06.77-.07.74-.47s-.57-.35-.82-.25-.27.42,0,.37h0C123.5,4.09,123.49,4.3,123.66,4.33Z"></path><path class="cls-6" d="M124.31,1.4s-.12.15,0,.19.39.17.53,0-.26-.59-.61-.53c-.13,0-.24.23-.08.3Z"></path><path class="cls-6" d="M111.4,2.57a.27.27,0,0,0-.29-.17c-.19.06-.53.54-.31.64S111.44,2.78,111.4,2.57Z"></path><path class="cls-6" d="M109.06,4.33c.3.13.66-.36.65-.59s-.13-.07-.19,0C109.28,3.82,108.79,4.21,109.06,4.33Z"></path><path class="cls-6" d="M108,5.39l.13-.1a.3.3,0,0,0,.22.24.37.37,0,0,0,.42-.34.31.31,0,0,0-.18-.3l.21-.22c.08-.1-.06-.2-.2-.11a5,5,0,0,0-.7.63C107.77,5.27,107.83,5.48,108,5.39Z"></path><path class="cls-6" d="M102,10.92c.21-.43.14-1-.71-.57A.78.78,0,0,0,101,11C100.88,11.67,101.88,11.24,102,10.92Z"></path><path class="cls-6" d="M119.53,2.63c.19.19.84.15.84-.18s-.8-.2-1-.14-.18.26-.1.31A.46.46,0,0,0,119.53,2.63Z"></path><path class="cls-6" d="M122,5.05c.3.06.63-.12.48-.4a.54.54,0,0,0-.76-.12C121.55,4.67,121.68,5,122,5.05Z"></path><path class="cls-6" d="M126.43,5.09c.18.06.28,0,.21-.19a2.41,2.41,0,0,0-.55-.62.18.18,0,0,0-.26.2C125.41,4.69,126.23,5,126.43,5.09Z"></path><path class="cls-6" d="M124.18,2.58s.36.31.52.29a.32.32,0,0,0,.3-.25c0-.11-.07-.19-.2-.24C124.44,2.26,124,2.46,124.18,2.58Z"></path><path class="cls-6" d="M127.41,8c.1.13.54.75.61-.07.61.15.27-.68,0-.75s-.4.43-.34.64C127.46,7.59,127.32,7.88,127.41,8Z"></path><path class="cls-6" d="M119.9,5.65a.32.32,0,0,0,.32.5c.38-.07.94-.38.94-.66s-.44-.75-1.32-.19C119.73,5.36,119.68,5.63,119.9,5.65Z"></path><path class="cls-6" d="M122.66,6.37c-.58-.18-1.42,0-1.27.87a.67.67,0,0,0,.86.52c.49-.16.7-.5.52-.81C123.09,6.91,123,6.46,122.66,6.37Z"></path><path class="cls-6" d="M121.41,9.3a.55.55,0,0,0-.57-.62c-.74,0-1,1.11-.6,1.18C120.3,10.47,121.36,10.11,121.41,9.3Z"></path><path class="cls-6" d="M118.31,9.23c-.33,0-.48.7-.4,1,0,.07.17.06.22,0,.08.17.34.26.46.1S118.84,9.23,118.31,9.23Z"></path><path class="cls-6" d="M119,10.61a.25.25,0,0,0-.41,0,.44.44,0,0,0,0,.61C118.92,11.35,119.4,11.08,119,10.61Z"></path><path class="cls-6" d="M123.2,8.92c-.1.32.46.28.81,0s.61-.64,0-.69C124.14,7.5,122.71,8.3,123.2,8.92Z"></path><path class="cls-6" d="M125.19,7.11c0-.13-.09-.18-.18-.19a.45.45,0,0,0-.37.25c-.06.21.26.34.48.21S125.32,7.17,125.19,7.11Z"></path><path class="cls-6" d="M126.62,6.84c.22.08.31-.06.31-.15a.71.71,0,0,0-.51-.74c-.22-.07-.37.23-.22.32C126,6.48,126.31,6.73,126.62,6.84Z"></path><path class="cls-6" d="M128.18,9.83s.07-.33-.1-.41c-.59-.28-.55.73,0,.81a.76.76,0,0,0,0,.31c0,.16.16.12.23,0a.71.71,0,0,0,.07-.71C128.32,9.75,128.18,9.83,128.18,9.83Z"></path><path class="cls-6" d="M125.74,2.07a1,1,0,0,0,.45,0,.17.17,0,0,0-.11-.33c.21-.27-.32-.34-.47-.24s-.27.33.12.32C125.67,1.88,125.62,2,125.74,2.07Z"></path><path class="cls-6" d="M126,3.21c.21.12.7.46.86.1s-.44-.36-.72-.36C126.06,3,125.88,3.13,126,3.21Z"></path><path class="cls-6" d="M129.11,6.65c.1-.37-.4-.71-.57-.72s-.19.12-.12.21c-.3.23-.15.66.31.73A.38.38,0,0,0,129.11,6.65Z"></path><path class="cls-6" d="M129.86,5.27a.9.9,0,0,0-.32-.17c-.09,0-.24.1-.15.18a2.07,2.07,0,0,1,.53.71c.06.15.3,0,.33-.09s0-.13,0-.19l.06.1c.11.19.45-.06.34-.22a1.53,1.53,0,0,0-.53-.57C130,4.94,129.85,5.13,129.86,5.27Z"></path><path class="cls-6" d="M131.27,5c-.09,0-.25,0-.25.12s.38.56.52.56.26-.08.26-.18A.74.74,0,0,0,131.27,5Z"></path><path class="cls-6" d="M132.57,5.87c-.13.07-.15.56.11.61a.26.26,0,0,0,.28-.34A.33.33,0,0,0,132.57,5.87Z"></path><path class="cls-6" d="M130,2.25c.06-.14-.34-.26-.42-.12a.39.39,0,0,0,0,.46.38.38,0,0,0,.46.05C130.18,2.58,130.44,2.23,130,2.25Z"></path><path class="cls-6" d="M128.19,2.61c0,.12.12.31.24.35.3.11.41-.09.41-.35a.36.36,0,0,0-.24-.33C128.16,2.19,128.16,2.5,128.19,2.61Z"></path><path class="cls-6" d="M129.76,3.44c-.32,0-.4.91.4.81C130.52,4.2,130.43,3.44,129.76,3.44Z"></path><path class="cls-6" d="M130.5,7.28c-.44-.19-.79.4-.22.56-.06.32.42.41.58.41S131.26,7.61,130.5,7.28Z"></path><path class="cls-6" d="M131.5,7.46c.18,0,.4-.11.31-.26a.34.34,0,0,0-.45-.15C131,7.22,131.42,7.44,131.5,7.46Z"></path><path class="cls-6" d="M132.72,7.77c-.14-.08-.25.09-.26.18a.82.82,0,0,0,.35.74.2.2,0,0,0,.28-.19A1.94,1.94,0,0,0,132.72,7.77Z"></path><path class="cls-6" d="M133.5,6.89c-.17-.07-.71.15-.28.38-.17.11,0,.26.1.24S133.72,7,133.5,6.89Z"></path><path class="cls-6" d="M122.18,11.43c.82,0,.27-1.1-.1-.65-.19-.26-.61.12-.52.38S121.92,11.94,122.18,11.43Z"></path><path class="cls-6" d="M126,9.84c-.09.14-.22.57.26.52,0,.1.24.05.27,0C126.66,9.73,126.13,9.62,126,9.84Z"></path><path class="cls-6" d="M126.46,8.7c.63.15.12-.53-.31-.75-.22-.11-.42,0-.46.07C125.55,8.48,126,9.1,126.46,8.7Z"></path><path class="cls-6" d="M126,11.39c-.55.3-.49.9.09.94-.1.17.16.33.4.21a.74.74,0,0,0,.27-1.11C126.69,11.23,126.24,11.28,126,11.39Z"></path><path class="cls-6" d="M120,11.69a.26.26,0,0,0-.14.25c-.24.3,0,1,.46.9a.42.42,0,0,0,.31-.23c.08.05.22,0,.21-.11C120.85,12,120.22,11.59,120,11.69Z"></path><path class="cls-6" d="M124.56,13.88c.79,0,.78-1.38,0-1.23-.31.06-.81.48-.41.84C123.84,13.8,124.33,13.87,124.56,13.88Z"></path><path class="cls-6" d="M123.5,10.36a1,1,0,0,0,.16,1.07c.18.19.71.12.92-.56.53,0,.28-.62-.16-.79A.78.78,0,0,0,123.5,10.36Z"></path><path class="cls-6" d="M126.5,14.19c-.13-.11-.45,0-.52.13s-.09.5.18.5A.41.41,0,0,0,126.5,14.19Z"></path><path class="cls-6" d="M127.36,16.61c.36-.4.46-.87.1-1-.1-.32-.9-.14-1,.74S127.06,16.94,127.36,16.61Z"></path><path class="cls-6" d="M129.59,13c-.26-.38-.72-.08-.41.81,0,.15.25.4.42,0A1.12,1.12,0,0,0,129.59,13Z"></path><path class="cls-6" d="M122.69,15.6c-.06.49.34.84.77.63a1.19,1.19,0,0,0,.61-.94c0-.08-.1-.35-.33-.36.07-.1,0-.22-.19-.21A1,1,0,0,0,122.69,15.6Z"></path><path class="cls-6" d="M125.35,16.27a.31.31,0,0,0-.42-.08c-.66.3-.35,1.39.18.85C125.62,17.16,125.43,16.43,125.35,16.27Z"></path><path class="cls-6" d="M128.16,18.84c0-.24-.13-.43-.49-.41.3-.37,0-.66-.28-.6s-.66.63-.32.9C126.68,20,128.12,19.48,128.16,18.84Z"></path><path class="cls-6" d="M129,15.77c.43.11.29-1,0-1S128.36,16.29,129,15.77Z"></path><path class="cls-6" d="M128.94,17.81c0,.21.29.27.42.15a2.53,2.53,0,0,0,.34-.89.28.28,0,0,0-.49-.12A2.14,2.14,0,0,0,128.94,17.81Z"></path><path class="cls-6" d="M123.14,19c-.13.63.29.52.43.41.33-.26.63-1.57-.06-1.57S122.65,19,123.14,19Z"></path><path class="cls-6" d="M121.52,18c.31,0,.91-1.6.07-1.24-.33-.1-.4.39-.4.55C121.19,17.59,121.22,18,121.52,18Z"></path><path class="cls-6" d="M129.66,24.53c.48-.28.77-.75.61-1s-.63-.22-1,.17C127.75,23.85,128.58,25.17,129.66,24.53Z"></path><path class="cls-6" d="M128.89,23.06c.37-.18.43-.66,0-.81a1.23,1.23,0,0,0-1.23.32c-.06.08,0,.18.09.19C127.47,23.18,128.64,23.19,128.89,23.06Z"></path><path class="cls-6" d="M130.93,22c.2-.08.43-.32.33-.5s-1.22-.16-1.1.29C130.24,22.06,130.72,22.08,130.93,22Z"></path><path class="cls-6" d="M120.79,19.58c.5,0,.24-.67.1-.82a.28.28,0,0,0-.51.12,1,1,0,0,0,.19.74A.13.13,0,0,0,120.79,19.58Z"></path><path class="cls-6" d="M122.49,20.57c.09-.25,0-.65-.33-.63a.67.67,0,0,0-.45.92c-.28.32.23.42.4.29A1.39,1.39,0,0,0,122.49,20.57Z"></path><path class="cls-6" d="M124.53,21.12c.11-.11.23-.44-.06-.49-.1-.54-1,.16-.7.58C124,21.46,124.33,21.32,124.53,21.12Z"></path><path class="cls-6" d="M126.17,20.41c-.57.11.06.53.67.44C127.17,20.8,126.44,19.94,126.17,20.41Z"></path><path class="cls-6" d="M127,21.3a.44.44,0,0,0-.62.41c0,.12.43.22.83.09a.3.3,0,0,0,.07-.47A.26.26,0,0,0,127,21.3Z"></path><path class="cls-6" d="M125.29,22.38c-.12-.26-1.07-.34-1.48.22s-.17.9.23.87S125.45,22.72,125.29,22.38Z"></path><path class="cls-6" d="M123.4,21.94c-.35-.07-.75.43-.73.79,0,.17.35.09.42,0C123.34,22.49,123.59,22,123.4,21.94Z"></path><path class="cls-6" d="M120,24.62c-.18,0-.35.12-.29.27s.36,0,.41-.13S120.15,24.62,120,24.62Z"></path><path class="cls-6" d="M121.14,24.61a.37.37,0,0,0,.56.29c.16-.11.45-.52.21-.67A.66.66,0,0,0,121.14,24.61Z"></path><path class="cls-6" d="M123.43,24.44c-.25,0-.46.66-.18.78C123.76,25.45,123.85,24.46,123.43,24.44Z"></path><path class="cls-6" d="M126.43,23.78c.11-.21-.28-.31-.48-.22a.62.62,0,0,0-.33.44c-.31,0-.24.36,0,.32A1.3,1.3,0,0,0,126.43,23.78Z"></path><path class="cls-6" d="M116.22,6a.4.4,0,0,0-.41.66C116.09,6.82,116.73,6.07,116.22,6Z"></path><path class="cls-6" d="M131.4,10.32c-.34-.28-.77-.26-.86-.13s.4.62.82.58C132,10.72,131.71,10.24,131.4,10.32Z"></path><path class="cls-6" d="M132.26,8.86c-.18.17,0,.42.25.5a.2.2,0,0,0,.24-.2C132.74,8.9,132.48,8.66,132.26,8.86Z"></path><path class="cls-6" d="M134.18,9.88c.07-.09.13-.27,0-.35s-.66.17-.32.27C133.79,10,134,10.1,134.18,9.88Z"></path><path class="cls-6" d="M93.59,13c-.41-.15-1-.06-1.08.43-1.38,0,.51,1.6.82.42C94,13.73,94.11,13.14,93.59,13Z"></path><path class="cls-6" d="M100.55,12.33c.21-.53-.52-.53-.7-.09S100.37,12.77,100.55,12.33Z"></path><path class="cls-6" d="M99.39,14.32c-.19.19-.17.51.1.52.35.72,1.46-.27,1.08-.78C100.38,13.8,99.68,14,99.39,14.32Z"></path><path class="cls-6" d="M98,13.13c-.28.2-.38.47-.29.61.3.4,1.09-.06,1.22-.61C98.94,12.87,98.62,12.64,98,13.13Z"></path><path class="cls-6" d="M97.92,9.25c.22.1.64.11.74-.21.56-.1,0-.45-.47-.36S97.58,9.1,97.92,9.25Z"></path><path class="cls-6" d="M156.9,30.89a6.29,6.29,0,0,1-4.77,1.7,5.7,5.7,0,0,1-3.52-1c-.7-.49-1.21.18-2.28.2-.8,0-1.39-.31-1.17-.87s.89-.52,2-.65,2.1-1.66,3.4-1.68,1.28,2.43,2.73,2.22c.5-.08,1.55-1.61,2.13-1.24a1.47,1.47,0,0,0,.63.3c.35,0,.35-.51.7-.51C157.25,29.35,157.25,30.55,156.9,30.89Z"></path><path class="cls-6" d="M148.4,27c.23.29.83-.22.48-.42S148.23,26.78,148.4,27Z"></path><path class="cls-6" d="M147.36,28.8c-.51.06-.74-.67-.17-.69S148,28.74,147.36,28.8Z"></path><path class="cls-6" d="M146,11.37a1.83,1.83,0,0,1-.39.86c-.21.2-.47,0-.44-.12.14-.57-.21-.74-.21-1.08S146.1,11,146,11.37Z"></path><path class="cls-6" d="M143.58,8.75c0-.6-.82-.68-.82-1.43,0-.34.61-1,.17-1.2a1.53,1.53,0,0,0-1.69.47c0,.32.9.16.93.65s.67,1,.94,1.62a1.77,1.77,0,0,1-.52,1.89c-.42.45.19.5,0,.8-.48.82-1.82.48-2,.9a2.67,2.67,0,0,0,2.41,1c.38-.13,1.24-.46.58-1.52-.14-.23.17-.43.32-.66C144.2,10.74,143.58,10.87,143.58,8.75Z"></path><path class="cls-6" d="M39.12,21.47c-3.23.12-6.5,2.43-10.34,1.14-.33-.11-.54.24-.17.4,3.81,1.66,7.23-1,10.47-1.27C39.23,21.73,39.31,21.46,39.12,21.47Z"></path><path class="cls-6" d="M72.11,3.82a6.44,6.44,0,0,0-2.28-.9c-.12,0-.28.22-.14.25a9,9,0,0,1,.87.28c-.12.14,0,.44.17.51s.69,0,.74-.14l.49.24C72.1,4.13,72.26,3.93,72.11,3.82Z"></path><path class="cls-6" d="M65.55,5c-.16-.14-.53-.06-.75.17-.39-.08-.5.33-.25.45a.82.82,0,0,0,.9,0C65.6,5.46,65.73,5.15,65.55,5Z"></path><path class="cls-6" d="M120.22,17.35c0-.27-.27-.32-.34-.2,0-.1-.18-.18-.19-.06a1.91,1.91,0,0,0,.08.89C119.87,18.21,120.28,18,120.22,17.35Z"></path><path class="cls-6" d="M119.65,15.82c0,.29.42.26.55.06S119.68,15.18,119.65,15.82Z"></path><path class="cls-6" d="M120.78,14a.49.49,0,0,0-.24.55c0,.13.1.24.25.15,0,.47.33.57.53.48C121.72,15,121.52,13.69,120.78,14Z"></path><path class="cls-6" d="M129.85,8.58c-.53-.14-.51.23-.33.42C130.06,9.61,130.38,8.71,129.85,8.58Z"></path><path class="cls-6" d="M129,8.43a.23.23,0,0,0,.35-.23C129.19,7.79,128.76,8.27,129,8.43Z"></path><path class="cls-6" d="M125.4,18.64c-.44-.12-.44.64-.23.95s.6,0,.58-.58c.28,0,.31-.36.29-.64S125.58,17.86,125.4,18.64Z"></path><path class="cls-6" d="M82.23,6.77a16.47,16.47,0,0,0-3.39-1c-1.86-.33-3-.32-4.18-1-.19-.1-.36.13-.17.25a6.31,6.31,0,0,0,2.31.71c-.7.28-.21.79.72.6.23,0,.4-.28.22-.44l0,0,1.09.18c.33.06.73.16,1.15.28a.12.12,0,0,0,0,.14c.19.31.92.3,1,.19s0,0,0,0L82,7C82.48,7.21,82.52,6.88,82.23,6.77Z"></path><path class="cls-6" d="M73.59,4.34c-.88-.37-.69.16-.27.33C73.9,4.91,74.37,4.66,73.59,4.34Z"></path><path class="cls-6" d="M128.3,25.36a11.15,11.15,0,0,1-2.19-.48c-.21-.06-.42.16-.27.31a6.13,6.13,0,0,1-.9.7c-.19.13-.17.44.1.31a5.5,5.5,0,0,0,1.22-.81,12.22,12.22,0,0,0,1.91.25C128.44,25.63,128.59,25.4,128.3,25.36Z"></path><path class="cls-6" d="M123.87,26.28c-.15.28.21.39.36.15.31-.47.29-.75.12-.7S124.06,25.93,123.87,26.28Z"></path><path class="cls-6" d="M123,25.55c-.24,0-.47.46-.18.46S123.33,25.55,123,25.55Z"></path><path class="cls-6" d="M135.91,27.92c0-.29-.71-.34-.66-.05S135.86,28.22,135.91,27.92Z"></path><path class="cls-6" d="M131.37,25.06c-.22.33.1.43.36.22a1.37,1.37,0,0,0,.35-.5c.12-.25-.09-.36-.27-.2A2,2,0,0,0,131.37,25.06Z"></path><path class="cls-6" d="M130.35,25c-.25.18,0,.4.37.21s.53-.51.43-.55A1.26,1.26,0,0,0,130.35,25Z"></path><path class="cls-6" d="M133,22.05a.42.42,0,0,0-.3.66c.15.2,1.3.8,1.42.21S133.52,22,133,22.05Z"></path><path class="cls-6" d="M137,23.06c-.18-.16-.85-.2-1,.08s.3.36.85.22C137,23.32,137.07,23.18,137,23.06Z"></path><path class="cls-6" d="M136,22c-.59.05-.49.44-.32.53s.88.18,1-.09S136.37,22,136,22Z"></path><path class="cls-6" d="M138.66,23.16c.08.21.72.21.94-.08C140.07,22.45,138.4,22.48,138.66,23.16Z"></path><path class="cls-6" d="M141.68,23c-.34,0-.62.6-.2.76a1.36,1.36,0,0,0,1.1,0C142.9,23.45,142,22.94,141.68,23Z"></path><path class="cls-6" d="M144.46,23.42c-.61-.28-.91.48-.1.74A.38.38,0,0,0,144.46,23.42Z"></path><path class="cls-6" d="M145.43,24.07c-.24-.06-.47.38-.18.46S146,24.19,145.43,24.07Z"></path><path class="cls-6" d="M141.4,24.07a1.1,1.1,0,0,0-.92-.32.5.5,0,0,0-.12,1C141.51,25.1,141.62,24.35,141.4,24.07Z"></path><path class="cls-6" d="M153,25.28c-.42.25-.42.9-.8.8-.15,0-.25-.21-.23-.57s-.28-.44-.51,0c-.41.79-1.25.53-2.11.93-.31.15-.24.55-.09.6a5.32,5.32,0,0,0,3.4-.33,2.43,2.43,0,0,0,1.25-1.31C154,25.14,153.44,25,153,25.28Z"></path><path class="cls-6" d="M143.44,30.63c-.26-.13-.54-.24-.82-.35.44-.22.55-.59.42-.8a1.66,1.66,0,0,0-1.28-.56c-.49.06-.49.54-.4.93a25.38,25.38,0,0,0-2.7-.63c.28-.08.17-.48-.14-.61.49-.08.6-.31.4-.45-.36-.25-1.5-.43-1.55.05,0,.3.43.35.43.35-.45,0-.66.25-.49.46-1.09-.15-1.92-.2-2.16-.23a.83.83,0,0,0-1.24-.68c-.68.44-.21-.87-1.22-1.24-.81-.29-1.49.92-2.38,0-.67-.67-1.15.09-1.67.16-.68.09-1.54-.47-2.83.07-1.13-.84-1.47.13-1.31.22,4.17,2.36,7.9,1.93,12.06,2.3a23.47,23.47,0,0,1,6.78,1.65c.43.18,1.36.29,1.43-.31S144.15,30.11,143.44,30.63Z"></path><path class="cls-6" d="M137.63,26.22a4.19,4.19,0,0,1-.58.37c-.24.13-.21.52.16.32a2.28,2.28,0,0,0,.61-.46C138,26.29,137.84,26.07,137.63,26.22Z"></path><path class="cls-6" d="M135.3,26.33c-.39.08-.84.22-1.17.31s-.34.46,0,.4a7.8,7.8,0,0,0,1.23-.39C135.57,26.56,135.54,26.29,135.3,26.33Z"></path><path class="cls-6" d="M136.48,25.05a9.29,9.29,0,0,0-1.93-.11.42.42,0,0,0,.1-.54c-.3-.42-1.14,0-1.34.31-.05.07,0,.23.06.33l-.68.09c-.24.05-.39.37-.07.33a17.68,17.68,0,0,1,3.67-.07C136.53,25.42,136.78,25.1,136.48,25.05Z"></path><path class="cls-6" d="M136.67,26.12c-.08.06-.24.25-.31.31,0-.31-.3-.27-.31-.07s0,.35,0,.53.18.13.28,0,.42-.42.56-.56S136.86,26,136.67,26.12Z"></path><path class="cls-6" d="M139.66,25.35a12,12,0,0,0-2.33-.21c.21-.26-.08-.44-.22-.27a1.81,1.81,0,0,0-.22.32c-.11.26.13.32.31.22a10.71,10.71,0,0,1,2.31.16C139.71,25.61,139.91,25.43,139.66,25.35Z"></path><path class="cls-6" d="M114.31,24.06a5.67,5.67,0,0,0-.37.74c-.11.28.11.4.25.23a3.55,3.55,0,0,0,.4-.87C114.69,23.89,114.44,23.88,114.31,24.06Z"></path><path class="cls-6" d="M112.52,21.48c0,.58-.2,1.07-.49.75-.24.26-.66,0-.14-.43.11-.1.26.08.26.08s.06-.16.14-.41S112.52,21.3,112.52,21.48Z"></path><path class="cls-6" d="M104.84,25.32c-.13.29-.18.43-.29.74s.31.35.42.06a6.34,6.34,0,0,0,.23-.74C105.3,25.05,104.94,25.1,104.84,25.32Z"></path><path class="cls-6" d="M87.08,22.87c-.18,0-.64.46-.31.5S87.37,22.87,87.08,22.87Z"></path><path class="cls-6" d="M147.55,26.71c-1.75-.59-3.53.1-5-.54-.23-.1-.38.15-.12.27,1.35.64,3.18.1,5,.5C147.65,27,147.85,26.81,147.55,26.71Z"></path><path class="cls-6" d="M43.59,15.46c.23-.18.33-.45,0-.79,0-.77-.53-1-.71-1-.33-1-1.26.12-.84.75-.37.67,0,1.49.56,1.23h0c-.82.22-1.67.47-2.5.72.28-.15.51-.54.32-.82.17-.3.09-.79-.26-.81.29-.63-.63-.3-.58-.58s-.3-.18-.45-.08a.45.45,0,0,0-.11.51c-.38.3-.48,1,0,1.15-.17.39-.06.79.27.89l-.76.21c-.34.13-.18.43.2.33,5.32-1.47,8.61-2.8,8.9,0,0,.24.3.09.29-.12C47.9,15,46,14.94,43.59,15.46Z"></path><path class="cls-6" d="M34.75,18l-.92.26a1.62,1.62,0,0,0,0-1.22c-.12-.52-.36-1.35-.95-1.26a.45.45,0,0,0-.34.46c0,.25.07.49-.22.63s-.17.38,0,.41a1.73,1.73,0,0,0-.15,1.35.27.27,0,0,0,.16.09l-.86.33a.37.37,0,0,0-.31-.54.77.77,0,0,0-.4-1.21c.29-.37,0-1-.45-.66s-.92,1.21-.45,1.34a.4.4,0,0,0,.13.56c-.32.37-.5,1.05-.1,1.17a.49.49,0,0,0,.21,0,10.47,10.47,0,0,0-.91.55c-.15.1.11.25.24.18a22.56,22.56,0,0,1,5.27-2.2C34.93,18.2,34.94,18,34.75,18Z"></path><path class="cls-6" d="M47,17.22a1.73,1.73,0,0,0-.9-.55c-.13,0-.38.13-.28.28l.12.19a1.93,1.93,0,0,0-.67-.2c-.17,0-.42.28-.2.38.45.23,1,.32,1.38.59.13.08.36-.15.28-.28l-.21-.33.28.17C46.9,17.55,47.06,17.33,47,17.22Z"></path><path class="cls-6" d="M45.45,17.84A2.76,2.76,0,0,0,44,17.46c-.11,0-.28.25-.12.3.46.14.94.24,1.41.34C45.44,18.13,45.58,17.92,45.45,17.84Z"></path><path class="cls-6" d="M57.15,10.41a40.88,40.88,0,0,1-4.79,3,.24.24,0,0,0-.13-.41c.42-.19.21-.75-.32-.82.28-.46-.41-.64-1-.58-.16,0-.24.38,0,.41l.21,0a.41.41,0,0,0-.18.76c-.36.58.42.91,1,.85-.26.14-.53.27-.81.4s-.06.37.12.29a23.58,23.58,0,0,0,6.06-3.7C57.39,10.53,57.29,10.31,57.15,10.41Z"></path><path class="cls-6" d="M27.46,19.31c.36,0,.43-.19.4-.34-.07-.38-1-.8-1.37-.91s-.41.36,0,.57c0,0-.84-.26-1.2.34-.27-.15-.71-.2-.77,0a.86.86,0,0,0,.17.65c.24.37-.33.42-.67.69s-.34.6.83,1.11c-.76,1,1.84,1.42,3,1.22.45-.07.42-.37.21-.57a.77.77,0,0,1,.23-1.34C29,20.49,28.68,20,27.46,19.31Z"></path><path class="cls-6" d="M101.36,7.52c-2.49-.12-5.63-.09-8.71,0-.16,0-.25.31,0,.3.47,0,.94,0,1.42,0a.3.3,0,0,0-.1.17c-.08.6,2,.28,1.49-.19l1.81,0c0,.24.92.39,1.07,0h1.35c-.15.14-.08.31.14.34.47.06,1.16-.1.93-.33h.54C101.39,7.78,101.54,7.53,101.36,7.52Z"></path><path class="cls-6" d="M73.9,20.74a6.77,6.77,0,0,0-1.67.54c-.22.1-.2.33.09.22a15.79,15.79,0,0,1,1.6-.53C74.14,20.91,74.12,20.7,73.9,20.74Z"></path><path class="cls-6" d="M67.29,21.56a1,1,0,0,0-.46,0c-.25,0-.43.45-.17.49A1.55,1.55,0,0,0,67.3,22C67.47,21.87,67.51,21.62,67.29,21.56Z"></path><path class="cls-6" d="M86.55,22.42a5.9,5.9,0,0,0-.38.7c0,.15,0,.33.16.2a3.14,3.14,0,0,0,.49-.8C86.91,22.34,86.64,22.31,86.55,22.42Z"></path><path class="cls-6" d="M85.51,21.88c-.09-.22-.32-.1-.29.11s.06.39.09.58.3.09.31-.16A2.27,2.27,0,0,0,85.51,21.88Z"></path><path class="cls-6" d="M84.76,21.29c-.09-.12-.28,0-.26.12a5.66,5.66,0,0,0,.14.84c.06.14.33,0,.3-.16A2.43,2.43,0,0,0,84.76,21.29Z"></path><path class="cls-6" d="M84.26,21.86a1,1,0,0,0-.17-.23c-.2-.21-.28.05-.22.16l.15.26C84.13,22.24,84.36,22,84.26,21.86Z"></path><path class="cls-6" d="M82.2,21.21l-.22.28c-.14.2.15.33.28.12a3.22,3.22,0,0,0,.19-.33C82.53,21.12,82.28,21.11,82.2,21.21Z"></path><path class="cls-6" d="M81.71,20.75l-.1.2-.06-.1c-.12-.21-.35,0-.27.2s.09.24.14.35.19.12.28,0a3.35,3.35,0,0,0,.28-.53A.15.15,0,1,0,81.71,20.75Z"></path><path class="cls-6" d="M88.2,23.32a4.72,4.72,0,0,0-.37.41c-.11.14.07.27.19.15a3.62,3.62,0,0,0,.36-.42C88.48,23.33,88.32,23.21,88.2,23.32Z"></path><path class="cls-6" d="M88.89,23.19a6.36,6.36,0,0,0-.51.72c-.14.22.12.45.27.25a3.62,3.62,0,0,0,.39-.75C89.11,23.19,89,23.08,88.89,23.19Z"></path><path class="cls-6" d="M92.53,25l-.36.07s.06-.14.08-.2-.14-.3-.25-.12-.22.38-.3.55,0,.22.15.2a2,2,0,0,0,.41-.11v.27c0,.24.28.19.36,0a3.06,3.06,0,0,0,.09-.43C92.72,25.1,92.7,25,92.53,25Z"></path><path class="cls-6" d="M90,23.83l-.21.22s0-.12,0-.19-.22-.12-.25,0a3,3,0,0,0,0,.74c0,.15.18.19.28.07a3.36,3.36,0,0,0,.41-.6C90.25,23.89,90.12,23.69,90,23.83Z"></path><path class="cls-6" d="M93.15,25a2.49,2.49,0,0,0-.19.4c-.07.21.14.25.24.09a1.43,1.43,0,0,0,.19-.4C93.46,24.91,93.24,24.87,93.15,25Z"></path><path class="cls-6" d="M91.29,24.81a4.1,4.1,0,0,0-.11.61c0,.19.25.14.29,0s.09-.43.13-.64S91.32,24.65,91.29,24.81Z"></path><path class="cls-6" d="M90.79,22.45l-.29.33c-.12.15.08.24.19.14a1.85,1.85,0,0,0,.25-.32C91,22.48,90.86,22.37,90.79,22.45Z"></path><path class="cls-6" d="M91.64,22.65a2.37,2.37,0,0,0-.33.22v-.09c0-.16-.24-.06-.26,0S91,23,91,23.17s.14.18.23.11.36-.24.53-.37S91.83,22.56,91.64,22.65Z"></path><path class="cls-6" d="M97.3,26.59c0-.17-.07-.55-.1-.73s-.33-.08-.31.08.06.56.1.73S97.31,26.75,97.3,26.59Z"></path><path class="cls-6" d="M104.32,26.26a5,5,0,0,0-.17-.55c-.05-.16-.33-.09-.29.1a4,4,0,0,0,.14.57C104.07,26.59,104.35,26.44,104.32,26.26Z"></path><path class="cls-6" d="M131.4.24a7.55,7.55,0,0,0-2-.12c-.11,0-.2.19,0,.19.4,0,.79,0,1.17.08a.2.2,0,0,0,0,.11c-.38.28.06.75.32.65s.14-.29,0-.38c.16-.13.14-.25.06-.34l.33,0C131.46.49,131.59.29,131.4.24Z"></path><path class="cls-6" d="M124.13,5.47c-.61-.2-.61.55-.26.69.56.23,1.06.24,1.19-.26S124.28,4.91,124.13,5.47Z"></path><path class="cls-6" d="M133.78,1.08c-.19,0-.26.16-.11.18a2.55,2.55,0,0,1,1.87,1c.08.15.25,0,.18-.16C135.36,1.41,134.48,1.23,133.78,1.08Z"></path><path class="cls-6" d="M136,1a3.58,3.58,0,0,0-.73-.14c-.13,0-.28.22-.14.26l.64.16C136,1.27,136.22,1,136,1Z"></path><path class="cls-6" d="M140.81,7.4a.13.13,0,0,0-.21-.1.69.69,0,0,0-.24.24.11.11,0,0,0,.15.16l.05.17c.06.16.29,0,.28-.14S140.82,7.49,140.81,7.4Z"></path><path class="cls-6" d="M139.64,8.13c.11,0,.31-.09.31-.2,0-.34-.28-.39-.44-.27S139.26,8,139.64,8.13Z"></path><path class="cls-6" d="M139,8c-.05-.25-.52-.49-.69-.12S139.07,8.57,139,8Z"></path><path class="cls-6" d="M138.45,8.62c-.28,0-.47.39-.17.44C138.75,9.13,138.91,8.6,138.45,8.62Z"></path><path class="cls-6" d="M136.82,8.47c-.27-.34-.91.28-.46.56S137.09,8.68,136.82,8.47Z"></path><path class="cls-6" d="M135.09,5.75a.84.84,0,0,0-.17.07,1.89,1.89,0,0,1,.21-.25c.12-.1,0-.27-.12-.18a1.16,1.16,0,0,0-.48.74c0,.15.16.13.24.07a.65.65,0,0,0,0,.22s.18,0,.22,0a1.92,1.92,0,0,1,.24-.46C135.29,5.83,135.23,5.72,135.09,5.75Z"></path><path class="cls-6" d="M135.19,7.24a.87.87,0,0,0-.45.36c-.11.2.09.22.23.12a1.92,1.92,0,0,0,.29-.28C135.35,7.32,135.34,7.22,135.19,7.24Z"></path><path class="cls-6" d="M135.51,8c-.28-.42-.71.29-.61.44S135.71,8.32,135.51,8Z"></path><path class="cls-6" d="M136.91,9.7c-.47,0-.42.67.08.58.09,0,.24-.15.1-.28C137.26,9.92,137.12,9.7,136.91,9.7Z"></path><path class="cls-6" d="M135.86,9.91c-.41,0-.52.66-.11.66A.33.33,0,0,0,135.86,9.91Z"></path><path class="cls-6" d="M138.39,9.61c-.27,0-.36.32-.09.33S138.6,9.58,138.39,9.61Z"></path><path class="cls-6" d="M140,8.88c-.31,0-.56.49-.19.49S140.34,8.88,140,8.88Z"></path><path class="cls-6" d="M140.86,9.44a.16.16,0,1,0-.16.28C140.92,9.8,141.15,9.54,140.86,9.44Z"></path><path class="cls-6" d="M137.51,7.06c0-.23-.57,0-.37.22S137.52,7.25,137.51,7.06Z"></path><path class="cls-6" d="M138.21,6c-.15-.12-.36-.16-.48,0s0,.45.32.36S138.42,6.15,138.21,6Z"></path><path class="cls-6" d="M138.93,5.69c-.1,0-.41.12-.3.31C138.85,6.38,139.25,5.73,138.93,5.69Z"></path><path class="cls-6" d="M143.32,4.91c-.14-.22-.51.07-.39.26l.16.25C143.23,5.64,143.52,5.23,143.32,4.91Z"></path><path class="cls-6" d="M141.21,2.89c-.22,0-.35.36-.08.36S141.48,2.89,141.21,2.89Z"></path><path class="cls-6" d="M121.37,22.46c-.31-.27-1.22.15-1.24.3a.21.21,0,0,0,.27.21l.45-.09a.49.49,0,0,0-.16.38c.07.27,1-.31,1.23-.71C122,22.44,121.79,22.14,121.37,22.46Z"></path><path class="cls-6" d="M134.61,5.13a.21.21,0,0,0-.24.1l-.11.15a.14.14,0,0,0,0,.22c.08,0,.18,0,.23-.1l.12-.15A.15.15,0,0,0,134.61,5.13Z"></path><path class="cls-6" d="M128.27,4.33c.27-.32-.35-.65-.48-.7s-.26.16-.2.29a1.56,1.56,0,0,0,.32.36c-.46.22.18.62.35.61S128.69,4.67,128.27,4.33Z"></path><path class="cls-6" d="M130.91,2.4h0c-.23-.2-.66.25-.43.44h0C130.71,3,131.14,2.6,130.91,2.4Z"></path><path class="cls-6" d="M130.3,1.77a.21.21,0,0,0,.41,0C130.79,1.63,130.38,1.48,130.3,1.77Z"></path><path class="cls-6" d="M131.59,4.27c-.23-.22-.78-.07-.5.19S131.86,4.53,131.59,4.27Z"></path><path class="cls-6" d="M144.21,13.59a1.53,1.53,0,0,1-.86.25c-.21,0-.26.12-.3.22-.47,1.1-2.06.78-2.9.49-.22-.08-.4.14-.16.23,1.33.51,2.87.56,3.36-.64a1.85,1.85,0,0,0,1-.32C144.48,13.7,144.46,13.44,144.21,13.59Z"></path><path class="cls-6" d="M139.77,14.08c-.15.1-.3.22-.44.33-.29.22-.12.54.19.28a4.82,4.82,0,0,0,.43-.36A.15.15,0,1,0,139.77,14.08Z"></path><path class="cls-6" d="M139.13,14c-.23,0-.53.42-.25.42S139.37,14,139.13,14Z"></path><path class="cls-6" d="M132.33,20.61a8.49,8.49,0,0,0-2.94-.21.84.84,0,0,0-.56-.87c-.42-.05-.33.67,0,.94l-.63.09c-.27.05-.1.27.09.25a10.45,10.45,0,0,1,3.91,0C132.43,20.84,132.57,20.66,132.33,20.61Z"></path><path class="cls-6" d="M134.87,13.18a3.71,3.71,0,0,1-1.55-.85,1.31,1.31,0,0,1-.29-1.64h0c.51.14.14-.65-.24-.68s-.21.29,0,.5a1.09,1.09,0,0,0-.4.74c-.47-.32-1.28.24-.8.54a10.48,10.48,0,0,0-1.22.39h0c0-.16-.05-.33-.09-.49.22.07.46,0,.38-.25a.49.49,0,0,0-.55-.27,6.58,6.58,0,0,0-.7-1.52c-.13-.19-.32,0-.22.24a10.69,10.69,0,0,1,1,4.27c0,.28.28.1.29-.12a8.77,8.77,0,0,0,0-1.25h0c.49-.09,1.64-.37,2-.5a2.68,2.68,0,0,0,2.25,1.19C134.85,13.5,135.09,13.25,134.87,13.18Z"></path><path class="cls-6" d="M57.75,15.3a.61.61,0,0,0-.46.22s.07-.49.09-.59-.22-.24-.26-.07-.11.48-.25,1.06a4.54,4.54,0,0,0-1.23.61c-.15.09,0,.3.14.2A8.35,8.35,0,0,1,57,16.18c.54.08.92-.32.69-.54C57.9,15.44,57.91,15.32,57.75,15.3Z"></path><path class="cls-6" d="M107,6s.35-.2.5-.31,0-.28-.13-.2A13.94,13.94,0,0,1,103.63,7c-.33.08-.3.35-.06.31a12,12,0,0,0,1.18-.3c-.08.22.11.44.5.4s.65-.52.33-.71a6.85,6.85,0,0,0,.67-.31c-.1.14.25.27.36.12a.55.55,0,0,0,1-.19C107.62,6.06,107.3,6,107,6Z"></path><path class="cls-6" d="M96.77,24.5c-.06-.16-.12-.32-.19-.48a.16.16,0,0,0-.28,0,.32.32,0,0,0-.31.16l-.18.35c-.14.31.31.28.42.05h0a2.5,2.5,0,0,0,.09.25C96.44,25.06,96.84,24.73,96.77,24.5Z"></path><path class="cls-6" d="M137.08,2c-.23,0-.46.4-.17.4S137.38,2,137.08,2Z"></path><path class="cls-6" d="M137.69,2.6h0c-.11-.12-.3,0-.37.1h0C137,3.21,138,3,137.69,2.6Z"></path><path class="cls-6" d="M140.72,2.69a21.67,21.67,0,0,0-4.1-1.54c-.21-.09-.33.09-.11.23a7.87,7.87,0,0,0,1.36.49c-.1.09-.1.24.1.31a.37.37,0,0,0,.45-.13,12.29,12.29,0,0,1,2.13.85C140.76,3,140.92,2.81,140.72,2.69Z"></path><path class="cls-6" d="M137.05,13.73c-.31-.08-.59-.16-.89-.21s-.41.25-.13.3L137,14C137.19,14,137.3,13.79,137.05,13.73Z"></path><path class="cls-6" d="M38.44,20.27c-.3,0-.39.51,0,.47S38.82,20.31,38.44,20.27Z"></path><path class="cls-6" d="M46.24,22.81c0-.44-2.18-1.31-4-1.55.21-.12.3-.35,0-.44a.38.38,0,0,0-.48.39,4.45,4.45,0,0,0-1,0c-.36.06-.48.41-.25.5l.17.05a5.86,5.86,0,0,1-2.08,1A5.73,5.73,0,0,0,36.75,24c-.25.24,0,.4.29.19a6.41,6.41,0,0,1,2-.82c-.13.7,1,.54,1.32.07,1.06.59,2.47-.06,2.57.77,0,.34,1,.26,1.36,0s.09-.63-.16-.82C45.05,22.75,46.25,23.22,46.24,22.81Z"></path><path class="cls-6" d="M45.32,19.61c-.12-.14-.85-.29-.75,0-.33.15-.27.42,0,.59C45,20.5,45.61,20,45.32,19.61Z"></path><path class="cls-6" d="M43.78,20.31a2.9,2.9,0,0,0-.51,0c-.19,0-.43.37-.19.47a.87.87,0,0,0,.55.07.38.38,0,0,0,.18-.13C43.94,20.58,44,20.33,43.78,20.31Z"></path><path class="cls-6" d="M46.23,20.64c-.35-.47-1.65.1-1.16.63a.72.72,0,0,0,.94.08A.51.51,0,0,0,46.23,20.64Z"></path><path class="cls-6" d="M43.1,19.94c-.09-.31-.82-.18-.72,0S43.21,20.31,43.1,19.94Z"></path><path class="cls-6" d="M143.73,22.37a16.92,16.92,0,0,0-4.38-.66c-.21,0-.29.21,0,.22.48,0,1,.07,1.43.12-.07.1,0,.33.31.35s.53-.12.52-.24c.67.1,1.34.23,2,.4C143.85,22.61,144,22.44,143.73,22.37Z"></path><path class="cls-6" d="M142.44,27.17c-.33.19.36.79.75.42C143.4,27.39,142.64,27.05,142.44,27.17Z"></path><path class="cls-6" d="M132.68,23.28c0-.27-.53-.59-.59-.25S132.63,23.62,132.68,23.28Z"></path><path class="cls-6" d="M29.49,27c-.49.28-.58,1.71-1.13,2.21a6.88,6.88,0,0,0-1.31,1.58c-.49,1,.42,1,.76.9s.42-.3.8-.15.38-.74.48-1.14c.34-1.4,1.18-2,1.21-2.54C30.35,27,29.89,26.76,29.49,27Z"></path><path class="cls-6" d="M26.48,32.81c-.32.68,1.52.62,1.71.26.28-.52-.48-.88-.84-.83A1.1,1.1,0,0,0,26.48,32.81Z"></path><path class="cls-6" d="M142.85,4.3c-.07-.22-.37,0-.16.24S142.94,4.55,142.85,4.3Z"></path><path class="cls-6" d="M122.18,13.29c-.23.73.32.75.57.57s.37-.78-.08-.69C122.68,12,121.3,13.23,122.18,13.29Z"></path><path class="cls-6" d="M128.33,13.53a1.76,1.76,0,0,0-.18-1.12c-.08-.18-.38-.08-.44.12s-.22.53-.28.79.36.28.43.07C127.93,13.66,128.25,13.75,128.33,13.53Z"></path><path class="cls-6" d="M90.94,14.54c.15-.13.15-.6-.4-.6s-1.07.52-1,.92S90.46,15,90.94,14.54Z"></path><path class="cls-6" d="M120.25,20.88c-.3-1-.7-.66-.84-.3a25.77,25.77,0,0,0-.74-4.07c.34.1.49-.19.39-.36-.22-.39-.48-.43-.48-.43v-.24c.09,0,.25-.11.1-.22a3.61,3.61,0,0,0-.78-.3c-.15,0-.32.21-.18.28a3.16,3.16,0,0,0,.43.16c0,2.57,1.32,4.27.6,8.32,0,.2.23.38.33,0a11,11,0,0,0,.35-2.62.68.68,0,0,0,.4.4C120,21.56,120.39,21.34,120.25,20.88Z"></path><path class="cls-6" d="M116.6.75c-.11-.08-.35,0-.27.18s.25.49.57.33S116.68.81,116.6.75Z"></path><path class="cls-6" d="M124.2.15c-2.52.07-4.79.44-6.71.5h0l0,0c-.27-.2-.62,0-.36.24l.44.34c.26.2.62,0,.36-.24L117.8.91c.82,0,1.65-.11,2.5-.19-.15.07.06.25.32.2,0,0-.28.11-.25.35s.47.29.72.25.35-.48,0-.58c.13-.06.19-.22.08-.29l1.11-.11a.29.29,0,0,0,.17.49c.38.09.71,0,.79-.24s-.11-.22-.29-.3l1.24-.08C124.57.4,124.48.14,124.2.15Z"></path><path class="cls-6" d="M141.3,28.32c-.53-.08-.92-.38-.87-.68s.51-.52,1-.32C142.58,27.79,141.82,28.39,141.3,28.32Z"></path><path class="cls-6" d="M134.59,11c-.32,0-.47.4-.07.4S135,11,134.59,11Z"></path><path class="cls-6" d="M118.94,14.9c.15-.07-.3-.41-.41-.47-.32-.15-.39.12-.23.24S118.81,15,118.94,14.9Z"></path><path class="cls-6" d="M57.39,26.47c-.19-.64-.82-1.28-1.16-1.26s-.56.38-1.14.24c-.12,0-.26-.07-.42-.11.52-.62-1-.77-1.13-.32l-.95-.29a.31.31,0,0,0-.19-.37.54.54,0,0,0-.62.09,1.19,1.19,0,0,0-.91-.11c-.54.23-.47.87.06,1.19a1.15,1.15,0,0,0,1.35-.19c.75.08,1.15.41,1.26.74-.59.25-.4.55.16.62C54.53,26.8,57.56,27.07,57.39,26.47Z"></path><path class="cls-6" d="M77.71,11.37a.65.65,0,0,0-.29-.72.44.44,0,0,0-.51.12c-.1.11-.39.84-.12,1.08s.7-.41.7-.41S77.7,11.46,77.71,11.37Z"></path><path class="cls-6" d="M75.64,10.61a.64.64,0,0,0-.74.65.39.39,0,0,0,.35.37.4.4,0,0,0,.31-.13C75.94,11.42,76.22,10.52,75.64,10.61Z"></path></g></g><g id="Whiskers_and_claws" data-name="Whiskers and claws"><path class="cls-2" d="M141.55,13.4A3.55,3.55,0,0,1,142.86,12c.11-.07.22.12.11.19a3.32,3.32,0,0,0-1.2,1.29C141.7,13.56,141.5,13.51,141.55,13.4Z"></path><path class="cls-2" d="M142.48,13.58a4.33,4.33,0,0,0,.64-1c.08-.18.26-.08.19.1a5.35,5.35,0,0,1-.63,1C142.55,13.85,142.36,13.72,142.48,13.58Z"></path><path class="cls-2" d="M150.32,29c-.68.36.42,1.24.62,1.14S150.92,28.7,150.32,29Z"></path><path class="cls-2" d="M154.89,29.87c-.71.33.35,1.1.58,1S155.41,29.63,154.89,29.87Z"></path></g></g><path class="cls-6" d="M4.86,76.19a5.37,5.37,0,0,1,2.61.65v1.33a4.51,4.51,0,0,0-2.62-.86A3.64,3.64,0,0,0,5,84.59a4.18,4.18,0,0,0,2.66-.93V85a5.23,5.23,0,0,1-2.72.71,4.76,4.76,0,1,1,0-9.52Z"></path><path class="cls-6" d="M14.26,76.19A4.76,4.76,0,1,1,9.56,81,4.65,4.65,0,0,1,14.26,76.19Zm0,8.4A3.64,3.64,0,1,0,10.77,81,3.5,3.5,0,0,0,14.26,84.59Z"></path><path class="cls-6" d="M21.27,85.57V76.33h1.15l3.87,5.13q.81,1.07,1.59,2.16h0c0-.81,0-1.74,0-2.63V76.33h1.18v9.24H27.91L24,80.44c-.53-.7-1.07-1.43-1.59-2.16l0,0c0,.8,0,1.73,0,2.63v4.64Z"></path><path class="cls-6" d="M31.82,83.66a4.86,4.86,0,0,0,2.8.94c1.09,0,1.87-.49,1.87-1.5,0-1.19-1.08-1.39-2.3-1.74s-2.56-.91-2.56-2.59,1.19-2.58,3-2.58a5.24,5.24,0,0,1,2.65.69v1.28a4.92,4.92,0,0,0-2.68-.86c-1,0-1.76.45-1.76,1.39,0,1.15,1.07,1.34,2.19,1.66,1.34.39,2.67.92,2.67,2.68s-1.24,2.68-3.09,2.68A5.73,5.73,0,0,1,31.82,85Z"></path><path class="cls-6" d="M40.32,76.33h5.34v1.1H41.54v2.81h3.61V81.3H41.54v3.18h4.24v1.09H40.32Z"></path><path class="cls-6" d="M48.51,76.33H51a5.22,5.22,0,0,1,2.58.46A2.35,2.35,0,0,1,54.87,79a2.46,2.46,0,0,1-1.19,2.17,2.87,2.87,0,0,1-1.06.38l3,4.07H54.11l-2.82-3.95H49.72v3.95H48.51Zm2.78,4.29a2.94,2.94,0,0,0,1.82-.42,1.37,1.37,0,0,0,.54-1.15,1.4,1.4,0,0,0-.75-1.31,4.07,4.07,0,0,0-2-.31h-1.2v3.19Z"></path><path class="cls-6" d="M56.55,76.33h1.31l2,5.18c.31.81.6,1.6.91,2.46h0c.3-.85.61-1.66.93-2.49l2-5.15H64.9l-3.54,9.24H60.12Z"></path><path class="cls-6" d="M68.6,76.33h1.16l3.81,9.24h-1.3l-1-2.57H67.08l-1,2.57H64.79Zm-1.1,5.61h3.32L70.06,80c-.29-.74-.6-1.53-.88-2.28h0c-.28.75-.59,1.53-.91,2.32Z"></path><path class="cls-6" d="M76.77,77.43h-3.1v-1.1h7.41v1.1H78v8.14H76.77Z"></path><path class="cls-6" d="M83.4,76.33h1.21v9.24H83.4Z"></path><path class="cls-6" d="M91.87,76.19A4.76,4.76,0,1,1,87.18,81,4.64,4.64,0,0,1,91.87,76.19Zm0,8.4A3.64,3.64,0,1,0,88.39,81,3.5,3.5,0,0,0,91.87,84.59Z"></path><path class="cls-6" d="M99.07,85.57V76.33h1.14l3.87,5.13c.54.71,1.07,1.43,1.6,2.16h0c0-.81,0-1.74,0-2.63V76.33h1.17v9.24H105.7l-3.86-5.13c-.54-.7-1.08-1.43-1.6-2.16l0,0c0,.8,0,1.73,0,2.63v4.64Z"></path><path class="cls-6" d="M115.39,76.33h5.46v1.1H116.6v3h3.74v1.06H116.6v4.09h-1.21Z"></path><path class="cls-6" d="M123.33,81.22V76.33h1.21v4.76a5.23,5.23,0,0,0,.36,2.39,2.28,2.28,0,0,0,2.2,1.11,2.24,2.24,0,0,0,2.17-1.11,5.16,5.16,0,0,0,.34-2.34V76.33h1.18v4.75a5.66,5.66,0,0,1-.62,3.19,4.09,4.09,0,0,1-6.23,0A5.63,5.63,0,0,1,123.33,81.22Z"></path><path class="cls-6" d="M133.7,85.57V76.33h1.15l3.87,5.13c.53.71,1.07,1.43,1.59,2.16h0c0-.81,0-1.74,0-2.63V76.33h1.18v9.24h-1.15l-3.87-5.13c-.54-.7-1.07-1.43-1.6-2.16l0,0c0,.8,0,1.73,0,2.63v4.64Z"></path><path class="cls-6" d="M144.5,76.33H147a6.23,6.23,0,0,1,3.27.75,4.38,4.38,0,0,1,2.07,3.83,4.48,4.48,0,0,1-1.84,3.73,6.37,6.37,0,0,1-3.8.93H144.5Zm2.43,8.15a4.87,4.87,0,0,0,2.74-.62,3.56,3.56,0,0,0,0-5.79,4.91,4.91,0,0,0-2.79-.64h-1.19v7Z"></path></svg> 